<svg width="384" height="247" viewBox="0 0 384 247" fill="none" xmlns="http://www.w3.org/2000/svg">
<g filter="url(#filter0_d_1_247)">
<rect x="44" y="30" width="276" height="139" rx="10" fill="white"/>
</g>
<rect x="68" y="56" width="40" height="40" rx="10" fill="#FFE1D8"/>
<path d="M96 84H80C78.8954 84 78 83.1046 78 82V69.913C78.0466 68.8425 78.9285 67.999 80 68H96C97.1046 68 98 68.8954 98 70V82C98 83.1046 97.1046 84 96 84ZM80 71.868V82H96V71.868L88 77.2L80 71.868ZM80.8 70L88 74.8L95.2 70H80.8Z" fill="#F75532"/>
<path d="M125.328 69V57.912H132.448V59.624H127.344V62.36H131.888V64.04H127.344V67.288H132.832V69H125.328ZM139.375 64.6C139.375 63.7253 139.263 63.096 139.039 62.712C138.826 62.3173 138.42 62.12 137.823 62.12C137.61 62.12 137.375 62.136 137.119 62.168C136.863 62.2 136.671 62.2267 136.543 62.248V69H134.607V60.904C134.98 60.7973 135.466 60.696 136.063 60.6C136.671 60.504 137.311 60.456 137.983 60.456C138.559 60.456 139.028 60.5307 139.391 60.68C139.764 60.8293 140.074 61.0267 140.319 61.272C140.436 61.1867 140.586 61.096 140.767 61C140.948 60.904 141.151 60.8187 141.375 60.744C141.599 60.6587 141.834 60.5893 142.079 60.536C142.335 60.4827 142.591 60.456 142.847 60.456C143.498 60.456 144.031 60.552 144.447 60.744C144.874 60.9253 145.204 61.1867 145.439 61.528C145.684 61.8587 145.85 62.264 145.935 62.744C146.031 63.2133 146.079 63.7307 146.079 64.296V69H144.143V64.6C144.143 63.7253 144.036 63.096 143.823 62.712C143.61 62.3173 143.199 62.12 142.591 62.12C142.282 62.12 141.988 62.1733 141.711 62.28C141.434 62.376 141.226 62.472 141.087 62.568C141.172 62.8347 141.231 63.1173 141.263 63.416C141.295 63.7147 141.311 64.0347 141.311 64.376V69H139.375V64.6ZM151.395 67.64C151.992 67.64 152.445 67.608 152.755 67.544V65.4C152.648 65.368 152.493 65.336 152.291 65.304C152.088 65.272 151.864 65.256 151.619 65.256C151.405 65.256 151.187 65.272 150.963 65.304C150.749 65.336 150.552 65.3947 150.371 65.48C150.2 65.5653 150.061 65.688 149.955 65.848C149.848 65.9973 149.795 66.1893 149.795 66.424C149.795 66.8827 149.939 67.2027 150.227 67.384C150.515 67.5547 150.904 67.64 151.395 67.64ZM151.235 60.424C151.875 60.424 152.413 60.504 152.851 60.664C153.288 60.824 153.635 61.048 153.891 61.336C154.157 61.624 154.344 61.976 154.451 62.392C154.568 62.7973 154.627 63.2453 154.627 63.736V68.808C154.328 68.872 153.875 68.9467 153.267 69.032C152.669 69.128 151.992 69.176 151.235 69.176C150.733 69.176 150.275 69.128 149.859 69.032C149.443 68.936 149.085 68.7813 148.787 68.568C148.499 68.3547 148.269 68.0773 148.099 67.736C147.939 67.3947 147.859 66.9733 147.859 66.472C147.859 65.992 147.949 65.5867 148.131 65.256C148.323 64.9253 148.579 64.6587 148.899 64.456C149.219 64.2427 149.587 64.0933 150.003 64.008C150.429 63.912 150.872 63.864 151.331 63.864C151.544 63.864 151.768 63.88 152.003 63.912C152.237 63.9333 152.488 63.976 152.755 64.04V63.72C152.755 63.496 152.728 63.2827 152.675 63.08C152.621 62.8773 152.525 62.7013 152.387 62.552C152.259 62.392 152.083 62.2693 151.859 62.184C151.645 62.0987 151.373 62.056 151.043 62.056C150.595 62.056 150.184 62.088 149.811 62.152C149.437 62.216 149.133 62.2907 148.899 62.376L148.659 60.808C148.904 60.7227 149.261 60.6373 149.731 60.552C150.2 60.4667 150.701 60.424 151.235 60.424ZM158.95 69H157.014V60.632H158.95V69ZM159.158 58.184C159.158 58.5467 159.04 58.8347 158.806 59.048C158.571 59.2613 158.294 59.368 157.974 59.368C157.643 59.368 157.36 59.2613 157.126 59.048C156.891 58.8347 156.774 58.5467 156.774 58.184C156.774 57.8107 156.891 57.5173 157.126 57.304C157.36 57.0907 157.643 56.984 157.974 56.984C158.294 56.984 158.571 57.0907 158.806 57.304C159.04 57.5173 159.158 57.8107 159.158 58.184ZM164.332 69.16C163.756 69.1493 163.276 69.0853 162.892 68.968C162.518 68.8507 162.22 68.6853 161.996 68.472C161.772 68.248 161.612 67.976 161.516 67.656C161.43 67.3253 161.388 66.952 161.388 66.536V56.904L163.324 56.584V66.168C163.324 66.4027 163.34 66.6 163.372 66.76C163.414 66.92 163.484 67.0587 163.58 67.176C163.676 67.2827 163.804 67.368 163.964 67.432C164.134 67.4853 164.348 67.528 164.604 67.56L164.332 69.16Z" fill="#001F29"/>
<path d="M125.376 83.912H126.928V95H125.376V83.912ZM132.825 82.584C133.262 82.584 133.636 82.616 133.945 82.68C134.265 82.744 134.489 82.8027 134.617 82.856L134.345 84.136C134.217 84.072 134.036 84.0133 133.801 83.96C133.566 83.896 133.278 83.864 132.937 83.864C132.244 83.864 131.758 84.056 131.481 84.44C131.204 84.8133 131.065 85.32 131.065 85.96V86.68H134.265V87.928H131.065V95H129.577V85.928C129.577 84.8613 129.838 84.04 130.361 83.464C130.884 82.8773 131.705 82.584 132.825 82.584ZM138.476 96.552C138.593 96.6053 138.743 96.6533 138.924 96.696C139.116 96.7493 139.303 96.776 139.484 96.776C140.071 96.776 140.529 96.6427 140.86 96.376C141.191 96.12 141.489 95.6987 141.756 95.112C141.084 93.832 140.455 92.4773 139.868 91.048C139.292 89.608 138.812 88.152 138.428 86.68H140.028C140.145 87.16 140.284 87.6773 140.444 88.232C140.615 88.7867 140.801 89.3573 141.004 89.944C141.207 90.5307 141.425 91.1173 141.66 91.704C141.895 92.2907 142.14 92.856 142.396 93.4C142.801 92.28 143.153 91.1707 143.452 90.072C143.751 88.9733 144.033 87.8427 144.3 86.68H145.836C145.452 88.248 145.025 89.7573 144.556 91.208C144.087 92.648 143.58 93.9973 143.036 95.256C142.823 95.736 142.599 96.1467 142.364 96.488C142.14 96.84 141.889 97.128 141.612 97.352C141.335 97.576 141.02 97.7413 140.668 97.848C140.327 97.9547 139.937 98.008 139.5 98.008C139.383 98.008 139.26 97.9973 139.132 97.976C139.004 97.9653 138.876 97.944 138.748 97.912C138.631 97.8907 138.519 97.864 138.412 97.832C138.316 97.8 138.247 97.7733 138.204 97.752L138.476 96.552ZM154.749 90.84C154.749 91.5013 154.653 92.0987 154.461 92.632C154.269 93.1653 153.997 93.624 153.645 94.008C153.304 94.392 152.893 94.6907 152.413 94.904C151.933 95.1067 151.41 95.208 150.845 95.208C150.28 95.208 149.757 95.1067 149.277 94.904C148.797 94.6907 148.381 94.392 148.029 94.008C147.688 93.624 147.421 93.1653 147.229 92.632C147.037 92.0987 146.941 91.5013 146.941 90.84C146.941 90.1893 147.037 89.5973 147.229 89.064C147.421 88.52 147.688 88.056 148.029 87.672C148.381 87.288 148.797 86.9947 149.277 86.792C149.757 86.5787 150.28 86.472 150.845 86.472C151.41 86.472 151.933 86.5787 152.413 86.792C152.893 86.9947 153.304 87.288 153.645 87.672C153.997 88.056 154.269 88.52 154.461 89.064C154.653 89.5973 154.749 90.1893 154.749 90.84ZM153.197 90.84C153.197 89.9013 152.984 89.16 152.557 88.616C152.141 88.0613 151.57 87.784 150.845 87.784C150.12 87.784 149.544 88.0613 149.117 88.616C148.701 89.16 148.493 89.9013 148.493 90.84C148.493 91.7787 148.701 92.5253 149.117 93.08C149.544 93.624 150.12 93.896 150.845 93.896C151.57 93.896 152.141 93.624 152.557 93.08C152.984 92.5253 153.197 91.7787 153.197 90.84ZM163.467 94.76C163.125 94.8453 162.672 94.936 162.107 95.032C161.552 95.128 160.907 95.176 160.171 95.176C159.531 95.176 158.992 95.0853 158.555 94.904C158.117 94.712 157.765 94.4453 157.499 94.104C157.232 93.7627 157.04 93.3627 156.923 92.904C156.805 92.4347 156.747 91.9173 156.747 91.352V86.68H158.235V91.032C158.235 92.0453 158.395 92.7707 158.715 93.208C159.035 93.6453 159.573 93.864 160.331 93.864C160.491 93.864 160.656 93.8587 160.827 93.848C160.997 93.8373 161.157 93.8267 161.307 93.816C161.456 93.7947 161.589 93.7787 161.707 93.768C161.835 93.7467 161.925 93.7253 161.979 93.704V86.68H163.467V94.76ZM176.533 95C176.234 94.232 175.914 93.3573 175.573 92.376C175.242 91.384 174.938 90.3547 174.661 89.288C174.384 90.3547 174.08 91.384 173.749 92.376C173.418 93.3573 173.104 94.232 172.805 95H171.509C171.018 93.9013 170.538 92.648 170.069 91.24C169.6 89.832 169.157 88.312 168.741 86.68H170.341C170.448 87.1813 170.576 87.7253 170.725 88.312C170.874 88.8987 171.029 89.4853 171.189 90.072C171.36 90.6587 171.536 91.224 171.717 91.768C171.898 92.312 172.069 92.7867 172.229 93.192C172.41 92.6907 172.586 92.1627 172.757 91.608C172.938 91.0427 173.109 90.4773 173.269 89.912C173.429 89.336 173.578 88.776 173.717 88.232C173.866 87.6773 173.994 87.16 174.101 86.68H175.333C175.429 87.16 175.546 87.6773 175.685 88.232C175.824 88.776 175.973 89.336 176.133 89.912C176.293 90.4773 176.458 91.0427 176.629 91.608C176.81 92.1627 176.992 92.6907 177.173 93.192C177.333 92.7867 177.498 92.312 177.669 91.768C177.85 91.224 178.026 90.6587 178.197 90.072C178.368 89.4853 178.528 88.8987 178.677 88.312C178.826 87.7253 178.954 87.1813 179.061 86.68H180.597C180.181 88.312 179.738 89.832 179.269 91.24C178.8 92.648 178.32 93.9013 177.829 95H176.533ZM184.987 93.928C185.339 93.928 185.648 93.9227 185.915 93.912C186.192 93.8907 186.421 93.8587 186.603 93.816V91.336C186.496 91.2827 186.32 91.24 186.075 91.208C185.84 91.1653 185.552 91.144 185.211 91.144C184.987 91.144 184.747 91.16 184.491 91.192C184.245 91.224 184.016 91.2933 183.803 91.4C183.6 91.496 183.429 91.6347 183.291 91.816C183.152 91.9867 183.083 92.216 183.083 92.504C183.083 93.0373 183.253 93.4107 183.595 93.624C183.936 93.8267 184.4 93.928 184.987 93.928ZM184.859 86.472C185.456 86.472 185.957 86.552 186.363 86.712C186.779 86.8613 187.109 87.08 187.355 87.368C187.611 87.6453 187.792 87.9813 187.899 88.376C188.005 88.76 188.059 89.1867 188.059 89.656V94.856C187.931 94.8773 187.749 94.9093 187.515 94.952C187.291 94.984 187.035 95.016 186.747 95.048C186.459 95.08 186.144 95.1067 185.803 95.128C185.472 95.16 185.141 95.176 184.811 95.176C184.341 95.176 183.909 95.128 183.515 95.032C183.12 94.936 182.779 94.7867 182.491 94.584C182.203 94.3707 181.979 94.0933 181.819 93.752C181.659 93.4107 181.579 93 181.579 92.52C181.579 92.0613 181.669 91.6667 181.851 91.336C182.043 91.0053 182.299 90.7387 182.619 90.536C182.939 90.3333 183.312 90.184 183.739 90.088C184.165 89.992 184.613 89.944 185.083 89.944C185.232 89.944 185.387 89.9547 185.547 89.976C185.707 89.9867 185.856 90.008 185.995 90.04C186.144 90.0613 186.272 90.0827 186.379 90.104C186.485 90.1253 186.56 90.1413 186.603 90.152V89.736C186.603 89.4907 186.576 89.2507 186.523 89.016C186.469 88.7707 186.373 88.5573 186.235 88.376C186.096 88.184 185.904 88.0347 185.659 87.928C185.424 87.8107 185.115 87.752 184.731 87.752C184.24 87.752 183.808 87.7893 183.435 87.864C183.072 87.928 182.8 87.9973 182.619 88.072L182.443 86.84C182.635 86.7547 182.955 86.6747 183.403 86.6C183.851 86.5147 184.336 86.472 184.859 86.472ZM190.53 86.92C190.871 86.8347 191.325 86.744 191.89 86.648C192.455 86.552 193.106 86.504 193.842 86.504C194.503 86.504 195.053 86.6 195.49 86.792C195.927 86.9733 196.274 87.2347 196.53 87.576C196.797 87.9067 196.983 88.3067 197.09 88.776C197.197 89.2453 197.25 89.7627 197.25 90.328V95H195.762V90.648C195.762 90.136 195.725 89.6987 195.65 89.336C195.586 88.9733 195.474 88.68 195.314 88.456C195.154 88.232 194.941 88.072 194.674 87.976C194.407 87.8693 194.077 87.816 193.682 87.816C193.522 87.816 193.357 87.8213 193.186 87.832C193.015 87.8427 192.85 87.8587 192.69 87.88C192.541 87.8907 192.402 87.9067 192.274 87.928C192.157 87.9493 192.071 87.9653 192.018 87.976V95H190.53V86.92ZM201.11 86.68H204.262V87.928H201.11V91.768C201.11 92.184 201.142 92.5307 201.206 92.808C201.27 93.0747 201.366 93.288 201.494 93.448C201.622 93.5973 201.782 93.704 201.974 93.768C202.166 93.832 202.39 93.864 202.646 93.864C203.094 93.864 203.451 93.816 203.718 93.72C203.995 93.6133 204.187 93.5387 204.294 93.496L204.582 94.728C204.432 94.8027 204.171 94.8933 203.798 95C203.424 95.1173 202.998 95.176 202.518 95.176C201.952 95.176 201.483 95.1067 201.11 94.968C200.747 94.8187 200.454 94.6 200.23 94.312C200.006 94.024 199.846 93.672 199.75 93.256C199.664 92.8293 199.622 92.3387 199.622 91.784V84.36L201.11 84.104V86.68ZM216.482 94.76C216.141 94.8453 215.687 94.936 215.122 95.032C214.567 95.128 213.922 95.176 213.186 95.176C212.546 95.176 212.007 95.0853 211.57 94.904C211.133 94.712 210.781 94.4453 210.514 94.104C210.247 93.7627 210.055 93.3627 209.938 92.904C209.821 92.4347 209.762 91.9173 209.762 91.352V86.68H211.25V91.032C211.25 92.0453 211.41 92.7707 211.73 93.208C212.05 93.6453 212.589 93.864 213.346 93.864C213.506 93.864 213.671 93.8587 213.842 93.848C214.013 93.8373 214.173 93.8267 214.322 93.816C214.471 93.7947 214.605 93.7787 214.722 93.768C214.85 93.7467 214.941 93.7253 214.994 93.704V86.68H216.482V94.76ZM224.822 90.856C224.822 89.8853 224.582 89.1387 224.102 88.616C223.622 88.0933 222.982 87.832 222.182 87.832C221.734 87.832 221.382 87.848 221.126 87.88C220.88 87.912 220.683 87.9493 220.534 87.992V93.24C220.715 93.3893 220.976 93.5333 221.318 93.672C221.659 93.8107 222.032 93.88 222.438 93.88C222.864 93.88 223.227 93.8053 223.526 93.656C223.835 93.496 224.086 93.2827 224.278 93.016C224.47 92.7387 224.608 92.4187 224.694 92.056C224.779 91.6827 224.822 91.2827 224.822 90.856ZM226.374 90.856C226.374 91.4853 226.288 92.0667 226.118 92.6C225.958 93.1333 225.718 93.592 225.398 93.976C225.078 94.36 224.683 94.6587 224.214 94.872C223.755 95.0853 223.227 95.192 222.63 95.192C222.15 95.192 221.723 95.128 221.35 95C220.987 94.872 220.715 94.7493 220.534 94.632V97.96H219.046V86.936C219.398 86.8507 219.835 86.76 220.358 86.664C220.891 86.5573 221.504 86.504 222.198 86.504C222.838 86.504 223.414 86.6053 223.926 86.808C224.438 87.0107 224.875 87.2987 225.238 87.672C225.6 88.0453 225.878 88.504 226.07 89.048C226.272 89.5813 226.374 90.184 226.374 90.856ZM233.844 88.44C233.662 88.2907 233.401 88.1467 233.06 88.008C232.718 87.8693 232.345 87.8 231.94 87.8C231.513 87.8 231.145 87.88 230.836 88.04C230.537 88.1893 230.292 88.4027 230.1 88.68C229.908 88.9467 229.769 89.2667 229.684 89.64C229.598 90.0133 229.556 90.4133 229.556 90.84C229.556 91.8107 229.796 92.5627 230.276 93.096C230.756 93.6187 231.396 93.88 232.196 93.88C232.601 93.88 232.937 93.864 233.204 93.832C233.481 93.7893 233.694 93.7467 233.844 93.704V88.44ZM233.844 82.84L235.332 82.584V94.76C234.99 94.856 234.553 94.952 234.02 95.048C233.486 95.144 232.873 95.192 232.18 95.192C231.54 95.192 230.964 95.0907 230.452 94.888C229.94 94.6853 229.502 94.3973 229.14 94.024C228.777 93.6507 228.494 93.1973 228.292 92.664C228.1 92.12 228.004 91.512 228.004 90.84C228.004 90.2 228.084 89.6133 228.243 89.08C228.414 88.5467 228.66 88.088 228.98 87.704C229.3 87.32 229.689 87.0213 230.148 86.808C230.617 86.5947 231.15 86.488 231.748 86.488C232.228 86.488 232.649 86.552 233.012 86.68C233.385 86.808 233.662 86.9307 233.844 87.048V82.84ZM240.705 93.928C241.057 93.928 241.367 93.9227 241.633 93.912C241.911 93.8907 242.14 93.8587 242.321 93.816V91.336C242.215 91.2827 242.039 91.24 241.793 91.208C241.559 91.1653 241.271 91.144 240.929 91.144C240.705 91.144 240.465 91.16 240.209 91.192C239.964 91.224 239.735 91.2933 239.521 91.4C239.319 91.496 239.148 91.6347 239.009 91.816C238.871 91.9867 238.801 92.216 238.801 92.504C238.801 93.0373 238.972 93.4107 239.313 93.624C239.655 93.8267 240.119 93.928 240.705 93.928ZM240.577 86.472C241.175 86.472 241.676 86.552 242.081 86.712C242.497 86.8613 242.828 87.08 243.073 87.368C243.329 87.6453 243.511 87.9813 243.617 88.376C243.724 88.76 243.777 89.1867 243.777 89.656V94.856C243.649 94.8773 243.468 94.9093 243.233 94.952C243.009 94.984 242.753 95.016 242.465 95.048C242.177 95.08 241.863 95.1067 241.521 95.128C241.191 95.16 240.86 95.176 240.529 95.176C240.06 95.176 239.628 95.128 239.233 95.032C238.839 94.936 238.497 94.7867 238.209 94.584C237.921 94.3707 237.697 94.0933 237.537 93.752C237.377 93.4107 237.297 93 237.297 92.52C237.297 92.0613 237.388 91.6667 237.569 91.336C237.761 91.0053 238.017 90.7387 238.337 90.536C238.657 90.3333 239.031 90.184 239.457 90.088C239.884 89.992 240.332 89.944 240.801 89.944C240.951 89.944 241.105 89.9547 241.265 89.976C241.425 89.9867 241.575 90.008 241.713 90.04C241.863 90.0613 241.991 90.0827 242.097 90.104C242.204 90.1253 242.279 90.1413 242.321 90.152V89.736C242.321 89.4907 242.295 89.2507 242.241 89.016C242.188 88.7707 242.092 88.5573 241.953 88.376C241.815 88.184 241.623 88.0347 241.377 87.928C241.143 87.8107 240.833 87.752 240.449 87.752C239.959 87.752 239.527 87.7893 239.153 87.864C238.791 87.928 238.519 87.9973 238.337 88.072L238.161 86.84C238.353 86.7547 238.673 86.6747 239.121 86.6C239.569 86.5147 240.055 86.472 240.577 86.472ZM247.641 86.68H250.793V87.928H247.641V91.768C247.641 92.184 247.673 92.5307 247.737 92.808C247.801 93.0747 247.897 93.288 248.025 93.448C248.153 93.5973 248.313 93.704 248.505 93.768C248.697 93.832 248.921 93.864 249.177 93.864C249.625 93.864 249.982 93.816 250.249 93.72C250.526 93.6133 250.718 93.5387 250.825 93.496L251.113 94.728C250.963 94.8027 250.702 94.8933 250.329 95C249.955 95.1173 249.529 95.176 249.049 95.176C248.483 95.176 248.014 95.1067 247.641 94.968C247.278 94.8187 246.985 94.6 246.761 94.312C246.537 94.024 246.377 93.672 246.281 93.256C246.195 92.8293 246.153 92.3387 246.153 91.784V84.36L247.641 84.104V86.68ZM252.066 90.856C252.066 90.12 252.173 89.48 252.386 88.936C252.599 88.3813 252.882 87.9227 253.234 87.56C253.586 87.1973 253.991 86.9253 254.45 86.744C254.909 86.5627 255.378 86.472 255.858 86.472C256.978 86.472 257.837 86.824 258.434 87.528C259.031 88.2213 259.33 89.2827 259.33 90.712C259.33 90.776 259.33 90.8613 259.33 90.968C259.33 91.064 259.325 91.1547 259.314 91.24H253.618C253.682 92.104 253.933 92.76 254.37 93.208C254.807 93.656 255.49 93.88 256.418 93.88C256.941 93.88 257.378 93.8373 257.73 93.752C258.093 93.656 258.365 93.5653 258.546 93.48L258.754 94.728C258.573 94.824 258.253 94.9253 257.794 95.032C257.346 95.1387 256.834 95.192 256.258 95.192C255.533 95.192 254.903 95.0853 254.37 94.872C253.847 94.648 253.415 94.344 253.074 93.96C252.733 93.576 252.477 93.1227 252.306 92.6C252.146 92.0667 252.066 91.4853 252.066 90.856ZM257.778 90.04C257.789 89.368 257.618 88.8187 257.266 88.392C256.925 87.9547 256.45 87.736 255.842 87.736C255.501 87.736 255.197 87.8053 254.93 87.944C254.674 88.072 254.455 88.2427 254.274 88.456C254.093 88.6693 253.949 88.9147 253.842 89.192C253.746 89.4693 253.682 89.752 253.65 90.04H257.778Z" fill="#B9C0C1"/>
<rect x="124" y="111" width="164" height="41" rx="10" fill="#F75532"/>
<path d="M169.952 136.896C171.573 136.896 172.384 136.341 172.384 135.232C172.384 134.891 172.309 134.603 172.16 134.368C172.021 134.123 171.829 133.915 171.584 133.744C171.339 133.563 171.056 133.408 170.736 133.28C170.427 133.152 170.096 133.024 169.744 132.896C169.339 132.757 168.955 132.603 168.592 132.432C168.229 132.251 167.915 132.043 167.648 131.808C167.381 131.563 167.168 131.275 167.008 130.944C166.859 130.613 166.784 130.213 166.784 129.744C166.784 128.773 167.115 128.016 167.776 127.472C168.437 126.928 169.349 126.656 170.512 126.656C171.184 126.656 171.792 126.731 172.336 126.88C172.891 127.019 173.296 127.173 173.552 127.344L173.056 128.608C172.832 128.469 172.496 128.336 172.048 128.208C171.611 128.069 171.099 128 170.512 128C170.213 128 169.936 128.032 169.68 128.096C169.424 128.16 169.2 128.256 169.008 128.384C168.816 128.512 168.661 128.677 168.544 128.88C168.437 129.072 168.384 129.301 168.384 129.568C168.384 129.867 168.443 130.117 168.56 130.32C168.677 130.523 168.843 130.704 169.056 130.864C169.269 131.013 169.515 131.152 169.792 131.28C170.08 131.408 170.395 131.536 170.736 131.664C171.216 131.856 171.653 132.048 172.048 132.24C172.453 132.432 172.8 132.661 173.088 132.928C173.387 133.195 173.616 133.515 173.776 133.888C173.936 134.251 174.016 134.693 174.016 135.216C174.016 136.187 173.659 136.933 172.944 137.456C172.24 137.979 171.243 138.24 169.952 138.24C169.515 138.24 169.109 138.208 168.736 138.144C168.373 138.091 168.048 138.027 167.76 137.952C167.472 137.867 167.221 137.781 167.008 137.696C166.805 137.6 166.645 137.52 166.528 137.456L166.992 136.176C167.237 136.315 167.611 136.469 168.112 136.64C168.613 136.811 169.227 136.896 169.952 136.896ZM175.332 133.856C175.332 133.12 175.438 132.48 175.652 131.936C175.865 131.381 176.148 130.923 176.5 130.56C176.852 130.197 177.257 129.925 177.716 129.744C178.174 129.563 178.644 129.472 179.124 129.472C180.244 129.472 181.102 129.824 181.7 130.528C182.297 131.221 182.596 132.283 182.596 133.712C182.596 133.776 182.596 133.861 182.596 133.968C182.596 134.064 182.59 134.155 182.58 134.24H176.884C176.948 135.104 177.198 135.76 177.636 136.208C178.073 136.656 178.756 136.88 179.684 136.88C180.206 136.88 180.644 136.837 180.996 136.752C181.358 136.656 181.63 136.565 181.812 136.48L182.02 137.728C181.838 137.824 181.518 137.925 181.06 138.032C180.612 138.139 180.1 138.192 179.524 138.192C178.798 138.192 178.169 138.085 177.636 137.872C177.113 137.648 176.681 137.344 176.34 136.96C175.998 136.576 175.742 136.123 175.572 135.6C175.412 135.067 175.332 134.485 175.332 133.856ZM181.044 133.04C181.054 132.368 180.884 131.819 180.532 131.392C180.19 130.955 179.716 130.736 179.108 130.736C178.766 130.736 178.462 130.805 178.196 130.944C177.94 131.072 177.721 131.243 177.54 131.456C177.358 131.669 177.214 131.915 177.108 132.192C177.012 132.469 176.948 132.752 176.916 133.04H181.044ZM184.733 129.92C185.074 129.835 185.528 129.744 186.093 129.648C186.658 129.552 187.309 129.504 188.045 129.504C188.706 129.504 189.256 129.6 189.693 129.792C190.13 129.973 190.477 130.235 190.733 130.576C191 130.907 191.186 131.307 191.293 131.776C191.4 132.245 191.453 132.763 191.453 133.328V138H189.965V133.648C189.965 133.136 189.928 132.699 189.853 132.336C189.789 131.973 189.677 131.68 189.517 131.456C189.357 131.232 189.144 131.072 188.877 130.976C188.61 130.869 188.28 130.816 187.885 130.816C187.725 130.816 187.56 130.821 187.389 130.832C187.218 130.843 187.053 130.859 186.893 130.88C186.744 130.891 186.605 130.907 186.477 130.928C186.36 130.949 186.274 130.965 186.221 130.976V138H184.733V129.92ZM199.297 131.44C199.115 131.291 198.854 131.147 198.513 131.008C198.171 130.869 197.798 130.8 197.393 130.8C196.966 130.8 196.598 130.88 196.289 131.04C195.99 131.189 195.745 131.403 195.553 131.68C195.361 131.947 195.222 132.267 195.137 132.64C195.051 133.013 195.009 133.413 195.009 133.84C195.009 134.811 195.249 135.563 195.729 136.096C196.209 136.619 196.849 136.88 197.649 136.88C198.054 136.88 198.39 136.864 198.657 136.832C198.934 136.789 199.147 136.747 199.297 136.704V131.44ZM199.297 125.84L200.785 125.584V137.76C200.443 137.856 200.006 137.952 199.473 138.048C198.939 138.144 198.326 138.192 197.633 138.192C196.993 138.192 196.417 138.091 195.905 137.888C195.393 137.685 194.955 137.397 194.593 137.024C194.23 136.651 193.947 136.197 193.745 135.664C193.553 135.12 193.457 134.512 193.457 133.84C193.457 133.2 193.537 132.613 193.697 132.08C193.867 131.547 194.113 131.088 194.433 130.704C194.753 130.32 195.142 130.021 195.601 129.808C196.07 129.595 196.603 129.488 197.201 129.488C197.681 129.488 198.102 129.552 198.465 129.68C198.838 129.808 199.115 129.931 199.297 130.048V125.84ZM207.142 138V126.912H213.91V128.24H208.694V131.536H213.334V132.832H208.694V136.672H214.31V138H207.142ZM216.186 129.92C216.528 129.835 216.976 129.744 217.53 129.648C218.096 129.552 218.746 129.504 219.482 129.504C220.016 129.504 220.464 129.579 220.826 129.728C221.189 129.867 221.493 130.075 221.738 130.352C221.813 130.299 221.93 130.224 222.09 130.128C222.25 130.032 222.448 129.941 222.682 129.856C222.917 129.76 223.178 129.68 223.466 129.616C223.754 129.541 224.064 129.504 224.394 129.504C225.034 129.504 225.557 129.6 225.962 129.792C226.368 129.973 226.682 130.235 226.906 130.576C227.141 130.917 227.296 131.323 227.37 131.792C227.456 132.261 227.498 132.773 227.498 133.328V138H226.01V133.648C226.01 133.157 225.984 132.736 225.93 132.384C225.888 132.032 225.797 131.739 225.658 131.504C225.53 131.269 225.349 131.099 225.114 130.992C224.89 130.875 224.597 130.816 224.234 130.816C223.733 130.816 223.317 130.885 222.986 131.024C222.666 131.152 222.448 131.269 222.33 131.376C222.416 131.653 222.48 131.957 222.522 132.288C222.565 132.619 222.586 132.965 222.586 133.328V138H221.098V133.648C221.098 133.157 221.072 132.736 221.018 132.384C220.965 132.032 220.869 131.739 220.73 131.504C220.602 131.269 220.421 131.099 220.186 130.992C219.962 130.875 219.674 130.816 219.322 130.816C219.173 130.816 219.013 130.821 218.842 130.832C218.672 130.843 218.506 130.859 218.346 130.88C218.197 130.891 218.058 130.907 217.93 130.928C217.802 130.949 217.717 130.965 217.674 130.976V138H216.186V129.92ZM232.784 136.928C233.136 136.928 233.445 136.923 233.712 136.912C233.989 136.891 234.218 136.859 234.4 136.816V134.336C234.293 134.283 234.117 134.24 233.872 134.208C233.637 134.165 233.349 134.144 233.008 134.144C232.784 134.144 232.544 134.16 232.288 134.192C232.042 134.224 231.813 134.293 231.6 134.4C231.397 134.496 231.226 134.635 231.088 134.816C230.949 134.987 230.88 135.216 230.88 135.504C230.88 136.037 231.05 136.411 231.392 136.624C231.733 136.827 232.197 136.928 232.784 136.928ZM232.656 129.472C233.253 129.472 233.754 129.552 234.16 129.712C234.576 129.861 234.906 130.08 235.152 130.368C235.408 130.645 235.589 130.981 235.696 131.376C235.802 131.76 235.856 132.187 235.856 132.656V137.856C235.728 137.877 235.546 137.909 235.312 137.952C235.088 137.984 234.832 138.016 234.544 138.048C234.256 138.08 233.941 138.107 233.6 138.128C233.269 138.16 232.938 138.176 232.608 138.176C232.138 138.176 231.706 138.128 231.312 138.032C230.917 137.936 230.576 137.787 230.288 137.584C230 137.371 229.776 137.093 229.616 136.752C229.456 136.411 229.376 136 229.376 135.52C229.376 135.061 229.466 134.667 229.648 134.336C229.84 134.005 230.096 133.739 230.416 133.536C230.736 133.333 231.109 133.184 231.536 133.088C231.962 132.992 232.41 132.944 232.88 132.944C233.029 132.944 233.184 132.955 233.344 132.976C233.504 132.987 233.653 133.008 233.792 133.04C233.941 133.061 234.069 133.083 234.176 133.104C234.282 133.125 234.357 133.141 234.4 133.152V132.736C234.4 132.491 234.373 132.251 234.32 132.016C234.266 131.771 234.17 131.557 234.032 131.376C233.893 131.184 233.701 131.035 233.456 130.928C233.221 130.811 232.912 130.752 232.528 130.752C232.037 130.752 231.605 130.789 231.232 130.864C230.869 130.928 230.597 130.997 230.416 131.072L230.24 129.84C230.432 129.755 230.752 129.675 231.2 129.6C231.648 129.515 232.133 129.472 232.656 129.472ZM239.815 138H238.327V129.68H239.815V138ZM239.063 128.176C238.796 128.176 238.567 128.091 238.375 127.92C238.194 127.739 238.103 127.499 238.103 127.2C238.103 126.901 238.194 126.667 238.375 126.496C238.567 126.315 238.796 126.224 239.063 126.224C239.33 126.224 239.554 126.315 239.735 126.496C239.927 126.667 240.023 126.901 240.023 127.2C240.023 127.499 239.927 127.739 239.735 127.92C239.554 128.091 239.33 128.176 239.063 128.176ZM244.87 138.16C243.952 138.139 243.302 137.941 242.918 137.568C242.534 137.195 242.342 136.613 242.342 135.824V125.84L243.83 125.584V135.584C243.83 135.829 243.851 136.032 243.894 136.192C243.936 136.352 244.006 136.48 244.102 136.576C244.198 136.672 244.326 136.747 244.486 136.8C244.646 136.843 244.843 136.88 245.078 136.912L244.87 138.16Z" fill="white"/>
<defs>
<filter id="filter0_d_1_247" x="0" y="0" width="384" height="247" filterUnits="userSpaceOnUse" color-interpolation-filters="sRGB">
<feFlood flood-opacity="0" result="BackgroundImageFix"/>
<feColorMatrix in="SourceAlpha" type="matrix" values="0 0 0 0 0 0 0 0 0 0 0 0 0 0 0 0 0 0 127 0" result="hardAlpha"/>
<feOffset dx="10" dy="24"/>
<feGaussianBlur stdDeviation="27"/>
<feComposite in2="hardAlpha" operator="out"/>
<feColorMatrix type="matrix" values="0 0 0 0 0 0 0 0 0 0 0 0 0 0 0 0 0 0 0.06 0"/>
<feBlend mode="normal" in2="BackgroundImageFix" result="effect1_dropShadow_1_247"/>
<feBlend mode="normal" in="SourceGraphic" in2="effect1_dropShadow_1_247" result="shape"/>
</filter>
</defs>
</svg>
