<svg width="384" height="247" viewBox="0 0 384 247" fill="none" xmlns="http://www.w3.org/2000/svg">
<g filter="url(#filter0_d_1_226)">
<rect x="44" y="30" width="276" height="139" rx="10" fill="white"/>
</g>
<rect x="68" y="56" width="40" height="40" rx="10" fill="#FFE1D8"/>
<path d="M85.108 86.092L78 83.721V67.613L84.892 69.913L91.923 65.892L98 68.323V84.477L92.077 82.107L85.109 86.092H85.108ZM80 70.392V82.279L84 83.612V71.72L80 70.392ZM90 69.292L86 71.58V83.28L90 80.992V69.292ZM92.077 68.106L92 68.152V79.923L96 81.523V69.676L92.077 68.106Z" fill="#F75532"/>
<path d="M130.512 59.432C129.371 59.432 128.496 59.7893 127.888 60.504C127.291 61.208 126.992 62.1893 126.992 63.448C126.992 64.0453 127.061 64.5947 127.2 65.096C127.349 65.5867 127.563 66.008 127.84 66.36C128.128 66.712 128.48 66.9893 128.896 67.192C129.323 67.384 129.819 67.48 130.384 67.48C130.736 67.48 131.04 67.4693 131.296 67.448C131.552 67.416 131.755 67.3787 131.904 67.336V63.352H133.92V68.68C133.643 68.7867 133.173 68.904 132.512 69.032C131.851 69.16 131.088 69.224 130.224 69.224C129.424 69.224 128.693 69.096 128.032 68.84C127.371 68.584 126.805 68.2107 126.336 67.72C125.877 67.2293 125.52 66.6267 125.264 65.912C125.008 65.1973 124.88 64.376 124.88 63.448C124.88 62.52 125.019 61.6987 125.296 60.984C125.584 60.2693 125.973 59.6667 126.464 59.176C126.955 58.6747 127.531 58.296 128.192 58.04C128.853 57.784 129.557 57.656 130.304 57.656C130.816 57.656 131.269 57.6933 131.664 57.768C132.069 57.832 132.416 57.9067 132.704 57.992C132.992 58.0773 133.227 58.168 133.408 58.264C133.6 58.36 133.733 58.4293 133.808 58.472L133.2 60.12C132.88 59.928 132.48 59.768 132 59.64C131.531 59.5013 131.035 59.432 130.512 59.432ZM143.722 64.808C143.722 65.4693 143.626 66.072 143.434 66.616C143.242 67.16 142.97 67.624 142.618 68.008C142.266 68.392 141.839 68.6907 141.338 68.904C140.847 69.1173 140.303 69.224 139.706 69.224C139.109 69.224 138.565 69.1173 138.074 68.904C137.583 68.6907 137.162 68.392 136.81 68.008C136.458 67.624 136.181 67.16 135.978 66.616C135.786 66.072 135.69 65.4693 135.69 64.808C135.69 64.1467 135.786 63.5493 135.978 63.016C136.181 62.472 136.458 62.008 136.81 61.624C137.173 61.24 137.599 60.9467 138.09 60.744C138.581 60.5307 139.119 60.424 139.706 60.424C140.293 60.424 140.831 60.5307 141.322 60.744C141.823 60.9467 142.25 61.24 142.602 61.624C142.954 62.008 143.226 62.472 143.418 63.016C143.621 63.5493 143.722 64.1467 143.722 64.808ZM141.738 64.808C141.738 63.976 141.557 63.32 141.194 62.84C140.842 62.3493 140.346 62.104 139.706 62.104C139.066 62.104 138.565 62.3493 138.202 62.84C137.85 63.32 137.674 63.976 137.674 64.808C137.674 65.6507 137.85 66.3173 138.202 66.808C138.565 67.2987 139.066 67.544 139.706 67.544C140.346 67.544 140.842 67.2987 141.194 66.808C141.557 66.3173 141.738 65.6507 141.738 64.808ZM149.355 58.424L151.291 58.104V60.632H154.267V62.248H151.291V65.656C151.291 66.328 151.397 66.808 151.611 67.096C151.824 67.384 152.187 67.528 152.699 67.528C153.051 67.528 153.36 67.4907 153.627 67.416C153.904 67.3413 154.123 67.272 154.283 67.208L154.603 68.744C154.379 68.84 154.085 68.936 153.723 69.032C153.36 69.1387 152.933 69.192 152.443 69.192C151.845 69.192 151.344 69.112 150.939 68.952C150.544 68.792 150.229 68.5627 149.995 68.264C149.76 67.9547 149.595 67.5867 149.499 67.16C149.403 66.7227 149.355 66.2267 149.355 65.672V58.424ZM163.519 64.808C163.519 65.4693 163.423 66.072 163.231 66.616C163.039 67.16 162.767 67.624 162.415 68.008C162.063 68.392 161.636 68.6907 161.135 68.904C160.644 69.1173 160.1 69.224 159.503 69.224C158.905 69.224 158.361 69.1173 157.871 68.904C157.38 68.6907 156.959 68.392 156.607 68.008C156.255 67.624 155.977 67.16 155.775 66.616C155.583 66.072 155.487 65.4693 155.487 64.808C155.487 64.1467 155.583 63.5493 155.775 63.016C155.977 62.472 156.255 62.008 156.607 61.624C156.969 61.24 157.396 60.9467 157.887 60.744C158.377 60.5307 158.916 60.424 159.503 60.424C160.089 60.424 160.628 60.5307 161.119 60.744C161.62 60.9467 162.047 61.24 162.399 61.624C162.751 62.008 163.023 62.472 163.215 63.016C163.417 63.5493 163.519 64.1467 163.519 64.808ZM161.535 64.808C161.535 63.976 161.353 63.32 160.991 62.84C160.639 62.3493 160.143 62.104 159.503 62.104C158.863 62.104 158.361 62.3493 157.999 62.84C157.647 63.32 157.471 63.976 157.471 64.808C157.471 65.6507 157.647 66.3173 157.999 66.808C158.361 67.2987 158.863 67.544 159.503 67.544C160.143 67.544 160.639 67.2987 160.991 66.808C161.353 66.3173 161.535 65.6507 161.535 64.808ZM176.816 69C176.453 68.392 176.048 67.7413 175.6 67.048C175.152 66.344 174.688 65.64 174.208 64.936C173.728 64.2213 173.237 63.5333 172.736 62.872C172.245 62.2 171.776 61.5973 171.328 61.064V69H169.344V57.912H170.992C171.418 58.36 171.877 58.8933 172.368 59.512C172.858 60.12 173.349 60.7547 173.84 61.416C174.341 62.0773 174.821 62.744 175.28 63.416C175.749 64.0773 176.165 64.696 176.528 65.272V57.912H178.528V69H176.816ZM180.627 64.856C180.627 64.12 180.734 63.4747 180.947 62.92C181.171 62.3653 181.465 61.9067 181.827 61.544C182.19 61.1707 182.606 60.8933 183.075 60.712C183.545 60.52 184.025 60.424 184.515 60.424C185.667 60.424 186.563 60.7813 187.203 61.496C187.854 62.2107 188.179 63.2773 188.179 64.696C188.179 64.8027 188.174 64.9253 188.163 65.064C188.163 65.192 188.158 65.3093 188.147 65.416H182.627C182.681 66.088 182.915 66.6107 183.331 66.984C183.758 67.3467 184.371 67.528 185.171 67.528C185.641 67.528 186.067 67.4853 186.451 67.4C186.846 67.3147 187.155 67.224 187.379 67.128L187.635 68.712C187.529 68.7653 187.379 68.824 187.187 68.888C187.006 68.9413 186.793 68.9893 186.547 69.032C186.313 69.0853 186.057 69.128 185.779 69.16C185.502 69.192 185.219 69.208 184.931 69.208C184.195 69.208 183.555 69.1013 183.011 68.888C182.467 68.664 182.019 68.36 181.667 67.976C181.315 67.5813 181.054 67.1227 180.883 66.6C180.713 66.0667 180.627 65.4853 180.627 64.856ZM186.243 63.992C186.243 63.7253 186.206 63.4747 186.131 63.24C186.057 62.9947 185.945 62.7867 185.795 62.616C185.657 62.4347 185.481 62.296 185.267 62.2C185.065 62.0933 184.819 62.04 184.531 62.04C184.233 62.04 183.971 62.0987 183.747 62.216C183.523 62.3227 183.331 62.4667 183.171 62.648C183.022 62.8293 182.905 63.0373 182.819 63.272C182.734 63.5067 182.675 63.7467 182.643 63.992H186.243ZM193.176 67.64C193.773 67.64 194.227 67.608 194.536 67.544V65.4C194.429 65.368 194.275 65.336 194.072 65.304C193.869 65.272 193.645 65.256 193.4 65.256C193.187 65.256 192.968 65.272 192.744 65.304C192.531 65.336 192.333 65.3947 192.152 65.48C191.981 65.5653 191.843 65.688 191.736 65.848C191.629 65.9973 191.576 66.1893 191.576 66.424C191.576 66.8827 191.72 67.2027 192.008 67.384C192.296 67.5547 192.685 67.64 193.176 67.64ZM193.016 60.424C193.656 60.424 194.195 60.504 194.632 60.664C195.069 60.824 195.416 61.048 195.672 61.336C195.939 61.624 196.125 61.976 196.232 62.392C196.349 62.7973 196.408 63.2453 196.408 63.736V68.808C196.109 68.872 195.656 68.9467 195.048 69.032C194.451 69.128 193.773 69.176 193.016 69.176C192.515 69.176 192.056 69.128 191.64 69.032C191.224 68.936 190.867 68.7813 190.568 68.568C190.28 68.3547 190.051 68.0773 189.88 67.736C189.72 67.3947 189.64 66.9733 189.64 66.472C189.64 65.992 189.731 65.5867 189.912 65.256C190.104 64.9253 190.36 64.6587 190.68 64.456C191 64.2427 191.368 64.0933 191.784 64.008C192.211 63.912 192.653 63.864 193.112 63.864C193.325 63.864 193.549 63.88 193.784 63.912C194.019 63.9333 194.269 63.976 194.536 64.04V63.72C194.536 63.496 194.509 63.2827 194.456 63.08C194.403 62.8773 194.307 62.7013 194.168 62.552C194.04 62.392 193.864 62.2693 193.64 62.184C193.427 62.0987 193.155 62.056 192.824 62.056C192.376 62.056 191.965 62.088 191.592 62.152C191.219 62.216 190.915 62.2907 190.68 62.376L190.44 60.808C190.685 60.7227 191.043 60.6373 191.512 60.552C191.981 60.4667 192.483 60.424 193.016 60.424ZM203.547 62.376C203.387 62.3227 203.163 62.2693 202.875 62.216C202.598 62.152 202.272 62.12 201.899 62.12C201.686 62.12 201.456 62.1413 201.211 62.184C200.976 62.2267 200.811 62.264 200.715 62.296V69H198.779V61.032C199.152 60.8933 199.616 60.7653 200.171 60.648C200.736 60.52 201.36 60.456 202.043 60.456C202.171 60.456 202.32 60.4667 202.491 60.488C202.662 60.4987 202.832 60.52 203.003 60.552C203.174 60.5733 203.339 60.6053 203.499 60.648C203.659 60.68 203.787 60.712 203.883 60.744L203.547 62.376ZM216.07 67.256V69H209.062V57.912H211.078V67.256H216.07ZM224.925 64.808C224.925 65.4693 224.829 66.072 224.637 66.616C224.445 67.16 224.173 67.624 223.821 68.008C223.469 68.392 223.042 68.6907 222.541 68.904C222.05 69.1173 221.506 69.224 220.909 69.224C220.312 69.224 219.768 69.1173 219.277 68.904C218.786 68.6907 218.365 68.392 218.013 68.008C217.661 67.624 217.384 67.16 217.181 66.616C216.989 66.072 216.893 65.4693 216.893 64.808C216.893 64.1467 216.989 63.5493 217.181 63.016C217.384 62.472 217.661 62.008 218.013 61.624C218.376 61.24 218.802 60.9467 219.293 60.744C219.784 60.5307 220.322 60.424 220.909 60.424C221.496 60.424 222.034 60.5307 222.525 60.744C223.026 60.9467 223.453 61.24 223.805 61.624C224.157 62.008 224.429 62.472 224.621 63.016C224.824 63.5493 224.925 64.1467 224.925 64.808ZM222.941 64.808C222.941 63.976 222.76 63.32 222.397 62.84C222.045 62.3493 221.549 62.104 220.909 62.104C220.269 62.104 219.768 62.3493 219.405 62.84C219.053 63.32 218.877 63.976 218.877 64.808C218.877 65.6507 219.053 66.3173 219.405 66.808C219.768 67.2987 220.269 67.544 220.909 67.544C221.549 67.544 222.045 67.2987 222.397 66.808C222.76 66.3173 222.941 65.6507 222.941 64.808ZM226.456 64.824C226.456 64.2053 226.552 63.6293 226.743 63.096C226.936 62.552 227.208 62.0827 227.56 61.688C227.922 61.2933 228.36 60.984 228.872 60.76C229.384 60.536 229.96 60.424 230.6 60.424C231.389 60.424 232.136 60.568 232.84 60.856L232.424 62.44C232.2 62.344 231.944 62.264 231.656 62.2C231.378 62.136 231.08 62.104 230.76 62.104C230.002 62.104 229.426 62.344 229.032 62.824C228.637 63.2933 228.44 63.96 228.44 64.824C228.44 65.656 228.626 66.3173 229 66.808C229.373 67.288 230.002 67.528 230.888 67.528C231.218 67.528 231.544 67.496 231.864 67.432C232.184 67.368 232.461 67.288 232.696 67.192L232.968 68.792C232.754 68.8987 232.429 68.9947 231.992 69.08C231.565 69.1653 231.122 69.208 230.664 69.208C229.949 69.208 229.325 69.1013 228.792 68.888C228.269 68.664 227.832 68.36 227.48 67.976C227.138 67.5813 226.882 67.1173 226.712 66.584C226.541 66.04 226.456 65.4533 226.456 64.824ZM237.41 67.64C238.008 67.64 238.461 67.608 238.77 67.544V65.4C238.664 65.368 238.509 65.336 238.306 65.304C238.104 65.272 237.88 65.256 237.634 65.256C237.421 65.256 237.202 65.272 236.978 65.304C236.765 65.336 236.568 65.3947 236.386 65.48C236.216 65.5653 236.077 65.688 235.97 65.848C235.864 65.9973 235.81 66.1893 235.81 66.424C235.81 66.8827 235.954 67.2027 236.242 67.384C236.53 67.5547 236.92 67.64 237.41 67.64ZM237.25 60.424C237.89 60.424 238.429 60.504 238.866 60.664C239.304 60.824 239.65 61.048 239.906 61.336C240.173 61.624 240.36 61.976 240.466 62.392C240.584 62.7973 240.642 63.2453 240.642 63.736V68.808C240.344 68.872 239.89 68.9467 239.282 69.032C238.685 69.128 238.008 69.176 237.25 69.176C236.749 69.176 236.29 69.128 235.874 69.032C235.458 68.936 235.101 68.7813 234.802 68.568C234.514 68.3547 234.285 68.0773 234.114 67.736C233.954 67.3947 233.874 66.9733 233.874 66.472C233.874 65.992 233.965 65.5867 234.146 65.256C234.338 64.9253 234.594 64.6587 234.914 64.456C235.234 64.2427 235.602 64.0933 236.018 64.008C236.445 63.912 236.888 63.864 237.346 63.864C237.56 63.864 237.784 63.88 238.018 63.912C238.253 63.9333 238.504 63.976 238.77 64.04V63.72C238.77 63.496 238.744 63.2827 238.69 63.08C238.637 62.8773 238.541 62.7013 238.402 62.552C238.274 62.392 238.098 62.2693 237.874 62.184C237.661 62.0987 237.389 62.056 237.058 62.056C236.61 62.056 236.2 62.088 235.826 62.152C235.453 62.216 235.149 62.2907 234.914 62.376L234.674 60.808C234.92 60.7227 235.277 60.6373 235.746 60.552C236.216 60.4667 236.717 60.424 237.25 60.424ZM242.917 58.424L244.853 58.104V60.632H247.829V62.248H244.853V65.656C244.853 66.328 244.96 66.808 245.173 67.096C245.387 67.384 245.749 67.528 246.261 67.528C246.613 67.528 246.923 67.4907 247.189 67.416C247.467 67.3413 247.685 67.272 247.845 67.208L248.165 68.744C247.941 68.84 247.648 68.936 247.285 69.032C246.923 69.1387 246.496 69.192 246.005 69.192C245.408 69.192 244.907 69.112 244.501 68.952C244.107 68.792 243.792 68.5627 243.557 68.264C243.323 67.9547 243.157 67.5867 243.061 67.16C242.965 66.7227 242.917 66.2267 242.917 65.672V58.424ZM251.653 69H249.717V60.632H251.653V69ZM251.861 58.184C251.861 58.5467 251.743 58.8347 251.509 59.048C251.274 59.2613 250.997 59.368 250.677 59.368C250.346 59.368 250.063 59.2613 249.829 59.048C249.594 58.8347 249.477 58.5467 249.477 58.184C249.477 57.8107 249.594 57.5173 249.829 57.304C250.063 57.0907 250.346 56.984 250.677 56.984C250.997 56.984 251.274 57.0907 251.509 57.304C251.743 57.5173 251.861 57.8107 251.861 58.184ZM261.691 64.808C261.691 65.4693 261.595 66.072 261.403 66.616C261.211 67.16 260.939 67.624 260.587 68.008C260.235 68.392 259.808 68.6907 259.307 68.904C258.816 69.1173 258.272 69.224 257.675 69.224C257.077 69.224 256.533 69.1173 256.043 68.904C255.552 68.6907 255.131 68.392 254.779 68.008C254.427 67.624 254.149 67.16 253.947 66.616C253.755 66.072 253.659 65.4693 253.659 64.808C253.659 64.1467 253.755 63.5493 253.947 63.016C254.149 62.472 254.427 62.008 254.779 61.624C255.141 61.24 255.568 60.9467 256.059 60.744C256.549 60.5307 257.088 60.424 257.675 60.424C258.261 60.424 258.8 60.5307 259.291 60.744C259.792 60.9467 260.219 61.24 260.571 61.624C260.923 62.008 261.195 62.472 261.387 63.016C261.589 63.5493 261.691 64.1467 261.691 64.808ZM259.707 64.808C259.707 63.976 259.525 63.32 259.163 62.84C258.811 62.3493 258.315 62.104 257.675 62.104C257.035 62.104 256.533 62.3493 256.171 62.84C255.819 63.32 255.643 63.976 255.643 64.808C255.643 65.6507 255.819 66.3173 256.171 66.808C256.533 67.2987 257.035 67.544 257.675 67.544C258.315 67.544 258.811 67.2987 259.163 66.808C259.525 66.3173 259.707 65.6507 259.707 64.808ZM263.685 60.904C264.058 60.7973 264.544 60.696 265.141 60.6C265.738 60.504 266.4 60.456 267.125 60.456C267.808 60.456 268.378 60.552 268.837 60.744C269.296 60.9253 269.658 61.1867 269.925 61.528C270.202 61.8587 270.394 62.264 270.501 62.744C270.618 63.2133 270.677 63.7307 270.677 64.296V69H268.741V64.6C268.741 64.152 268.709 63.7733 268.645 63.464C268.592 63.144 268.496 62.888 268.357 62.696C268.229 62.4933 268.048 62.3493 267.813 62.264C267.589 62.168 267.312 62.12 266.981 62.12C266.736 62.12 266.48 62.136 266.213 62.168C265.946 62.2 265.749 62.2267 265.621 62.248V69H263.685V60.904Z" fill="#001F29"/>
<path d="M128.016 95V90.552C127.28 89.4107 126.587 88.2853 125.936 87.176C125.285 86.0667 124.672 84.9787 124.096 83.912H125.92C126.325 84.7867 126.779 85.6773 127.28 86.584C127.781 87.48 128.299 88.344 128.832 89.176C129.355 88.344 129.867 87.48 130.368 86.584C130.869 85.6773 131.328 84.7867 131.744 83.912H133.472C132.896 84.9787 132.283 86.0667 131.632 87.176C130.981 88.2747 130.293 89.3893 129.568 90.52V95H128.016ZM141.405 90.84C141.405 91.5013 141.309 92.0987 141.117 92.632C140.925 93.1653 140.653 93.624 140.301 94.008C139.96 94.392 139.549 94.6907 139.069 94.904C138.589 95.1067 138.067 95.208 137.501 95.208C136.936 95.208 136.413 95.1067 135.933 94.904C135.453 94.6907 135.037 94.392 134.685 94.008C134.344 93.624 134.077 93.1653 133.885 92.632C133.693 92.0987 133.597 91.5013 133.597 90.84C133.597 90.1893 133.693 89.5973 133.885 89.064C134.077 88.52 134.344 88.056 134.685 87.672C135.037 87.288 135.453 86.9947 135.933 86.792C136.413 86.5787 136.936 86.472 137.501 86.472C138.067 86.472 138.589 86.5787 139.069 86.792C139.549 86.9947 139.96 87.288 140.301 87.672C140.653 88.056 140.925 88.52 141.117 89.064C141.309 89.5973 141.405 90.1893 141.405 90.84ZM139.853 90.84C139.853 89.9013 139.64 89.16 139.213 88.616C138.797 88.0613 138.227 87.784 137.501 87.784C136.776 87.784 136.2 88.0613 135.773 88.616C135.357 89.16 135.149 89.9013 135.149 90.84C135.149 91.7787 135.357 92.5253 135.773 93.08C136.2 93.624 136.776 93.896 137.501 93.896C138.227 93.896 138.797 93.624 139.213 93.08C139.64 92.5253 139.853 91.7787 139.853 90.84ZM150.123 94.76C149.781 94.8453 149.328 94.936 148.763 95.032C148.208 95.128 147.563 95.176 146.827 95.176C146.187 95.176 145.648 95.0853 145.211 94.904C144.773 94.712 144.421 94.4453 144.155 94.104C143.888 93.7627 143.696 93.3627 143.579 92.904C143.461 92.4347 143.403 91.9173 143.403 91.352V86.68H144.891V91.032C144.891 92.0453 145.051 92.7707 145.371 93.208C145.691 93.6453 146.229 93.864 146.987 93.864C147.147 93.864 147.312 93.8587 147.483 93.848C147.653 93.8373 147.813 93.8267 147.963 93.816C148.112 93.7947 148.245 93.7787 148.363 93.768C148.491 93.7467 148.581 93.7253 148.635 93.704V86.68H150.123V94.76ZM160.005 95.192C159.333 95.192 158.741 95.0853 158.229 94.872C157.728 94.6587 157.301 94.36 156.949 93.976C156.608 93.592 156.352 93.1387 156.181 92.616C156.011 92.0827 155.925 91.496 155.925 90.856C155.925 90.216 156.016 89.6293 156.197 89.096C156.389 88.5627 156.656 88.104 156.997 87.72C157.339 87.3253 157.755 87.0213 158.245 86.808C158.747 86.584 159.301 86.472 159.909 86.472C160.283 86.472 160.656 86.504 161.029 86.568C161.403 86.632 161.76 86.7333 162.101 86.872L161.765 88.136C161.541 88.0293 161.28 87.944 160.981 87.88C160.693 87.816 160.384 87.784 160.053 87.784C159.221 87.784 158.581 88.0453 158.133 88.568C157.696 89.0907 157.477 89.8533 157.477 90.856C157.477 91.304 157.525 91.7147 157.621 92.088C157.728 92.4613 157.888 92.7813 158.101 93.048C158.325 93.3147 158.608 93.5227 158.949 93.672C159.291 93.8107 159.707 93.88 160.197 93.88C160.592 93.88 160.949 93.8427 161.269 93.768C161.589 93.6933 161.84 93.6133 162.021 93.528L162.229 94.776C162.144 94.8293 162.021 94.8827 161.861 94.936C161.701 94.9787 161.52 95.016 161.317 95.048C161.115 95.0907 160.896 95.1227 160.661 95.144C160.437 95.176 160.219 95.192 160.005 95.192ZM166.643 93.928C166.995 93.928 167.304 93.9227 167.571 93.912C167.848 93.8907 168.078 93.8587 168.259 93.816V91.336C168.152 91.2827 167.976 91.24 167.731 91.208C167.496 91.1653 167.208 91.144 166.867 91.144C166.643 91.144 166.403 91.16 166.147 91.192C165.902 91.224 165.672 91.2933 165.459 91.4C165.256 91.496 165.086 91.6347 164.947 91.816C164.808 91.9867 164.739 92.216 164.739 92.504C164.739 93.0373 164.91 93.4107 165.251 93.624C165.592 93.8267 166.056 93.928 166.643 93.928ZM166.515 86.472C167.112 86.472 167.614 86.552 168.019 86.712C168.435 86.8613 168.766 87.08 169.011 87.368C169.267 87.6453 169.448 87.9813 169.555 88.376C169.662 88.76 169.715 89.1867 169.715 89.656V94.856C169.587 94.8773 169.406 94.9093 169.171 94.952C168.947 94.984 168.691 95.016 168.403 95.048C168.115 95.08 167.8 95.1067 167.459 95.128C167.128 95.16 166.798 95.176 166.467 95.176C165.998 95.176 165.566 95.128 165.171 95.032C164.776 94.936 164.435 94.7867 164.147 94.584C163.859 94.3707 163.635 94.0933 163.475 93.752C163.315 93.4107 163.235 93 163.235 92.52C163.235 92.0613 163.326 91.6667 163.507 91.336C163.699 91.0053 163.955 90.7387 164.275 90.536C164.595 90.3333 164.968 90.184 165.395 90.088C165.822 89.992 166.27 89.944 166.739 89.944C166.888 89.944 167.043 89.9547 167.203 89.976C167.363 89.9867 167.512 90.008 167.651 90.04C167.8 90.0613 167.928 90.0827 168.035 90.104C168.142 90.1253 168.216 90.1413 168.259 90.152V89.736C168.259 89.4907 168.232 89.2507 168.179 89.016C168.126 88.7707 168.03 88.5573 167.891 88.376C167.752 88.184 167.56 88.0347 167.315 87.928C167.08 87.8107 166.771 87.752 166.387 87.752C165.896 87.752 165.464 87.7893 165.091 87.864C164.728 87.928 164.456 87.9973 164.275 88.072L164.099 86.84C164.291 86.7547 164.611 86.6747 165.059 86.6C165.507 86.5147 165.992 86.472 166.515 86.472ZM172.186 86.92C172.528 86.8347 172.981 86.744 173.546 86.648C174.112 86.552 174.762 86.504 175.498 86.504C176.16 86.504 176.709 86.6 177.146 86.792C177.584 86.9733 177.93 87.2347 178.186 87.576C178.453 87.9067 178.64 88.3067 178.746 88.776C178.853 89.2453 178.906 89.7627 178.906 90.328V95H177.418V90.648C177.418 90.136 177.381 89.6987 177.306 89.336C177.242 88.9733 177.13 88.68 176.97 88.456C176.81 88.232 176.597 88.072 176.33 87.976C176.064 87.8693 175.733 87.816 175.338 87.816C175.178 87.816 175.013 87.8213 174.842 87.832C174.672 87.8427 174.506 87.8587 174.346 87.88C174.197 87.8907 174.058 87.9067 173.93 87.928C173.813 87.9493 173.728 87.9653 173.674 87.976V95H172.186V86.92ZM191.701 94.76C191.36 94.8453 190.906 94.936 190.341 95.032C189.786 95.128 189.141 95.176 188.405 95.176C187.765 95.176 187.226 95.0853 186.789 94.904C186.352 94.712 186 94.4453 185.733 94.104C185.466 93.7627 185.274 93.3627 185.157 92.904C185.04 92.4347 184.981 91.9173 184.981 91.352V86.68H186.469V91.032C186.469 92.0453 186.629 92.7707 186.949 93.208C187.269 93.6453 187.808 93.864 188.565 93.864C188.725 93.864 188.89 93.8587 189.061 93.848C189.232 93.8373 189.392 93.8267 189.541 93.816C189.69 93.7947 189.824 93.7787 189.941 93.768C190.069 93.7467 190.16 93.7253 190.213 93.704V86.68H191.701V94.76ZM196.2 93.928C196.808 93.928 197.256 93.848 197.544 93.688C197.843 93.528 197.992 93.272 197.992 92.92C197.992 92.5573 197.848 92.2693 197.56 92.056C197.272 91.8427 196.798 91.6027 196.136 91.336C195.816 91.208 195.507 91.08 195.208 90.952C194.92 90.8133 194.67 90.6533 194.456 90.472C194.243 90.2907 194.072 90.072 193.944 89.816C193.816 89.56 193.752 89.2453 193.752 88.872C193.752 88.136 194.024 87.5547 194.568 87.128C195.112 86.6907 195.854 86.472 196.792 86.472C197.027 86.472 197.262 86.488 197.496 86.52C197.731 86.5413 197.95 86.5733 198.152 86.616C198.355 86.648 198.531 86.6853 198.68 86.728C198.84 86.7707 198.963 86.808 199.048 86.84L198.776 88.12C198.616 88.0347 198.366 87.9493 198.024 87.864C197.683 87.768 197.272 87.72 196.792 87.72C196.376 87.72 196.014 87.8053 195.704 87.976C195.395 88.136 195.24 88.392 195.24 88.744C195.24 88.9253 195.272 89.0853 195.336 89.224C195.411 89.3627 195.518 89.4907 195.656 89.608C195.806 89.7147 195.987 89.816 196.2 89.912C196.414 90.008 196.67 90.1093 196.968 90.216C197.363 90.3653 197.715 90.5147 198.024 90.664C198.334 90.8027 198.595 90.968 198.808 91.16C199.032 91.352 199.203 91.5867 199.32 91.864C199.438 92.1307 199.496 92.4613 199.496 92.856C199.496 93.624 199.208 94.2053 198.632 94.6C198.067 94.9947 197.256 95.192 196.2 95.192C195.464 95.192 194.888 95.128 194.472 95C194.056 94.8827 193.774 94.792 193.624 94.728L193.896 93.448C194.067 93.512 194.339 93.608 194.712 93.736C195.086 93.864 195.582 93.928 196.2 93.928ZM200.941 90.856C200.941 90.12 201.048 89.48 201.261 88.936C201.474 88.3813 201.757 87.9227 202.109 87.56C202.461 87.1973 202.866 86.9253 203.325 86.744C203.784 86.5627 204.253 86.472 204.733 86.472C205.853 86.472 206.712 86.824 207.309 87.528C207.906 88.2213 208.205 89.2827 208.205 90.712C208.205 90.776 208.205 90.8613 208.205 90.968C208.205 91.064 208.2 91.1547 208.189 91.24H202.493C202.557 92.104 202.808 92.76 203.245 93.208C203.682 93.656 204.365 93.88 205.293 93.88C205.816 93.88 206.253 93.8373 206.605 93.752C206.968 93.656 207.24 93.5653 207.421 93.48L207.629 94.728C207.448 94.824 207.128 94.9253 206.669 95.032C206.221 95.1387 205.709 95.192 205.133 95.192C204.408 95.192 203.778 95.0853 203.245 94.872C202.722 94.648 202.29 94.344 201.949 93.96C201.608 93.576 201.352 93.1227 201.181 92.6C201.021 92.0667 200.941 91.4853 200.941 90.856ZM206.653 90.04C206.664 89.368 206.493 88.8187 206.141 88.392C205.8 87.9547 205.325 87.736 204.717 87.736C204.376 87.736 204.072 87.8053 203.805 87.944C203.549 88.072 203.33 88.2427 203.149 88.456C202.968 88.6693 202.824 88.9147 202.717 89.192C202.621 89.4693 202.557 89.752 202.525 90.04H206.653ZM213.582 90.856C213.582 90.12 213.688 89.48 213.902 88.936C214.115 88.3813 214.398 87.9227 214.75 87.56C215.102 87.1973 215.507 86.9253 215.966 86.744C216.424 86.5627 216.894 86.472 217.374 86.472C218.494 86.472 219.352 86.824 219.95 87.528C220.547 88.2213 220.846 89.2827 220.846 90.712C220.846 90.776 220.846 90.8613 220.846 90.968C220.846 91.064 220.84 91.1547 220.83 91.24H215.134C215.198 92.104 215.448 92.76 215.886 93.208C216.323 93.656 217.006 93.88 217.934 93.88C218.456 93.88 218.894 93.8373 219.246 93.752C219.608 93.656 219.88 93.5653 220.062 93.48L220.27 94.728C220.088 94.824 219.768 94.9253 219.31 95.032C218.862 95.1387 218.35 95.192 217.774 95.192C217.048 95.192 216.419 95.0853 215.886 94.872C215.363 94.648 214.931 94.344 214.59 93.96C214.248 93.576 213.992 93.1227 213.822 92.6C213.662 92.0667 213.582 91.4853 213.582 90.856ZM219.294 90.04C219.304 89.368 219.134 88.8187 218.782 88.392C218.44 87.9547 217.966 87.736 217.358 87.736C217.016 87.736 216.712 87.8053 216.446 87.944C216.19 88.072 215.971 88.2427 215.79 88.456C215.608 88.6693 215.464 88.9147 215.358 89.192C215.262 89.4693 215.198 89.752 215.166 90.04H219.294ZM222.983 86.92C223.324 86.8347 223.772 86.744 224.327 86.648C224.892 86.552 225.543 86.504 226.279 86.504C226.812 86.504 227.26 86.5787 227.623 86.728C227.986 86.8667 228.29 87.0747 228.535 87.352C228.61 87.2987 228.727 87.224 228.887 87.128C229.047 87.032 229.244 86.9413 229.479 86.856C229.714 86.76 229.975 86.68 230.263 86.616C230.551 86.5413 230.86 86.504 231.191 86.504C231.831 86.504 232.354 86.6 232.759 86.792C233.164 86.9733 233.479 87.2347 233.703 87.576C233.938 87.9173 234.092 88.3227 234.167 88.792C234.252 89.2613 234.295 89.7733 234.295 90.328V95H232.807V90.648C232.807 90.1573 232.78 89.736 232.727 89.384C232.684 89.032 232.594 88.7387 232.455 88.504C232.327 88.2693 232.146 88.0987 231.911 87.992C231.687 87.8747 231.394 87.816 231.031 87.816C230.53 87.816 230.114 87.8853 229.783 88.024C229.463 88.152 229.244 88.2693 229.127 88.376C229.212 88.6533 229.276 88.9573 229.319 89.288C229.362 89.6187 229.383 89.9653 229.383 90.328V95H227.895V90.648C227.895 90.1573 227.868 89.736 227.815 89.384C227.762 89.032 227.666 88.7387 227.527 88.504C227.399 88.2693 227.218 88.0987 226.983 87.992C226.759 87.8747 226.471 87.816 226.119 87.816C225.97 87.816 225.81 87.8213 225.639 87.832C225.468 87.8427 225.303 87.8587 225.143 87.88C224.994 87.8907 224.855 87.9067 224.727 87.928C224.599 87.9493 224.514 87.9653 224.471 87.976V95H222.983V86.92ZM236.3 90.856C236.3 90.12 236.407 89.48 236.62 88.936C236.834 88.3813 237.116 87.9227 237.468 87.56C237.82 87.1973 238.226 86.9253 238.684 86.744C239.143 86.5627 239.612 86.472 240.092 86.472C241.212 86.472 242.071 86.824 242.668 87.528C243.266 88.2213 243.564 89.2827 243.564 90.712C243.564 90.776 243.564 90.8613 243.564 90.968C243.564 91.064 243.559 91.1547 243.548 91.24H237.852C237.916 92.104 238.167 92.76 238.604 93.208C239.042 93.656 239.724 93.88 240.652 93.88C241.175 93.88 241.612 93.8373 241.964 93.752C242.327 93.656 242.599 93.5653 242.78 93.48L242.988 94.728C242.807 94.824 242.487 94.9253 242.028 95.032C241.58 95.1387 241.068 95.192 240.492 95.192C239.767 95.192 239.138 95.0853 238.604 94.872C238.082 94.648 237.65 94.344 237.308 93.96C236.967 93.576 236.711 93.1227 236.54 92.6C236.38 92.0667 236.3 91.4853 236.3 90.856ZM242.012 90.04C242.023 89.368 241.852 88.8187 241.5 88.392C241.159 87.9547 240.684 87.736 240.076 87.736C239.735 87.736 239.431 87.8053 239.164 87.944C238.908 88.072 238.69 88.2427 238.508 88.456C238.327 88.6693 238.183 88.9147 238.076 89.192C237.98 89.4693 237.916 89.752 237.884 90.04H242.012ZM248.774 86.504C248.902 86.504 249.046 86.5147 249.206 86.536C249.377 86.5467 249.542 86.568 249.702 86.6C249.862 86.6213 250.006 86.648 250.134 86.68C250.273 86.7013 250.374 86.7227 250.438 86.744L250.182 88.04C250.065 87.9973 249.867 87.9493 249.59 87.896C249.323 87.832 248.977 87.8 248.55 87.8C248.273 87.8 247.995 87.832 247.718 87.896C247.451 87.9493 247.275 87.9867 247.19 88.008V95H245.702V87.032C246.054 86.904 246.491 86.7867 247.014 86.68C247.537 86.5627 248.123 86.504 248.774 86.504ZM257.09 94.168C256.962 94.2533 256.711 94.3653 256.338 94.504C255.975 94.632 255.548 94.696 255.058 94.696C254.556 94.696 254.082 94.616 253.634 94.456C253.196 94.296 252.812 94.0507 252.482 93.72C252.151 93.3787 251.89 92.9573 251.698 92.456C251.506 91.9547 251.41 91.3573 251.41 90.664C251.41 90.056 251.5 89.5013 251.682 89C251.863 88.488 252.124 88.0507 252.466 87.688C252.818 87.3147 253.244 87.0267 253.746 86.824C254.247 86.6107 254.812 86.504 255.442 86.504C256.135 86.504 256.738 86.5573 257.25 86.664C257.772 86.76 258.21 86.8507 258.562 86.936V94.36C258.562 95.64 258.231 96.568 257.57 97.144C256.908 97.72 255.906 98.008 254.562 98.008C254.039 98.008 253.543 97.9653 253.074 97.88C252.615 97.7947 252.215 97.6933 251.874 97.576L252.146 96.28C252.444 96.3973 252.807 96.4987 253.234 96.584C253.671 96.68 254.124 96.728 254.594 96.728C255.479 96.728 256.114 96.552 256.498 96.2C256.892 95.848 257.09 95.288 257.09 94.52V94.168ZM257.074 87.992C256.924 87.9493 256.722 87.912 256.466 87.88C256.22 87.8373 255.884 87.816 255.458 87.816C254.658 87.816 254.039 88.0773 253.602 88.6C253.175 89.1227 252.962 89.816 252.962 90.68C252.962 91.16 253.02 91.5707 253.138 91.912C253.266 92.2533 253.431 92.536 253.634 92.76C253.847 92.984 254.087 93.1493 254.354 93.256C254.631 93.3627 254.914 93.416 255.202 93.416C255.596 93.416 255.959 93.3627 256.29 93.256C256.62 93.1387 256.882 93.0053 257.074 92.856V87.992ZM260.66 90.856C260.66 90.12 260.766 89.48 260.98 88.936C261.193 88.3813 261.476 87.9227 261.828 87.56C262.18 87.1973 262.585 86.9253 263.044 86.744C263.502 86.5627 263.972 86.472 264.452 86.472C265.572 86.472 266.43 86.824 267.028 87.528C267.625 88.2213 267.924 89.2827 267.924 90.712C267.924 90.776 267.924 90.8613 267.924 90.968C267.924 91.064 267.918 91.1547 267.908 91.24H262.212C262.276 92.104 262.526 92.76 262.964 93.208C263.401 93.656 264.084 93.88 265.012 93.88C265.534 93.88 265.972 93.8373 266.324 93.752C266.686 93.656 266.958 93.5653 267.14 93.48L267.348 94.728C267.166 94.824 266.846 94.9253 266.388 95.032C265.94 95.1387 265.428 95.192 264.852 95.192C264.126 95.192 263.497 95.0853 262.964 94.872C262.441 94.648 262.009 94.344 261.668 93.96C261.326 93.576 261.07 93.1227 260.9 92.6C260.74 92.0667 260.66 91.4853 260.66 90.856ZM266.372 90.04C266.382 89.368 266.212 88.8187 265.86 88.392C265.518 87.9547 265.044 87.736 264.436 87.736C264.094 87.736 263.79 87.8053 263.524 87.944C263.268 88.072 263.049 88.2427 262.868 88.456C262.686 88.6693 262.542 88.9147 262.436 89.192C262.34 89.4693 262.276 89.752 262.244 90.04H266.372ZM270.061 86.92C270.403 86.8347 270.856 86.744 271.421 86.648C271.987 86.552 272.637 86.504 273.373 86.504C274.035 86.504 274.584 86.6 275.021 86.792C275.459 86.9733 275.805 87.2347 276.061 87.576C276.328 87.9067 276.515 88.3067 276.621 88.776C276.728 89.2453 276.781 89.7627 276.781 90.328V95H275.293V90.648C275.293 90.136 275.256 89.6987 275.181 89.336C275.117 88.9733 275.005 88.68 274.845 88.456C274.685 88.232 274.472 88.072 274.205 87.976C273.939 87.8693 273.608 87.816 273.213 87.816C273.053 87.816 272.888 87.8213 272.717 87.832C272.547 87.8427 272.381 87.8587 272.221 87.88C272.072 87.8907 271.933 87.9067 271.805 87.928C271.688 87.9493 271.603 87.9653 271.549 87.976V95H270.061V86.92ZM282.865 95.192C282.193 95.192 281.601 95.0853 281.089 94.872C280.587 94.6587 280.161 94.36 279.809 93.976C279.467 93.592 279.211 93.1387 279.041 92.616C278.87 92.0827 278.785 91.496 278.785 90.856C278.785 90.216 278.875 89.6293 279.057 89.096C279.249 88.5627 279.515 88.104 279.857 87.72C280.198 87.3253 280.614 87.0213 281.105 86.808C281.606 86.584 282.161 86.472 282.769 86.472C283.142 86.472 283.515 86.504 283.889 86.568C284.262 86.632 284.619 86.7333 284.961 86.872L284.625 88.136C284.401 88.0293 284.139 87.944 283.841 87.88C283.553 87.816 283.243 87.784 282.913 87.784C282.081 87.784 281.441 88.0453 280.993 88.568C280.555 89.0907 280.337 89.8533 280.337 90.856C280.337 91.304 280.385 91.7147 280.481 92.088C280.587 92.4613 280.747 92.7813 280.961 93.048C281.185 93.3147 281.467 93.5227 281.809 93.672C282.15 93.8107 282.566 93.88 283.057 93.88C283.451 93.88 283.809 93.8427 284.129 93.768C284.449 93.6933 284.699 93.6133 284.881 93.528L285.089 94.776C285.003 94.8293 284.881 94.8827 284.721 94.936C284.561 94.9787 284.379 95.016 284.177 95.048C283.974 95.0907 283.755 95.1227 283.521 95.144C283.297 95.176 283.078 95.192 282.865 95.192ZM285.882 96.552C285.999 96.6053 286.149 96.6533 286.33 96.696C286.522 96.7493 286.709 96.776 286.89 96.776C287.477 96.776 287.935 96.6427 288.266 96.376C288.597 96.12 288.895 95.6987 289.162 95.112C288.49 93.832 287.861 92.4773 287.274 91.048C286.698 89.608 286.218 88.152 285.834 86.68H287.434C287.551 87.16 287.69 87.6773 287.85 88.232C288.021 88.7867 288.207 89.3573 288.41 89.944C288.613 90.5307 288.831 91.1173 289.066 91.704C289.301 92.2907 289.546 92.856 289.802 93.4C290.207 92.28 290.559 91.1707 290.858 90.072C291.157 88.9733 291.439 87.8427 291.706 86.68H293.242C292.858 88.248 292.431 89.7573 291.962 91.208C291.493 92.648 290.986 93.9973 290.442 95.256C290.229 95.736 290.005 96.1467 289.77 96.488C289.546 96.84 289.295 97.128 289.018 97.352C288.741 97.576 288.426 97.7413 288.074 97.848C287.733 97.9547 287.343 98.008 286.906 98.008C286.789 98.008 286.666 97.9973 286.538 97.976C286.41 97.9653 286.282 97.944 286.154 97.912C286.037 97.8907 285.925 97.864 285.818 97.832C285.722 97.8 285.653 97.7733 285.61 97.752L285.882 96.552Z" fill="#B9C0C1"/>
<rect x="124" y="111" width="164" height="41" rx="10" fill="#F75532"/>
<path d="M179.336 126.912C178.931 128.085 178.541 129.173 178.168 130.176C177.805 131.168 177.448 132.112 177.096 133.008C176.744 133.904 176.392 134.763 176.04 135.584C175.699 136.395 175.347 137.2 174.984 138H173.528C173.165 137.2 172.808 136.395 172.456 135.584C172.115 134.763 171.763 133.904 171.4 133.008C171.048 132.112 170.685 131.168 170.312 130.176C169.939 129.173 169.555 128.085 169.16 126.912H170.872C171.448 128.597 172.013 130.219 172.568 131.776C173.123 133.333 173.693 134.795 174.28 136.16C174.867 134.805 175.437 133.349 175.992 131.792C176.547 130.224 177.107 128.597 177.672 126.912H179.336ZM182.268 138H180.78V129.68H182.268V138ZM181.516 128.176C181.249 128.176 181.02 128.091 180.828 127.92C180.647 127.739 180.556 127.499 180.556 127.2C180.556 126.901 180.647 126.667 180.828 126.496C181.02 126.315 181.249 126.224 181.516 126.224C181.783 126.224 182.007 126.315 182.188 126.496C182.38 126.667 182.476 126.901 182.476 127.2C182.476 127.499 182.38 127.739 182.188 127.92C182.007 128.091 181.783 128.176 181.516 128.176ZM190.203 131.44C190.022 131.291 189.76 131.147 189.419 131.008C189.078 130.869 188.704 130.8 188.299 130.8C187.872 130.8 187.504 130.88 187.195 131.04C186.896 131.189 186.651 131.403 186.459 131.68C186.267 131.947 186.128 132.267 186.043 132.64C185.958 133.013 185.915 133.413 185.915 133.84C185.915 134.811 186.155 135.563 186.635 136.096C187.115 136.619 187.755 136.88 188.555 136.88C188.96 136.88 189.296 136.864 189.563 136.832C189.84 136.789 190.054 136.747 190.203 136.704V131.44ZM190.203 125.84L191.691 125.584V137.76C191.35 137.856 190.912 137.952 190.379 138.048C189.846 138.144 189.232 138.192 188.539 138.192C187.899 138.192 187.323 138.091 186.811 137.888C186.299 137.685 185.862 137.397 185.499 137.024C185.136 136.651 184.854 136.197 184.651 135.664C184.459 135.12 184.363 134.512 184.363 133.84C184.363 133.2 184.443 132.613 184.603 132.08C184.774 131.547 185.019 131.088 185.339 130.704C185.659 130.32 186.048 130.021 186.507 129.808C186.976 129.595 187.51 129.488 188.107 129.488C188.587 129.488 189.008 129.552 189.371 129.68C189.744 129.808 190.022 129.931 190.203 130.048V125.84ZM193.785 133.856C193.785 133.12 193.891 132.48 194.105 131.936C194.318 131.381 194.601 130.923 194.953 130.56C195.305 130.197 195.71 129.925 196.169 129.744C196.627 129.563 197.097 129.472 197.577 129.472C198.697 129.472 199.555 129.824 200.153 130.528C200.75 131.221 201.049 132.283 201.049 133.712C201.049 133.776 201.049 133.861 201.049 133.968C201.049 134.064 201.043 134.155 201.033 134.24H195.337C195.401 135.104 195.651 135.76 196.089 136.208C196.526 136.656 197.209 136.88 198.137 136.88C198.659 136.88 199.097 136.837 199.449 136.752C199.811 136.656 200.083 136.565 200.265 136.48L200.473 137.728C200.291 137.824 199.971 137.925 199.513 138.032C199.065 138.139 198.553 138.192 197.977 138.192C197.251 138.192 196.622 138.085 196.089 137.872C195.566 137.648 195.134 137.344 194.793 136.96C194.451 136.576 194.195 136.123 194.025 135.6C193.865 135.067 193.785 134.485 193.785 133.856ZM199.497 133.04C199.507 132.368 199.337 131.819 198.985 131.392C198.643 130.955 198.169 130.736 197.561 130.736C197.219 130.736 196.915 130.805 196.649 130.944C196.393 131.072 196.174 131.243 195.993 131.456C195.811 131.669 195.667 131.915 195.561 132.192C195.465 132.469 195.401 132.752 195.369 133.04H199.497ZM210.53 133.84C210.53 134.501 210.434 135.099 210.242 135.632C210.05 136.165 209.778 136.624 209.426 137.008C209.085 137.392 208.674 137.691 208.194 137.904C207.714 138.107 207.192 138.208 206.626 138.208C206.061 138.208 205.538 138.107 205.058 137.904C204.578 137.691 204.162 137.392 203.81 137.008C203.469 136.624 203.202 136.165 203.01 135.632C202.818 135.099 202.722 134.501 202.722 133.84C202.722 133.189 202.818 132.597 203.01 132.064C203.202 131.52 203.469 131.056 203.81 130.672C204.162 130.288 204.578 129.995 205.058 129.792C205.538 129.579 206.061 129.472 206.626 129.472C207.192 129.472 207.714 129.579 208.194 129.792C208.674 129.995 209.085 130.288 209.426 130.672C209.778 131.056 210.05 131.52 210.242 132.064C210.434 132.597 210.53 133.189 210.53 133.84ZM208.978 133.84C208.978 132.901 208.765 132.16 208.338 131.616C207.922 131.061 207.352 130.784 206.626 130.784C205.901 130.784 205.325 131.061 204.898 131.616C204.482 132.16 204.274 132.901 204.274 133.84C204.274 134.779 204.482 135.525 204.898 136.08C205.325 136.624 205.901 136.896 206.626 136.896C207.352 136.896 207.922 136.624 208.338 136.08C208.765 135.525 208.978 134.779 208.978 133.84ZM221.191 138.24C220.412 138.24 219.703 138.112 219.063 137.856C218.423 137.6 217.874 137.227 217.415 136.736C216.956 136.245 216.599 135.643 216.343 134.928C216.098 134.203 215.975 133.376 215.975 132.448C215.975 131.52 216.114 130.699 216.391 129.984C216.679 129.259 217.063 128.651 217.543 128.16C218.023 127.669 218.583 127.296 219.223 127.04C219.863 126.784 220.546 126.656 221.271 126.656C221.73 126.656 222.14 126.688 222.503 126.752C222.876 126.816 223.196 126.891 223.463 126.976C223.74 127.061 223.964 127.147 224.135 127.232C224.306 127.317 224.423 127.381 224.487 127.424L224.039 128.704C223.943 128.64 223.804 128.571 223.623 128.496C223.442 128.421 223.234 128.347 222.999 128.272C222.775 128.197 222.524 128.139 222.247 128.096C221.98 128.043 221.708 128.016 221.431 128.016C220.844 128.016 220.316 128.117 219.847 128.32C219.378 128.523 218.978 128.816 218.647 129.2C218.316 129.584 218.06 130.053 217.879 130.608C217.708 131.152 217.623 131.765 217.623 132.448C217.623 133.109 217.698 133.712 217.847 134.256C218.007 134.8 218.242 135.269 218.551 135.664C218.86 136.048 219.244 136.347 219.703 136.56C220.172 136.773 220.716 136.88 221.335 136.88C222.05 136.88 222.642 136.805 223.111 136.656C223.58 136.507 223.932 136.373 224.167 136.256L224.567 137.536C224.492 137.589 224.359 137.659 224.167 137.744C223.975 137.819 223.735 137.893 223.447 137.968C223.159 138.043 222.823 138.107 222.439 138.16C222.055 138.213 221.639 138.24 221.191 138.24ZM229.065 136.928C229.417 136.928 229.726 136.923 229.993 136.912C230.27 136.891 230.499 136.859 230.681 136.816V134.336C230.574 134.283 230.398 134.24 230.153 134.208C229.918 134.165 229.63 134.144 229.289 134.144C229.065 134.144 228.825 134.16 228.569 134.192C228.323 134.224 228.094 134.293 227.881 134.4C227.678 134.496 227.507 134.635 227.369 134.816C227.23 134.987 227.161 135.216 227.161 135.504C227.161 136.037 227.331 136.411 227.673 136.624C228.014 136.827 228.478 136.928 229.065 136.928ZM228.937 129.472C229.534 129.472 230.035 129.552 230.441 129.712C230.857 129.861 231.187 130.08 231.433 130.368C231.689 130.645 231.87 130.981 231.977 131.376C232.083 131.76 232.137 132.187 232.137 132.656V137.856C232.009 137.877 231.827 137.909 231.593 137.952C231.369 137.984 231.113 138.016 230.825 138.048C230.537 138.08 230.222 138.107 229.881 138.128C229.55 138.16 229.219 138.176 228.889 138.176C228.419 138.176 227.987 138.128 227.593 138.032C227.198 137.936 226.857 137.787 226.569 137.584C226.281 137.371 226.057 137.093 225.897 136.752C225.737 136.411 225.657 136 225.657 135.52C225.657 135.061 225.747 134.667 225.929 134.336C226.121 134.005 226.377 133.739 226.697 133.536C227.017 133.333 227.39 133.184 227.817 133.088C228.243 132.992 228.691 132.944 229.161 132.944C229.31 132.944 229.465 132.955 229.625 132.976C229.785 132.987 229.934 133.008 230.073 133.04C230.222 133.061 230.35 133.083 230.457 133.104C230.563 133.125 230.638 133.141 230.681 133.152V132.736C230.681 132.491 230.654 132.251 230.601 132.016C230.547 131.771 230.451 131.557 230.313 131.376C230.174 131.184 229.982 131.035 229.737 130.928C229.502 130.811 229.193 130.752 228.809 130.752C228.318 130.752 227.886 130.789 227.513 130.864C227.15 130.928 226.878 130.997 226.697 131.072L226.521 129.84C226.713 129.755 227.033 129.675 227.481 129.6C227.929 129.515 228.414 129.472 228.937 129.472ZM237.104 138.16C236.187 138.139 235.536 137.941 235.152 137.568C234.768 137.195 234.576 136.613 234.576 135.824V125.84L236.064 125.584V135.584C236.064 135.829 236.085 136.032 236.128 136.192C236.171 136.352 236.24 136.48 236.336 136.576C236.432 136.672 236.56 136.747 236.72 136.8C236.88 136.843 237.077 136.88 237.312 136.912L237.104 138.16ZM241.479 138.16C240.562 138.139 239.911 137.941 239.527 137.568C239.143 137.195 238.951 136.613 238.951 135.824V125.84L240.439 125.584V135.584C240.439 135.829 240.46 136.032 240.503 136.192C240.546 136.352 240.615 136.48 240.711 136.576C240.807 136.672 240.935 136.747 241.095 136.8C241.255 136.843 241.452 136.88 241.687 136.912L241.479 138.16Z" fill="white"/>
<defs>
<filter id="filter0_d_1_226" x="0" y="0" width="384" height="247" filterUnits="userSpaceOnUse" color-interpolation-filters="sRGB">
<feFlood flood-opacity="0" result="BackgroundImageFix"/>
<feColorMatrix in="SourceAlpha" type="matrix" values="0 0 0 0 0 0 0 0 0 0 0 0 0 0 0 0 0 0 127 0" result="hardAlpha"/>
<feOffset dx="10" dy="24"/>
<feGaussianBlur stdDeviation="27"/>
<feComposite in2="hardAlpha" operator="out"/>
<feColorMatrix type="matrix" values="0 0 0 0 0 0 0 0 0 0 0 0 0 0 0 0 0 0 0.06 0"/>
<feBlend mode="normal" in2="BackgroundImageFix" result="effect1_dropShadow_1_226"/>
<feBlend mode="normal" in="SourceGraphic" in2="effect1_dropShadow_1_226" result="shape"/>
</filter>
</defs>
</svg>
