<svg width="288" height="225" viewBox="0 0 288 225" fill="none" xmlns="http://www.w3.org/2000/svg">
<rect x="24" y="34" width="40" height="40" rx="10" fill="#FFE1D8"/>
<path d="M52 63H36C34.8954 63 34 62.1046 34 61V47C34 45.8954 34.8954 45 36 45H52C53.1046 45 54 45.8954 54 47V61C54 62.1046 53.1046 63 52 63ZM36 49V61H52V49H36ZM41.706 58.708L40.293 57.293L42.586 55L40.293 52.707L41.707 51.293L44 53.586L46.293 51.293L47.707 52.707L45.414 55L47.707 57.293L46.294 58.706L44 56.414L41.707 58.707L41.706 58.708Z" fill="#F75532"/>
<path d="M28.446 105.758C30.27 105.758 31.182 105.134 31.182 103.886C31.182 103.502 31.098 103.178 30.93 102.914C30.774 102.638 30.558 102.404 30.282 102.212C30.006 102.008 29.688 101.834 29.328 101.69C28.98 101.546 28.608 101.402 28.212 101.258C27.756 101.102 27.324 100.928 26.916 100.736C26.508 100.532 26.154 100.298 25.854 100.034C25.554 99.758 25.314 99.434 25.134 99.062C24.966 98.69 24.882 98.24 24.882 97.712C24.882 96.62 25.254 95.768 25.998 95.156C26.742 94.544 27.768 94.238 29.076 94.238C29.832 94.238 30.516 94.322 31.128 94.49C31.752 94.646 32.208 94.82 32.496 95.012L31.938 96.434C31.686 96.278 31.308 96.128 30.804 95.984C30.312 95.828 29.736 95.75 29.076 95.75C28.74 95.75 28.428 95.786 28.14 95.858C27.852 95.93 27.6 96.038 27.384 96.182C27.168 96.326 26.994 96.512 26.862 96.74C26.742 96.956 26.682 97.214 26.682 97.514C26.682 97.85 26.748 98.132 26.88 98.36C27.012 98.588 27.198 98.792 27.438 98.972C27.678 99.14 27.954 99.296 28.266 99.44C28.59 99.584 28.944 99.728 29.328 99.872C29.868 100.088 30.36 100.304 30.804 100.52C31.26 100.736 31.65 100.994 31.974 101.294C32.31 101.594 32.568 101.954 32.748 102.374C32.928 102.782 33.018 103.28 33.018 103.868C33.018 104.96 32.616 105.8 31.812 106.388C31.02 106.976 29.898 107.27 28.446 107.27C27.954 107.27 27.498 107.234 27.078 107.162C26.67 107.102 26.304 107.03 25.98 106.946C25.656 106.85 25.374 106.754 25.134 106.658C24.906 106.55 24.726 106.46 24.594 106.388L25.116 104.948C25.392 105.104 25.812 105.278 26.376 105.47C26.94 105.662 27.63 105.758 28.446 105.758ZM36.5861 97.64H40.1321V99.044H36.5861V103.364C36.5861 103.832 36.6221 104.222 36.6941 104.534C36.7661 104.834 36.8741 105.074 37.0181 105.254C37.1621 105.422 37.3421 105.542 37.5581 105.614C37.7741 105.686 38.0261 105.722 38.3141 105.722C38.8181 105.722 39.2201 105.668 39.5201 105.56C39.8321 105.44 40.0481 105.356 40.1681 105.308L40.4921 106.694C40.3241 106.778 40.0301 106.88 39.6101 107C39.1901 107.132 38.7101 107.198 38.1701 107.198C37.5341 107.198 37.0061 107.12 36.5861 106.964C36.1781 106.796 35.8481 106.55 35.5961 106.226C35.3441 105.902 35.1641 105.506 35.0561 105.038C34.9601 104.558 34.9121 104.006 34.9121 103.382V95.03L36.5861 94.742V97.64ZM50.2782 102.32C50.2782 103.064 50.1702 103.736 49.9542 104.336C49.7382 104.936 49.4322 105.452 49.0362 105.884C48.6522 106.316 48.1902 106.652 47.6502 106.892C47.1102 107.12 46.5222 107.234 45.8862 107.234C45.2502 107.234 44.6622 107.12 44.1222 106.892C43.5822 106.652 43.1142 106.316 42.7182 105.884C42.3342 105.452 42.0342 104.936 41.8182 104.336C41.6022 103.736 41.4942 103.064 41.4942 102.32C41.4942 101.588 41.6022 100.922 41.8182 100.322C42.0342 99.71 42.3342 99.188 42.7182 98.756C43.1142 98.324 43.5822 97.994 44.1222 97.766C44.6622 97.526 45.2502 97.406 45.8862 97.406C46.5222 97.406 47.1102 97.526 47.6502 97.766C48.1902 97.994 48.6522 98.324 49.0362 98.756C49.4322 99.188 49.7382 99.71 49.9542 100.322C50.1702 100.922 50.2782 101.588 50.2782 102.32ZM48.5322 102.32C48.5322 101.264 48.2922 100.43 47.8122 99.818C47.3442 99.194 46.7022 98.882 45.8862 98.882C45.0702 98.882 44.4222 99.194 43.9422 99.818C43.4742 100.43 43.2402 101.264 43.2402 102.32C43.2402 103.376 43.4742 104.216 43.9422 104.84C44.4222 105.452 45.0702 105.758 45.8862 105.758C46.7022 105.758 47.3442 105.452 47.8122 104.84C48.2922 104.216 48.5322 103.376 48.5322 102.32ZM59.1314 102.338C59.1314 101.246 58.8614 100.406 58.3214 99.818C57.7814 99.23 57.0614 98.936 56.1614 98.936C55.6574 98.936 55.2614 98.954 54.9734 98.99C54.6974 99.026 54.4754 99.068 54.3074 99.116V105.02C54.5114 105.188 54.8054 105.35 55.1894 105.506C55.5734 105.662 55.9934 105.74 56.4494 105.74C56.9294 105.74 57.3374 105.656 57.6734 105.488C58.0214 105.308 58.3034 105.068 58.5194 104.768C58.7354 104.456 58.8914 104.096 58.9874 103.688C59.0834 103.268 59.1314 102.818 59.1314 102.338ZM60.8774 102.338C60.8774 103.046 60.7814 103.7 60.5894 104.3C60.4094 104.9 60.1394 105.416 59.7794 105.848C59.4194 106.28 58.9754 106.616 58.4474 106.856C57.9314 107.096 57.3374 107.216 56.6654 107.216C56.1254 107.216 55.6454 107.144 55.2254 107C54.8174 106.856 54.5114 106.718 54.3074 106.586V110.33H52.6334V97.928C53.0294 97.832 53.5214 97.73 54.1094 97.622C54.7094 97.502 55.3994 97.442 56.1794 97.442C56.8994 97.442 57.5474 97.556 58.1234 97.784C58.6994 98.012 59.1914 98.336 59.5994 98.756C60.0074 99.176 60.3194 99.692 60.5354 100.304C60.7634 100.904 60.8774 101.582 60.8774 102.338ZM68.965 97.64H72.511V99.044H68.965V103.364C68.965 103.832 69.001 104.222 69.073 104.534C69.145 104.834 69.253 105.074 69.397 105.254C69.541 105.422 69.721 105.542 69.937 105.614C70.153 105.686 70.405 105.722 70.693 105.722C71.197 105.722 71.599 105.668 71.899 105.56C72.211 105.44 72.427 105.356 72.547 105.308L72.871 106.694C72.703 106.778 72.409 106.88 71.989 107C71.569 107.132 71.089 107.198 70.549 107.198C69.913 107.198 69.385 107.12 68.965 106.964C68.557 106.796 68.227 106.55 67.975 106.226C67.723 105.902 67.543 105.506 67.435 105.038C67.339 104.558 67.291 104.006 67.291 103.382V95.03L68.965 94.742V97.64ZM74.6412 107V93.32L76.3152 93.032V97.82C76.6272 97.7 76.9572 97.61 77.3052 97.55C77.6652 97.478 78.0192 97.442 78.3672 97.442C79.1112 97.442 79.7292 97.55 80.2212 97.766C80.7132 97.97 81.1032 98.264 81.3912 98.648C81.6912 99.02 81.9012 99.47 82.0212 99.998C82.1412 100.526 82.2012 101.108 82.2012 101.744V107H80.5272V102.104C80.5272 101.528 80.4852 101.036 80.4012 100.628C80.3292 100.22 80.2032 99.89 80.0232 99.638C79.8432 99.386 79.6032 99.206 79.3032 99.098C79.0032 98.978 78.6312 98.918 78.1872 98.918C78.0072 98.918 77.8212 98.93 77.6292 98.954C77.4372 98.978 77.2512 99.008 77.0712 99.044C76.9032 99.068 76.7472 99.098 76.6032 99.134C76.4712 99.17 76.3752 99.2 76.3152 99.224V107H74.6412ZM84.4024 102.338C84.4024 101.51 84.5224 100.79 84.7624 100.178C85.0024 99.554 85.3204 99.038 85.7164 98.63C86.1124 98.222 86.5684 97.916 87.0844 97.712C87.6004 97.508 88.1284 97.406 88.6684 97.406C89.9284 97.406 90.8944 97.802 91.5664 98.594C92.2384 99.374 92.5744 100.568 92.5744 102.176C92.5744 102.248 92.5744 102.344 92.5744 102.464C92.5744 102.572 92.5684 102.674 92.5564 102.77H86.1484C86.2204 103.742 86.5024 104.48 86.9944 104.984C87.4864 105.488 88.2544 105.74 89.2984 105.74C89.8864 105.74 90.3784 105.692 90.7744 105.596C91.1824 105.488 91.4884 105.386 91.6924 105.29L91.9264 106.694C91.7224 106.802 91.3624 106.916 90.8464 107.036C90.3424 107.156 89.7664 107.216 89.1184 107.216C88.3024 107.216 87.5944 107.096 86.9944 106.856C86.4064 106.604 85.9204 106.262 85.5364 105.83C85.1524 105.398 84.8644 104.888 84.6724 104.3C84.4924 103.7 84.4024 103.046 84.4024 102.338ZM90.8284 101.42C90.8404 100.664 90.6484 100.046 90.2524 99.566C89.8684 99.074 89.3344 98.828 88.6504 98.828C88.2664 98.828 87.9244 98.906 87.6244 99.062C87.3364 99.206 87.0904 99.398 86.8864 99.638C86.6824 99.878 86.5204 100.154 86.4004 100.466C86.2924 100.778 86.2204 101.096 86.1844 101.42H90.8284ZM101.323 105.794C102.007 105.794 102.511 105.704 102.835 105.524C103.171 105.344 103.339 105.056 103.339 104.66C103.339 104.252 103.177 103.928 102.853 103.688C102.529 103.448 101.995 103.178 101.251 102.878C100.891 102.734 100.543 102.59 100.207 102.446C99.8831 102.29 99.6011 102.11 99.3611 101.906C99.1211 101.702 98.9291 101.456 98.7851 101.168C98.6411 100.88 98.5691 100.526 98.5691 100.106C98.5691 99.278 98.8751 98.624 99.4871 98.144C100.099 97.652 100.933 97.406 101.989 97.406C102.253 97.406 102.517 97.424 102.781 97.46C103.045 97.484 103.291 97.52 103.519 97.568C103.747 97.604 103.945 97.646 104.113 97.694C104.293 97.742 104.431 97.784 104.527 97.82L104.221 99.26C104.041 99.164 103.759 99.068 103.375 98.972C102.991 98.864 102.529 98.81 101.989 98.81C101.521 98.81 101.113 98.906 100.765 99.098C100.417 99.278 100.243 99.566 100.243 99.962C100.243 100.166 100.279 100.346 100.351 100.502C100.435 100.658 100.555 100.802 100.711 100.934C100.879 101.054 101.083 101.168 101.323 101.276C101.563 101.384 101.851 101.498 102.187 101.618C102.631 101.786 103.027 101.954 103.375 102.122C103.723 102.278 104.017 102.464 104.257 102.68C104.509 102.896 104.701 103.16 104.833 103.472C104.965 103.772 105.031 104.144 105.031 104.588C105.031 105.452 104.707 106.106 104.059 106.55C103.423 106.994 102.511 107.216 101.323 107.216C100.495 107.216 99.8471 107.144 99.3791 107C98.9111 106.868 98.5931 106.766 98.4251 106.694L98.7311 105.254C98.9231 105.326 99.2291 105.434 99.6491 105.578C100.069 105.722 100.627 105.794 101.323 105.794ZM113.676 102.338C113.676 101.246 113.406 100.406 112.866 99.818C112.326 99.23 111.606 98.936 110.706 98.936C110.202 98.936 109.806 98.954 109.518 98.99C109.242 99.026 109.02 99.068 108.852 99.116V105.02C109.056 105.188 109.35 105.35 109.734 105.506C110.118 105.662 110.538 105.74 110.994 105.74C111.474 105.74 111.882 105.656 112.218 105.488C112.566 105.308 112.848 105.068 113.064 104.768C113.28 104.456 113.436 104.096 113.532 103.688C113.628 103.268 113.676 102.818 113.676 102.338ZM115.422 102.338C115.422 103.046 115.326 103.7 115.134 104.3C114.954 104.9 114.684 105.416 114.324 105.848C113.964 106.28 113.52 106.616 112.992 106.856C112.476 107.096 111.882 107.216 111.21 107.216C110.67 107.216 110.19 107.144 109.77 107C109.362 106.856 109.056 106.718 108.852 106.586V110.33H107.178V97.928C107.574 97.832 108.066 97.73 108.654 97.622C109.254 97.502 109.944 97.442 110.724 97.442C111.444 97.442 112.092 97.556 112.668 97.784C113.244 98.012 113.736 98.336 114.144 98.756C114.552 99.176 114.864 99.692 115.08 100.304C115.308 100.904 115.422 101.582 115.422 102.338ZM121.234 97.442C121.378 97.442 121.54 97.454 121.72 97.478C121.912 97.49 122.098 97.514 122.278 97.55C122.458 97.574 122.62 97.604 122.764 97.64C122.92 97.664 123.034 97.688 123.106 97.712L122.818 99.17C122.686 99.122 122.464 99.068 122.152 99.008C121.852 98.936 121.462 98.9 120.982 98.9C120.67 98.9 120.358 98.936 120.046 99.008C119.746 99.068 119.548 99.11 119.452 99.134V107H117.778V98.036C118.174 97.892 118.666 97.76 119.254 97.64C119.842 97.508 120.502 97.442 121.234 97.442ZM124.199 102.338C124.199 101.51 124.319 100.79 124.559 100.178C124.799 99.554 125.117 99.038 125.513 98.63C125.909 98.222 126.365 97.916 126.881 97.712C127.397 97.508 127.925 97.406 128.465 97.406C129.725 97.406 130.691 97.802 131.363 98.594C132.035 99.374 132.371 100.568 132.371 102.176C132.371 102.248 132.371 102.344 132.371 102.464C132.371 102.572 132.365 102.674 132.353 102.77H125.945C126.017 103.742 126.299 104.48 126.791 104.984C127.283 105.488 128.051 105.74 129.095 105.74C129.683 105.74 130.175 105.692 130.571 105.596C130.979 105.488 131.285 105.386 131.489 105.29L131.723 106.694C131.519 106.802 131.159 106.916 130.643 107.036C130.139 107.156 129.563 107.216 128.915 107.216C128.099 107.216 127.391 107.096 126.791 106.856C126.203 106.604 125.717 106.262 125.333 105.83C124.949 105.398 124.661 104.888 124.469 104.3C124.289 103.7 124.199 103.046 124.199 102.338ZM130.625 101.42C130.637 100.664 130.445 100.046 130.049 99.566C129.665 99.074 129.131 98.828 128.447 98.828C128.063 98.828 127.721 98.906 127.421 99.062C127.133 99.206 126.887 99.398 126.683 99.638C126.479 99.878 126.317 100.154 126.197 100.466C126.089 100.778 126.017 101.096 125.981 101.42H130.625ZM137.944 105.794C138.34 105.794 138.688 105.788 138.988 105.776C139.3 105.752 139.558 105.716 139.762 105.668V102.878C139.642 102.818 139.444 102.77 139.168 102.734C138.904 102.686 138.58 102.662 138.196 102.662C137.944 102.662 137.674 102.68 137.386 102.716C137.11 102.752 136.852 102.83 136.612 102.95C136.384 103.058 136.192 103.214 136.036 103.418C135.88 103.61 135.802 103.868 135.802 104.192C135.802 104.792 135.994 105.212 136.378 105.452C136.762 105.68 137.284 105.794 137.944 105.794ZM137.8 97.406C138.472 97.406 139.036 97.496 139.492 97.676C139.96 97.844 140.332 98.09 140.608 98.414C140.896 98.726 141.1 99.104 141.22 99.548C141.34 99.98 141.4 100.46 141.4 100.988V106.838C141.256 106.862 141.052 106.898 140.788 106.946C140.536 106.982 140.248 107.018 139.924 107.054C139.6 107.09 139.246 107.12 138.862 107.144C138.49 107.18 138.118 107.198 137.746 107.198C137.218 107.198 136.732 107.144 136.288 107.036C135.844 106.928 135.46 106.76 135.136 106.532C134.812 106.292 134.56 105.98 134.38 105.596C134.2 105.212 134.11 104.75 134.11 104.21C134.11 103.694 134.212 103.25 134.416 102.878C134.632 102.506 134.92 102.206 135.28 101.978C135.64 101.75 136.06 101.582 136.54 101.474C137.02 101.366 137.524 101.312 138.052 101.312C138.22 101.312 138.394 101.324 138.574 101.348C138.754 101.36 138.922 101.384 139.078 101.42C139.246 101.444 139.39 101.468 139.51 101.492C139.63 101.516 139.714 101.534 139.762 101.546V101.078C139.762 100.802 139.732 100.532 139.672 100.268C139.612 99.992 139.504 99.752 139.348 99.548C139.192 99.332 138.976 99.164 138.7 99.044C138.436 98.912 138.088 98.846 137.656 98.846C137.104 98.846 136.618 98.888 136.198 98.972C135.79 99.044 135.484 99.122 135.28 99.206L135.082 97.82C135.298 97.724 135.658 97.634 136.162 97.55C136.666 97.454 137.212 97.406 137.8 97.406ZM150.228 99.62C150.024 99.452 149.73 99.29 149.346 99.134C148.962 98.978 148.542 98.9 148.086 98.9C147.606 98.9 147.192 98.99 146.844 99.17C146.508 99.338 146.232 99.578 146.016 99.89C145.8 100.19 145.644 100.55 145.548 100.97C145.452 101.39 145.404 101.84 145.404 102.32C145.404 103.412 145.674 104.258 146.214 104.858C146.754 105.446 147.474 105.74 148.374 105.74C148.83 105.74 149.208 105.722 149.508 105.686C149.82 105.638 150.06 105.59 150.228 105.542V99.62ZM150.228 93.32L151.902 93.032V106.73C151.518 106.838 151.026 106.946 150.426 107.054C149.826 107.162 149.136 107.216 148.356 107.216C147.636 107.216 146.988 107.102 146.412 106.874C145.836 106.646 145.344 106.322 144.936 105.902C144.528 105.482 144.21 104.972 143.982 104.372C143.766 103.76 143.658 103.076 143.658 102.32C143.658 101.6 143.748 100.94 143.928 100.34C144.12 99.74 144.396 99.224 144.756 98.792C145.116 98.36 145.554 98.024 146.07 97.784C146.598 97.544 147.198 97.424 147.87 97.424C148.41 97.424 148.884 97.496 149.292 97.64C149.712 97.784 150.024 97.922 150.228 98.054V93.32ZM167.208 102.32C167.208 103.064 167.1 103.736 166.884 104.336C166.668 104.936 166.362 105.452 165.966 105.884C165.582 106.316 165.12 106.652 164.58 106.892C164.04 107.12 163.452 107.234 162.816 107.234C162.18 107.234 161.592 107.12 161.052 106.892C160.512 106.652 160.044 106.316 159.648 105.884C159.264 105.452 158.964 104.936 158.748 104.336C158.532 103.736 158.424 103.064 158.424 102.32C158.424 101.588 158.532 100.922 158.748 100.322C158.964 99.71 159.264 99.188 159.648 98.756C160.044 98.324 160.512 97.994 161.052 97.766C161.592 97.526 162.18 97.406 162.816 97.406C163.452 97.406 164.04 97.526 164.58 97.766C165.12 97.994 165.582 98.324 165.966 98.756C166.362 99.188 166.668 99.71 166.884 100.322C167.1 100.922 167.208 101.588 167.208 102.32ZM165.462 102.32C165.462 101.264 165.222 100.43 164.742 99.818C164.274 99.194 163.632 98.882 162.816 98.882C162 98.882 161.352 99.194 160.872 99.818C160.404 100.43 160.17 101.264 160.17 102.32C160.17 103.376 160.404 104.216 160.872 104.84C161.352 105.452 162 105.758 162.816 105.758C163.632 105.758 164.274 105.452 164.742 104.84C165.222 104.216 165.462 103.376 165.462 102.32ZM173.217 93.032C173.709 93.032 174.129 93.068 174.477 93.14C174.837 93.212 175.089 93.278 175.233 93.338L174.927 94.778C174.783 94.706 174.579 94.64 174.315 94.58C174.051 94.508 173.727 94.472 173.343 94.472C172.563 94.472 172.017 94.688 171.705 95.12C171.393 95.54 171.237 96.11 171.237 96.83V97.64H174.837V99.044H171.237V107H169.563V96.794C169.563 95.594 169.857 94.67 170.445 94.022C171.033 93.362 171.957 93.032 173.217 93.032ZM184.74 107.216C183.984 107.216 183.318 107.096 182.742 106.856C182.178 106.616 181.698 106.28 181.302 105.848C180.918 105.416 180.63 104.906 180.438 104.318C180.246 103.718 180.15 103.058 180.15 102.338C180.15 101.618 180.252 100.958 180.456 100.358C180.672 99.758 180.972 99.242 181.356 98.81C181.74 98.366 182.208 98.024 182.76 97.784C183.324 97.532 183.948 97.406 184.632 97.406C185.052 97.406 185.472 97.442 185.892 97.514C186.312 97.586 186.714 97.7 187.098 97.856L186.72 99.278C186.468 99.158 186.174 99.062 185.838 98.99C185.514 98.918 185.166 98.882 184.794 98.882C183.858 98.882 183.138 99.176 182.634 99.764C182.142 100.352 181.896 101.21 181.896 102.338C181.896 102.842 181.95 103.304 182.058 103.724C182.178 104.144 182.358 104.504 182.598 104.804C182.85 105.104 183.168 105.338 183.552 105.506C183.936 105.662 184.404 105.74 184.956 105.74C185.4 105.74 185.802 105.698 186.162 105.614C186.522 105.53 186.804 105.44 187.008 105.344L187.242 106.748C187.146 106.808 187.008 106.868 186.828 106.928C186.648 106.976 186.444 107.018 186.216 107.054C185.988 107.102 185.742 107.138 185.478 107.162C185.226 107.198 184.98 107.216 184.74 107.216ZM197.073 102.32C197.073 103.064 196.965 103.736 196.749 104.336C196.533 104.936 196.227 105.452 195.831 105.884C195.447 106.316 194.985 106.652 194.445 106.892C193.905 107.12 193.317 107.234 192.681 107.234C192.045 107.234 191.457 107.12 190.917 106.892C190.377 106.652 189.909 106.316 189.513 105.884C189.129 105.452 188.829 104.936 188.613 104.336C188.397 103.736 188.289 103.064 188.289 102.32C188.289 101.588 188.397 100.922 188.613 100.322C188.829 99.71 189.129 99.188 189.513 98.756C189.909 98.324 190.377 97.994 190.917 97.766C191.457 97.526 192.045 97.406 192.681 97.406C193.317 97.406 193.905 97.526 194.445 97.766C194.985 97.994 195.447 98.324 195.831 98.756C196.227 99.188 196.533 99.71 196.749 100.322C196.965 100.922 197.073 101.588 197.073 102.32ZM195.327 102.32C195.327 101.264 195.087 100.43 194.607 99.818C194.139 99.194 193.497 98.882 192.681 98.882C191.865 98.882 191.217 99.194 190.737 99.818C190.269 100.43 190.035 101.264 190.035 102.32C190.035 103.376 190.269 104.216 190.737 104.84C191.217 105.452 191.865 105.758 192.681 105.758C193.497 105.758 194.139 105.452 194.607 104.84C195.087 104.216 195.327 103.376 195.327 102.32ZM206.49 97.64C206.022 99.392 205.47 101.072 204.834 102.68C204.21 104.288 203.604 105.728 203.016 107H201.504C200.916 105.728 200.304 104.288 199.668 102.68C199.044 101.072 198.498 99.392 198.03 97.64H199.83C199.974 98.228 200.142 98.858 200.334 99.53C200.538 100.19 200.748 100.85 200.964 101.51C201.192 102.158 201.42 102.788 201.648 103.4C201.876 104.012 202.092 104.558 202.296 105.038C202.5 104.558 202.716 104.012 202.944 103.4C203.172 102.788 203.394 102.158 203.61 101.51C203.838 100.85 204.048 100.19 204.24 99.53C204.444 98.858 204.618 98.228 204.762 97.64H206.49ZM209.891 107H208.217V97.64H209.891V107ZM209.045 95.948C208.745 95.948 208.487 95.852 208.271 95.66C208.067 95.456 207.965 95.186 207.965 94.85C207.965 94.514 208.067 94.25 208.271 94.058C208.487 93.854 208.745 93.752 209.045 93.752C209.345 93.752 209.597 93.854 209.801 94.058C210.017 94.25 210.125 94.514 210.125 94.85C210.125 95.186 210.017 95.456 209.801 95.66C209.597 95.852 209.345 95.948 209.045 95.948ZM218.818 99.62C218.614 99.452 218.32 99.29 217.936 99.134C217.552 98.978 217.132 98.9 216.676 98.9C216.196 98.9 215.782 98.99 215.434 99.17C215.098 99.338 214.822 99.578 214.606 99.89C214.39 100.19 214.234 100.55 214.138 100.97C214.042 101.39 213.994 101.84 213.994 102.32C213.994 103.412 214.264 104.258 214.804 104.858C215.344 105.446 216.064 105.74 216.964 105.74C217.42 105.74 217.798 105.722 218.098 105.686C218.41 105.638 218.65 105.59 218.818 105.542V99.62ZM218.818 93.32L220.492 93.032V106.73C220.108 106.838 219.616 106.946 219.016 107.054C218.416 107.162 217.726 107.216 216.946 107.216C216.226 107.216 215.578 107.102 215.002 106.874C214.426 106.646 213.934 106.322 213.526 105.902C213.118 105.482 212.8 104.972 212.572 104.372C212.356 103.76 212.248 103.076 212.248 102.32C212.248 101.6 212.338 100.94 212.518 100.34C212.71 99.74 212.986 99.224 213.346 98.792C213.706 98.36 214.144 98.024 214.66 97.784C215.188 97.544 215.788 97.424 216.46 97.424C217 97.424 217.474 97.496 217.882 97.64C218.302 97.784 218.614 97.922 218.818 98.054V93.32ZM227.77 97.1C228.454 96.836 229.12 96.5 229.768 96.092C230.416 95.672 231.01 95.15 231.55 94.526H232.738V107H231.064V96.848C230.92 96.98 230.74 97.118 230.524 97.262C230.32 97.406 230.092 97.544 229.84 97.676C229.6 97.808 229.342 97.934 229.066 98.054C228.802 98.174 228.544 98.276 228.292 98.36L227.77 97.1ZM245.274 99.512C245.274 101.984 244.656 103.856 243.42 105.128C242.196 106.388 240.372 107.024 237.948 107.036L237.894 105.632C238.65 105.632 239.328 105.56 239.928 105.416C240.54 105.272 241.074 105.044 241.53 104.732C241.986 104.408 242.364 103.994 242.664 103.49C242.976 102.986 243.204 102.368 243.348 101.636C243.036 101.78 242.682 101.9 242.286 101.996C241.89 102.08 241.482 102.122 241.062 102.122C240.354 102.122 239.754 102.02 239.262 101.816C238.77 101.6 238.368 101.318 238.056 100.97C237.744 100.61 237.516 100.202 237.372 99.746C237.24 99.278 237.174 98.792 237.174 98.288C237.174 97.844 237.252 97.382 237.408 96.902C237.564 96.422 237.798 95.984 238.11 95.588C238.434 95.192 238.842 94.868 239.334 94.616C239.826 94.364 240.408 94.238 241.08 94.238C241.764 94.238 242.364 94.358 242.88 94.598C243.408 94.838 243.846 95.186 244.194 95.642C244.554 96.098 244.824 96.656 245.004 97.316C245.184 97.964 245.274 98.696 245.274 99.512ZM241.242 100.754C241.662 100.754 242.058 100.718 242.43 100.646C242.802 100.562 243.162 100.442 243.51 100.286C243.522 100.154 243.528 100.028 243.528 99.908C243.528 99.776 243.528 99.644 243.528 99.512C243.528 98.996 243.492 98.504 243.42 98.036C243.348 97.556 243.216 97.142 243.024 96.794C242.844 96.434 242.598 96.152 242.286 95.948C241.974 95.732 241.578 95.624 241.098 95.624C240.702 95.624 240.366 95.708 240.09 95.876C239.814 96.044 239.586 96.26 239.406 96.524C239.226 96.776 239.094 97.058 239.01 97.37C238.938 97.67 238.902 97.964 238.902 98.252C238.902 99.068 239.094 99.692 239.478 100.124C239.874 100.544 240.462 100.754 241.242 100.754Z" fill="#001F29"/>
<path d="M29.558 142.656C29.4647 142.432 29.3387 142.147 29.18 141.802C29.0307 141.457 28.8673 141.083 28.69 140.682C28.5127 140.281 28.3213 139.87 28.116 139.45C27.92 139.021 27.7333 138.619 27.556 138.246C27.3787 137.863 27.2107 137.523 27.052 137.224C26.9027 136.925 26.7813 136.697 26.688 136.538C26.5853 137.639 26.5013 138.834 26.436 140.122C26.3707 141.401 26.3147 142.693 26.268 144H24.938C24.9753 143.16 25.0173 142.315 25.064 141.466C25.1107 140.607 25.162 139.767 25.218 138.946C25.2833 138.115 25.3487 137.308 25.414 136.524C25.4887 135.74 25.568 134.998 25.652 134.298H26.842C27.094 134.709 27.3647 135.194 27.654 135.754C27.9433 136.314 28.2327 136.902 28.522 137.518C28.8113 138.125 29.0913 138.736 29.362 139.352C29.6327 139.959 29.88 140.514 30.104 141.018C30.328 140.514 30.5753 139.959 30.846 139.352C31.1167 138.736 31.3967 138.125 31.686 137.518C31.9753 136.902 32.2647 136.314 32.554 135.754C32.8433 135.194 33.114 134.709 33.366 134.298H34.556C34.8733 137.425 35.1113 140.659 35.27 144H33.94C33.8933 142.693 33.8373 141.401 33.772 140.122C33.7067 138.834 33.6227 137.639 33.52 136.538C33.4267 136.697 33.3007 136.925 33.142 137.224C32.9927 137.523 32.8293 137.863 32.652 138.246C32.4747 138.619 32.2833 139.021 32.078 139.45C31.882 139.87 31.6953 140.281 31.518 140.682C31.3407 141.083 31.1727 141.457 31.014 141.802C30.8647 142.147 30.7433 142.432 30.65 142.656H29.558ZM43.7413 140.36C43.7413 140.939 43.6573 141.461 43.4893 141.928C43.3213 142.395 43.0833 142.796 42.7753 143.132C42.4766 143.468 42.1173 143.729 41.6973 143.916C41.2773 144.093 40.82 144.182 40.3253 144.182C39.8306 144.182 39.3733 144.093 38.9533 143.916C38.5333 143.729 38.1693 143.468 37.8613 143.132C37.5626 142.796 37.3293 142.395 37.1613 141.928C36.9933 141.461 36.9093 140.939 36.9093 140.36C36.9093 139.791 36.9933 139.273 37.1613 138.806C37.3293 138.33 37.5626 137.924 37.8613 137.588C38.1693 137.252 38.5333 136.995 38.9533 136.818C39.3733 136.631 39.8306 136.538 40.3253 136.538C40.82 136.538 41.2773 136.631 41.6973 136.818C42.1173 136.995 42.4766 137.252 42.7753 137.588C43.0833 137.924 43.3213 138.33 43.4893 138.806C43.6573 139.273 43.7413 139.791 43.7413 140.36ZM42.3833 140.36C42.3833 139.539 42.1966 138.89 41.8233 138.414C41.4593 137.929 40.96 137.686 40.3253 137.686C39.6906 137.686 39.1866 137.929 38.8133 138.414C38.4493 138.89 38.2673 139.539 38.2673 140.36C38.2673 141.181 38.4493 141.835 38.8133 142.32C39.1866 142.796 39.6906 143.034 40.3253 143.034C40.96 143.034 41.4593 142.796 41.8233 142.32C42.1966 141.835 42.3833 141.181 42.3833 140.36ZM50.2771 138.26C50.1185 138.129 49.8898 138.003 49.5911 137.882C49.2925 137.761 48.9658 137.7 48.6111 137.7C48.2378 137.7 47.9158 137.77 47.6451 137.91C47.3838 138.041 47.1691 138.227 47.0011 138.47C46.8331 138.703 46.7118 138.983 46.6371 139.31C46.5625 139.637 46.5251 139.987 46.5251 140.36C46.5251 141.209 46.7351 141.867 47.1551 142.334C47.5751 142.791 48.1351 143.02 48.8351 143.02C49.1898 143.02 49.4838 143.006 49.7171 142.978C49.9598 142.941 50.1465 142.903 50.2771 142.866V138.26ZM50.2771 133.36L51.5791 133.136V143.79C51.2805 143.874 50.8978 143.958 50.4311 144.042C49.9645 144.126 49.4278 144.168 48.8211 144.168C48.2611 144.168 47.7571 144.079 47.3091 143.902C46.8611 143.725 46.4785 143.473 46.1611 143.146C45.8438 142.819 45.5965 142.423 45.4191 141.956C45.2511 141.48 45.1671 140.948 45.1671 140.36C45.1671 139.8 45.2371 139.287 45.3771 138.82C45.5265 138.353 45.7411 137.952 46.0211 137.616C46.3011 137.28 46.6418 137.019 47.0431 136.832C47.4538 136.645 47.9205 136.552 48.4431 136.552C48.8631 136.552 49.2318 136.608 49.5491 136.72C49.8758 136.832 50.1185 136.939 50.2771 137.042V133.36ZM53.4113 140.374C53.4113 139.73 53.5046 139.17 53.6913 138.694C53.8779 138.209 54.1253 137.807 54.4333 137.49C54.7413 137.173 55.0959 136.935 55.4973 136.776C55.8986 136.617 56.3093 136.538 56.7293 136.538C57.7093 136.538 58.4606 136.846 58.9833 137.462C59.5059 138.069 59.7673 138.997 59.7673 140.248C59.7673 140.304 59.7673 140.379 59.7673 140.472C59.7673 140.556 59.7626 140.635 59.7533 140.71H54.7693C54.8253 141.466 55.0446 142.04 55.4273 142.432C55.8099 142.824 56.4073 143.02 57.2193 143.02C57.6766 143.02 58.0593 142.983 58.3673 142.908C58.6846 142.824 58.9226 142.745 59.0813 142.67L59.2633 143.762C59.1046 143.846 58.8246 143.935 58.4233 144.028C58.0313 144.121 57.5833 144.168 57.0793 144.168C56.4446 144.168 55.8939 144.075 55.4273 143.888C54.9699 143.692 54.5919 143.426 54.2933 143.09C53.9946 142.754 53.7706 142.357 53.6213 141.9C53.4813 141.433 53.4113 140.925 53.4113 140.374ZM58.4093 139.66C58.4186 139.072 58.2693 138.591 57.9613 138.218C57.6626 137.835 57.2473 137.644 56.7153 137.644C56.4166 137.644 56.1506 137.705 55.9173 137.826C55.6933 137.938 55.5019 138.087 55.3433 138.274C55.1846 138.461 55.0586 138.675 54.9653 138.918C54.8813 139.161 54.8253 139.408 54.7973 139.66H58.4093ZM63.8216 144.14C63.0189 144.121 62.4496 143.949 62.1136 143.622C61.7776 143.295 61.6096 142.787 61.6096 142.096V133.36L62.9116 133.136V141.886C62.9116 142.101 62.9302 142.278 62.9676 142.418C63.0049 142.558 63.0656 142.67 63.1496 142.754C63.2336 142.838 63.3456 142.903 63.4856 142.95C63.6256 142.987 63.7982 143.02 64.0036 143.048L63.8216 144.14ZM70.3999 143.062C70.9319 143.062 71.3239 142.992 71.5759 142.852C71.8373 142.712 71.9679 142.488 71.9679 142.18C71.9679 141.863 71.8419 141.611 71.5899 141.424C71.3379 141.237 70.9226 141.027 70.3439 140.794C70.0639 140.682 69.7933 140.57 69.5319 140.458C69.2799 140.337 69.0606 140.197 68.8739 140.038C68.6873 139.879 68.5379 139.688 68.4259 139.464C68.3139 139.24 68.2579 138.965 68.2579 138.638C68.2579 137.994 68.4959 137.485 68.9719 137.112C69.4479 136.729 70.0966 136.538 70.9179 136.538C71.1233 136.538 71.3286 136.552 71.5339 136.58C71.7393 136.599 71.9306 136.627 72.1079 136.664C72.2853 136.692 72.4393 136.725 72.5699 136.762C72.7099 136.799 72.8173 136.832 72.8919 136.86L72.6539 137.98C72.5139 137.905 72.2946 137.831 71.9959 137.756C71.6973 137.672 71.3379 137.63 70.9179 137.63C70.5539 137.63 70.2366 137.705 69.9659 137.854C69.6953 137.994 69.5599 138.218 69.5599 138.526C69.5599 138.685 69.5879 138.825 69.6439 138.946C69.7093 139.067 69.8026 139.179 69.9239 139.282C70.0546 139.375 70.2133 139.464 70.3999 139.548C70.5866 139.632 70.8106 139.721 71.0719 139.814C71.4173 139.945 71.7253 140.075 71.9959 140.206C72.2666 140.327 72.4953 140.472 72.6819 140.64C72.8779 140.808 73.0273 141.013 73.1299 141.256C73.2326 141.489 73.2839 141.779 73.2839 142.124C73.2839 142.796 73.0319 143.305 72.5279 143.65C72.0333 143.995 71.3239 144.168 70.3999 144.168C69.7559 144.168 69.2519 144.112 68.8879 144C68.5239 143.897 68.2766 143.818 68.1459 143.762L68.3839 142.642C68.5333 142.698 68.7713 142.782 69.0979 142.894C69.4246 143.006 69.8586 143.062 70.3999 143.062ZM74.548 140.374C74.548 139.73 74.6413 139.17 74.828 138.694C75.0147 138.209 75.262 137.807 75.57 137.49C75.878 137.173 76.2327 136.935 76.634 136.776C77.0353 136.617 77.446 136.538 77.866 136.538C78.846 136.538 79.5973 136.846 80.12 137.462C80.6427 138.069 80.904 138.997 80.904 140.248C80.904 140.304 80.904 140.379 80.904 140.472C80.904 140.556 80.8993 140.635 80.89 140.71H75.906C75.962 141.466 76.1813 142.04 76.564 142.432C76.9467 142.824 77.544 143.02 78.356 143.02C78.8133 143.02 79.196 142.983 79.504 142.908C79.8213 142.824 80.0593 142.745 80.218 142.67L80.4 143.762C80.2413 143.846 79.9613 143.935 79.56 144.028C79.168 144.121 78.72 144.168 78.216 144.168C77.5813 144.168 77.0307 144.075 76.564 143.888C76.1067 143.692 75.7287 143.426 75.43 143.09C75.1313 142.754 74.9073 142.357 74.758 141.9C74.618 141.433 74.548 140.925 74.548 140.374ZM79.546 139.66C79.5553 139.072 79.406 138.591 79.098 138.218C78.7993 137.835 78.384 137.644 77.852 137.644C77.5533 137.644 77.2873 137.705 77.054 137.826C76.83 137.938 76.6387 138.087 76.48 138.274C76.3213 138.461 76.1953 138.675 76.102 138.918C76.018 139.161 75.962 139.408 75.934 139.66H79.546ZM82.7743 136.93C83.073 136.855 83.4696 136.776 83.9643 136.692C84.459 136.608 85.0283 136.566 85.6723 136.566C86.251 136.566 86.7316 136.65 87.1143 136.818C87.497 136.977 87.8003 137.205 88.0243 137.504C88.2576 137.793 88.421 138.143 88.5143 138.554C88.6076 138.965 88.6543 139.417 88.6543 139.912V144H87.3523V140.192C87.3523 139.744 87.3196 139.361 87.2543 139.044C87.1983 138.727 87.1003 138.47 86.9603 138.274C86.8203 138.078 86.6336 137.938 86.4003 137.854C86.167 137.761 85.8776 137.714 85.5323 137.714C85.3923 137.714 85.2476 137.719 85.0983 137.728C84.949 137.737 84.8043 137.751 84.6643 137.77C84.5336 137.779 84.4123 137.793 84.3003 137.812C84.1976 137.831 84.123 137.845 84.0763 137.854V144H82.7743V136.93ZM92.0314 136.72H94.7894V137.812H92.0314V141.172C92.0314 141.536 92.0594 141.839 92.1154 142.082C92.1714 142.315 92.2554 142.502 92.3674 142.642C92.4794 142.773 92.6194 142.866 92.7874 142.922C92.9554 142.978 93.1514 143.006 93.3754 143.006C93.7674 143.006 94.08 142.964 94.3134 142.88C94.556 142.787 94.724 142.721 94.8174 142.684L95.0694 143.762C94.9387 143.827 94.71 143.907 94.3834 144C94.0567 144.103 93.6834 144.154 93.2634 144.154C92.7687 144.154 92.358 144.093 92.0314 143.972C91.714 143.841 91.4574 143.65 91.2614 143.398C91.0654 143.146 90.9254 142.838 90.8414 142.474C90.7667 142.101 90.7294 141.671 90.7294 141.186V134.69L92.0314 134.466V136.72ZM95.9035 140.374C95.9035 139.73 95.9968 139.17 96.1835 138.694C96.3701 138.209 96.6175 137.807 96.9255 137.49C97.2335 137.173 97.5881 136.935 97.9895 136.776C98.3908 136.617 98.8015 136.538 99.2215 136.538C100.201 136.538 100.953 136.846 101.475 137.462C101.998 138.069 102.259 138.997 102.259 140.248C102.259 140.304 102.259 140.379 102.259 140.472C102.259 140.556 102.255 140.635 102.245 140.71H97.2615C97.3175 141.466 97.5368 142.04 97.9195 142.432C98.3021 142.824 98.8995 143.02 99.7115 143.02C100.169 143.02 100.551 142.983 100.859 142.908C101.177 142.824 101.415 142.745 101.573 142.67L101.755 143.762C101.597 143.846 101.317 143.935 100.915 144.028C100.523 144.121 100.075 144.168 99.5715 144.168C98.9368 144.168 98.3861 144.075 97.9195 143.888C97.4621 143.692 97.0841 143.426 96.7855 143.09C96.4868 142.754 96.2628 142.357 96.1135 141.9C95.9735 141.433 95.9035 140.925 95.9035 140.374ZM100.901 139.66C100.911 139.072 100.761 138.591 100.453 138.218C100.155 137.835 99.7395 137.644 99.2075 137.644C98.9088 137.644 98.6428 137.705 98.4095 137.826C98.1855 137.938 97.9941 138.087 97.8355 138.274C97.6768 138.461 97.5508 138.675 97.4575 138.918C97.3735 139.161 97.3175 139.408 97.2895 139.66H100.901ZM104.13 136.93C104.428 136.855 104.825 136.776 105.32 136.692C105.814 136.608 106.384 136.566 107.028 136.566C107.606 136.566 108.087 136.65 108.47 136.818C108.852 136.977 109.156 137.205 109.38 137.504C109.613 137.793 109.776 138.143 109.87 138.554C109.963 138.965 110.01 139.417 110.01 139.912V144H108.708V140.192C108.708 139.744 108.675 139.361 108.61 139.044C108.554 138.727 108.456 138.47 108.316 138.274C108.176 138.078 107.989 137.938 107.756 137.854C107.522 137.761 107.233 137.714 106.888 137.714C106.748 137.714 106.603 137.719 106.454 137.728C106.304 137.737 106.16 137.751 106.02 137.77C105.889 137.779 105.768 137.793 105.656 137.812C105.553 137.831 105.478 137.845 105.432 137.854V144H104.13V136.93ZM115.333 144.168C114.745 144.168 114.227 144.075 113.779 143.888C113.34 143.701 112.967 143.44 112.659 143.104C112.36 142.768 112.136 142.371 111.987 141.914C111.837 141.447 111.763 140.934 111.763 140.374C111.763 139.814 111.842 139.301 112.001 138.834C112.169 138.367 112.402 137.966 112.701 137.63C112.999 137.285 113.363 137.019 113.793 136.832C114.231 136.636 114.717 136.538 115.249 136.538C115.575 136.538 115.902 136.566 116.229 136.622C116.555 136.678 116.868 136.767 117.167 136.888L116.873 137.994C116.677 137.901 116.448 137.826 116.187 137.77C115.935 137.714 115.664 137.686 115.375 137.686C114.647 137.686 114.087 137.915 113.695 138.372C113.312 138.829 113.121 139.497 113.121 140.374C113.121 140.766 113.163 141.125 113.247 141.452C113.34 141.779 113.48 142.059 113.667 142.292C113.863 142.525 114.11 142.707 114.409 142.838C114.707 142.959 115.071 143.02 115.501 143.02C115.846 143.02 116.159 142.987 116.439 142.922C116.719 142.857 116.938 142.787 117.097 142.712L117.279 143.804C117.204 143.851 117.097 143.897 116.957 143.944C116.817 143.981 116.658 144.014 116.481 144.042C116.303 144.079 116.112 144.107 115.907 144.126C115.711 144.154 115.519 144.168 115.333 144.168ZM118.271 140.374C118.271 139.73 118.364 139.17 118.551 138.694C118.737 138.209 118.985 137.807 119.293 137.49C119.601 137.173 119.955 136.935 120.357 136.776C120.758 136.617 121.169 136.538 121.589 136.538C122.569 136.538 123.32 136.846 123.843 137.462C124.365 138.069 124.627 138.997 124.627 140.248C124.627 140.304 124.627 140.379 124.627 140.472C124.627 140.556 124.622 140.635 124.613 140.71H119.629C119.685 141.466 119.904 142.04 120.287 142.432C120.669 142.824 121.267 143.02 122.079 143.02C122.536 143.02 122.919 142.983 123.227 142.908C123.544 142.824 123.782 142.745 123.941 142.67L124.123 143.762C123.964 143.846 123.684 143.935 123.283 144.028C122.891 144.121 122.443 144.168 121.939 144.168C121.304 144.168 120.753 144.075 120.287 143.888C119.829 143.692 119.451 143.426 119.153 143.09C118.854 142.754 118.63 142.357 118.481 141.9C118.341 141.433 118.271 140.925 118.271 140.374ZM123.269 139.66C123.278 139.072 123.129 138.591 122.821 138.218C122.522 137.835 122.107 137.644 121.575 137.644C121.276 137.644 121.01 137.705 120.777 137.826C120.553 137.938 120.361 138.087 120.203 138.274C120.044 138.461 119.918 138.675 119.825 138.918C119.741 139.161 119.685 139.408 119.657 139.66H123.269ZM131.431 143.062C131.963 143.062 132.355 142.992 132.607 142.852C132.869 142.712 132.999 142.488 132.999 142.18C132.999 141.863 132.873 141.611 132.621 141.424C132.369 141.237 131.954 141.027 131.375 140.794C131.095 140.682 130.825 140.57 130.563 140.458C130.311 140.337 130.092 140.197 129.905 140.038C129.719 139.879 129.569 139.688 129.457 139.464C129.345 139.24 129.289 138.965 129.289 138.638C129.289 137.994 129.527 137.485 130.003 137.112C130.479 136.729 131.128 136.538 131.949 136.538C132.155 136.538 132.36 136.552 132.565 136.58C132.771 136.599 132.962 136.627 133.139 136.664C133.317 136.692 133.471 136.725 133.601 136.762C133.741 136.799 133.849 136.832 133.923 136.86L133.685 137.98C133.545 137.905 133.326 137.831 133.027 137.756C132.729 137.672 132.369 137.63 131.949 137.63C131.585 137.63 131.268 137.705 130.997 137.854C130.727 137.994 130.591 138.218 130.591 138.526C130.591 138.685 130.619 138.825 130.675 138.946C130.741 139.067 130.834 139.179 130.955 139.282C131.086 139.375 131.245 139.464 131.431 139.548C131.618 139.632 131.842 139.721 132.103 139.814C132.449 139.945 132.757 140.075 133.027 140.206C133.298 140.327 133.527 140.472 133.713 140.64C133.909 140.808 134.059 141.013 134.161 141.256C134.264 141.489 134.315 141.779 134.315 142.124C134.315 142.796 134.063 143.305 133.559 143.65C133.065 143.995 132.355 144.168 131.431 144.168C130.787 144.168 130.283 144.112 129.919 144C129.555 143.897 129.308 143.818 129.177 143.762L129.415 142.642C129.565 142.698 129.803 142.782 130.129 142.894C130.456 143.006 130.89 143.062 131.431 143.062ZM137.203 136.72H139.961V137.812H137.203V141.172C137.203 141.536 137.231 141.839 137.287 142.082C137.343 142.315 137.427 142.502 137.539 142.642C137.651 142.773 137.791 142.866 137.959 142.922C138.127 142.978 138.323 143.006 138.547 143.006C138.939 143.006 139.252 142.964 139.485 142.88C139.728 142.787 139.896 142.721 139.989 142.684L140.241 143.762C140.111 143.827 139.882 143.907 139.555 144C139.229 144.103 138.855 144.154 138.435 144.154C137.941 144.154 137.53 144.093 137.203 143.972C136.886 143.841 136.629 143.65 136.433 143.398C136.237 143.146 136.097 142.838 136.013 142.474C135.939 142.101 135.901 141.671 135.901 141.186V134.69L137.203 134.466V136.72ZM144.306 136.566C144.418 136.566 144.544 136.575 144.684 136.594C144.833 136.603 144.978 136.622 145.118 136.65C145.258 136.669 145.384 136.692 145.496 136.72C145.617 136.739 145.706 136.757 145.762 136.776L145.538 137.91C145.435 137.873 145.263 137.831 145.02 137.784C144.787 137.728 144.483 137.7 144.11 137.7C143.867 137.7 143.625 137.728 143.382 137.784C143.149 137.831 142.995 137.863 142.92 137.882V144H141.618V137.028C141.926 136.916 142.309 136.813 142.766 136.72C143.223 136.617 143.737 136.566 144.306 136.566ZM152.814 143.79C152.516 143.865 152.119 143.944 151.624 144.028C151.139 144.112 150.574 144.154 149.93 144.154C149.37 144.154 148.899 144.075 148.516 143.916C148.134 143.748 147.826 143.515 147.592 143.216C147.359 142.917 147.191 142.567 147.088 142.166C146.986 141.755 146.934 141.303 146.934 140.808V136.72H148.236V140.528C148.236 141.415 148.376 142.049 148.656 142.432C148.936 142.815 149.408 143.006 150.07 143.006C150.21 143.006 150.355 143.001 150.504 142.992C150.654 142.983 150.794 142.973 150.924 142.964C151.055 142.945 151.172 142.931 151.274 142.922C151.386 142.903 151.466 142.885 151.512 142.866V136.72H152.814V143.79ZM158.222 144.168C157.634 144.168 157.116 144.075 156.668 143.888C156.229 143.701 155.856 143.44 155.548 143.104C155.249 142.768 155.025 142.371 154.876 141.914C154.726 141.447 154.652 140.934 154.652 140.374C154.652 139.814 154.731 139.301 154.89 138.834C155.058 138.367 155.291 137.966 155.59 137.63C155.888 137.285 156.252 137.019 156.682 136.832C157.12 136.636 157.606 136.538 158.138 136.538C158.464 136.538 158.791 136.566 159.118 136.622C159.444 136.678 159.757 136.767 160.056 136.888L159.762 137.994C159.566 137.901 159.337 137.826 159.076 137.77C158.824 137.714 158.553 137.686 158.264 137.686C157.536 137.686 156.976 137.915 156.584 138.372C156.201 138.829 156.01 139.497 156.01 140.374C156.01 140.766 156.052 141.125 156.136 141.452C156.229 141.779 156.369 142.059 156.556 142.292C156.752 142.525 156.999 142.707 157.298 142.838C157.596 142.959 157.96 143.02 158.39 143.02C158.735 143.02 159.048 142.987 159.328 142.922C159.608 142.857 159.827 142.787 159.986 142.712L160.168 143.804C160.093 143.851 159.986 143.897 159.846 143.944C159.706 143.981 159.547 144.014 159.37 144.042C159.192 144.079 159.001 144.107 158.796 144.126C158.6 144.154 158.408 144.168 158.222 144.168ZM162.783 136.72H165.541V137.812H162.783V141.172C162.783 141.536 162.811 141.839 162.867 142.082C162.923 142.315 163.007 142.502 163.119 142.642C163.231 142.773 163.371 142.866 163.539 142.922C163.707 142.978 163.903 143.006 164.127 143.006C164.519 143.006 164.832 142.964 165.065 142.88C165.308 142.787 165.476 142.721 165.569 142.684L165.821 143.762C165.691 143.827 165.462 143.907 165.135 144C164.809 144.103 164.435 144.154 164.015 144.154C163.521 144.154 163.11 144.093 162.783 143.972C162.466 143.841 162.209 143.65 162.013 143.398C161.817 143.146 161.677 142.838 161.593 142.474C161.519 142.101 161.481 141.671 161.481 141.186V134.69L162.783 134.466V136.72ZM172.994 143.79C172.695 143.865 172.299 143.944 171.804 144.028C171.319 144.112 170.754 144.154 170.11 144.154C169.55 144.154 169.079 144.075 168.696 143.916C168.313 143.748 168.005 143.515 167.772 143.216C167.539 142.917 167.371 142.567 167.268 142.166C167.165 141.755 167.114 141.303 167.114 140.808V136.72H168.416V140.528C168.416 141.415 168.556 142.049 168.836 142.432C169.116 142.815 169.587 143.006 170.25 143.006C170.39 143.006 170.535 143.001 170.684 142.992C170.833 142.983 170.973 142.973 171.104 142.964C171.235 142.945 171.351 142.931 171.454 142.922C171.566 142.903 171.645 142.885 171.692 142.866V136.72H172.994V143.79ZM177.925 136.566C178.037 136.566 178.163 136.575 178.303 136.594C178.453 136.603 178.597 136.622 178.737 136.65C178.877 136.669 179.003 136.692 179.115 136.72C179.237 136.739 179.325 136.757 179.381 136.776L179.157 137.91C179.055 137.873 178.882 137.831 178.639 137.784C178.406 137.728 178.103 137.7 177.729 137.7C177.487 137.7 177.244 137.728 177.001 137.784C176.768 137.831 176.614 137.863 176.539 137.882V144H175.237V137.028C175.545 136.916 175.928 136.813 176.385 136.72C176.843 136.617 177.356 136.566 177.925 136.566ZM180.232 140.374C180.232 139.73 180.325 139.17 180.512 138.694C180.698 138.209 180.946 137.807 181.254 137.49C181.562 137.173 181.916 136.935 182.318 136.776C182.719 136.617 183.13 136.538 183.55 136.538C184.53 136.538 185.281 136.846 185.804 137.462C186.326 138.069 186.588 138.997 186.588 140.248C186.588 140.304 186.588 140.379 186.588 140.472C186.588 140.556 186.583 140.635 186.574 140.71H181.59C181.646 141.466 181.865 142.04 182.248 142.432C182.63 142.824 183.228 143.02 184.04 143.02C184.497 143.02 184.88 142.983 185.188 142.908C185.505 142.824 185.743 142.745 185.902 142.67L186.084 143.762C185.925 143.846 185.645 143.935 185.244 144.028C184.852 144.121 184.404 144.168 183.9 144.168C183.265 144.168 182.714 144.075 182.248 143.888C181.79 143.692 181.412 143.426 181.114 143.09C180.815 142.754 180.591 142.357 180.442 141.9C180.302 141.433 180.232 140.925 180.232 140.374ZM185.23 139.66C185.239 139.072 185.09 138.591 184.782 138.218C184.483 137.835 184.068 137.644 183.536 137.644C183.237 137.644 182.971 137.705 182.738 137.826C182.514 137.938 182.322 138.087 182.164 138.274C182.005 138.461 181.879 138.675 181.786 138.918C181.702 139.161 181.646 139.408 181.618 139.66H185.23ZM190.152 143.062C190.684 143.062 191.076 142.992 191.328 142.852C191.589 142.712 191.72 142.488 191.72 142.18C191.72 141.863 191.594 141.611 191.342 141.424C191.09 141.237 190.675 141.027 190.096 140.794C189.816 140.682 189.545 140.57 189.284 140.458C189.032 140.337 188.813 140.197 188.626 140.038C188.439 139.879 188.29 139.688 188.178 139.464C188.066 139.24 188.01 138.965 188.01 138.638C188.01 137.994 188.248 137.485 188.724 137.112C189.2 136.729 189.849 136.538 190.67 136.538C190.875 136.538 191.081 136.552 191.286 136.58C191.491 136.599 191.683 136.627 191.86 136.664C192.037 136.692 192.191 136.725 192.322 136.762C192.462 136.799 192.569 136.832 192.644 136.86L192.406 137.98C192.266 137.905 192.047 137.831 191.748 137.756C191.449 137.672 191.09 137.63 190.67 137.63C190.306 137.63 189.989 137.705 189.718 137.854C189.447 137.994 189.312 138.218 189.312 138.526C189.312 138.685 189.34 138.825 189.396 138.946C189.461 139.067 189.555 139.179 189.676 139.282C189.807 139.375 189.965 139.464 190.152 139.548C190.339 139.632 190.563 139.721 190.824 139.814C191.169 139.945 191.477 140.075 191.748 140.206C192.019 140.327 192.247 140.472 192.434 140.64C192.63 140.808 192.779 141.013 192.882 141.256C192.985 141.489 193.036 141.779 193.036 142.124C193.036 142.796 192.784 143.305 192.28 143.65C191.785 143.995 191.076 144.168 190.152 144.168C189.508 144.168 189.004 144.112 188.64 144C188.276 143.897 188.029 143.818 187.898 143.762L188.136 142.642C188.285 142.698 188.523 142.782 188.85 142.894C189.177 143.006 189.611 143.062 190.152 143.062ZM196.078 142.404C196.087 142.479 196.092 142.553 196.092 142.628C196.092 142.693 196.092 142.763 196.092 142.838C196.092 143.426 196.003 144.005 195.826 144.574C195.658 145.153 195.425 145.703 195.126 146.226L194.118 145.904C194.351 145.428 194.505 144.943 194.58 144.448C194.655 143.963 194.692 143.505 194.692 143.076C194.692 142.955 194.687 142.838 194.678 142.726C194.678 142.614 194.673 142.507 194.664 142.404H196.078ZM26.338 160.72H29.096V161.812H26.338V165.172C26.338 165.536 26.366 165.839 26.422 166.082C26.478 166.315 26.562 166.502 26.674 166.642C26.786 166.773 26.926 166.866 27.094 166.922C27.262 166.978 27.458 167.006 27.682 167.006C28.074 167.006 28.3867 166.964 28.62 166.88C28.8627 166.787 29.0307 166.721 29.124 166.684L29.376 167.762C29.2453 167.827 29.0167 167.907 28.69 168C28.3633 168.103 27.99 168.154 27.57 168.154C27.0753 168.154 26.6647 168.093 26.338 167.972C26.0207 167.841 25.764 167.65 25.568 167.398C25.372 167.146 25.232 166.838 25.148 166.474C25.0733 166.101 25.036 165.671 25.036 165.186V158.69L26.338 158.466V160.72ZM36.9874 164.36C36.9874 164.939 36.9034 165.461 36.7354 165.928C36.5674 166.395 36.3294 166.796 36.0214 167.132C35.7227 167.468 35.3634 167.729 34.9434 167.916C34.5234 168.093 34.0661 168.182 33.5714 168.182C33.0767 168.182 32.6194 168.093 32.1994 167.916C31.7794 167.729 31.4154 167.468 31.1074 167.132C30.8087 166.796 30.5754 166.395 30.4074 165.928C30.2394 165.461 30.1554 164.939 30.1554 164.36C30.1554 163.791 30.2394 163.273 30.4074 162.806C30.5754 162.33 30.8087 161.924 31.1074 161.588C31.4154 161.252 31.7794 160.995 32.1994 160.818C32.6194 160.631 33.0767 160.538 33.5714 160.538C34.0661 160.538 34.5234 160.631 34.9434 160.818C35.3634 160.995 35.7227 161.252 36.0214 161.588C36.3294 161.924 36.5674 162.33 36.7354 162.806C36.9034 163.273 36.9874 163.791 36.9874 164.36ZM35.6294 164.36C35.6294 163.539 35.4427 162.89 35.0694 162.414C34.7054 161.929 34.2061 161.686 33.5714 161.686C32.9367 161.686 32.4327 161.929 32.0594 162.414C31.6954 162.89 31.5134 163.539 31.5134 164.36C31.5134 165.181 31.6954 165.835 32.0594 166.32C32.4327 166.796 32.9367 167.034 33.5714 167.034C34.2061 167.034 34.7054 166.796 35.0694 166.32C35.4427 165.835 35.6294 165.181 35.6294 164.36ZM46.6235 167.272C46.5115 167.347 46.2921 167.445 45.9655 167.566C45.6481 167.678 45.2748 167.734 44.8455 167.734C44.4068 167.734 43.9915 167.664 43.5995 167.524C43.2168 167.384 42.8808 167.169 42.5915 166.88C42.3021 166.581 42.0735 166.213 41.9055 165.774C41.7375 165.335 41.6535 164.813 41.6535 164.206C41.6535 163.674 41.7328 163.189 41.8915 162.75C42.0501 162.302 42.2788 161.919 42.5775 161.602C42.8855 161.275 43.2588 161.023 43.6975 160.846C44.1361 160.659 44.6308 160.566 45.1815 160.566C45.7881 160.566 46.3155 160.613 46.7635 160.706C47.2208 160.79 47.6035 160.869 47.9115 160.944V167.44C47.9115 168.56 47.6221 169.372 47.0435 169.876C46.4648 170.38 45.5875 170.632 44.4115 170.632C43.9541 170.632 43.5201 170.595 43.1095 170.52C42.7081 170.445 42.3581 170.357 42.0595 170.254L42.2975 169.12C42.5588 169.223 42.8761 169.311 43.2495 169.386C43.6321 169.47 44.0288 169.512 44.4395 169.512C45.2141 169.512 45.7695 169.358 46.1055 169.05C46.4508 168.742 46.6235 168.252 46.6235 167.58V167.272ZM46.6095 161.868C46.4788 161.831 46.3015 161.798 46.0775 161.77C45.8628 161.733 45.5688 161.714 45.1955 161.714C44.4955 161.714 43.9541 161.943 43.5715 162.4C43.1981 162.857 43.0115 163.464 43.0115 164.22C43.0115 164.64 43.0628 164.999 43.1655 165.298C43.2775 165.597 43.4221 165.844 43.5995 166.04C43.7861 166.236 43.9961 166.381 44.2295 166.474C44.4721 166.567 44.7195 166.614 44.9715 166.614C45.3168 166.614 45.6341 166.567 45.9235 166.474C46.2128 166.371 46.4415 166.255 46.6095 166.124V161.868ZM49.7472 164.374C49.7472 163.73 49.8405 163.17 50.0272 162.694C50.2139 162.209 50.4612 161.807 50.7692 161.49C51.0772 161.173 51.4319 160.935 51.8332 160.776C52.2345 160.617 52.6452 160.538 53.0652 160.538C54.0452 160.538 54.7965 160.846 55.3192 161.462C55.8419 162.069 56.1032 162.997 56.1032 164.248C56.1032 164.304 56.1032 164.379 56.1032 164.472C56.1032 164.556 56.0985 164.635 56.0892 164.71H51.1052C51.1612 165.466 51.3805 166.04 51.7632 166.432C52.1459 166.824 52.7432 167.02 53.5552 167.02C54.0125 167.02 54.3952 166.983 54.7032 166.908C55.0205 166.824 55.2585 166.745 55.4172 166.67L55.5992 167.762C55.4405 167.846 55.1605 167.935 54.7592 168.028C54.3672 168.121 53.9192 168.168 53.4152 168.168C52.7805 168.168 52.2299 168.075 51.7632 167.888C51.3059 167.692 50.9279 167.426 50.6292 167.09C50.3305 166.754 50.1065 166.357 49.9572 165.9C49.8172 165.433 49.7472 164.925 49.7472 164.374ZM54.7452 163.66C54.7545 163.072 54.6052 162.591 54.2972 162.218C53.9985 161.835 53.5832 161.644 53.0512 161.644C52.7525 161.644 52.4865 161.705 52.2532 161.826C52.0292 161.938 51.8379 162.087 51.6792 162.274C51.5205 162.461 51.3945 162.675 51.3012 162.918C51.2172 163.161 51.1612 163.408 51.1332 163.66H54.7452ZM57.9735 160.93C58.2722 160.855 58.6688 160.776 59.1635 160.692C59.6582 160.608 60.2275 160.566 60.8715 160.566C61.4502 160.566 61.9308 160.65 62.3135 160.818C62.6962 160.977 62.9995 161.205 63.2235 161.504C63.4568 161.793 63.6202 162.143 63.7135 162.554C63.8068 162.965 63.8535 163.417 63.8535 163.912V168H62.5515V164.192C62.5515 163.744 62.5188 163.361 62.4535 163.044C62.3975 162.727 62.2995 162.47 62.1595 162.274C62.0195 162.078 61.8328 161.938 61.5995 161.854C61.3662 161.761 61.0768 161.714 60.7315 161.714C60.5915 161.714 60.4468 161.719 60.2975 161.728C60.1482 161.737 60.0035 161.751 59.8635 161.77C59.7328 161.779 59.6115 161.793 59.4995 161.812C59.3968 161.831 59.3222 161.845 59.2755 161.854V168H57.9735V160.93ZM65.6066 164.374C65.6066 163.73 65.6999 163.17 65.8866 162.694C66.0732 162.209 66.3206 161.807 66.6286 161.49C66.9366 161.173 67.2912 160.935 67.6926 160.776C68.0939 160.617 68.5046 160.538 68.9246 160.538C69.9046 160.538 70.6559 160.846 71.1786 161.462C71.7012 162.069 71.9626 162.997 71.9626 164.248C71.9626 164.304 71.9626 164.379 71.9626 164.472C71.9626 164.556 71.9579 164.635 71.9486 164.71H66.9646C67.0206 165.466 67.2399 166.04 67.6226 166.432C68.0052 166.824 68.6026 167.02 69.4146 167.02C69.8719 167.02 70.2546 166.983 70.5626 166.908C70.8799 166.824 71.1179 166.745 71.2766 166.67L71.4586 167.762C71.2999 167.846 71.0199 167.935 70.6186 168.028C70.2266 168.121 69.7786 168.168 69.2746 168.168C68.6399 168.168 68.0892 168.075 67.6226 167.888C67.1652 167.692 66.7872 167.426 66.4886 167.09C66.1899 166.754 65.9659 166.357 65.8166 165.9C65.6766 165.433 65.6066 164.925 65.6066 164.374ZM70.6046 163.66C70.6139 163.072 70.4646 162.591 70.1566 162.218C69.8579 161.835 69.4426 161.644 68.9106 161.644C68.6119 161.644 68.3459 161.705 68.1126 161.826C67.8886 161.938 67.6972 162.087 67.5386 162.274C67.3799 162.461 67.2539 162.675 67.1606 162.918C67.0766 163.161 67.0206 163.408 66.9926 163.66H70.6046ZM76.5209 160.566C76.6329 160.566 76.7589 160.575 76.8989 160.594C77.0482 160.603 77.1929 160.622 77.3329 160.65C77.4729 160.669 77.5989 160.692 77.7109 160.72C77.8322 160.739 77.9209 160.757 77.9769 160.776L77.7529 161.91C77.6502 161.873 77.4776 161.831 77.2349 161.784C77.0016 161.728 76.6982 161.7 76.3249 161.7C76.0822 161.7 75.8396 161.728 75.5969 161.784C75.3636 161.831 75.2096 161.863 75.1349 161.882V168H73.8329V161.028C74.1409 160.916 74.5236 160.813 74.9809 160.72C75.4382 160.617 75.9516 160.566 76.5209 160.566ZM81.6973 167.062C82.0053 167.062 82.2759 167.057 82.5093 167.048C82.7519 167.029 82.9526 167.001 83.1113 166.964V164.794C83.0179 164.747 82.8639 164.71 82.6493 164.682C82.4439 164.645 82.1919 164.626 81.8933 164.626C81.6973 164.626 81.4873 164.64 81.2633 164.668C81.0486 164.696 80.8479 164.757 80.6613 164.85C80.4839 164.934 80.3346 165.055 80.2133 165.214C80.0919 165.363 80.0313 165.564 80.0313 165.816C80.0313 166.283 80.1806 166.609 80.4793 166.796C80.7779 166.973 81.1839 167.062 81.6973 167.062ZM81.5853 160.538C82.1079 160.538 82.5466 160.608 82.9013 160.748C83.2653 160.879 83.5546 161.07 83.7693 161.322C83.9933 161.565 84.1519 161.859 84.2453 162.204C84.3386 162.54 84.3853 162.913 84.3853 163.324V167.874C84.2733 167.893 84.1146 167.921 83.9093 167.958C83.7133 167.986 83.4893 168.014 83.2373 168.042C82.9853 168.07 82.7099 168.093 82.4113 168.112C82.1219 168.14 81.8326 168.154 81.5433 168.154C81.1326 168.154 80.7546 168.112 80.4093 168.028C80.0639 167.944 79.7653 167.813 79.5133 167.636C79.2613 167.449 79.0653 167.207 78.9253 166.908C78.7853 166.609 78.7153 166.25 78.7153 165.83C78.7153 165.429 78.7946 165.083 78.9533 164.794C79.1213 164.505 79.3453 164.271 79.6253 164.094C79.9053 163.917 80.2319 163.786 80.6053 163.702C80.9786 163.618 81.3706 163.576 81.7813 163.576C81.9119 163.576 82.0473 163.585 82.1873 163.604C82.3273 163.613 82.4579 163.632 82.5793 163.66C82.7099 163.679 82.8219 163.697 82.9153 163.716C83.0086 163.735 83.0739 163.749 83.1113 163.758V163.394C83.1113 163.179 83.0879 162.969 83.0413 162.764C82.9946 162.549 82.9106 162.363 82.7893 162.204C82.6679 162.036 82.4999 161.905 82.2853 161.812C82.0799 161.709 81.8093 161.658 81.4733 161.658C81.0439 161.658 80.6659 161.691 80.3393 161.756C80.0219 161.812 79.7839 161.873 79.6253 161.938L79.4713 160.86C79.6393 160.785 79.9193 160.715 80.3113 160.65C80.7033 160.575 81.1279 160.538 81.5853 160.538ZM87.7657 160.72H90.5237V161.812H87.7657V165.172C87.7657 165.536 87.7937 165.839 87.8497 166.082C87.9057 166.315 87.9897 166.502 88.1017 166.642C88.2137 166.773 88.3537 166.866 88.5217 166.922C88.6897 166.978 88.8857 167.006 89.1097 167.006C89.5017 167.006 89.8144 166.964 90.0477 166.88C90.2904 166.787 90.4584 166.721 90.5517 166.684L90.8037 167.762C90.6731 167.827 90.4444 167.907 90.1177 168C89.7911 168.103 89.4177 168.154 88.9977 168.154C88.5031 168.154 88.0924 168.093 87.7657 167.972C87.4484 167.841 87.1917 167.65 86.9957 167.398C86.7997 167.146 86.6597 166.838 86.5757 166.474C86.5011 166.101 86.4637 165.671 86.4637 165.186V158.69L87.7657 158.466V160.72ZM91.6378 164.374C91.6378 163.73 91.7312 163.17 91.9178 162.694C92.1045 162.209 92.3518 161.807 92.6598 161.49C92.9678 161.173 93.3225 160.935 93.7238 160.776C94.1252 160.617 94.5358 160.538 94.9558 160.538C95.9358 160.538 96.6872 160.846 97.2098 161.462C97.7325 162.069 97.9938 162.997 97.9938 164.248C97.9938 164.304 97.9938 164.379 97.9938 164.472C97.9938 164.556 97.9892 164.635 97.9798 164.71H92.9958C93.0518 165.466 93.2712 166.04 93.6538 166.432C94.0365 166.824 94.6338 167.02 95.4458 167.02C95.9032 167.02 96.2858 166.983 96.5938 166.908C96.9112 166.824 97.1492 166.745 97.3078 166.67L97.4898 167.762C97.3312 167.846 97.0512 167.935 96.6498 168.028C96.2578 168.121 95.8098 168.168 95.3058 168.168C94.6712 168.168 94.1205 168.075 93.6538 167.888C93.1965 167.692 92.8185 167.426 92.5198 167.09C92.2212 166.754 91.9972 166.357 91.8478 165.9C91.7078 165.433 91.6378 164.925 91.6378 164.374ZM96.6358 163.66C96.6452 163.072 96.4958 162.591 96.1878 162.218C95.8892 161.835 95.4738 161.644 94.9418 161.644C94.6432 161.644 94.3772 161.705 94.1438 161.826C93.9198 161.938 93.7285 162.087 93.5698 162.274C93.4112 162.461 93.2852 162.675 93.1918 162.918C93.1078 163.161 93.0518 163.408 93.0238 163.66H96.6358ZM109.026 166.824V168H103.188V158.298H104.546V166.824H109.026ZM116.626 164.36C116.626 164.939 116.542 165.461 116.374 165.928C116.206 166.395 115.968 166.796 115.66 167.132C115.361 167.468 115.002 167.729 114.582 167.916C114.162 168.093 113.705 168.182 113.21 168.182C112.715 168.182 112.258 168.093 111.838 167.916C111.418 167.729 111.054 167.468 110.746 167.132C110.447 166.796 110.214 166.395 110.046 165.928C109.878 165.461 109.794 164.939 109.794 164.36C109.794 163.791 109.878 163.273 110.046 162.806C110.214 162.33 110.447 161.924 110.746 161.588C111.054 161.252 111.418 160.995 111.838 160.818C112.258 160.631 112.715 160.538 113.21 160.538C113.705 160.538 114.162 160.631 114.582 160.818C115.002 160.995 115.361 161.252 115.66 161.588C115.968 161.924 116.206 162.33 116.374 162.806C116.542 163.273 116.626 163.791 116.626 164.36ZM115.268 164.36C115.268 163.539 115.081 162.89 114.708 162.414C114.344 161.929 113.845 161.686 113.21 161.686C112.575 161.686 112.071 161.929 111.698 162.414C111.334 162.89 111.152 163.539 111.152 164.36C111.152 165.181 111.334 165.835 111.698 166.32C112.071 166.796 112.575 167.034 113.21 167.034C113.845 167.034 114.344 166.796 114.708 166.32C115.081 165.835 115.268 165.181 115.268 164.36ZM121.146 160.566C121.258 160.566 121.384 160.575 121.524 160.594C121.673 160.603 121.818 160.622 121.958 160.65C122.098 160.669 122.224 160.692 122.336 160.72C122.457 160.739 122.546 160.757 122.602 160.776L122.378 161.91C122.275 161.873 122.103 161.831 121.86 161.784C121.627 161.728 121.323 161.7 120.95 161.7C120.707 161.7 120.465 161.728 120.222 161.784C119.989 161.831 119.835 161.863 119.76 161.882V168H118.458V161.028C118.766 160.916 119.149 160.813 119.606 160.72C120.063 160.617 120.577 160.566 121.146 160.566ZM123.452 164.374C123.452 163.73 123.546 163.17 123.732 162.694C123.919 162.209 124.166 161.807 124.474 161.49C124.782 161.173 125.137 160.935 125.538 160.776C125.94 160.617 126.35 160.538 126.77 160.538C127.75 160.538 128.502 160.846 129.024 161.462C129.547 162.069 129.808 162.997 129.808 164.248C129.808 164.304 129.808 164.379 129.808 164.472C129.808 164.556 129.804 164.635 129.794 164.71H124.81C124.866 165.466 125.086 166.04 125.468 166.432C125.851 166.824 126.448 167.02 127.26 167.02C127.718 167.02 128.1 166.983 128.408 166.908C128.726 166.824 128.964 166.745 129.122 166.67L129.304 167.762C129.146 167.846 128.866 167.935 128.464 168.028C128.072 168.121 127.624 168.168 127.12 168.168C126.486 168.168 125.935 168.075 125.468 167.888C125.011 167.692 124.633 167.426 124.334 167.09C124.036 166.754 123.812 166.357 123.662 165.9C123.522 165.433 123.452 164.925 123.452 164.374ZM128.45 163.66C128.46 163.072 128.31 162.591 128.002 162.218C127.704 161.835 127.288 161.644 126.756 161.644C126.458 161.644 126.192 161.705 125.958 161.826C125.734 161.938 125.543 162.087 125.384 162.274C125.226 162.461 125.1 162.675 125.006 162.918C124.922 163.161 124.866 163.408 124.838 163.66H128.45ZM131.679 160.93C131.977 160.855 132.369 160.776 132.855 160.692C133.349 160.608 133.919 160.566 134.563 160.566C135.029 160.566 135.421 160.631 135.739 160.762C136.056 160.883 136.322 161.065 136.537 161.308C136.602 161.261 136.705 161.196 136.845 161.112C136.985 161.028 137.157 160.949 137.363 160.874C137.568 160.79 137.797 160.72 138.049 160.664C138.301 160.599 138.571 160.566 138.861 160.566C139.421 160.566 139.878 160.65 140.233 160.818C140.587 160.977 140.863 161.205 141.059 161.504C141.264 161.803 141.399 162.157 141.465 162.568C141.539 162.979 141.577 163.427 141.577 163.912V168H140.275V164.192C140.275 163.763 140.251 163.394 140.205 163.086C140.167 162.778 140.088 162.521 139.967 162.316C139.855 162.111 139.696 161.961 139.491 161.868C139.295 161.765 139.038 161.714 138.721 161.714C138.282 161.714 137.918 161.775 137.629 161.896C137.349 162.008 137.157 162.111 137.055 162.204C137.129 162.447 137.185 162.713 137.223 163.002C137.26 163.291 137.279 163.595 137.279 163.912V168H135.977V164.192C135.977 163.763 135.953 163.394 135.907 163.086C135.86 162.778 135.776 162.521 135.655 162.316C135.543 162.111 135.384 161.961 135.179 161.868C134.983 161.765 134.731 161.714 134.423 161.714C134.292 161.714 134.152 161.719 134.003 161.728C133.853 161.737 133.709 161.751 133.569 161.77C133.438 161.779 133.317 161.793 133.205 161.812C133.093 161.831 133.018 161.845 132.981 161.854V168H131.679V160.93ZM152.927 168C152.666 167.328 152.386 166.563 152.087 165.704C151.798 164.836 151.532 163.935 151.289 163.002C151.047 163.935 150.781 164.836 150.491 165.704C150.202 166.563 149.927 167.328 149.665 168H148.531C148.102 167.039 147.682 165.942 147.271 164.71C146.861 163.478 146.473 162.148 146.109 160.72H147.509C147.603 161.159 147.715 161.635 147.845 162.148C147.976 162.661 148.111 163.175 148.251 163.688C148.401 164.201 148.555 164.696 148.713 165.172C148.872 165.648 149.021 166.063 149.161 166.418C149.32 165.979 149.474 165.517 149.623 165.032C149.782 164.537 149.931 164.043 150.071 163.548C150.211 163.044 150.342 162.554 150.463 162.078C150.594 161.593 150.706 161.14 150.799 160.72H151.877C151.961 161.14 152.064 161.593 152.185 162.078C152.307 162.554 152.437 163.044 152.577 163.548C152.717 164.043 152.862 164.537 153.011 165.032C153.17 165.517 153.329 165.979 153.487 166.418C153.627 166.063 153.772 165.648 153.921 165.172C154.08 164.696 154.234 164.201 154.383 163.688C154.533 163.175 154.673 162.661 154.803 162.148C154.934 161.635 155.046 161.159 155.139 160.72H156.483C156.119 162.148 155.732 163.478 155.321 164.71C154.911 165.942 154.491 167.039 154.061 168H152.927ZM157.86 168V157.36L159.162 157.136V160.86C159.405 160.767 159.662 160.697 159.932 160.65C160.212 160.594 160.488 160.566 160.758 160.566C161.337 160.566 161.818 160.65 162.2 160.818C162.583 160.977 162.886 161.205 163.11 161.504C163.344 161.793 163.507 162.143 163.6 162.554C163.694 162.965 163.74 163.417 163.74 163.912V168H162.438V164.192C162.438 163.744 162.406 163.361 162.34 163.044C162.284 162.727 162.186 162.47 162.046 162.274C161.906 162.078 161.72 161.938 161.486 161.854C161.253 161.761 160.964 161.714 160.618 161.714C160.478 161.714 160.334 161.723 160.184 161.742C160.035 161.761 159.89 161.784 159.75 161.812C159.62 161.831 159.498 161.854 159.386 161.882C159.284 161.91 159.209 161.933 159.162 161.952V168H157.86ZM167.16 168H165.858V160.72H167.16V168ZM166.502 159.404C166.269 159.404 166.068 159.329 165.9 159.18C165.742 159.021 165.662 158.811 165.662 158.55C165.662 158.289 165.742 158.083 165.9 157.934C166.068 157.775 166.269 157.696 166.502 157.696C166.736 157.696 166.932 157.775 167.09 157.934C167.258 158.083 167.342 158.289 167.342 158.55C167.342 158.811 167.258 159.021 167.09 159.18C166.932 159.329 166.736 159.404 166.502 159.404ZM172.563 168.168C171.975 168.168 171.457 168.075 171.009 167.888C170.571 167.701 170.197 167.44 169.889 167.104C169.591 166.768 169.367 166.371 169.217 165.914C169.068 165.447 168.993 164.934 168.993 164.374C168.993 163.814 169.073 163.301 169.231 162.834C169.399 162.367 169.633 161.966 169.931 161.63C170.23 161.285 170.594 161.019 171.023 160.832C171.462 160.636 171.947 160.538 172.479 160.538C172.806 160.538 173.133 160.566 173.459 160.622C173.786 160.678 174.099 160.767 174.397 160.888L174.103 161.994C173.907 161.901 173.679 161.826 173.417 161.77C173.165 161.714 172.895 161.686 172.605 161.686C171.877 161.686 171.317 161.915 170.925 162.372C170.543 162.829 170.351 163.497 170.351 164.374C170.351 164.766 170.393 165.125 170.477 165.452C170.571 165.779 170.711 166.059 170.897 166.292C171.093 166.525 171.341 166.707 171.639 166.838C171.938 166.959 172.302 167.02 172.731 167.02C173.077 167.02 173.389 166.987 173.669 166.922C173.949 166.857 174.169 166.787 174.327 166.712L174.509 167.804C174.435 167.851 174.327 167.897 174.187 167.944C174.047 167.981 173.889 168.014 173.711 168.042C173.534 168.079 173.343 168.107 173.137 168.126C172.941 168.154 172.75 168.168 172.563 168.168ZM175.907 168V157.36L177.209 157.136V160.86C177.452 160.767 177.708 160.697 177.979 160.65C178.259 160.594 178.534 160.566 178.805 160.566C179.384 160.566 179.864 160.65 180.247 160.818C180.63 160.977 180.933 161.205 181.157 161.504C181.39 161.793 181.554 162.143 181.647 162.554C181.74 162.965 181.787 163.417 181.787 163.912V168H180.485V164.192C180.485 163.744 180.452 163.361 180.387 163.044C180.331 162.727 180.233 162.47 180.093 162.274C179.953 162.078 179.766 161.938 179.533 161.854C179.3 161.761 179.01 161.714 178.665 161.714C178.525 161.714 178.38 161.723 178.231 161.742C178.082 161.761 177.937 161.784 177.797 161.812C177.666 161.831 177.545 161.854 177.433 161.882C177.33 161.91 177.256 161.933 177.209 161.952V168H175.907ZM189.329 168.14C188.527 168.121 187.957 167.949 187.621 167.622C187.285 167.295 187.117 166.787 187.117 166.096V157.36L188.419 157.136V165.886C188.419 166.101 188.438 166.278 188.475 166.418C188.513 166.558 188.573 166.67 188.657 166.754C188.741 166.838 188.853 166.903 188.993 166.95C189.133 166.987 189.306 167.02 189.511 167.048L189.329 168.14ZM197.4 164.36C197.4 164.939 197.316 165.461 197.148 165.928C196.98 166.395 196.742 166.796 196.434 167.132C196.135 167.468 195.776 167.729 195.356 167.916C194.936 168.093 194.478 168.182 193.984 168.182C193.489 168.182 193.032 168.093 192.612 167.916C192.192 167.729 191.828 167.468 191.52 167.132C191.221 166.796 190.988 166.395 190.82 165.928C190.652 165.461 190.568 164.939 190.568 164.36C190.568 163.791 190.652 163.273 190.82 162.806C190.988 162.33 191.221 161.924 191.52 161.588C191.828 161.252 192.192 160.995 192.612 160.818C193.032 160.631 193.489 160.538 193.984 160.538C194.478 160.538 194.936 160.631 195.356 160.818C195.776 160.995 196.135 161.252 196.434 161.588C196.742 161.924 196.98 162.33 197.148 162.806C197.316 163.273 197.4 163.791 197.4 164.36ZM196.042 164.36C196.042 163.539 195.855 162.89 195.482 162.414C195.118 161.929 194.618 161.686 193.984 161.686C193.349 161.686 192.845 161.929 192.472 162.414C192.108 162.89 191.926 163.539 191.926 164.36C191.926 165.181 192.108 165.835 192.472 166.32C192.845 166.796 193.349 167.034 193.984 167.034C194.618 167.034 195.118 166.796 195.482 166.32C195.855 165.835 196.042 165.181 196.042 164.36ZM205.657 164.36C205.657 164.939 205.573 165.461 205.405 165.928C205.237 166.395 204.999 166.796 204.691 167.132C204.393 167.468 204.033 167.729 203.613 167.916C203.193 168.093 202.736 168.182 202.241 168.182C201.747 168.182 201.289 168.093 200.869 167.916C200.449 167.729 200.085 167.468 199.777 167.132C199.479 166.796 199.245 166.395 199.077 165.928C198.909 165.461 198.825 164.939 198.825 164.36C198.825 163.791 198.909 163.273 199.077 162.806C199.245 162.33 199.479 161.924 199.777 161.588C200.085 161.252 200.449 160.995 200.869 160.818C201.289 160.631 201.747 160.538 202.241 160.538C202.736 160.538 203.193 160.631 203.613 160.818C204.033 160.995 204.393 161.252 204.691 161.588C204.999 161.924 205.237 162.33 205.405 162.806C205.573 163.273 205.657 163.791 205.657 164.36ZM204.299 164.36C204.299 163.539 204.113 162.89 203.739 162.414C203.375 161.929 202.876 161.686 202.241 161.686C201.607 161.686 201.103 161.929 200.729 162.414C200.365 162.89 200.183 163.539 200.183 164.36C200.183 165.181 200.365 165.835 200.729 166.32C201.103 166.796 201.607 167.034 202.241 167.034C202.876 167.034 203.375 166.796 203.739 166.32C204.113 165.835 204.299 165.181 204.299 164.36ZM210.121 163.996C210.401 164.211 210.695 164.477 211.003 164.794C211.32 165.111 211.628 165.457 211.927 165.83C212.235 166.194 212.524 166.567 212.795 166.95C213.066 167.323 213.294 167.673 213.481 168H211.955C211.759 167.673 211.53 167.342 211.269 167.006C211.017 166.661 210.751 166.334 210.471 166.026C210.191 165.709 209.906 165.419 209.617 165.158C209.328 164.897 209.052 164.677 208.791 164.5V168H207.489V157.36L208.791 157.136V163.772C209.015 163.548 209.262 163.301 209.533 163.03C209.804 162.759 210.07 162.484 210.331 162.204C210.592 161.924 210.84 161.658 211.073 161.406C211.306 161.145 211.507 160.916 211.675 160.72H213.201C212.986 160.953 212.753 161.21 212.501 161.49C212.249 161.77 211.988 162.055 211.717 162.344C211.446 162.624 211.171 162.909 210.891 163.198C210.62 163.478 210.364 163.744 210.121 163.996ZM216.498 167.062C217.03 167.062 217.422 166.992 217.674 166.852C217.935 166.712 218.066 166.488 218.066 166.18C218.066 165.863 217.94 165.611 217.688 165.424C217.436 165.237 217.02 165.027 216.442 164.794C216.162 164.682 215.891 164.57 215.63 164.458C215.378 164.337 215.158 164.197 214.972 164.038C214.785 163.879 214.636 163.688 214.524 163.464C214.412 163.24 214.356 162.965 214.356 162.638C214.356 161.994 214.594 161.485 215.07 161.112C215.546 160.729 216.194 160.538 217.016 160.538C217.221 160.538 217.426 160.552 217.632 160.58C217.837 160.599 218.028 160.627 218.206 160.664C218.383 160.692 218.537 160.725 218.668 160.762C218.808 160.799 218.915 160.832 218.99 160.86L218.752 161.98C218.612 161.905 218.392 161.831 218.094 161.756C217.795 161.672 217.436 161.63 217.016 161.63C216.652 161.63 216.334 161.705 216.064 161.854C215.793 161.994 215.658 162.218 215.658 162.526C215.658 162.685 215.686 162.825 215.742 162.946C215.807 163.067 215.9 163.179 216.022 163.282C216.152 163.375 216.311 163.464 216.498 163.548C216.684 163.632 216.908 163.721 217.17 163.814C217.515 163.945 217.823 164.075 218.094 164.206C218.364 164.327 218.593 164.472 218.78 164.64C218.976 164.808 219.125 165.013 219.228 165.256C219.33 165.489 219.382 165.779 219.382 166.124C219.382 166.796 219.13 167.305 218.626 167.65C218.131 167.995 217.422 168.168 216.498 168.168C215.854 168.168 215.35 168.112 214.986 168C214.622 167.897 214.374 167.818 214.244 167.762L214.482 166.642C214.631 166.698 214.869 166.782 215.196 166.894C215.522 167.006 215.956 167.062 216.498 167.062ZM27.808 184.566C27.92 184.566 28.046 184.575 28.186 184.594C28.3353 184.603 28.48 184.622 28.62 184.65C28.76 184.669 28.886 184.692 28.998 184.72C29.1193 184.739 29.208 184.757 29.264 184.776L29.04 185.91C28.9373 185.873 28.7647 185.831 28.522 185.784C28.2887 185.728 27.9853 185.7 27.612 185.7C27.3693 185.7 27.1267 185.728 26.884 185.784C26.6507 185.831 26.4967 185.863 26.422 185.882V192H25.12V185.028C25.428 184.916 25.8107 184.813 26.268 184.72C26.7253 184.617 27.2387 184.566 27.808 184.566ZM30.1144 188.374C30.1144 187.73 30.2077 187.17 30.3944 186.694C30.5811 186.209 30.8284 185.807 31.1364 185.49C31.4444 185.173 31.7991 184.935 32.2004 184.776C32.6017 184.617 33.0124 184.538 33.4324 184.538C34.4124 184.538 35.1637 184.846 35.6864 185.462C36.2091 186.069 36.4704 186.997 36.4704 188.248C36.4704 188.304 36.4704 188.379 36.4704 188.472C36.4704 188.556 36.4657 188.635 36.4564 188.71H31.4724C31.5284 189.466 31.7477 190.04 32.1304 190.432C32.5131 190.824 33.1104 191.02 33.9224 191.02C34.3797 191.02 34.7624 190.983 35.0704 190.908C35.3877 190.824 35.6257 190.745 35.7844 190.67L35.9664 191.762C35.8077 191.846 35.5277 191.935 35.1264 192.028C34.7344 192.121 34.2864 192.168 33.7824 192.168C33.1477 192.168 32.5971 192.075 32.1304 191.888C31.6731 191.692 31.2951 191.426 30.9964 191.09C30.6977 190.754 30.4737 190.357 30.3244 189.9C30.1844 189.433 30.1144 188.925 30.1144 188.374ZM35.1124 187.66C35.1217 187.072 34.9724 186.591 34.6644 186.218C34.3657 185.835 33.9504 185.644 33.4184 185.644C33.1197 185.644 32.8537 185.705 32.6204 185.826C32.3964 185.938 32.2051 186.087 32.0464 186.274C31.8877 186.461 31.7617 186.675 31.6684 186.918C31.5844 187.161 31.5284 187.408 31.5004 187.66H35.1124ZM40.8047 191.062C41.1127 191.062 41.3834 191.057 41.6167 191.048C41.8594 191.029 42.06 191.001 42.2187 190.964V188.794C42.1254 188.747 41.9714 188.71 41.7567 188.682C41.5514 188.645 41.2994 188.626 41.0007 188.626C40.8047 188.626 40.5947 188.64 40.3707 188.668C40.156 188.696 39.9554 188.757 39.7687 188.85C39.5914 188.934 39.442 189.055 39.3207 189.214C39.1994 189.363 39.1387 189.564 39.1387 189.816C39.1387 190.283 39.288 190.609 39.5867 190.796C39.8854 190.973 40.2914 191.062 40.8047 191.062ZM40.6927 184.538C41.2154 184.538 41.654 184.608 42.0087 184.748C42.3727 184.879 42.662 185.07 42.8767 185.322C43.1007 185.565 43.2594 185.859 43.3527 186.204C43.446 186.54 43.4927 186.913 43.4927 187.324V191.874C43.3807 191.893 43.222 191.921 43.0167 191.958C42.8207 191.986 42.5967 192.014 42.3447 192.042C42.0927 192.07 41.8174 192.093 41.5187 192.112C41.2294 192.14 40.94 192.154 40.6507 192.154C40.24 192.154 39.862 192.112 39.5167 192.028C39.1714 191.944 38.8727 191.813 38.6207 191.636C38.3687 191.449 38.1727 191.207 38.0327 190.908C37.8927 190.609 37.8227 190.25 37.8227 189.83C37.8227 189.429 37.902 189.083 38.0607 188.794C38.2287 188.505 38.4527 188.271 38.7327 188.094C39.0127 187.917 39.3394 187.786 39.7127 187.702C40.086 187.618 40.478 187.576 40.8887 187.576C41.0194 187.576 41.1547 187.585 41.2947 187.604C41.4347 187.613 41.5654 187.632 41.6867 187.66C41.8174 187.679 41.9294 187.697 42.0227 187.716C42.116 187.735 42.1814 187.749 42.2187 187.758V187.394C42.2187 187.179 42.1954 186.969 42.1487 186.764C42.102 186.549 42.018 186.363 41.8967 186.204C41.7754 186.036 41.6074 185.905 41.3927 185.812C41.1874 185.709 40.9167 185.658 40.5807 185.658C40.1514 185.658 39.7734 185.691 39.4467 185.756C39.1294 185.812 38.8914 185.873 38.7327 185.938L38.5787 184.86C38.7467 184.785 39.0267 184.715 39.4187 184.65C39.8107 184.575 40.2354 184.538 40.6927 184.538ZM47.3492 191.062C47.8812 191.062 48.2732 190.992 48.5252 190.852C48.7865 190.712 48.9172 190.488 48.9172 190.18C48.9172 189.863 48.7912 189.611 48.5392 189.424C48.2872 189.237 47.8718 189.027 47.2932 188.794C47.0132 188.682 46.7425 188.57 46.4812 188.458C46.2292 188.337 46.0098 188.197 45.8232 188.038C45.6365 187.879 45.4872 187.688 45.3752 187.464C45.2632 187.24 45.2072 186.965 45.2072 186.638C45.2072 185.994 45.4452 185.485 45.9212 185.112C46.3972 184.729 47.0458 184.538 47.8672 184.538C48.0725 184.538 48.2778 184.552 48.4832 184.58C48.6885 184.599 48.8798 184.627 49.0572 184.664C49.2345 184.692 49.3885 184.725 49.5192 184.762C49.6592 184.799 49.7665 184.832 49.8412 184.86L49.6032 185.98C49.4632 185.905 49.2438 185.831 48.9452 185.756C48.6465 185.672 48.2872 185.63 47.8672 185.63C47.5032 185.63 47.1858 185.705 46.9152 185.854C46.6445 185.994 46.5092 186.218 46.5092 186.526C46.5092 186.685 46.5372 186.825 46.5932 186.946C46.6585 187.067 46.7518 187.179 46.8732 187.282C47.0038 187.375 47.1625 187.464 47.3492 187.548C47.5358 187.632 47.7598 187.721 48.0212 187.814C48.3665 187.945 48.6745 188.075 48.9452 188.206C49.2158 188.327 49.4445 188.472 49.6312 188.64C49.8272 188.808 49.9765 189.013 50.0792 189.256C50.1818 189.489 50.2332 189.779 50.2332 190.124C50.2332 190.796 49.9812 191.305 49.4772 191.65C48.9825 191.995 48.2732 192.168 47.3492 192.168C46.7052 192.168 46.2012 192.112 45.8372 192C45.4732 191.897 45.2258 191.818 45.0952 191.762L45.3332 190.642C45.4825 190.698 45.7205 190.782 46.0472 190.894C46.3738 191.006 46.8078 191.062 47.3492 191.062ZM58.3292 188.36C58.3292 188.939 58.2452 189.461 58.0772 189.928C57.9092 190.395 57.6712 190.796 57.3632 191.132C57.0645 191.468 56.7052 191.729 56.2852 191.916C55.8652 192.093 55.4079 192.182 54.9132 192.182C54.4185 192.182 53.9612 192.093 53.5412 191.916C53.1212 191.729 52.7572 191.468 52.4492 191.132C52.1505 190.796 51.9172 190.395 51.7492 189.928C51.5812 189.461 51.4972 188.939 51.4972 188.36C51.4972 187.791 51.5812 187.273 51.7492 186.806C51.9172 186.33 52.1505 185.924 52.4492 185.588C52.7572 185.252 53.1212 184.995 53.5412 184.818C53.9612 184.631 54.4185 184.538 54.9132 184.538C55.4079 184.538 55.8652 184.631 56.2852 184.818C56.7052 184.995 57.0645 185.252 57.3632 185.588C57.6712 185.924 57.9092 186.33 58.0772 186.806C58.2452 187.273 58.3292 187.791 58.3292 188.36ZM56.9712 188.36C56.9712 187.539 56.7845 186.89 56.4112 186.414C56.0472 185.929 55.5479 185.686 54.9132 185.686C54.2785 185.686 53.7745 185.929 53.4012 186.414C53.0372 186.89 52.8552 187.539 52.8552 188.36C52.8552 189.181 53.0372 189.835 53.4012 190.32C53.7745 190.796 54.2785 191.034 54.9132 191.034C55.5479 191.034 56.0472 190.796 56.4112 190.32C56.7845 189.835 56.9712 189.181 56.9712 188.36ZM60.161 184.93C60.4597 184.855 60.8563 184.776 61.351 184.692C61.8457 184.608 62.415 184.566 63.059 184.566C63.6377 184.566 64.1183 184.65 64.501 184.818C64.8837 184.977 65.187 185.205 65.411 185.504C65.6443 185.793 65.8077 186.143 65.901 186.554C65.9943 186.965 66.041 187.417 66.041 187.912V192H64.739V188.192C64.739 187.744 64.7063 187.361 64.641 187.044C64.585 186.727 64.487 186.47 64.347 186.274C64.207 186.078 64.0203 185.938 63.787 185.854C63.5537 185.761 63.2643 185.714 62.919 185.714C62.779 185.714 62.6343 185.719 62.485 185.728C62.3357 185.737 62.191 185.751 62.051 185.77C61.9203 185.779 61.799 185.793 61.687 185.812C61.5843 185.831 61.5097 185.845 61.463 185.854V192H60.161V184.93ZM70.6641 191.062C70.9721 191.062 71.2427 191.057 71.4761 191.048C71.7187 191.029 71.9194 191.001 72.0781 190.964V188.794C71.9847 188.747 71.8307 188.71 71.6161 188.682C71.4107 188.645 71.1587 188.626 70.8601 188.626C70.6641 188.626 70.4541 188.64 70.2301 188.668C70.0154 188.696 69.8147 188.757 69.6281 188.85C69.4507 188.934 69.3014 189.055 69.1801 189.214C69.0587 189.363 68.9981 189.564 68.9981 189.816C68.9981 190.283 69.1474 190.609 69.4461 190.796C69.7447 190.973 70.1507 191.062 70.6641 191.062ZM70.5521 184.538C71.0747 184.538 71.5134 184.608 71.8681 184.748C72.2321 184.879 72.5214 185.07 72.7361 185.322C72.9601 185.565 73.1187 185.859 73.2121 186.204C73.3054 186.54 73.3521 186.913 73.3521 187.324V191.874C73.2401 191.893 73.0814 191.921 72.8761 191.958C72.6801 191.986 72.4561 192.014 72.2041 192.042C71.9521 192.07 71.6767 192.093 71.3781 192.112C71.0887 192.14 70.7994 192.154 70.5101 192.154C70.0994 192.154 69.7214 192.112 69.3761 192.028C69.0307 191.944 68.7321 191.813 68.4801 191.636C68.2281 191.449 68.0321 191.207 67.8921 190.908C67.7521 190.609 67.6821 190.25 67.6821 189.83C67.6821 189.429 67.7614 189.083 67.9201 188.794C68.0881 188.505 68.3121 188.271 68.5921 188.094C68.8721 187.917 69.1987 187.786 69.5721 187.702C69.9454 187.618 70.3374 187.576 70.7481 187.576C70.8787 187.576 71.0141 187.585 71.1541 187.604C71.2941 187.613 71.4247 187.632 71.5461 187.66C71.6767 187.679 71.7887 187.697 71.8821 187.716C71.9754 187.735 72.0407 187.749 72.0781 187.758V187.394C72.0781 187.179 72.0547 186.969 72.0081 186.764C71.9614 186.549 71.8774 186.363 71.7561 186.204C71.6347 186.036 71.4667 185.905 71.2521 185.812C71.0467 185.709 70.7761 185.658 70.4401 185.658C70.0107 185.658 69.6327 185.691 69.3061 185.756C68.9887 185.812 68.7507 185.873 68.5921 185.938L68.4381 184.86C68.6061 184.785 68.8861 184.715 69.2781 184.65C69.6701 184.575 70.0947 184.538 70.5521 184.538ZM76.8165 185.042C76.9752 184.939 77.2132 184.832 77.5305 184.72C77.8572 184.608 78.2305 184.552 78.6505 184.552C79.1732 184.552 79.6352 184.645 80.0365 184.832C80.4472 185.019 80.7925 185.28 81.0725 185.616C81.3525 185.952 81.5625 186.353 81.7025 186.82C81.8519 187.287 81.9265 187.8 81.9265 188.36C81.9265 188.948 81.8379 189.48 81.6605 189.956C81.4925 190.423 81.2499 190.819 80.9325 191.146C80.6152 191.473 80.2325 191.725 79.7845 191.902C79.3365 192.079 78.8325 192.168 78.2725 192.168C77.6659 192.168 77.1292 192.126 76.6625 192.042C76.1959 191.958 75.8132 191.874 75.5145 191.79V181.36L76.8165 181.136V185.042ZM76.8165 190.866C76.9472 190.903 77.1292 190.941 77.3625 190.978C77.6052 191.006 77.9039 191.02 78.2585 191.02C78.9585 191.02 79.5185 190.791 79.9385 190.334C80.3585 189.867 80.5685 189.209 80.5685 188.36C80.5685 187.987 80.5312 187.637 80.4565 187.31C80.3819 186.983 80.2605 186.703 80.0925 186.47C79.9245 186.227 79.7052 186.041 79.4345 185.91C79.1732 185.77 78.8559 185.7 78.4825 185.7C78.1279 185.7 77.8012 185.761 77.5025 185.882C77.2039 186.003 76.9752 186.129 76.8165 186.26V190.866ZM85.9427 192.14C85.14 192.121 84.5707 191.949 84.2347 191.622C83.8987 191.295 83.7307 190.787 83.7307 190.096V181.36L85.0327 181.136V189.886C85.0327 190.101 85.0513 190.278 85.0887 190.418C85.126 190.558 85.1867 190.67 85.2707 190.754C85.3547 190.838 85.4667 190.903 85.6067 190.95C85.7467 190.987 85.9193 191.02 86.1247 191.048L85.9427 192.14ZM87.1808 188.374C87.1808 187.73 87.2741 187.17 87.4608 186.694C87.6475 186.209 87.8948 185.807 88.2028 185.49C88.5108 185.173 88.8655 184.935 89.2668 184.776C89.6681 184.617 90.0788 184.538 90.4988 184.538C91.4788 184.538 92.2301 184.846 92.7528 185.462C93.2755 186.069 93.5368 186.997 93.5368 188.248C93.5368 188.304 93.5368 188.379 93.5368 188.472C93.5368 188.556 93.5321 188.635 93.5228 188.71H88.5388C88.5948 189.466 88.8141 190.04 89.1968 190.432C89.5795 190.824 90.1768 191.02 90.9888 191.02C91.4461 191.02 91.8288 190.983 92.1368 190.908C92.4541 190.824 92.6921 190.745 92.8508 190.67L93.0328 191.762C92.8741 191.846 92.5941 191.935 92.1928 192.028C91.8008 192.121 91.3528 192.168 90.8488 192.168C90.2141 192.168 89.6635 192.075 89.1968 191.888C88.7395 191.692 88.3615 191.426 88.0628 191.09C87.7641 190.754 87.5401 190.357 87.3908 189.9C87.2508 189.433 87.1808 188.925 87.1808 188.374ZM92.1788 187.66C92.1881 187.072 92.0388 186.591 91.7308 186.218C91.4321 185.835 91.0168 185.644 90.4848 185.644C90.1861 185.644 89.9201 185.705 89.6868 185.826C89.4628 185.938 89.2715 186.087 89.1128 186.274C88.9541 186.461 88.8281 186.675 88.7348 186.918C88.6508 187.161 88.5948 187.408 88.5668 187.66H92.1788Z" fill="#B9C0C1"/>
</svg>
