<svg width="288" height="225" viewBox="0 0 288 225" fill="none" xmlns="http://www.w3.org/2000/svg">
<rect x="24" y="34" width="40" height="40" rx="10" fill="#FFE1D8"/>
<path d="M43.99 64C38.4685 63.9945 33.9963 59.5149 34 53.9933C34.0037 48.4718 38.4818 43.9982 44.0033 44C49.5249 44.0018 54 48.4785 54 54C53.9967 59.5254 49.5154 64.0022 43.99 64ZM36 54.172C36.0473 58.5732 39.6411 62.1095 44.0425 62.086C48.444 62.0622 51.9995 58.4875 51.9995 54.086C51.9995 49.6845 48.444 46.1098 44.0425 46.086C39.6411 46.0625 36.0473 49.5988 36 54V54.172ZM45 59H43V57H45V59ZM45 55H43V49H45V55Z" fill="#F75532"/>
<path d="M28.86 94.4C30.612 94.4 31.956 94.736 32.892 95.408C33.84 96.068 34.314 97.058 34.314 98.378C34.314 99.098 34.182 99.716 33.918 100.232C33.666 100.736 33.294 101.15 32.802 101.474C32.322 101.786 31.734 102.014 31.038 102.158C30.342 102.302 29.556 102.374 28.68 102.374H27.294V107H25.548V94.706C26.04 94.586 26.586 94.508 27.186 94.472C27.798 94.424 28.356 94.4 28.86 94.4ZM29.004 95.93C28.26 95.93 27.69 95.948 27.294 95.984V100.88H28.608C29.208 100.88 29.748 100.844 30.228 100.772C30.708 100.688 31.11 100.556 31.434 100.376C31.77 100.184 32.028 99.926 32.208 99.602C32.388 99.278 32.478 98.864 32.478 98.36C32.478 97.88 32.382 97.484 32.19 97.172C32.01 96.86 31.758 96.614 31.434 96.434C31.122 96.242 30.756 96.11 30.336 96.038C29.916 95.966 29.472 95.93 29.004 95.93ZM39.8472 97.442C39.9912 97.442 40.1532 97.454 40.3332 97.478C40.5252 97.49 40.7112 97.514 40.8912 97.55C41.0712 97.574 41.2332 97.604 41.3772 97.64C41.5332 97.664 41.6472 97.688 41.7192 97.712L41.4312 99.17C41.2992 99.122 41.0772 99.068 40.7652 99.008C40.4652 98.936 40.0752 98.9 39.5952 98.9C39.2832 98.9 38.9712 98.936 38.6592 99.008C38.3592 99.068 38.1612 99.11 38.0652 99.134V107H36.3912V98.036C36.7872 97.892 37.2792 97.76 37.8672 97.64C38.4552 97.508 39.1152 97.442 39.8472 97.442ZM42.8125 102.338C42.8125 101.51 42.9325 100.79 43.1725 100.178C43.4125 99.554 43.7305 99.038 44.1265 98.63C44.5225 98.222 44.9785 97.916 45.4945 97.712C46.0105 97.508 46.5385 97.406 47.0785 97.406C48.3385 97.406 49.3045 97.802 49.9765 98.594C50.6485 99.374 50.9845 100.568 50.9845 102.176C50.9845 102.248 50.9845 102.344 50.9845 102.464C50.9845 102.572 50.9785 102.674 50.9665 102.77H44.5585C44.6305 103.742 44.9125 104.48 45.4045 104.984C45.8965 105.488 46.6645 105.74 47.7085 105.74C48.2965 105.74 48.7885 105.692 49.1845 105.596C49.5925 105.488 49.8985 105.386 50.1025 105.29L50.3365 106.694C50.1325 106.802 49.7725 106.916 49.2565 107.036C48.7525 107.156 48.1765 107.216 47.5285 107.216C46.7125 107.216 46.0045 107.096 45.4045 106.856C44.8165 106.604 44.3305 106.262 43.9465 105.83C43.5625 105.398 43.2745 104.888 43.0825 104.3C42.9025 103.7 42.8125 103.046 42.8125 102.338ZM49.2385 101.42C49.2505 100.664 49.0585 100.046 48.6625 99.566C48.2785 99.074 47.7445 98.828 47.0605 98.828C46.6765 98.828 46.3345 98.906 46.0345 99.062C45.7465 99.206 45.5005 99.398 45.2965 99.638C45.0925 99.878 44.9305 100.154 44.8105 100.466C44.7025 100.778 44.6305 101.096 44.5945 101.42H49.2385ZM60.6972 97.64C60.2292 99.392 59.6772 101.072 59.0412 102.68C58.4172 104.288 57.8112 105.728 57.2232 107H55.7112C55.1232 105.728 54.5112 104.288 53.8752 102.68C53.2512 101.072 52.7052 99.392 52.2372 97.64H54.0372C54.1812 98.228 54.3492 98.858 54.5412 99.53C54.7452 100.19 54.9552 100.85 55.1712 101.51C55.3992 102.158 55.6272 102.788 55.8552 103.4C56.0832 104.012 56.2992 104.558 56.5032 105.038C56.7072 104.558 56.9232 104.012 57.1512 103.4C57.3792 102.788 57.6012 102.158 57.8172 101.51C58.0452 100.85 58.2552 100.19 58.4472 99.53C58.6512 98.858 58.8252 98.228 58.9692 97.64H60.6972ZM61.6563 102.338C61.6563 101.51 61.7763 100.79 62.0163 100.178C62.2563 99.554 62.5743 99.038 62.9703 98.63C63.3663 98.222 63.8223 97.916 64.3383 97.712C64.8543 97.508 65.3823 97.406 65.9223 97.406C67.1823 97.406 68.1483 97.802 68.8203 98.594C69.4923 99.374 69.8283 100.568 69.8283 102.176C69.8283 102.248 69.8283 102.344 69.8283 102.464C69.8283 102.572 69.8223 102.674 69.8103 102.77H63.4023C63.4743 103.742 63.7563 104.48 64.2483 104.984C64.7403 105.488 65.5083 105.74 66.5523 105.74C67.1403 105.74 67.6323 105.692 68.0283 105.596C68.4363 105.488 68.7423 105.386 68.9463 105.29L69.1803 106.694C68.9763 106.802 68.6163 106.916 68.1003 107.036C67.5963 107.156 67.0203 107.216 66.3723 107.216C65.5563 107.216 64.8483 107.096 64.2483 106.856C63.6603 106.604 63.1743 106.262 62.7903 105.83C62.4063 105.398 62.1183 104.888 61.9263 104.3C61.7463 103.7 61.6563 103.046 61.6563 102.338ZM68.0823 101.42C68.0943 100.664 67.9023 100.046 67.5063 99.566C67.1223 99.074 66.5883 98.828 65.9043 98.828C65.5203 98.828 65.1783 98.906 64.8783 99.062C64.5903 99.206 64.3443 99.398 64.1403 99.638C63.9363 99.878 63.7743 100.154 63.6543 100.466C63.5463 100.778 63.4743 101.096 63.4383 101.42H68.0823ZM72.233 97.91C72.617 97.814 73.127 97.712 73.763 97.604C74.399 97.496 75.131 97.442 75.959 97.442C76.703 97.442 77.321 97.55 77.813 97.766C78.305 97.97 78.695 98.264 78.983 98.648C79.283 99.02 79.493 99.47 79.613 99.998C79.733 100.526 79.793 101.108 79.793 101.744V107H78.119V102.104C78.119 101.528 78.077 101.036 77.993 100.628C77.921 100.22 77.795 99.89 77.615 99.638C77.435 99.386 77.195 99.206 76.895 99.098C76.595 98.978 76.223 98.918 75.779 98.918C75.599 98.918 75.413 98.924 75.221 98.936C75.029 98.948 74.843 98.966 74.663 98.99C74.495 99.002 74.339 99.02 74.195 99.044C74.063 99.068 73.967 99.086 73.907 99.098V107H72.233V97.91ZM84.1349 97.64H87.6809V99.044H84.1349V103.364C84.1349 103.832 84.1709 104.222 84.2429 104.534C84.3149 104.834 84.4229 105.074 84.5669 105.254C84.7109 105.422 84.8909 105.542 85.1069 105.614C85.3229 105.686 85.5749 105.722 85.8629 105.722C86.3669 105.722 86.7689 105.668 87.0689 105.56C87.3809 105.44 87.5969 105.356 87.7169 105.308L88.0409 106.694C87.8729 106.778 87.5789 106.88 87.1589 107C86.7389 107.132 86.2589 107.198 85.7189 107.198C85.0829 107.198 84.5549 107.12 84.1349 106.964C83.7269 106.796 83.3969 106.55 83.1449 106.226C82.8929 105.902 82.7129 105.506 82.6049 105.038C82.5089 104.558 82.4609 104.006 82.4609 103.382V95.03L84.1349 94.742V97.64ZM98.0451 107.216C97.2891 107.216 96.6231 107.096 96.0471 106.856C95.4831 106.616 95.0031 106.28 94.6071 105.848C94.2231 105.416 93.9351 104.906 93.7431 104.318C93.5511 103.718 93.4551 103.058 93.4551 102.338C93.4551 101.618 93.5571 100.958 93.7611 100.358C93.9771 99.758 94.2771 99.242 94.6611 98.81C95.0451 98.366 95.5131 98.024 96.0651 97.784C96.6291 97.532 97.2531 97.406 97.9371 97.406C98.3571 97.406 98.7771 97.442 99.1971 97.514C99.6171 97.586 100.019 97.7 100.403 97.856L100.025 99.278C99.7731 99.158 99.4791 99.062 99.1431 98.99C98.8191 98.918 98.4711 98.882 98.0991 98.882C97.1631 98.882 96.4431 99.176 95.9391 99.764C95.4471 100.352 95.2011 101.21 95.2011 102.338C95.2011 102.842 95.2551 103.304 95.3631 103.724C95.4831 104.144 95.6631 104.504 95.9031 104.804C96.1551 105.104 96.4731 105.338 96.8571 105.506C97.2411 105.662 97.7091 105.74 98.2611 105.74C98.7051 105.74 99.1071 105.698 99.4671 105.614C99.8271 105.53 100.109 105.44 100.313 105.344L100.547 106.748C100.451 106.808 100.313 106.868 100.133 106.928C99.9531 106.976 99.7491 107.018 99.5211 107.054C99.2931 107.102 99.0471 107.138 98.7831 107.162C98.5311 107.198 98.2851 107.216 98.0451 107.216ZM110.378 102.32C110.378 103.064 110.27 103.736 110.054 104.336C109.838 104.936 109.532 105.452 109.136 105.884C108.752 106.316 108.29 106.652 107.75 106.892C107.21 107.12 106.622 107.234 105.986 107.234C105.35 107.234 104.762 107.12 104.222 106.892C103.682 106.652 103.214 106.316 102.818 105.884C102.434 105.452 102.134 104.936 101.918 104.336C101.702 103.736 101.594 103.064 101.594 102.32C101.594 101.588 101.702 100.922 101.918 100.322C102.134 99.71 102.434 99.188 102.818 98.756C103.214 98.324 103.682 97.994 104.222 97.766C104.762 97.526 105.35 97.406 105.986 97.406C106.622 97.406 107.21 97.526 107.75 97.766C108.29 97.994 108.752 98.324 109.136 98.756C109.532 99.188 109.838 99.71 110.054 100.322C110.27 100.922 110.378 101.588 110.378 102.32ZM108.632 102.32C108.632 101.264 108.392 100.43 107.912 99.818C107.444 99.194 106.802 98.882 105.986 98.882C105.17 98.882 104.522 99.194 104.042 99.818C103.574 100.43 103.34 101.264 103.34 102.32C103.34 103.376 103.574 104.216 104.042 104.84C104.522 105.452 105.17 105.758 105.986 105.758C106.802 105.758 107.444 105.452 107.912 104.84C108.392 104.216 108.632 103.376 108.632 102.32ZM119.795 97.64C119.327 99.392 118.775 101.072 118.139 102.68C117.515 104.288 116.909 105.728 116.321 107H114.809C114.221 105.728 113.609 104.288 112.973 102.68C112.349 101.072 111.803 99.392 111.335 97.64H113.135C113.279 98.228 113.447 98.858 113.639 99.53C113.843 100.19 114.053 100.85 114.269 101.51C114.497 102.158 114.725 102.788 114.953 103.4C115.181 104.012 115.397 104.558 115.601 105.038C115.805 104.558 116.021 104.012 116.249 103.4C116.477 102.788 116.699 102.158 116.915 101.51C117.143 100.85 117.353 100.19 117.545 99.53C117.749 98.858 117.923 98.228 118.067 97.64H119.795ZM123.196 107H121.522V97.64H123.196V107ZM122.35 95.948C122.05 95.948 121.792 95.852 121.576 95.66C121.372 95.456 121.27 95.186 121.27 94.85C121.27 94.514 121.372 94.25 121.576 94.058C121.792 93.854 122.05 93.752 122.35 93.752C122.65 93.752 122.902 93.854 123.106 94.058C123.322 94.25 123.43 94.514 123.43 94.85C123.43 95.186 123.322 95.456 123.106 95.66C122.902 95.852 122.65 95.948 122.35 95.948ZM132.123 99.62C131.919 99.452 131.625 99.29 131.241 99.134C130.857 98.978 130.437 98.9 129.981 98.9C129.501 98.9 129.087 98.99 128.739 99.17C128.403 99.338 128.127 99.578 127.911 99.89C127.695 100.19 127.539 100.55 127.443 100.97C127.347 101.39 127.299 101.84 127.299 102.32C127.299 103.412 127.569 104.258 128.109 104.858C128.649 105.446 129.369 105.74 130.269 105.74C130.725 105.74 131.103 105.722 131.403 105.686C131.715 105.638 131.955 105.59 132.123 105.542V99.62ZM132.123 93.32L133.797 93.032V106.73C133.413 106.838 132.921 106.946 132.321 107.054C131.721 107.162 131.031 107.216 130.251 107.216C129.531 107.216 128.883 107.102 128.307 106.874C127.731 106.646 127.239 106.322 126.831 105.902C126.423 105.482 126.105 104.972 125.877 104.372C125.661 103.76 125.553 103.076 125.553 102.32C125.553 101.6 125.643 100.94 125.823 100.34C126.015 99.74 126.291 99.224 126.651 98.792C127.011 98.36 127.449 98.024 127.965 97.784C128.493 97.544 129.093 97.424 129.765 97.424C130.305 97.424 130.779 97.496 131.187 97.64C131.607 97.784 131.919 97.922 132.123 98.054V93.32ZM141.074 97.1C141.758 96.836 142.424 96.5 143.072 96.092C143.72 95.672 144.314 95.15 144.854 94.526H146.042V107H144.368V96.848C144.224 96.98 144.044 97.118 143.828 97.262C143.624 97.406 143.396 97.544 143.144 97.676C142.904 97.808 142.646 97.934 142.37 98.054C142.106 98.174 141.848 98.276 141.596 98.36L141.074 97.1ZM158.579 99.512C158.579 101.984 157.961 103.856 156.725 105.128C155.501 106.388 153.677 107.024 151.253 107.036L151.199 105.632C151.955 105.632 152.633 105.56 153.233 105.416C153.845 105.272 154.379 105.044 154.835 104.732C155.291 104.408 155.669 103.994 155.969 103.49C156.281 102.986 156.509 102.368 156.653 101.636C156.341 101.78 155.987 101.9 155.591 101.996C155.195 102.08 154.787 102.122 154.367 102.122C153.659 102.122 153.059 102.02 152.567 101.816C152.075 101.6 151.673 101.318 151.361 100.97C151.049 100.61 150.821 100.202 150.677 99.746C150.545 99.278 150.479 98.792 150.479 98.288C150.479 97.844 150.557 97.382 150.713 96.902C150.869 96.422 151.103 95.984 151.415 95.588C151.739 95.192 152.147 94.868 152.639 94.616C153.131 94.364 153.713 94.238 154.385 94.238C155.069 94.238 155.669 94.358 156.185 94.598C156.713 94.838 157.151 95.186 157.499 95.642C157.859 96.098 158.129 96.656 158.309 97.316C158.489 97.964 158.579 98.696 158.579 99.512ZM154.547 100.754C154.967 100.754 155.363 100.718 155.735 100.646C156.107 100.562 156.467 100.442 156.815 100.286C156.827 100.154 156.833 100.028 156.833 99.908C156.833 99.776 156.833 99.644 156.833 99.512C156.833 98.996 156.797 98.504 156.725 98.036C156.653 97.556 156.521 97.142 156.329 96.794C156.149 96.434 155.903 96.152 155.591 95.948C155.279 95.732 154.883 95.624 154.403 95.624C154.007 95.624 153.671 95.708 153.395 95.876C153.119 96.044 152.891 96.26 152.711 96.524C152.531 96.776 152.399 97.058 152.315 97.37C152.243 97.67 152.207 97.964 152.207 98.252C152.207 99.068 152.399 99.692 152.783 100.124C153.179 100.544 153.767 100.754 154.547 100.754ZM172.635 97.64C172.167 99.392 171.615 101.072 170.979 102.68C170.355 104.288 169.749 105.728 169.161 107H167.649C167.061 105.728 166.449 104.288 165.813 102.68C165.189 101.072 164.643 99.392 164.175 97.64H165.975C166.119 98.228 166.287 98.858 166.479 99.53C166.683 100.19 166.893 100.85 167.109 101.51C167.337 102.158 167.565 102.788 167.793 103.4C168.021 104.012 168.237 104.558 168.441 105.038C168.645 104.558 168.861 104.012 169.089 103.4C169.317 102.788 169.539 102.158 169.755 101.51C169.983 100.85 170.193 100.19 170.385 99.53C170.589 98.858 170.763 98.228 170.907 97.64H172.635ZM176.036 107H174.362V97.64H176.036V107ZM175.19 95.948C174.89 95.948 174.632 95.852 174.416 95.66C174.212 95.456 174.11 95.186 174.11 94.85C174.11 94.514 174.212 94.25 174.416 94.058C174.632 93.854 174.89 93.752 175.19 93.752C175.49 93.752 175.742 93.854 175.946 94.058C176.162 94.25 176.27 94.514 176.27 94.85C176.27 95.186 176.162 95.456 175.946 95.66C175.742 95.852 175.49 95.948 175.19 95.948ZM182.371 97.442C182.515 97.442 182.677 97.454 182.857 97.478C183.049 97.49 183.235 97.514 183.415 97.55C183.595 97.574 183.757 97.604 183.901 97.64C184.057 97.664 184.171 97.688 184.243 97.712L183.955 99.17C183.823 99.122 183.601 99.068 183.289 99.008C182.989 98.936 182.599 98.9 182.119 98.9C181.807 98.9 181.495 98.936 181.183 99.008C180.883 99.068 180.685 99.11 180.589 99.134V107H178.915V98.036C179.311 97.892 179.803 97.76 180.391 97.64C180.979 97.508 181.639 97.442 182.371 97.442ZM193.31 106.73C192.926 106.826 192.416 106.928 191.78 107.036C191.156 107.144 190.43 107.198 189.602 107.198C188.882 107.198 188.276 107.096 187.784 106.892C187.292 106.676 186.896 106.376 186.596 105.992C186.296 105.608 186.08 105.158 185.948 104.642C185.816 104.114 185.75 103.532 185.75 102.896V97.64H187.424V102.536C187.424 103.676 187.604 104.492 187.964 104.984C188.324 105.476 188.93 105.722 189.782 105.722C189.962 105.722 190.148 105.716 190.34 105.704C190.532 105.692 190.712 105.68 190.88 105.668C191.048 105.644 191.198 105.626 191.33 105.614C191.474 105.59 191.576 105.566 191.636 105.542V97.64H193.31V106.73ZM198.372 105.794C199.056 105.794 199.56 105.704 199.884 105.524C200.22 105.344 200.388 105.056 200.388 104.66C200.388 104.252 200.226 103.928 199.902 103.688C199.578 103.448 199.044 103.178 198.3 102.878C197.94 102.734 197.592 102.59 197.256 102.446C196.932 102.29 196.65 102.11 196.41 101.906C196.17 101.702 195.978 101.456 195.834 101.168C195.69 100.88 195.618 100.526 195.618 100.106C195.618 99.278 195.924 98.624 196.536 98.144C197.148 97.652 197.982 97.406 199.038 97.406C199.302 97.406 199.566 97.424 199.83 97.46C200.094 97.484 200.34 97.52 200.568 97.568C200.796 97.604 200.994 97.646 201.162 97.694C201.342 97.742 201.48 97.784 201.576 97.82L201.27 99.26C201.09 99.164 200.808 99.068 200.424 98.972C200.04 98.864 199.578 98.81 199.038 98.81C198.57 98.81 198.162 98.906 197.814 99.098C197.466 99.278 197.292 99.566 197.292 99.962C197.292 100.166 197.328 100.346 197.4 100.502C197.484 100.658 197.604 100.802 197.76 100.934C197.928 101.054 198.132 101.168 198.372 101.276C198.612 101.384 198.9 101.498 199.236 101.618C199.68 101.786 200.076 101.954 200.424 102.122C200.772 102.278 201.066 102.464 201.306 102.68C201.558 102.896 201.75 103.16 201.882 103.472C202.014 103.772 202.08 104.144 202.08 104.588C202.08 105.452 201.756 106.106 201.108 106.55C200.472 106.994 199.56 107.216 198.372 107.216C197.544 107.216 196.896 107.144 196.428 107C195.96 106.868 195.642 106.766 195.474 106.694L195.78 105.254C195.972 105.326 196.278 105.434 196.698 105.578C197.118 105.722 197.676 105.794 198.372 105.794Z" fill="#001F29"/>
<path d="M29.558 142.656C29.4647 142.432 29.3387 142.147 29.18 141.802C29.0307 141.457 28.8673 141.083 28.69 140.682C28.5127 140.281 28.3213 139.87 28.116 139.45C27.92 139.021 27.7333 138.619 27.556 138.246C27.3787 137.863 27.2107 137.523 27.052 137.224C26.9027 136.925 26.7813 136.697 26.688 136.538C26.5853 137.639 26.5013 138.834 26.436 140.122C26.3707 141.401 26.3147 142.693 26.268 144H24.938C24.9753 143.16 25.0173 142.315 25.064 141.466C25.1107 140.607 25.162 139.767 25.218 138.946C25.2833 138.115 25.3487 137.308 25.414 136.524C25.4887 135.74 25.568 134.998 25.652 134.298H26.842C27.094 134.709 27.3647 135.194 27.654 135.754C27.9433 136.314 28.2327 136.902 28.522 137.518C28.8113 138.125 29.0913 138.736 29.362 139.352C29.6327 139.959 29.88 140.514 30.104 141.018C30.328 140.514 30.5753 139.959 30.846 139.352C31.1167 138.736 31.3967 138.125 31.686 137.518C31.9753 136.902 32.2647 136.314 32.554 135.754C32.8433 135.194 33.114 134.709 33.366 134.298H34.556C34.8733 137.425 35.1113 140.659 35.27 144H33.94C33.8933 142.693 33.8373 141.401 33.772 140.122C33.7067 138.834 33.6227 137.639 33.52 136.538C33.4267 136.697 33.3007 136.925 33.142 137.224C32.9927 137.523 32.8293 137.863 32.652 138.246C32.4747 138.619 32.2833 139.021 32.078 139.45C31.882 139.87 31.6953 140.281 31.518 140.682C31.3407 141.083 31.1727 141.457 31.014 141.802C30.8647 142.147 30.7433 142.432 30.65 142.656H29.558ZM43.7413 140.36C43.7413 140.939 43.6573 141.461 43.4893 141.928C43.3213 142.395 43.0833 142.796 42.7753 143.132C42.4766 143.468 42.1173 143.729 41.6973 143.916C41.2773 144.093 40.82 144.182 40.3253 144.182C39.8306 144.182 39.3733 144.093 38.9533 143.916C38.5333 143.729 38.1693 143.468 37.8613 143.132C37.5626 142.796 37.3293 142.395 37.1613 141.928C36.9933 141.461 36.9093 140.939 36.9093 140.36C36.9093 139.791 36.9933 139.273 37.1613 138.806C37.3293 138.33 37.5626 137.924 37.8613 137.588C38.1693 137.252 38.5333 136.995 38.9533 136.818C39.3733 136.631 39.8306 136.538 40.3253 136.538C40.82 136.538 41.2773 136.631 41.6973 136.818C42.1173 136.995 42.4766 137.252 42.7753 137.588C43.0833 137.924 43.3213 138.33 43.4893 138.806C43.6573 139.273 43.7413 139.791 43.7413 140.36ZM42.3833 140.36C42.3833 139.539 42.1966 138.89 41.8233 138.414C41.4593 137.929 40.96 137.686 40.3253 137.686C39.6906 137.686 39.1866 137.929 38.8133 138.414C38.4493 138.89 38.2673 139.539 38.2673 140.36C38.2673 141.181 38.4493 141.835 38.8133 142.32C39.1866 142.796 39.6906 143.034 40.3253 143.034C40.96 143.034 41.4593 142.796 41.8233 142.32C42.1966 141.835 42.3833 141.181 42.3833 140.36ZM50.2771 138.26C50.1185 138.129 49.8898 138.003 49.5911 137.882C49.2925 137.761 48.9658 137.7 48.6111 137.7C48.2378 137.7 47.9158 137.77 47.6451 137.91C47.3838 138.041 47.1691 138.227 47.0011 138.47C46.8331 138.703 46.7118 138.983 46.6371 139.31C46.5625 139.637 46.5251 139.987 46.5251 140.36C46.5251 141.209 46.7351 141.867 47.1551 142.334C47.5751 142.791 48.1351 143.02 48.8351 143.02C49.1898 143.02 49.4838 143.006 49.7171 142.978C49.9598 142.941 50.1465 142.903 50.2771 142.866V138.26ZM50.2771 133.36L51.5791 133.136V143.79C51.2805 143.874 50.8978 143.958 50.4311 144.042C49.9645 144.126 49.4278 144.168 48.8211 144.168C48.2611 144.168 47.7571 144.079 47.3091 143.902C46.8611 143.725 46.4785 143.473 46.1611 143.146C45.8438 142.819 45.5965 142.423 45.4191 141.956C45.2511 141.48 45.1671 140.948 45.1671 140.36C45.1671 139.8 45.2371 139.287 45.3771 138.82C45.5265 138.353 45.7411 137.952 46.0211 137.616C46.3011 137.28 46.6418 137.019 47.0431 136.832C47.4538 136.645 47.9205 136.552 48.4431 136.552C48.8631 136.552 49.2318 136.608 49.5491 136.72C49.8758 136.832 50.1185 136.939 50.2771 137.042V133.36ZM53.4113 140.374C53.4113 139.73 53.5046 139.17 53.6913 138.694C53.8779 138.209 54.1253 137.807 54.4333 137.49C54.7413 137.173 55.0959 136.935 55.4973 136.776C55.8986 136.617 56.3093 136.538 56.7293 136.538C57.7093 136.538 58.4606 136.846 58.9833 137.462C59.5059 138.069 59.7673 138.997 59.7673 140.248C59.7673 140.304 59.7673 140.379 59.7673 140.472C59.7673 140.556 59.7626 140.635 59.7533 140.71H54.7693C54.8253 141.466 55.0446 142.04 55.4273 142.432C55.8099 142.824 56.4073 143.02 57.2193 143.02C57.6766 143.02 58.0593 142.983 58.3673 142.908C58.6846 142.824 58.9226 142.745 59.0813 142.67L59.2633 143.762C59.1046 143.846 58.8246 143.935 58.4233 144.028C58.0313 144.121 57.5833 144.168 57.0793 144.168C56.4446 144.168 55.8939 144.075 55.4273 143.888C54.9699 143.692 54.5919 143.426 54.2933 143.09C53.9946 142.754 53.7706 142.357 53.6213 141.9C53.4813 141.433 53.4113 140.925 53.4113 140.374ZM58.4093 139.66C58.4186 139.072 58.2693 138.591 57.9613 138.218C57.6626 137.835 57.2473 137.644 56.7153 137.644C56.4166 137.644 56.1506 137.705 55.9173 137.826C55.6933 137.938 55.5019 138.087 55.3433 138.274C55.1846 138.461 55.0586 138.675 54.9653 138.918C54.8813 139.161 54.8253 139.408 54.7973 139.66H58.4093ZM63.8216 144.14C63.0189 144.121 62.4496 143.949 62.1136 143.622C61.7776 143.295 61.6096 142.787 61.6096 142.096V133.36L62.9116 133.136V141.886C62.9116 142.101 62.9302 142.278 62.9676 142.418C63.0049 142.558 63.0656 142.67 63.1496 142.754C63.2336 142.838 63.3456 142.903 63.4856 142.95C63.6256 142.987 63.7982 143.02 64.0036 143.048L63.8216 144.14ZM70.3999 143.062C70.9319 143.062 71.3239 142.992 71.5759 142.852C71.8373 142.712 71.9679 142.488 71.9679 142.18C71.9679 141.863 71.8419 141.611 71.5899 141.424C71.3379 141.237 70.9226 141.027 70.3439 140.794C70.0639 140.682 69.7933 140.57 69.5319 140.458C69.2799 140.337 69.0606 140.197 68.8739 140.038C68.6873 139.879 68.5379 139.688 68.4259 139.464C68.3139 139.24 68.2579 138.965 68.2579 138.638C68.2579 137.994 68.4959 137.485 68.9719 137.112C69.4479 136.729 70.0966 136.538 70.9179 136.538C71.1233 136.538 71.3286 136.552 71.5339 136.58C71.7393 136.599 71.9306 136.627 72.1079 136.664C72.2853 136.692 72.4393 136.725 72.5699 136.762C72.7099 136.799 72.8173 136.832 72.8919 136.86L72.6539 137.98C72.5139 137.905 72.2946 137.831 71.9959 137.756C71.6973 137.672 71.3379 137.63 70.9179 137.63C70.5539 137.63 70.2366 137.705 69.9659 137.854C69.6953 137.994 69.5599 138.218 69.5599 138.526C69.5599 138.685 69.5879 138.825 69.6439 138.946C69.7093 139.067 69.8026 139.179 69.9239 139.282C70.0546 139.375 70.2133 139.464 70.3999 139.548C70.5866 139.632 70.8106 139.721 71.0719 139.814C71.4173 139.945 71.7253 140.075 71.9959 140.206C72.2666 140.327 72.4953 140.472 72.6819 140.64C72.8779 140.808 73.0273 141.013 73.1299 141.256C73.2326 141.489 73.2839 141.779 73.2839 142.124C73.2839 142.796 73.0319 143.305 72.5279 143.65C72.0333 143.995 71.3239 144.168 70.3999 144.168C69.7559 144.168 69.2519 144.112 68.8879 144C68.5239 143.897 68.2766 143.818 68.1459 143.762L68.3839 142.642C68.5333 142.698 68.7713 142.782 69.0979 142.894C69.4246 143.006 69.8586 143.062 70.3999 143.062ZM74.548 140.374C74.548 139.73 74.6413 139.17 74.828 138.694C75.0147 138.209 75.262 137.807 75.57 137.49C75.878 137.173 76.2327 136.935 76.634 136.776C77.0353 136.617 77.446 136.538 77.866 136.538C78.846 136.538 79.5973 136.846 80.12 137.462C80.6427 138.069 80.904 138.997 80.904 140.248C80.904 140.304 80.904 140.379 80.904 140.472C80.904 140.556 80.8993 140.635 80.89 140.71H75.906C75.962 141.466 76.1813 142.04 76.564 142.432C76.9467 142.824 77.544 143.02 78.356 143.02C78.8133 143.02 79.196 142.983 79.504 142.908C79.8213 142.824 80.0593 142.745 80.218 142.67L80.4 143.762C80.2413 143.846 79.9613 143.935 79.56 144.028C79.168 144.121 78.72 144.168 78.216 144.168C77.5813 144.168 77.0307 144.075 76.564 143.888C76.1067 143.692 75.7287 143.426 75.43 143.09C75.1313 142.754 74.9073 142.357 74.758 141.9C74.618 141.433 74.548 140.925 74.548 140.374ZM79.546 139.66C79.5553 139.072 79.406 138.591 79.098 138.218C78.7993 137.835 78.384 137.644 77.852 137.644C77.5533 137.644 77.2873 137.705 77.054 137.826C76.83 137.938 76.6387 138.087 76.48 138.274C76.3213 138.461 76.1953 138.675 76.102 138.918C76.018 139.161 75.962 139.408 75.934 139.66H79.546ZM82.7743 136.93C83.073 136.855 83.4696 136.776 83.9643 136.692C84.459 136.608 85.0283 136.566 85.6723 136.566C86.251 136.566 86.7316 136.65 87.1143 136.818C87.497 136.977 87.8003 137.205 88.0243 137.504C88.2576 137.793 88.421 138.143 88.5143 138.554C88.6076 138.965 88.6543 139.417 88.6543 139.912V144H87.3523V140.192C87.3523 139.744 87.3196 139.361 87.2543 139.044C87.1983 138.727 87.1003 138.47 86.9603 138.274C86.8203 138.078 86.6336 137.938 86.4003 137.854C86.167 137.761 85.8776 137.714 85.5323 137.714C85.3923 137.714 85.2476 137.719 85.0983 137.728C84.949 137.737 84.8043 137.751 84.6643 137.77C84.5336 137.779 84.4123 137.793 84.3003 137.812C84.1976 137.831 84.123 137.845 84.0763 137.854V144H82.7743V136.93ZM92.0314 136.72H94.7894V137.812H92.0314V141.172C92.0314 141.536 92.0594 141.839 92.1154 142.082C92.1714 142.315 92.2554 142.502 92.3674 142.642C92.4794 142.773 92.6194 142.866 92.7874 142.922C92.9554 142.978 93.1514 143.006 93.3754 143.006C93.7674 143.006 94.08 142.964 94.3134 142.88C94.556 142.787 94.724 142.721 94.8174 142.684L95.0694 143.762C94.9387 143.827 94.71 143.907 94.3834 144C94.0567 144.103 93.6834 144.154 93.2634 144.154C92.7687 144.154 92.358 144.093 92.0314 143.972C91.714 143.841 91.4574 143.65 91.2614 143.398C91.0654 143.146 90.9254 142.838 90.8414 142.474C90.7667 142.101 90.7294 141.671 90.7294 141.186V134.69L92.0314 134.466V136.72ZM95.9035 140.374C95.9035 139.73 95.9968 139.17 96.1835 138.694C96.3701 138.209 96.6175 137.807 96.9255 137.49C97.2335 137.173 97.5881 136.935 97.9895 136.776C98.3908 136.617 98.8015 136.538 99.2215 136.538C100.201 136.538 100.953 136.846 101.475 137.462C101.998 138.069 102.259 138.997 102.259 140.248C102.259 140.304 102.259 140.379 102.259 140.472C102.259 140.556 102.255 140.635 102.245 140.71H97.2615C97.3175 141.466 97.5368 142.04 97.9195 142.432C98.3021 142.824 98.8995 143.02 99.7115 143.02C100.169 143.02 100.551 142.983 100.859 142.908C101.177 142.824 101.415 142.745 101.573 142.67L101.755 143.762C101.597 143.846 101.317 143.935 100.915 144.028C100.523 144.121 100.075 144.168 99.5715 144.168C98.9368 144.168 98.3861 144.075 97.9195 143.888C97.4621 143.692 97.0841 143.426 96.7855 143.09C96.4868 142.754 96.2628 142.357 96.1135 141.9C95.9735 141.433 95.9035 140.925 95.9035 140.374ZM100.901 139.66C100.911 139.072 100.761 138.591 100.453 138.218C100.155 137.835 99.7395 137.644 99.2075 137.644C98.9088 137.644 98.6428 137.705 98.4095 137.826C98.1855 137.938 97.9941 138.087 97.8355 138.274C97.6768 138.461 97.5508 138.675 97.4575 138.918C97.3735 139.161 97.3175 139.408 97.2895 139.66H100.901ZM104.13 136.93C104.428 136.855 104.825 136.776 105.32 136.692C105.814 136.608 106.384 136.566 107.028 136.566C107.606 136.566 108.087 136.65 108.47 136.818C108.852 136.977 109.156 137.205 109.38 137.504C109.613 137.793 109.776 138.143 109.87 138.554C109.963 138.965 110.01 139.417 110.01 139.912V144H108.708V140.192C108.708 139.744 108.675 139.361 108.61 139.044C108.554 138.727 108.456 138.47 108.316 138.274C108.176 138.078 107.989 137.938 107.756 137.854C107.522 137.761 107.233 137.714 106.888 137.714C106.748 137.714 106.603 137.719 106.454 137.728C106.304 137.737 106.16 137.751 106.02 137.77C105.889 137.779 105.768 137.793 105.656 137.812C105.553 137.831 105.478 137.845 105.432 137.854V144H104.13V136.93ZM115.333 144.168C114.745 144.168 114.227 144.075 113.779 143.888C113.34 143.701 112.967 143.44 112.659 143.104C112.36 142.768 112.136 142.371 111.987 141.914C111.837 141.447 111.763 140.934 111.763 140.374C111.763 139.814 111.842 139.301 112.001 138.834C112.169 138.367 112.402 137.966 112.701 137.63C112.999 137.285 113.363 137.019 113.793 136.832C114.231 136.636 114.717 136.538 115.249 136.538C115.575 136.538 115.902 136.566 116.229 136.622C116.555 136.678 116.868 136.767 117.167 136.888L116.873 137.994C116.677 137.901 116.448 137.826 116.187 137.77C115.935 137.714 115.664 137.686 115.375 137.686C114.647 137.686 114.087 137.915 113.695 138.372C113.312 138.829 113.121 139.497 113.121 140.374C113.121 140.766 113.163 141.125 113.247 141.452C113.34 141.779 113.48 142.059 113.667 142.292C113.863 142.525 114.11 142.707 114.409 142.838C114.707 142.959 115.071 143.02 115.501 143.02C115.846 143.02 116.159 142.987 116.439 142.922C116.719 142.857 116.938 142.787 117.097 142.712L117.279 143.804C117.204 143.851 117.097 143.897 116.957 143.944C116.817 143.981 116.658 144.014 116.481 144.042C116.303 144.079 116.112 144.107 115.907 144.126C115.711 144.154 115.519 144.168 115.333 144.168ZM118.271 140.374C118.271 139.73 118.364 139.17 118.551 138.694C118.737 138.209 118.985 137.807 119.293 137.49C119.601 137.173 119.955 136.935 120.357 136.776C120.758 136.617 121.169 136.538 121.589 136.538C122.569 136.538 123.32 136.846 123.843 137.462C124.365 138.069 124.627 138.997 124.627 140.248C124.627 140.304 124.627 140.379 124.627 140.472C124.627 140.556 124.622 140.635 124.613 140.71H119.629C119.685 141.466 119.904 142.04 120.287 142.432C120.669 142.824 121.267 143.02 122.079 143.02C122.536 143.02 122.919 142.983 123.227 142.908C123.544 142.824 123.782 142.745 123.941 142.67L124.123 143.762C123.964 143.846 123.684 143.935 123.283 144.028C122.891 144.121 122.443 144.168 121.939 144.168C121.304 144.168 120.753 144.075 120.287 143.888C119.829 143.692 119.451 143.426 119.153 143.09C118.854 142.754 118.63 142.357 118.481 141.9C118.341 141.433 118.271 140.925 118.271 140.374ZM123.269 139.66C123.278 139.072 123.129 138.591 122.821 138.218C122.522 137.835 122.107 137.644 121.575 137.644C121.276 137.644 121.01 137.705 120.777 137.826C120.553 137.938 120.361 138.087 120.203 138.274C120.044 138.461 119.918 138.675 119.825 138.918C119.741 139.161 119.685 139.408 119.657 139.66H123.269ZM131.431 143.062C131.963 143.062 132.355 142.992 132.607 142.852C132.869 142.712 132.999 142.488 132.999 142.18C132.999 141.863 132.873 141.611 132.621 141.424C132.369 141.237 131.954 141.027 131.375 140.794C131.095 140.682 130.825 140.57 130.563 140.458C130.311 140.337 130.092 140.197 129.905 140.038C129.719 139.879 129.569 139.688 129.457 139.464C129.345 139.24 129.289 138.965 129.289 138.638C129.289 137.994 129.527 137.485 130.003 137.112C130.479 136.729 131.128 136.538 131.949 136.538C132.155 136.538 132.36 136.552 132.565 136.58C132.771 136.599 132.962 136.627 133.139 136.664C133.317 136.692 133.471 136.725 133.601 136.762C133.741 136.799 133.849 136.832 133.923 136.86L133.685 137.98C133.545 137.905 133.326 137.831 133.027 137.756C132.729 137.672 132.369 137.63 131.949 137.63C131.585 137.63 131.268 137.705 130.997 137.854C130.727 137.994 130.591 138.218 130.591 138.526C130.591 138.685 130.619 138.825 130.675 138.946C130.741 139.067 130.834 139.179 130.955 139.282C131.086 139.375 131.245 139.464 131.431 139.548C131.618 139.632 131.842 139.721 132.103 139.814C132.449 139.945 132.757 140.075 133.027 140.206C133.298 140.327 133.527 140.472 133.713 140.64C133.909 140.808 134.059 141.013 134.161 141.256C134.264 141.489 134.315 141.779 134.315 142.124C134.315 142.796 134.063 143.305 133.559 143.65C133.065 143.995 132.355 144.168 131.431 144.168C130.787 144.168 130.283 144.112 129.919 144C129.555 143.897 129.308 143.818 129.177 143.762L129.415 142.642C129.565 142.698 129.803 142.782 130.129 142.894C130.456 143.006 130.89 143.062 131.431 143.062ZM137.203 136.72H139.961V137.812H137.203V141.172C137.203 141.536 137.231 141.839 137.287 142.082C137.343 142.315 137.427 142.502 137.539 142.642C137.651 142.773 137.791 142.866 137.959 142.922C138.127 142.978 138.323 143.006 138.547 143.006C138.939 143.006 139.252 142.964 139.485 142.88C139.728 142.787 139.896 142.721 139.989 142.684L140.241 143.762C140.111 143.827 139.882 143.907 139.555 144C139.229 144.103 138.855 144.154 138.435 144.154C137.941 144.154 137.53 144.093 137.203 143.972C136.886 143.841 136.629 143.65 136.433 143.398C136.237 143.146 136.097 142.838 136.013 142.474C135.939 142.101 135.901 141.671 135.901 141.186V134.69L137.203 134.466V136.72ZM144.306 136.566C144.418 136.566 144.544 136.575 144.684 136.594C144.833 136.603 144.978 136.622 145.118 136.65C145.258 136.669 145.384 136.692 145.496 136.72C145.617 136.739 145.706 136.757 145.762 136.776L145.538 137.91C145.435 137.873 145.263 137.831 145.02 137.784C144.787 137.728 144.483 137.7 144.11 137.7C143.867 137.7 143.625 137.728 143.382 137.784C143.149 137.831 142.995 137.863 142.92 137.882V144H141.618V137.028C141.926 136.916 142.309 136.813 142.766 136.72C143.223 136.617 143.737 136.566 144.306 136.566ZM152.814 143.79C152.516 143.865 152.119 143.944 151.624 144.028C151.139 144.112 150.574 144.154 149.93 144.154C149.37 144.154 148.899 144.075 148.516 143.916C148.134 143.748 147.826 143.515 147.592 143.216C147.359 142.917 147.191 142.567 147.088 142.166C146.986 141.755 146.934 141.303 146.934 140.808V136.72H148.236V140.528C148.236 141.415 148.376 142.049 148.656 142.432C148.936 142.815 149.408 143.006 150.07 143.006C150.21 143.006 150.355 143.001 150.504 142.992C150.654 142.983 150.794 142.973 150.924 142.964C151.055 142.945 151.172 142.931 151.274 142.922C151.386 142.903 151.466 142.885 151.512 142.866V136.72H152.814V143.79ZM158.222 144.168C157.634 144.168 157.116 144.075 156.668 143.888C156.229 143.701 155.856 143.44 155.548 143.104C155.249 142.768 155.025 142.371 154.876 141.914C154.726 141.447 154.652 140.934 154.652 140.374C154.652 139.814 154.731 139.301 154.89 138.834C155.058 138.367 155.291 137.966 155.59 137.63C155.888 137.285 156.252 137.019 156.682 136.832C157.12 136.636 157.606 136.538 158.138 136.538C158.464 136.538 158.791 136.566 159.118 136.622C159.444 136.678 159.757 136.767 160.056 136.888L159.762 137.994C159.566 137.901 159.337 137.826 159.076 137.77C158.824 137.714 158.553 137.686 158.264 137.686C157.536 137.686 156.976 137.915 156.584 138.372C156.201 138.829 156.01 139.497 156.01 140.374C156.01 140.766 156.052 141.125 156.136 141.452C156.229 141.779 156.369 142.059 156.556 142.292C156.752 142.525 156.999 142.707 157.298 142.838C157.596 142.959 157.96 143.02 158.39 143.02C158.735 143.02 159.048 142.987 159.328 142.922C159.608 142.857 159.827 142.787 159.986 142.712L160.168 143.804C160.093 143.851 159.986 143.897 159.846 143.944C159.706 143.981 159.547 144.014 159.37 144.042C159.192 144.079 159.001 144.107 158.796 144.126C158.6 144.154 158.408 144.168 158.222 144.168ZM162.783 136.72H165.541V137.812H162.783V141.172C162.783 141.536 162.811 141.839 162.867 142.082C162.923 142.315 163.007 142.502 163.119 142.642C163.231 142.773 163.371 142.866 163.539 142.922C163.707 142.978 163.903 143.006 164.127 143.006C164.519 143.006 164.832 142.964 165.065 142.88C165.308 142.787 165.476 142.721 165.569 142.684L165.821 143.762C165.691 143.827 165.462 143.907 165.135 144C164.809 144.103 164.435 144.154 164.015 144.154C163.521 144.154 163.11 144.093 162.783 143.972C162.466 143.841 162.209 143.65 162.013 143.398C161.817 143.146 161.677 142.838 161.593 142.474C161.519 142.101 161.481 141.671 161.481 141.186V134.69L162.783 134.466V136.72ZM172.994 143.79C172.695 143.865 172.299 143.944 171.804 144.028C171.319 144.112 170.754 144.154 170.11 144.154C169.55 144.154 169.079 144.075 168.696 143.916C168.313 143.748 168.005 143.515 167.772 143.216C167.539 142.917 167.371 142.567 167.268 142.166C167.165 141.755 167.114 141.303 167.114 140.808V136.72H168.416V140.528C168.416 141.415 168.556 142.049 168.836 142.432C169.116 142.815 169.587 143.006 170.25 143.006C170.39 143.006 170.535 143.001 170.684 142.992C170.833 142.983 170.973 142.973 171.104 142.964C171.235 142.945 171.351 142.931 171.454 142.922C171.566 142.903 171.645 142.885 171.692 142.866V136.72H172.994V143.79ZM177.925 136.566C178.037 136.566 178.163 136.575 178.303 136.594C178.453 136.603 178.597 136.622 178.737 136.65C178.877 136.669 179.003 136.692 179.115 136.72C179.237 136.739 179.325 136.757 179.381 136.776L179.157 137.91C179.055 137.873 178.882 137.831 178.639 137.784C178.406 137.728 178.103 137.7 177.729 137.7C177.487 137.7 177.244 137.728 177.001 137.784C176.768 137.831 176.614 137.863 176.539 137.882V144H175.237V137.028C175.545 136.916 175.928 136.813 176.385 136.72C176.843 136.617 177.356 136.566 177.925 136.566ZM180.232 140.374C180.232 139.73 180.325 139.17 180.512 138.694C180.698 138.209 180.946 137.807 181.254 137.49C181.562 137.173 181.916 136.935 182.318 136.776C182.719 136.617 183.13 136.538 183.55 136.538C184.53 136.538 185.281 136.846 185.804 137.462C186.326 138.069 186.588 138.997 186.588 140.248C186.588 140.304 186.588 140.379 186.588 140.472C186.588 140.556 186.583 140.635 186.574 140.71H181.59C181.646 141.466 181.865 142.04 182.248 142.432C182.63 142.824 183.228 143.02 184.04 143.02C184.497 143.02 184.88 142.983 185.188 142.908C185.505 142.824 185.743 142.745 185.902 142.67L186.084 143.762C185.925 143.846 185.645 143.935 185.244 144.028C184.852 144.121 184.404 144.168 183.9 144.168C183.265 144.168 182.714 144.075 182.248 143.888C181.79 143.692 181.412 143.426 181.114 143.09C180.815 142.754 180.591 142.357 180.442 141.9C180.302 141.433 180.232 140.925 180.232 140.374ZM185.23 139.66C185.239 139.072 185.09 138.591 184.782 138.218C184.483 137.835 184.068 137.644 183.536 137.644C183.237 137.644 182.971 137.705 182.738 137.826C182.514 137.938 182.322 138.087 182.164 138.274C182.005 138.461 181.879 138.675 181.786 138.918C181.702 139.161 181.646 139.408 181.618 139.66H185.23ZM190.152 143.062C190.684 143.062 191.076 142.992 191.328 142.852C191.589 142.712 191.72 142.488 191.72 142.18C191.72 141.863 191.594 141.611 191.342 141.424C191.09 141.237 190.675 141.027 190.096 140.794C189.816 140.682 189.545 140.57 189.284 140.458C189.032 140.337 188.813 140.197 188.626 140.038C188.439 139.879 188.29 139.688 188.178 139.464C188.066 139.24 188.01 138.965 188.01 138.638C188.01 137.994 188.248 137.485 188.724 137.112C189.2 136.729 189.849 136.538 190.67 136.538C190.875 136.538 191.081 136.552 191.286 136.58C191.491 136.599 191.683 136.627 191.86 136.664C192.037 136.692 192.191 136.725 192.322 136.762C192.462 136.799 192.569 136.832 192.644 136.86L192.406 137.98C192.266 137.905 192.047 137.831 191.748 137.756C191.449 137.672 191.09 137.63 190.67 137.63C190.306 137.63 189.989 137.705 189.718 137.854C189.447 137.994 189.312 138.218 189.312 138.526C189.312 138.685 189.34 138.825 189.396 138.946C189.461 139.067 189.555 139.179 189.676 139.282C189.807 139.375 189.965 139.464 190.152 139.548C190.339 139.632 190.563 139.721 190.824 139.814C191.169 139.945 191.477 140.075 191.748 140.206C192.019 140.327 192.247 140.472 192.434 140.64C192.63 140.808 192.779 141.013 192.882 141.256C192.985 141.489 193.036 141.779 193.036 142.124C193.036 142.796 192.784 143.305 192.28 143.65C191.785 143.995 191.076 144.168 190.152 144.168C189.508 144.168 189.004 144.112 188.64 144C188.276 143.897 188.029 143.818 187.898 143.762L188.136 142.642C188.285 142.698 188.523 142.782 188.85 142.894C189.177 143.006 189.611 143.062 190.152 143.062ZM196.078 142.404C196.087 142.479 196.092 142.553 196.092 142.628C196.092 142.693 196.092 142.763 196.092 142.838C196.092 143.426 196.003 144.005 195.826 144.574C195.658 145.153 195.425 145.703 195.126 146.226L194.118 145.904C194.351 145.428 194.505 144.943 194.58 144.448C194.655 143.963 194.692 143.505 194.692 143.076C194.692 142.955 194.687 142.838 194.678 142.726C194.678 142.614 194.673 142.507 194.664 142.404H196.078ZM26.338 160.72H29.096V161.812H26.338V165.172C26.338 165.536 26.366 165.839 26.422 166.082C26.478 166.315 26.562 166.502 26.674 166.642C26.786 166.773 26.926 166.866 27.094 166.922C27.262 166.978 27.458 167.006 27.682 167.006C28.074 167.006 28.3867 166.964 28.62 166.88C28.8627 166.787 29.0307 166.721 29.124 166.684L29.376 167.762C29.2453 167.827 29.0167 167.907 28.69 168C28.3633 168.103 27.99 168.154 27.57 168.154C27.0753 168.154 26.6647 168.093 26.338 167.972C26.0207 167.841 25.764 167.65 25.568 167.398C25.372 167.146 25.232 166.838 25.148 166.474C25.0733 166.101 25.036 165.671 25.036 165.186V158.69L26.338 158.466V160.72ZM36.9874 164.36C36.9874 164.939 36.9034 165.461 36.7354 165.928C36.5674 166.395 36.3294 166.796 36.0214 167.132C35.7227 167.468 35.3634 167.729 34.9434 167.916C34.5234 168.093 34.0661 168.182 33.5714 168.182C33.0767 168.182 32.6194 168.093 32.1994 167.916C31.7794 167.729 31.4154 167.468 31.1074 167.132C30.8087 166.796 30.5754 166.395 30.4074 165.928C30.2394 165.461 30.1554 164.939 30.1554 164.36C30.1554 163.791 30.2394 163.273 30.4074 162.806C30.5754 162.33 30.8087 161.924 31.1074 161.588C31.4154 161.252 31.7794 160.995 32.1994 160.818C32.6194 160.631 33.0767 160.538 33.5714 160.538C34.0661 160.538 34.5234 160.631 34.9434 160.818C35.3634 160.995 35.7227 161.252 36.0214 161.588C36.3294 161.924 36.5674 162.33 36.7354 162.806C36.9034 163.273 36.9874 163.791 36.9874 164.36ZM35.6294 164.36C35.6294 163.539 35.4427 162.89 35.0694 162.414C34.7054 161.929 34.2061 161.686 33.5714 161.686C32.9367 161.686 32.4327 161.929 32.0594 162.414C31.6954 162.89 31.5134 163.539 31.5134 164.36C31.5134 165.181 31.6954 165.835 32.0594 166.32C32.4327 166.796 32.9367 167.034 33.5714 167.034C34.2061 167.034 34.7054 166.796 35.0694 166.32C35.4427 165.835 35.6294 165.181 35.6294 164.36ZM46.6235 167.272C46.5115 167.347 46.2921 167.445 45.9655 167.566C45.6481 167.678 45.2748 167.734 44.8455 167.734C44.4068 167.734 43.9915 167.664 43.5995 167.524C43.2168 167.384 42.8808 167.169 42.5915 166.88C42.3021 166.581 42.0735 166.213 41.9055 165.774C41.7375 165.335 41.6535 164.813 41.6535 164.206C41.6535 163.674 41.7328 163.189 41.8915 162.75C42.0501 162.302 42.2788 161.919 42.5775 161.602C42.8855 161.275 43.2588 161.023 43.6975 160.846C44.1361 160.659 44.6308 160.566 45.1815 160.566C45.7881 160.566 46.3155 160.613 46.7635 160.706C47.2208 160.79 47.6035 160.869 47.9115 160.944V167.44C47.9115 168.56 47.6221 169.372 47.0435 169.876C46.4648 170.38 45.5875 170.632 44.4115 170.632C43.9541 170.632 43.5201 170.595 43.1095 170.52C42.7081 170.445 42.3581 170.357 42.0595 170.254L42.2975 169.12C42.5588 169.223 42.8761 169.311 43.2495 169.386C43.6321 169.47 44.0288 169.512 44.4395 169.512C45.2141 169.512 45.7695 169.358 46.1055 169.05C46.4508 168.742 46.6235 168.252 46.6235 167.58V167.272ZM46.6095 161.868C46.4788 161.831 46.3015 161.798 46.0775 161.77C45.8628 161.733 45.5688 161.714 45.1955 161.714C44.4955 161.714 43.9541 161.943 43.5715 162.4C43.1981 162.857 43.0115 163.464 43.0115 164.22C43.0115 164.64 43.0628 164.999 43.1655 165.298C43.2775 165.597 43.4221 165.844 43.5995 166.04C43.7861 166.236 43.9961 166.381 44.2295 166.474C44.4721 166.567 44.7195 166.614 44.9715 166.614C45.3168 166.614 45.6341 166.567 45.9235 166.474C46.2128 166.371 46.4415 166.255 46.6095 166.124V161.868ZM49.7472 164.374C49.7472 163.73 49.8405 163.17 50.0272 162.694C50.2139 162.209 50.4612 161.807 50.7692 161.49C51.0772 161.173 51.4319 160.935 51.8332 160.776C52.2345 160.617 52.6452 160.538 53.0652 160.538C54.0452 160.538 54.7965 160.846 55.3192 161.462C55.8419 162.069 56.1032 162.997 56.1032 164.248C56.1032 164.304 56.1032 164.379 56.1032 164.472C56.1032 164.556 56.0985 164.635 56.0892 164.71H51.1052C51.1612 165.466 51.3805 166.04 51.7632 166.432C52.1459 166.824 52.7432 167.02 53.5552 167.02C54.0125 167.02 54.3952 166.983 54.7032 166.908C55.0205 166.824 55.2585 166.745 55.4172 166.67L55.5992 167.762C55.4405 167.846 55.1605 167.935 54.7592 168.028C54.3672 168.121 53.9192 168.168 53.4152 168.168C52.7805 168.168 52.2299 168.075 51.7632 167.888C51.3059 167.692 50.9279 167.426 50.6292 167.09C50.3305 166.754 50.1065 166.357 49.9572 165.9C49.8172 165.433 49.7472 164.925 49.7472 164.374ZM54.7452 163.66C54.7545 163.072 54.6052 162.591 54.2972 162.218C53.9985 161.835 53.5832 161.644 53.0512 161.644C52.7525 161.644 52.4865 161.705 52.2532 161.826C52.0292 161.938 51.8379 162.087 51.6792 162.274C51.5205 162.461 51.3945 162.675 51.3012 162.918C51.2172 163.161 51.1612 163.408 51.1332 163.66H54.7452ZM57.9735 160.93C58.2722 160.855 58.6688 160.776 59.1635 160.692C59.6582 160.608 60.2275 160.566 60.8715 160.566C61.4502 160.566 61.9308 160.65 62.3135 160.818C62.6962 160.977 62.9995 161.205 63.2235 161.504C63.4568 161.793 63.6202 162.143 63.7135 162.554C63.8068 162.965 63.8535 163.417 63.8535 163.912V168H62.5515V164.192C62.5515 163.744 62.5188 163.361 62.4535 163.044C62.3975 162.727 62.2995 162.47 62.1595 162.274C62.0195 162.078 61.8328 161.938 61.5995 161.854C61.3662 161.761 61.0768 161.714 60.7315 161.714C60.5915 161.714 60.4468 161.719 60.2975 161.728C60.1482 161.737 60.0035 161.751 59.8635 161.77C59.7328 161.779 59.6115 161.793 59.4995 161.812C59.3968 161.831 59.3222 161.845 59.2755 161.854V168H57.9735V160.93ZM65.6066 164.374C65.6066 163.73 65.6999 163.17 65.8866 162.694C66.0732 162.209 66.3206 161.807 66.6286 161.49C66.9366 161.173 67.2912 160.935 67.6926 160.776C68.0939 160.617 68.5046 160.538 68.9246 160.538C69.9046 160.538 70.6559 160.846 71.1786 161.462C71.7012 162.069 71.9626 162.997 71.9626 164.248C71.9626 164.304 71.9626 164.379 71.9626 164.472C71.9626 164.556 71.9579 164.635 71.9486 164.71H66.9646C67.0206 165.466 67.2399 166.04 67.6226 166.432C68.0052 166.824 68.6026 167.02 69.4146 167.02C69.8719 167.02 70.2546 166.983 70.5626 166.908C70.8799 166.824 71.1179 166.745 71.2766 166.67L71.4586 167.762C71.2999 167.846 71.0199 167.935 70.6186 168.028C70.2266 168.121 69.7786 168.168 69.2746 168.168C68.6399 168.168 68.0892 168.075 67.6226 167.888C67.1652 167.692 66.7872 167.426 66.4886 167.09C66.1899 166.754 65.9659 166.357 65.8166 165.9C65.6766 165.433 65.6066 164.925 65.6066 164.374ZM70.6046 163.66C70.6139 163.072 70.4646 162.591 70.1566 162.218C69.8579 161.835 69.4426 161.644 68.9106 161.644C68.6119 161.644 68.3459 161.705 68.1126 161.826C67.8886 161.938 67.6972 162.087 67.5386 162.274C67.3799 162.461 67.2539 162.675 67.1606 162.918C67.0766 163.161 67.0206 163.408 66.9926 163.66H70.6046ZM76.5209 160.566C76.6329 160.566 76.7589 160.575 76.8989 160.594C77.0482 160.603 77.1929 160.622 77.3329 160.65C77.4729 160.669 77.5989 160.692 77.7109 160.72C77.8322 160.739 77.9209 160.757 77.9769 160.776L77.7529 161.91C77.6502 161.873 77.4776 161.831 77.2349 161.784C77.0016 161.728 76.6982 161.7 76.3249 161.7C76.0822 161.7 75.8396 161.728 75.5969 161.784C75.3636 161.831 75.2096 161.863 75.1349 161.882V168H73.8329V161.028C74.1409 160.916 74.5236 160.813 74.9809 160.72C75.4382 160.617 75.9516 160.566 76.5209 160.566ZM81.6973 167.062C82.0053 167.062 82.2759 167.057 82.5093 167.048C82.7519 167.029 82.9526 167.001 83.1113 166.964V164.794C83.0179 164.747 82.8639 164.71 82.6493 164.682C82.4439 164.645 82.1919 164.626 81.8933 164.626C81.6973 164.626 81.4873 164.64 81.2633 164.668C81.0486 164.696 80.8479 164.757 80.6613 164.85C80.4839 164.934 80.3346 165.055 80.2133 165.214C80.0919 165.363 80.0313 165.564 80.0313 165.816C80.0313 166.283 80.1806 166.609 80.4793 166.796C80.7779 166.973 81.1839 167.062 81.6973 167.062ZM81.5853 160.538C82.1079 160.538 82.5466 160.608 82.9013 160.748C83.2653 160.879 83.5546 161.07 83.7693 161.322C83.9933 161.565 84.1519 161.859 84.2453 162.204C84.3386 162.54 84.3853 162.913 84.3853 163.324V167.874C84.2733 167.893 84.1146 167.921 83.9093 167.958C83.7133 167.986 83.4893 168.014 83.2373 168.042C82.9853 168.07 82.7099 168.093 82.4113 168.112C82.1219 168.14 81.8326 168.154 81.5433 168.154C81.1326 168.154 80.7546 168.112 80.4093 168.028C80.0639 167.944 79.7653 167.813 79.5133 167.636C79.2613 167.449 79.0653 167.207 78.9253 166.908C78.7853 166.609 78.7153 166.25 78.7153 165.83C78.7153 165.429 78.7946 165.083 78.9533 164.794C79.1213 164.505 79.3453 164.271 79.6253 164.094C79.9053 163.917 80.2319 163.786 80.6053 163.702C80.9786 163.618 81.3706 163.576 81.7813 163.576C81.9119 163.576 82.0473 163.585 82.1873 163.604C82.3273 163.613 82.4579 163.632 82.5793 163.66C82.7099 163.679 82.8219 163.697 82.9153 163.716C83.0086 163.735 83.0739 163.749 83.1113 163.758V163.394C83.1113 163.179 83.0879 162.969 83.0413 162.764C82.9946 162.549 82.9106 162.363 82.7893 162.204C82.6679 162.036 82.4999 161.905 82.2853 161.812C82.0799 161.709 81.8093 161.658 81.4733 161.658C81.0439 161.658 80.6659 161.691 80.3393 161.756C80.0219 161.812 79.7839 161.873 79.6253 161.938L79.4713 160.86C79.6393 160.785 79.9193 160.715 80.3113 160.65C80.7033 160.575 81.1279 160.538 81.5853 160.538ZM87.7657 160.72H90.5237V161.812H87.7657V165.172C87.7657 165.536 87.7937 165.839 87.8497 166.082C87.9057 166.315 87.9897 166.502 88.1017 166.642C88.2137 166.773 88.3537 166.866 88.5217 166.922C88.6897 166.978 88.8857 167.006 89.1097 167.006C89.5017 167.006 89.8144 166.964 90.0477 166.88C90.2904 166.787 90.4584 166.721 90.5517 166.684L90.8037 167.762C90.6731 167.827 90.4444 167.907 90.1177 168C89.7911 168.103 89.4177 168.154 88.9977 168.154C88.5031 168.154 88.0924 168.093 87.7657 167.972C87.4484 167.841 87.1917 167.65 86.9957 167.398C86.7997 167.146 86.6597 166.838 86.5757 166.474C86.5011 166.101 86.4637 165.671 86.4637 165.186V158.69L87.7657 158.466V160.72ZM91.6378 164.374C91.6378 163.73 91.7312 163.17 91.9178 162.694C92.1045 162.209 92.3518 161.807 92.6598 161.49C92.9678 161.173 93.3225 160.935 93.7238 160.776C94.1252 160.617 94.5358 160.538 94.9558 160.538C95.9358 160.538 96.6872 160.846 97.2098 161.462C97.7325 162.069 97.9938 162.997 97.9938 164.248C97.9938 164.304 97.9938 164.379 97.9938 164.472C97.9938 164.556 97.9892 164.635 97.9798 164.71H92.9958C93.0518 165.466 93.2712 166.04 93.6538 166.432C94.0365 166.824 94.6338 167.02 95.4458 167.02C95.9032 167.02 96.2858 166.983 96.5938 166.908C96.9112 166.824 97.1492 166.745 97.3078 166.67L97.4898 167.762C97.3312 167.846 97.0512 167.935 96.6498 168.028C96.2578 168.121 95.8098 168.168 95.3058 168.168C94.6712 168.168 94.1205 168.075 93.6538 167.888C93.1965 167.692 92.8185 167.426 92.5198 167.09C92.2212 166.754 91.9972 166.357 91.8478 165.9C91.7078 165.433 91.6378 164.925 91.6378 164.374ZM96.6358 163.66C96.6452 163.072 96.4958 162.591 96.1878 162.218C95.8892 161.835 95.4738 161.644 94.9418 161.644C94.6432 161.644 94.3772 161.705 94.1438 161.826C93.9198 161.938 93.7285 162.087 93.5698 162.274C93.4112 162.461 93.2852 162.675 93.1918 162.918C93.1078 163.161 93.0518 163.408 93.0238 163.66H96.6358ZM109.026 166.824V168H103.188V158.298H104.546V166.824H109.026ZM116.626 164.36C116.626 164.939 116.542 165.461 116.374 165.928C116.206 166.395 115.968 166.796 115.66 167.132C115.361 167.468 115.002 167.729 114.582 167.916C114.162 168.093 113.705 168.182 113.21 168.182C112.715 168.182 112.258 168.093 111.838 167.916C111.418 167.729 111.054 167.468 110.746 167.132C110.447 166.796 110.214 166.395 110.046 165.928C109.878 165.461 109.794 164.939 109.794 164.36C109.794 163.791 109.878 163.273 110.046 162.806C110.214 162.33 110.447 161.924 110.746 161.588C111.054 161.252 111.418 160.995 111.838 160.818C112.258 160.631 112.715 160.538 113.21 160.538C113.705 160.538 114.162 160.631 114.582 160.818C115.002 160.995 115.361 161.252 115.66 161.588C115.968 161.924 116.206 162.33 116.374 162.806C116.542 163.273 116.626 163.791 116.626 164.36ZM115.268 164.36C115.268 163.539 115.081 162.89 114.708 162.414C114.344 161.929 113.845 161.686 113.21 161.686C112.575 161.686 112.071 161.929 111.698 162.414C111.334 162.89 111.152 163.539 111.152 164.36C111.152 165.181 111.334 165.835 111.698 166.32C112.071 166.796 112.575 167.034 113.21 167.034C113.845 167.034 114.344 166.796 114.708 166.32C115.081 165.835 115.268 165.181 115.268 164.36ZM121.146 160.566C121.258 160.566 121.384 160.575 121.524 160.594C121.673 160.603 121.818 160.622 121.958 160.65C122.098 160.669 122.224 160.692 122.336 160.72C122.457 160.739 122.546 160.757 122.602 160.776L122.378 161.91C122.275 161.873 122.103 161.831 121.86 161.784C121.627 161.728 121.323 161.7 120.95 161.7C120.707 161.7 120.465 161.728 120.222 161.784C119.989 161.831 119.835 161.863 119.76 161.882V168H118.458V161.028C118.766 160.916 119.149 160.813 119.606 160.72C120.063 160.617 120.577 160.566 121.146 160.566ZM123.452 164.374C123.452 163.73 123.546 163.17 123.732 162.694C123.919 162.209 124.166 161.807 124.474 161.49C124.782 161.173 125.137 160.935 125.538 160.776C125.94 160.617 126.35 160.538 126.77 160.538C127.75 160.538 128.502 160.846 129.024 161.462C129.547 162.069 129.808 162.997 129.808 164.248C129.808 164.304 129.808 164.379 129.808 164.472C129.808 164.556 129.804 164.635 129.794 164.71H124.81C124.866 165.466 125.086 166.04 125.468 166.432C125.851 166.824 126.448 167.02 127.26 167.02C127.718 167.02 128.1 166.983 128.408 166.908C128.726 166.824 128.964 166.745 129.122 166.67L129.304 167.762C129.146 167.846 128.866 167.935 128.464 168.028C128.072 168.121 127.624 168.168 127.12 168.168C126.486 168.168 125.935 168.075 125.468 167.888C125.011 167.692 124.633 167.426 124.334 167.09C124.036 166.754 123.812 166.357 123.662 165.9C123.522 165.433 123.452 164.925 123.452 164.374ZM128.45 163.66C128.46 163.072 128.31 162.591 128.002 162.218C127.704 161.835 127.288 161.644 126.756 161.644C126.458 161.644 126.192 161.705 125.958 161.826C125.734 161.938 125.543 162.087 125.384 162.274C125.226 162.461 125.1 162.675 125.006 162.918C124.922 163.161 124.866 163.408 124.838 163.66H128.45ZM131.679 160.93C131.977 160.855 132.369 160.776 132.855 160.692C133.349 160.608 133.919 160.566 134.563 160.566C135.029 160.566 135.421 160.631 135.739 160.762C136.056 160.883 136.322 161.065 136.537 161.308C136.602 161.261 136.705 161.196 136.845 161.112C136.985 161.028 137.157 160.949 137.363 160.874C137.568 160.79 137.797 160.72 138.049 160.664C138.301 160.599 138.571 160.566 138.861 160.566C139.421 160.566 139.878 160.65 140.233 160.818C140.587 160.977 140.863 161.205 141.059 161.504C141.264 161.803 141.399 162.157 141.465 162.568C141.539 162.979 141.577 163.427 141.577 163.912V168H140.275V164.192C140.275 163.763 140.251 163.394 140.205 163.086C140.167 162.778 140.088 162.521 139.967 162.316C139.855 162.111 139.696 161.961 139.491 161.868C139.295 161.765 139.038 161.714 138.721 161.714C138.282 161.714 137.918 161.775 137.629 161.896C137.349 162.008 137.157 162.111 137.055 162.204C137.129 162.447 137.185 162.713 137.223 163.002C137.26 163.291 137.279 163.595 137.279 163.912V168H135.977V164.192C135.977 163.763 135.953 163.394 135.907 163.086C135.86 162.778 135.776 162.521 135.655 162.316C135.543 162.111 135.384 161.961 135.179 161.868C134.983 161.765 134.731 161.714 134.423 161.714C134.292 161.714 134.152 161.719 134.003 161.728C133.853 161.737 133.709 161.751 133.569 161.77C133.438 161.779 133.317 161.793 133.205 161.812C133.093 161.831 133.018 161.845 132.981 161.854V168H131.679V160.93ZM152.927 168C152.666 167.328 152.386 166.563 152.087 165.704C151.798 164.836 151.532 163.935 151.289 163.002C151.047 163.935 150.781 164.836 150.491 165.704C150.202 166.563 149.927 167.328 149.665 168H148.531C148.102 167.039 147.682 165.942 147.271 164.71C146.861 163.478 146.473 162.148 146.109 160.72H147.509C147.603 161.159 147.715 161.635 147.845 162.148C147.976 162.661 148.111 163.175 148.251 163.688C148.401 164.201 148.555 164.696 148.713 165.172C148.872 165.648 149.021 166.063 149.161 166.418C149.32 165.979 149.474 165.517 149.623 165.032C149.782 164.537 149.931 164.043 150.071 163.548C150.211 163.044 150.342 162.554 150.463 162.078C150.594 161.593 150.706 161.14 150.799 160.72H151.877C151.961 161.14 152.064 161.593 152.185 162.078C152.307 162.554 152.437 163.044 152.577 163.548C152.717 164.043 152.862 164.537 153.011 165.032C153.17 165.517 153.329 165.979 153.487 166.418C153.627 166.063 153.772 165.648 153.921 165.172C154.08 164.696 154.234 164.201 154.383 163.688C154.533 163.175 154.673 162.661 154.803 162.148C154.934 161.635 155.046 161.159 155.139 160.72H156.483C156.119 162.148 155.732 163.478 155.321 164.71C154.911 165.942 154.491 167.039 154.061 168H152.927ZM157.86 168V157.36L159.162 157.136V160.86C159.405 160.767 159.662 160.697 159.932 160.65C160.212 160.594 160.488 160.566 160.758 160.566C161.337 160.566 161.818 160.65 162.2 160.818C162.583 160.977 162.886 161.205 163.11 161.504C163.344 161.793 163.507 162.143 163.6 162.554C163.694 162.965 163.74 163.417 163.74 163.912V168H162.438V164.192C162.438 163.744 162.406 163.361 162.34 163.044C162.284 162.727 162.186 162.47 162.046 162.274C161.906 162.078 161.72 161.938 161.486 161.854C161.253 161.761 160.964 161.714 160.618 161.714C160.478 161.714 160.334 161.723 160.184 161.742C160.035 161.761 159.89 161.784 159.75 161.812C159.62 161.831 159.498 161.854 159.386 161.882C159.284 161.91 159.209 161.933 159.162 161.952V168H157.86ZM167.16 168H165.858V160.72H167.16V168ZM166.502 159.404C166.269 159.404 166.068 159.329 165.9 159.18C165.742 159.021 165.662 158.811 165.662 158.55C165.662 158.289 165.742 158.083 165.9 157.934C166.068 157.775 166.269 157.696 166.502 157.696C166.736 157.696 166.932 157.775 167.09 157.934C167.258 158.083 167.342 158.289 167.342 158.55C167.342 158.811 167.258 159.021 167.09 159.18C166.932 159.329 166.736 159.404 166.502 159.404ZM172.563 168.168C171.975 168.168 171.457 168.075 171.009 167.888C170.571 167.701 170.197 167.44 169.889 167.104C169.591 166.768 169.367 166.371 169.217 165.914C169.068 165.447 168.993 164.934 168.993 164.374C168.993 163.814 169.073 163.301 169.231 162.834C169.399 162.367 169.633 161.966 169.931 161.63C170.23 161.285 170.594 161.019 171.023 160.832C171.462 160.636 171.947 160.538 172.479 160.538C172.806 160.538 173.133 160.566 173.459 160.622C173.786 160.678 174.099 160.767 174.397 160.888L174.103 161.994C173.907 161.901 173.679 161.826 173.417 161.77C173.165 161.714 172.895 161.686 172.605 161.686C171.877 161.686 171.317 161.915 170.925 162.372C170.543 162.829 170.351 163.497 170.351 164.374C170.351 164.766 170.393 165.125 170.477 165.452C170.571 165.779 170.711 166.059 170.897 166.292C171.093 166.525 171.341 166.707 171.639 166.838C171.938 166.959 172.302 167.02 172.731 167.02C173.077 167.02 173.389 166.987 173.669 166.922C173.949 166.857 174.169 166.787 174.327 166.712L174.509 167.804C174.435 167.851 174.327 167.897 174.187 167.944C174.047 167.981 173.889 168.014 173.711 168.042C173.534 168.079 173.343 168.107 173.137 168.126C172.941 168.154 172.75 168.168 172.563 168.168ZM175.907 168V157.36L177.209 157.136V160.86C177.452 160.767 177.708 160.697 177.979 160.65C178.259 160.594 178.534 160.566 178.805 160.566C179.384 160.566 179.864 160.65 180.247 160.818C180.63 160.977 180.933 161.205 181.157 161.504C181.39 161.793 181.554 162.143 181.647 162.554C181.74 162.965 181.787 163.417 181.787 163.912V168H180.485V164.192C180.485 163.744 180.452 163.361 180.387 163.044C180.331 162.727 180.233 162.47 180.093 162.274C179.953 162.078 179.766 161.938 179.533 161.854C179.3 161.761 179.01 161.714 178.665 161.714C178.525 161.714 178.38 161.723 178.231 161.742C178.082 161.761 177.937 161.784 177.797 161.812C177.666 161.831 177.545 161.854 177.433 161.882C177.33 161.91 177.256 161.933 177.209 161.952V168H175.907ZM189.329 168.14C188.527 168.121 187.957 167.949 187.621 167.622C187.285 167.295 187.117 166.787 187.117 166.096V157.36L188.419 157.136V165.886C188.419 166.101 188.438 166.278 188.475 166.418C188.513 166.558 188.573 166.67 188.657 166.754C188.741 166.838 188.853 166.903 188.993 166.95C189.133 166.987 189.306 167.02 189.511 167.048L189.329 168.14ZM197.4 164.36C197.4 164.939 197.316 165.461 197.148 165.928C196.98 166.395 196.742 166.796 196.434 167.132C196.135 167.468 195.776 167.729 195.356 167.916C194.936 168.093 194.478 168.182 193.984 168.182C193.489 168.182 193.032 168.093 192.612 167.916C192.192 167.729 191.828 167.468 191.52 167.132C191.221 166.796 190.988 166.395 190.82 165.928C190.652 165.461 190.568 164.939 190.568 164.36C190.568 163.791 190.652 163.273 190.82 162.806C190.988 162.33 191.221 161.924 191.52 161.588C191.828 161.252 192.192 160.995 192.612 160.818C193.032 160.631 193.489 160.538 193.984 160.538C194.478 160.538 194.936 160.631 195.356 160.818C195.776 160.995 196.135 161.252 196.434 161.588C196.742 161.924 196.98 162.33 197.148 162.806C197.316 163.273 197.4 163.791 197.4 164.36ZM196.042 164.36C196.042 163.539 195.855 162.89 195.482 162.414C195.118 161.929 194.618 161.686 193.984 161.686C193.349 161.686 192.845 161.929 192.472 162.414C192.108 162.89 191.926 163.539 191.926 164.36C191.926 165.181 192.108 165.835 192.472 166.32C192.845 166.796 193.349 167.034 193.984 167.034C194.618 167.034 195.118 166.796 195.482 166.32C195.855 165.835 196.042 165.181 196.042 164.36ZM205.657 164.36C205.657 164.939 205.573 165.461 205.405 165.928C205.237 166.395 204.999 166.796 204.691 167.132C204.393 167.468 204.033 167.729 203.613 167.916C203.193 168.093 202.736 168.182 202.241 168.182C201.747 168.182 201.289 168.093 200.869 167.916C200.449 167.729 200.085 167.468 199.777 167.132C199.479 166.796 199.245 166.395 199.077 165.928C198.909 165.461 198.825 164.939 198.825 164.36C198.825 163.791 198.909 163.273 199.077 162.806C199.245 162.33 199.479 161.924 199.777 161.588C200.085 161.252 200.449 160.995 200.869 160.818C201.289 160.631 201.747 160.538 202.241 160.538C202.736 160.538 203.193 160.631 203.613 160.818C204.033 160.995 204.393 161.252 204.691 161.588C204.999 161.924 205.237 162.33 205.405 162.806C205.573 163.273 205.657 163.791 205.657 164.36ZM204.299 164.36C204.299 163.539 204.113 162.89 203.739 162.414C203.375 161.929 202.876 161.686 202.241 161.686C201.607 161.686 201.103 161.929 200.729 162.414C200.365 162.89 200.183 163.539 200.183 164.36C200.183 165.181 200.365 165.835 200.729 166.32C201.103 166.796 201.607 167.034 202.241 167.034C202.876 167.034 203.375 166.796 203.739 166.32C204.113 165.835 204.299 165.181 204.299 164.36ZM210.121 163.996C210.401 164.211 210.695 164.477 211.003 164.794C211.32 165.111 211.628 165.457 211.927 165.83C212.235 166.194 212.524 166.567 212.795 166.95C213.066 167.323 213.294 167.673 213.481 168H211.955C211.759 167.673 211.53 167.342 211.269 167.006C211.017 166.661 210.751 166.334 210.471 166.026C210.191 165.709 209.906 165.419 209.617 165.158C209.328 164.897 209.052 164.677 208.791 164.5V168H207.489V157.36L208.791 157.136V163.772C209.015 163.548 209.262 163.301 209.533 163.03C209.804 162.759 210.07 162.484 210.331 162.204C210.592 161.924 210.84 161.658 211.073 161.406C211.306 161.145 211.507 160.916 211.675 160.72H213.201C212.986 160.953 212.753 161.21 212.501 161.49C212.249 161.77 211.988 162.055 211.717 162.344C211.446 162.624 211.171 162.909 210.891 163.198C210.62 163.478 210.364 163.744 210.121 163.996ZM216.498 167.062C217.03 167.062 217.422 166.992 217.674 166.852C217.935 166.712 218.066 166.488 218.066 166.18C218.066 165.863 217.94 165.611 217.688 165.424C217.436 165.237 217.02 165.027 216.442 164.794C216.162 164.682 215.891 164.57 215.63 164.458C215.378 164.337 215.158 164.197 214.972 164.038C214.785 163.879 214.636 163.688 214.524 163.464C214.412 163.24 214.356 162.965 214.356 162.638C214.356 161.994 214.594 161.485 215.07 161.112C215.546 160.729 216.194 160.538 217.016 160.538C217.221 160.538 217.426 160.552 217.632 160.58C217.837 160.599 218.028 160.627 218.206 160.664C218.383 160.692 218.537 160.725 218.668 160.762C218.808 160.799 218.915 160.832 218.99 160.86L218.752 161.98C218.612 161.905 218.392 161.831 218.094 161.756C217.795 161.672 217.436 161.63 217.016 161.63C216.652 161.63 216.334 161.705 216.064 161.854C215.793 161.994 215.658 162.218 215.658 162.526C215.658 162.685 215.686 162.825 215.742 162.946C215.807 163.067 215.9 163.179 216.022 163.282C216.152 163.375 216.311 163.464 216.498 163.548C216.684 163.632 216.908 163.721 217.17 163.814C217.515 163.945 217.823 164.075 218.094 164.206C218.364 164.327 218.593 164.472 218.78 164.64C218.976 164.808 219.125 165.013 219.228 165.256C219.33 165.489 219.382 165.779 219.382 166.124C219.382 166.796 219.13 167.305 218.626 167.65C218.131 167.995 217.422 168.168 216.498 168.168C215.854 168.168 215.35 168.112 214.986 168C214.622 167.897 214.374 167.818 214.244 167.762L214.482 166.642C214.631 166.698 214.869 166.782 215.196 166.894C215.522 167.006 215.956 167.062 216.498 167.062ZM27.808 184.566C27.92 184.566 28.046 184.575 28.186 184.594C28.3353 184.603 28.48 184.622 28.62 184.65C28.76 184.669 28.886 184.692 28.998 184.72C29.1193 184.739 29.208 184.757 29.264 184.776L29.04 185.91C28.9373 185.873 28.7647 185.831 28.522 185.784C28.2887 185.728 27.9853 185.7 27.612 185.7C27.3693 185.7 27.1267 185.728 26.884 185.784C26.6507 185.831 26.4967 185.863 26.422 185.882V192H25.12V185.028C25.428 184.916 25.8107 184.813 26.268 184.72C26.7253 184.617 27.2387 184.566 27.808 184.566ZM30.1144 188.374C30.1144 187.73 30.2077 187.17 30.3944 186.694C30.5811 186.209 30.8284 185.807 31.1364 185.49C31.4444 185.173 31.7991 184.935 32.2004 184.776C32.6017 184.617 33.0124 184.538 33.4324 184.538C34.4124 184.538 35.1637 184.846 35.6864 185.462C36.2091 186.069 36.4704 186.997 36.4704 188.248C36.4704 188.304 36.4704 188.379 36.4704 188.472C36.4704 188.556 36.4657 188.635 36.4564 188.71H31.4724C31.5284 189.466 31.7477 190.04 32.1304 190.432C32.5131 190.824 33.1104 191.02 33.9224 191.02C34.3797 191.02 34.7624 190.983 35.0704 190.908C35.3877 190.824 35.6257 190.745 35.7844 190.67L35.9664 191.762C35.8077 191.846 35.5277 191.935 35.1264 192.028C34.7344 192.121 34.2864 192.168 33.7824 192.168C33.1477 192.168 32.5971 192.075 32.1304 191.888C31.6731 191.692 31.2951 191.426 30.9964 191.09C30.6977 190.754 30.4737 190.357 30.3244 189.9C30.1844 189.433 30.1144 188.925 30.1144 188.374ZM35.1124 187.66C35.1217 187.072 34.9724 186.591 34.6644 186.218C34.3657 185.835 33.9504 185.644 33.4184 185.644C33.1197 185.644 32.8537 185.705 32.6204 185.826C32.3964 185.938 32.2051 186.087 32.0464 186.274C31.8877 186.461 31.7617 186.675 31.6684 186.918C31.5844 187.161 31.5284 187.408 31.5004 187.66H35.1124ZM40.8047 191.062C41.1127 191.062 41.3834 191.057 41.6167 191.048C41.8594 191.029 42.06 191.001 42.2187 190.964V188.794C42.1254 188.747 41.9714 188.71 41.7567 188.682C41.5514 188.645 41.2994 188.626 41.0007 188.626C40.8047 188.626 40.5947 188.64 40.3707 188.668C40.156 188.696 39.9554 188.757 39.7687 188.85C39.5914 188.934 39.442 189.055 39.3207 189.214C39.1994 189.363 39.1387 189.564 39.1387 189.816C39.1387 190.283 39.288 190.609 39.5867 190.796C39.8854 190.973 40.2914 191.062 40.8047 191.062ZM40.6927 184.538C41.2154 184.538 41.654 184.608 42.0087 184.748C42.3727 184.879 42.662 185.07 42.8767 185.322C43.1007 185.565 43.2594 185.859 43.3527 186.204C43.446 186.54 43.4927 186.913 43.4927 187.324V191.874C43.3807 191.893 43.222 191.921 43.0167 191.958C42.8207 191.986 42.5967 192.014 42.3447 192.042C42.0927 192.07 41.8174 192.093 41.5187 192.112C41.2294 192.14 40.94 192.154 40.6507 192.154C40.24 192.154 39.862 192.112 39.5167 192.028C39.1714 191.944 38.8727 191.813 38.6207 191.636C38.3687 191.449 38.1727 191.207 38.0327 190.908C37.8927 190.609 37.8227 190.25 37.8227 189.83C37.8227 189.429 37.902 189.083 38.0607 188.794C38.2287 188.505 38.4527 188.271 38.7327 188.094C39.0127 187.917 39.3394 187.786 39.7127 187.702C40.086 187.618 40.478 187.576 40.8887 187.576C41.0194 187.576 41.1547 187.585 41.2947 187.604C41.4347 187.613 41.5654 187.632 41.6867 187.66C41.8174 187.679 41.9294 187.697 42.0227 187.716C42.116 187.735 42.1814 187.749 42.2187 187.758V187.394C42.2187 187.179 42.1954 186.969 42.1487 186.764C42.102 186.549 42.018 186.363 41.8967 186.204C41.7754 186.036 41.6074 185.905 41.3927 185.812C41.1874 185.709 40.9167 185.658 40.5807 185.658C40.1514 185.658 39.7734 185.691 39.4467 185.756C39.1294 185.812 38.8914 185.873 38.7327 185.938L38.5787 184.86C38.7467 184.785 39.0267 184.715 39.4187 184.65C39.8107 184.575 40.2354 184.538 40.6927 184.538ZM47.3492 191.062C47.8812 191.062 48.2732 190.992 48.5252 190.852C48.7865 190.712 48.9172 190.488 48.9172 190.18C48.9172 189.863 48.7912 189.611 48.5392 189.424C48.2872 189.237 47.8718 189.027 47.2932 188.794C47.0132 188.682 46.7425 188.57 46.4812 188.458C46.2292 188.337 46.0098 188.197 45.8232 188.038C45.6365 187.879 45.4872 187.688 45.3752 187.464C45.2632 187.24 45.2072 186.965 45.2072 186.638C45.2072 185.994 45.4452 185.485 45.9212 185.112C46.3972 184.729 47.0458 184.538 47.8672 184.538C48.0725 184.538 48.2778 184.552 48.4832 184.58C48.6885 184.599 48.8798 184.627 49.0572 184.664C49.2345 184.692 49.3885 184.725 49.5192 184.762C49.6592 184.799 49.7665 184.832 49.8412 184.86L49.6032 185.98C49.4632 185.905 49.2438 185.831 48.9452 185.756C48.6465 185.672 48.2872 185.63 47.8672 185.63C47.5032 185.63 47.1858 185.705 46.9152 185.854C46.6445 185.994 46.5092 186.218 46.5092 186.526C46.5092 186.685 46.5372 186.825 46.5932 186.946C46.6585 187.067 46.7518 187.179 46.8732 187.282C47.0038 187.375 47.1625 187.464 47.3492 187.548C47.5358 187.632 47.7598 187.721 48.0212 187.814C48.3665 187.945 48.6745 188.075 48.9452 188.206C49.2158 188.327 49.4445 188.472 49.6312 188.64C49.8272 188.808 49.9765 189.013 50.0792 189.256C50.1818 189.489 50.2332 189.779 50.2332 190.124C50.2332 190.796 49.9812 191.305 49.4772 191.65C48.9825 191.995 48.2732 192.168 47.3492 192.168C46.7052 192.168 46.2012 192.112 45.8372 192C45.4732 191.897 45.2258 191.818 45.0952 191.762L45.3332 190.642C45.4825 190.698 45.7205 190.782 46.0472 190.894C46.3738 191.006 46.8078 191.062 47.3492 191.062ZM58.3292 188.36C58.3292 188.939 58.2452 189.461 58.0772 189.928C57.9092 190.395 57.6712 190.796 57.3632 191.132C57.0645 191.468 56.7052 191.729 56.2852 191.916C55.8652 192.093 55.4079 192.182 54.9132 192.182C54.4185 192.182 53.9612 192.093 53.5412 191.916C53.1212 191.729 52.7572 191.468 52.4492 191.132C52.1505 190.796 51.9172 190.395 51.7492 189.928C51.5812 189.461 51.4972 188.939 51.4972 188.36C51.4972 187.791 51.5812 187.273 51.7492 186.806C51.9172 186.33 52.1505 185.924 52.4492 185.588C52.7572 185.252 53.1212 184.995 53.5412 184.818C53.9612 184.631 54.4185 184.538 54.9132 184.538C55.4079 184.538 55.8652 184.631 56.2852 184.818C56.7052 184.995 57.0645 185.252 57.3632 185.588C57.6712 185.924 57.9092 186.33 58.0772 186.806C58.2452 187.273 58.3292 187.791 58.3292 188.36ZM56.9712 188.36C56.9712 187.539 56.7845 186.89 56.4112 186.414C56.0472 185.929 55.5479 185.686 54.9132 185.686C54.2785 185.686 53.7745 185.929 53.4012 186.414C53.0372 186.89 52.8552 187.539 52.8552 188.36C52.8552 189.181 53.0372 189.835 53.4012 190.32C53.7745 190.796 54.2785 191.034 54.9132 191.034C55.5479 191.034 56.0472 190.796 56.4112 190.32C56.7845 189.835 56.9712 189.181 56.9712 188.36ZM60.161 184.93C60.4597 184.855 60.8563 184.776 61.351 184.692C61.8457 184.608 62.415 184.566 63.059 184.566C63.6377 184.566 64.1183 184.65 64.501 184.818C64.8837 184.977 65.187 185.205 65.411 185.504C65.6443 185.793 65.8077 186.143 65.901 186.554C65.9943 186.965 66.041 187.417 66.041 187.912V192H64.739V188.192C64.739 187.744 64.7063 187.361 64.641 187.044C64.585 186.727 64.487 186.47 64.347 186.274C64.207 186.078 64.0203 185.938 63.787 185.854C63.5537 185.761 63.2643 185.714 62.919 185.714C62.779 185.714 62.6343 185.719 62.485 185.728C62.3357 185.737 62.191 185.751 62.051 185.77C61.9203 185.779 61.799 185.793 61.687 185.812C61.5843 185.831 61.5097 185.845 61.463 185.854V192H60.161V184.93ZM70.6641 191.062C70.9721 191.062 71.2427 191.057 71.4761 191.048C71.7187 191.029 71.9194 191.001 72.0781 190.964V188.794C71.9847 188.747 71.8307 188.71 71.6161 188.682C71.4107 188.645 71.1587 188.626 70.8601 188.626C70.6641 188.626 70.4541 188.64 70.2301 188.668C70.0154 188.696 69.8147 188.757 69.6281 188.85C69.4507 188.934 69.3014 189.055 69.1801 189.214C69.0587 189.363 68.9981 189.564 68.9981 189.816C68.9981 190.283 69.1474 190.609 69.4461 190.796C69.7447 190.973 70.1507 191.062 70.6641 191.062ZM70.5521 184.538C71.0747 184.538 71.5134 184.608 71.8681 184.748C72.2321 184.879 72.5214 185.07 72.7361 185.322C72.9601 185.565 73.1187 185.859 73.2121 186.204C73.3054 186.54 73.3521 186.913 73.3521 187.324V191.874C73.2401 191.893 73.0814 191.921 72.8761 191.958C72.6801 191.986 72.4561 192.014 72.2041 192.042C71.9521 192.07 71.6767 192.093 71.3781 192.112C71.0887 192.14 70.7994 192.154 70.5101 192.154C70.0994 192.154 69.7214 192.112 69.3761 192.028C69.0307 191.944 68.7321 191.813 68.4801 191.636C68.2281 191.449 68.0321 191.207 67.8921 190.908C67.7521 190.609 67.6821 190.25 67.6821 189.83C67.6821 189.429 67.7614 189.083 67.9201 188.794C68.0881 188.505 68.3121 188.271 68.5921 188.094C68.8721 187.917 69.1987 187.786 69.5721 187.702C69.9454 187.618 70.3374 187.576 70.7481 187.576C70.8787 187.576 71.0141 187.585 71.1541 187.604C71.2941 187.613 71.4247 187.632 71.5461 187.66C71.6767 187.679 71.7887 187.697 71.8821 187.716C71.9754 187.735 72.0407 187.749 72.0781 187.758V187.394C72.0781 187.179 72.0547 186.969 72.0081 186.764C71.9614 186.549 71.8774 186.363 71.7561 186.204C71.6347 186.036 71.4667 185.905 71.2521 185.812C71.0467 185.709 70.7761 185.658 70.4401 185.658C70.0107 185.658 69.6327 185.691 69.3061 185.756C68.9887 185.812 68.7507 185.873 68.5921 185.938L68.4381 184.86C68.6061 184.785 68.8861 184.715 69.2781 184.65C69.6701 184.575 70.0947 184.538 70.5521 184.538ZM76.8165 185.042C76.9752 184.939 77.2132 184.832 77.5305 184.72C77.8572 184.608 78.2305 184.552 78.6505 184.552C79.1732 184.552 79.6352 184.645 80.0365 184.832C80.4472 185.019 80.7925 185.28 81.0725 185.616C81.3525 185.952 81.5625 186.353 81.7025 186.82C81.8519 187.287 81.9265 187.8 81.9265 188.36C81.9265 188.948 81.8379 189.48 81.6605 189.956C81.4925 190.423 81.2499 190.819 80.9325 191.146C80.6152 191.473 80.2325 191.725 79.7845 191.902C79.3365 192.079 78.8325 192.168 78.2725 192.168C77.6659 192.168 77.1292 192.126 76.6625 192.042C76.1959 191.958 75.8132 191.874 75.5145 191.79V181.36L76.8165 181.136V185.042ZM76.8165 190.866C76.9472 190.903 77.1292 190.941 77.3625 190.978C77.6052 191.006 77.9039 191.02 78.2585 191.02C78.9585 191.02 79.5185 190.791 79.9385 190.334C80.3585 189.867 80.5685 189.209 80.5685 188.36C80.5685 187.987 80.5312 187.637 80.4565 187.31C80.3819 186.983 80.2605 186.703 80.0925 186.47C79.9245 186.227 79.7052 186.041 79.4345 185.91C79.1732 185.77 78.8559 185.7 78.4825 185.7C78.1279 185.7 77.8012 185.761 77.5025 185.882C77.2039 186.003 76.9752 186.129 76.8165 186.26V190.866ZM85.9427 192.14C85.14 192.121 84.5707 191.949 84.2347 191.622C83.8987 191.295 83.7307 190.787 83.7307 190.096V181.36L85.0327 181.136V189.886C85.0327 190.101 85.0513 190.278 85.0887 190.418C85.126 190.558 85.1867 190.67 85.2707 190.754C85.3547 190.838 85.4667 190.903 85.6067 190.95C85.7467 190.987 85.9193 191.02 86.1247 191.048L85.9427 192.14ZM87.1808 188.374C87.1808 187.73 87.2741 187.17 87.4608 186.694C87.6475 186.209 87.8948 185.807 88.2028 185.49C88.5108 185.173 88.8655 184.935 89.2668 184.776C89.6681 184.617 90.0788 184.538 90.4988 184.538C91.4788 184.538 92.2301 184.846 92.7528 185.462C93.2755 186.069 93.5368 186.997 93.5368 188.248C93.5368 188.304 93.5368 188.379 93.5368 188.472C93.5368 188.556 93.5321 188.635 93.5228 188.71H88.5388C88.5948 189.466 88.8141 190.04 89.1968 190.432C89.5795 190.824 90.1768 191.02 90.9888 191.02C91.4461 191.02 91.8288 190.983 92.1368 190.908C92.4541 190.824 92.6921 190.745 92.8508 190.67L93.0328 191.762C92.8741 191.846 92.5941 191.935 92.1928 192.028C91.8008 192.121 91.3528 192.168 90.8488 192.168C90.2141 192.168 89.6635 192.075 89.1968 191.888C88.7395 191.692 88.3615 191.426 88.0628 191.09C87.7641 190.754 87.5401 190.357 87.3908 189.9C87.2508 189.433 87.1808 188.925 87.1808 188.374ZM92.1788 187.66C92.1881 187.072 92.0388 186.591 91.7308 186.218C91.4321 185.835 91.0168 185.644 90.4848 185.644C90.1861 185.644 89.9201 185.705 89.6868 185.826C89.4628 185.938 89.2715 186.087 89.1128 186.274C88.9541 186.461 88.8281 186.675 88.7348 186.918C88.6508 187.161 88.5948 187.408 88.5668 187.66H92.1788Z" fill="#ABADAD"/>
</svg>
