<svg width="281" height="92" viewBox="0 0 281 92" fill="none" xmlns="http://www.w3.org/2000/svg">
<rect width="40" height="40" rx="10" fill="#FFE1D8"/>
<path d="M26.4167 28.1667H13.5833C12.5708 28.1667 11.75 27.3459 11.75 26.3333V13.5C11.75 12.4875 12.5708 11.6667 13.5833 11.6667H15.4167V9.83334H17.25V11.6667H22.75V9.83334H24.5833V11.6667H26.4167C27.4292 11.6667 28.25 12.4875 28.25 13.5V26.3333C28.25 27.3459 27.4292 28.1667 26.4167 28.1667ZM13.5833 17.1667V26.3333H26.4167V17.1667H13.5833ZM13.5833 13.5V15.3333H26.4167V13.5H13.5833ZM19.0833 24.8795L15.6853 21.4814L16.9814 20.1853L19.0833 22.2872L23.0186 18.3519L24.3147 19.6481L19.0833 24.8786V24.8795Z" fill="#F75532"/>
<path d="M66.48 18.448C66.48 19.408 66.3307 20.2453 66.032 20.96C65.7333 21.664 65.312 22.2507 64.768 22.72C64.224 23.1787 63.5733 23.5253 62.816 23.76C62.0587 23.984 61.2267 24.096 60.32 24.096C59.872 24.096 59.376 24.0747 58.832 24.032C58.2987 24 57.8133 23.9307 57.376 23.824V13.072C57.8133 12.9653 58.2987 12.896 58.832 12.864C59.376 12.8213 59.872 12.8 60.32 12.8C61.2267 12.8 62.0587 12.9173 62.816 13.152C63.5733 13.376 64.224 13.7227 64.768 14.192C65.312 14.6507 65.7333 15.2373 66.032 15.952C66.3307 16.656 66.48 17.488 66.48 18.448ZM60.448 22.736C61.92 22.736 63.0187 22.3627 63.744 21.616C64.4693 20.8587 64.832 19.8027 64.832 18.448C64.832 17.0933 64.4693 16.0427 63.744 15.296C63.0187 14.5387 61.92 14.16 60.448 14.16C60.0107 14.16 59.6693 14.1653 59.424 14.176C59.1893 14.1867 59.024 14.1973 58.928 14.208V22.688C59.024 22.6987 59.1893 22.7093 59.424 22.72C59.6693 22.7307 60.0107 22.736 60.448 22.736ZM71.2835 22.928C71.6355 22.928 71.9448 22.9227 72.2115 22.912C72.4888 22.8907 72.7182 22.8587 72.8995 22.816V20.336C72.7928 20.2827 72.6168 20.24 72.3715 20.208C72.1368 20.1653 71.8488 20.144 71.5075 20.144C71.2835 20.144 71.0435 20.16 70.7875 20.192C70.5422 20.224 70.3128 20.2933 70.0995 20.4C69.8968 20.496 69.7262 20.6347 69.5875 20.816C69.4488 20.9867 69.3795 21.216 69.3795 21.504C69.3795 22.0373 69.5502 22.4107 69.8915 22.624C70.2328 22.8267 70.6968 22.928 71.2835 22.928ZM71.1555 15.472C71.7528 15.472 72.2542 15.552 72.6595 15.712C73.0755 15.8613 73.4062 16.08 73.6515 16.368C73.9075 16.6453 74.0888 16.9813 74.1955 17.376C74.3022 17.76 74.3555 18.1867 74.3555 18.656V23.856C74.2275 23.8773 74.0462 23.9093 73.8115 23.952C73.5875 23.984 73.3315 24.016 73.0435 24.048C72.7555 24.08 72.4408 24.1067 72.0995 24.128C71.7688 24.16 71.4382 24.176 71.1075 24.176C70.6382 24.176 70.2062 24.128 69.8115 24.032C69.4168 23.936 69.0755 23.7867 68.7875 23.584C68.4995 23.3707 68.2755 23.0933 68.1155 22.752C67.9555 22.4107 67.8755 22 67.8755 21.52C67.8755 21.0613 67.9662 20.6667 68.1475 20.336C68.3395 20.0053 68.5955 19.7387 68.9155 19.536C69.2355 19.3333 69.6088 19.184 70.0355 19.088C70.4622 18.992 70.9102 18.944 71.3795 18.944C71.5288 18.944 71.6835 18.9547 71.8435 18.976C72.0035 18.9867 72.1528 19.008 72.2915 19.04C72.4408 19.0613 72.5688 19.0827 72.6755 19.104C72.7822 19.1253 72.8568 19.1413 72.8995 19.152V18.736C72.8995 18.4907 72.8728 18.2507 72.8195 18.016C72.7662 17.7707 72.6702 17.5573 72.5315 17.376C72.3928 17.184 72.2008 17.0347 71.9555 16.928C71.7208 16.8107 71.4115 16.752 71.0275 16.752C70.5368 16.752 70.1048 16.7893 69.7315 16.864C69.3688 16.928 69.0968 16.9973 68.9155 17.072L68.7395 15.84C68.9315 15.7547 69.2515 15.6747 69.6995 15.6C70.1475 15.5147 70.6328 15.472 71.1555 15.472ZM78.2189 15.68H81.3709V16.928H78.2189V20.768C78.2189 21.184 78.2509 21.5307 78.3149 21.808C78.3789 22.0747 78.4749 22.288 78.6029 22.448C78.7309 22.5973 78.8909 22.704 79.0829 22.768C79.2749 22.832 79.4989 22.864 79.7549 22.864C80.2029 22.864 80.5602 22.816 80.8269 22.72C81.1042 22.6133 81.2962 22.5387 81.4029 22.496L81.6909 23.728C81.5415 23.8027 81.2802 23.8933 80.9069 24C80.5335 24.1173 80.1069 24.176 79.6269 24.176C79.0615 24.176 78.5922 24.1067 78.2189 23.968C77.8562 23.8187 77.5629 23.6 77.3389 23.312C77.1149 23.024 76.9549 22.672 76.8589 22.256C76.7735 21.8293 76.7309 21.3387 76.7309 20.784V13.36L78.2189 13.104V15.68ZM82.6441 19.856C82.6441 19.12 82.7508 18.48 82.9641 17.936C83.1775 17.3813 83.4601 16.9227 83.8121 16.56C84.1641 16.1973 84.5695 15.9253 85.0281 15.744C85.4868 15.5627 85.9561 15.472 86.4361 15.472C87.5561 15.472 88.4148 15.824 89.0121 16.528C89.6095 17.2213 89.9081 18.2827 89.9081 19.712C89.9081 19.776 89.9081 19.8613 89.9081 19.968C89.9081 20.064 89.9028 20.1547 89.8921 20.24H84.1961C84.2601 21.104 84.5108 21.76 84.9481 22.208C85.3855 22.656 86.0681 22.88 86.9961 22.88C87.5188 22.88 87.9561 22.8373 88.3081 22.752C88.6708 22.656 88.9428 22.5653 89.1241 22.48L89.3321 23.728C89.1508 23.824 88.8308 23.9253 88.3721 24.032C87.9241 24.1387 87.4121 24.192 86.8361 24.192C86.1108 24.192 85.4815 24.0853 84.9481 23.872C84.4255 23.648 83.9935 23.344 83.6521 22.96C83.3108 22.576 83.0548 22.1227 82.8841 21.6C82.7241 21.0667 82.6441 20.4853 82.6441 19.856ZM88.3561 19.04C88.3668 18.368 88.1961 17.8187 87.8441 17.392C87.5028 16.9547 87.0281 16.736 86.4201 16.736C86.0788 16.736 85.7748 16.8053 85.5081 16.944C85.2521 17.072 85.0335 17.2427 84.8521 17.456C84.6708 17.6693 84.5268 17.9147 84.4201 18.192C84.3241 18.4693 84.2601 18.752 84.2281 19.04H88.3561Z" fill="#001F29"/>
<rect x="56" y="44" width="225" height="48" rx="10" fill="#FAFAFA"/>
<path d="M78.538 65.776C78.538 66.112 78.468 66.4387 78.328 66.756C78.1973 67.064 78.02 67.372 77.796 67.68C77.572 67.9787 77.32 68.2773 77.04 68.576C76.76 68.8653 76.48 69.15 76.2 69.43C76.0413 69.5887 75.8547 69.7753 75.64 69.99C75.4347 70.2047 75.2387 70.4287 75.052 70.662C74.8653 70.8953 74.7067 71.1193 74.576 71.334C74.4547 71.5487 74.394 71.7353 74.394 71.894H78.86V73H72.98C72.9707 72.944 72.966 72.888 72.966 72.832C72.966 72.776 72.966 72.7247 72.966 72.678C72.966 72.2393 73.036 71.8333 73.176 71.46C73.3253 71.0773 73.5167 70.718 73.75 70.382C73.9833 70.046 74.2447 69.7287 74.534 69.43C74.8233 69.1313 75.108 68.842 75.388 68.562C75.6213 68.338 75.8407 68.1187 76.046 67.904C76.2607 67.68 76.4473 67.4607 76.606 67.246C76.774 67.022 76.9047 66.7933 76.998 66.56C77.1007 66.3267 77.152 66.0793 77.152 65.818C77.152 65.538 77.1053 65.3 77.012 65.104C76.928 64.908 76.8113 64.7447 76.662 64.614C76.5127 64.4833 76.3353 64.39 76.13 64.334C75.934 64.2687 75.724 64.236 75.5 64.236C75.2293 64.236 74.982 64.2733 74.758 64.348C74.534 64.4227 74.3333 64.5113 74.156 64.614C73.9787 64.7073 73.8293 64.81 73.708 64.922C73.5867 65.0247 73.4933 65.104 73.428 65.16L72.784 64.236C72.868 64.1427 72.994 64.0307 73.162 63.9C73.33 63.76 73.5307 63.6293 73.764 63.508C73.9973 63.3867 74.2587 63.284 74.548 63.2C74.8373 63.116 75.15 63.074 75.486 63.074C76.5033 63.074 77.264 63.312 77.768 63.788C78.2813 64.2547 78.538 64.9173 78.538 65.776ZM82.6883 67.036C84.0977 67.092 85.129 67.4 85.7823 67.96C86.445 68.52 86.7763 69.2807 86.7763 70.242C86.7763 70.6713 86.7017 71.068 86.5523 71.432C86.4123 71.796 86.193 72.1087 85.8943 72.37C85.605 72.6313 85.2363 72.8367 84.7883 72.986C84.3403 73.1353 83.8083 73.21 83.1923 73.21C82.9497 73.21 82.7023 73.1913 82.4503 73.154C82.1983 73.1167 81.965 73.07 81.7503 73.014C81.5357 72.958 81.3443 72.902 81.1763 72.846C81.0083 72.79 80.887 72.7433 80.8123 72.706L81.0643 71.572C81.223 71.6467 81.4797 71.7447 81.8343 71.866C82.1983 71.9873 82.6417 72.048 83.1643 72.048C83.5843 72.048 83.9343 72.0013 84.2143 71.908C84.5037 71.8147 84.737 71.6887 84.9143 71.53C85.0917 71.3713 85.2177 71.1893 85.2923 70.984C85.3763 70.7693 85.4183 70.5453 85.4183 70.312C85.4183 69.9573 85.3577 69.6447 85.2363 69.374C85.115 69.094 84.9003 68.8607 84.5923 68.674C84.2843 68.4873 83.8737 68.3473 83.3603 68.254C82.847 68.1513 82.1983 68.1 81.4143 68.1C81.4703 67.6427 81.5123 67.2133 81.5403 66.812C81.5777 66.4107 81.6103 66.0187 81.6383 65.636C81.6663 65.2533 81.6897 64.8753 81.7083 64.502C81.727 64.1193 81.7457 63.718 81.7643 63.298H86.4403V64.404H82.8983C82.889 64.544 82.875 64.7353 82.8563 64.978C82.8377 65.2113 82.819 65.4587 82.8003 65.72C82.7817 65.972 82.763 66.2193 82.7443 66.462C82.7257 66.7047 82.707 66.896 82.6883 67.036ZM96.9109 69.878C96.9109 70.3447 96.8596 70.7787 96.7569 71.18C96.6636 71.5813 96.4909 71.936 96.2389 72.244C95.9963 72.5427 95.6649 72.7807 95.2449 72.958C94.8343 73.126 94.3163 73.21 93.6909 73.21C93.3736 73.21 93.0796 73.182 92.8089 73.126C92.5476 73.0793 92.3096 73.0187 92.0949 72.944C91.8803 72.86 91.6936 72.776 91.5349 72.692C91.3763 72.5987 91.2503 72.51 91.1569 72.426L91.6889 71.348C91.8849 71.488 92.1369 71.6373 92.4449 71.796C92.7623 71.9453 93.1543 72.02 93.6209 72.02C94.2929 72.02 94.7829 71.852 95.0909 71.516C95.3989 71.1707 95.5529 70.5827 95.5529 69.752V63.298H96.9109V69.878ZM104.961 72.79C104.662 72.8647 104.266 72.944 103.771 73.028C103.286 73.112 102.721 73.154 102.077 73.154C101.517 73.154 101.046 73.0747 100.663 72.916C100.28 72.748 99.9723 72.5147 99.7389 72.216C99.5056 71.9173 99.3376 71.5673 99.2349 71.166C99.1323 70.7553 99.0809 70.3027 99.0809 69.808V65.72H100.383V69.528C100.383 70.4147 100.523 71.0493 100.803 71.432C101.083 71.8147 101.554 72.006 102.217 72.006C102.357 72.006 102.502 72.0013 102.651 71.992C102.8 71.9827 102.94 71.9733 103.071 71.964C103.202 71.9453 103.318 71.9313 103.421 71.922C103.533 71.9033 103.612 71.8847 103.659 71.866V65.72H104.961V72.79ZM107.204 65.93C107.503 65.8553 107.899 65.776 108.394 65.692C108.889 65.608 109.458 65.566 110.102 65.566C110.681 65.566 111.161 65.65 111.544 65.818C111.927 65.9767 112.23 66.2053 112.454 66.504C112.687 66.7933 112.851 67.1433 112.944 67.554C113.037 67.9647 113.084 68.4173 113.084 68.912V73H111.782V69.192C111.782 68.744 111.749 68.3613 111.684 68.044C111.628 67.7267 111.53 67.47 111.39 67.274C111.25 67.078 111.063 66.938 110.83 66.854C110.597 66.7607 110.307 66.714 109.962 66.714C109.822 66.714 109.677 66.7187 109.528 66.728C109.379 66.7373 109.234 66.7513 109.094 66.77C108.963 66.7793 108.842 66.7933 108.73 66.812C108.627 66.8307 108.553 66.8447 108.506 66.854V73H107.204V65.93ZM114.837 69.374C114.837 68.73 114.93 68.17 115.117 67.694C115.304 67.2087 115.551 66.8073 115.859 66.49C116.167 66.1727 116.522 65.9347 116.923 65.776C117.324 65.6173 117.735 65.538 118.155 65.538C119.135 65.538 119.886 65.846 120.409 66.462C120.932 67.0687 121.193 67.9973 121.193 69.248C121.193 69.304 121.193 69.3787 121.193 69.472C121.193 69.556 121.188 69.6353 121.179 69.71H116.195C116.251 70.466 116.47 71.04 116.853 71.432C117.236 71.824 117.833 72.02 118.645 72.02C119.102 72.02 119.485 71.9827 119.793 71.908C120.11 71.824 120.348 71.7447 120.507 71.67L120.689 72.762C120.53 72.846 120.25 72.9347 119.849 73.028C119.457 73.1213 119.009 73.168 118.505 73.168C117.87 73.168 117.32 73.0747 116.853 72.888C116.396 72.692 116.018 72.426 115.719 72.09C115.42 71.754 115.196 71.3573 115.047 70.9C114.907 70.4333 114.837 69.9247 114.837 69.374ZM119.835 68.66C119.844 68.072 119.695 67.5913 119.387 67.218C119.088 66.8353 118.673 66.644 118.141 66.644C117.842 66.644 117.576 66.7047 117.343 66.826C117.119 66.938 116.928 67.0873 116.769 67.274C116.61 67.4607 116.484 67.6753 116.391 67.918C116.307 68.1607 116.251 68.408 116.223 68.66H119.835ZM124.435 71.404C124.445 71.4787 124.449 71.5533 124.449 71.628C124.449 71.6933 124.449 71.7633 124.449 71.838C124.449 72.426 124.361 73.0047 124.183 73.574C124.015 74.1527 123.782 74.7033 123.483 75.226L122.475 74.904C122.709 74.428 122.863 73.9427 122.937 73.448C123.012 72.9627 123.049 72.5053 123.049 72.076C123.049 71.9547 123.045 71.838 123.035 71.726C123.035 71.614 123.031 71.5067 123.021 71.404H124.435ZM135.167 65.776C135.167 66.112 135.097 66.4387 134.957 66.756C134.826 67.064 134.649 67.372 134.425 67.68C134.201 67.9787 133.949 68.2773 133.669 68.576C133.389 68.8653 133.109 69.15 132.829 69.43C132.67 69.5887 132.484 69.7753 132.269 69.99C132.064 70.2047 131.868 70.4287 131.681 70.662C131.494 70.8953 131.336 71.1193 131.205 71.334C131.084 71.5487 131.023 71.7353 131.023 71.894H135.489V73H129.609C129.6 72.944 129.595 72.888 129.595 72.832C129.595 72.776 129.595 72.7247 129.595 72.678C129.595 72.2393 129.665 71.8333 129.805 71.46C129.954 71.0773 130.146 70.718 130.379 70.382C130.612 70.046 130.874 69.7287 131.163 69.43C131.452 69.1313 131.737 68.842 132.017 68.562C132.25 68.338 132.47 68.1187 132.675 67.904C132.89 67.68 133.076 67.4607 133.235 67.246C133.403 67.022 133.534 66.7933 133.627 66.56C133.73 66.3267 133.781 66.0793 133.781 65.818C133.781 65.538 133.734 65.3 133.641 65.104C133.557 64.908 133.44 64.7447 133.291 64.614C133.142 64.4833 132.964 64.39 132.759 64.334C132.563 64.2687 132.353 64.236 132.129 64.236C131.858 64.236 131.611 64.2733 131.387 64.348C131.163 64.4227 130.962 64.5113 130.785 64.614C130.608 64.7073 130.458 64.81 130.337 64.922C130.216 65.0247 130.122 65.104 130.057 65.16L129.413 64.236C129.497 64.1427 129.623 64.0307 129.791 63.9C129.959 63.76 130.16 63.6293 130.393 63.508C130.626 63.3867 130.888 63.284 131.177 63.2C131.466 63.116 131.779 63.074 132.115 63.074C133.132 63.074 133.893 63.312 134.397 63.788C134.91 64.2547 135.167 64.9173 135.167 65.776ZM137.231 68.142C137.231 66.518 137.516 65.2673 138.085 64.39C138.664 63.5127 139.462 63.074 140.479 63.074C141.497 63.074 142.29 63.5127 142.859 64.39C143.438 65.2673 143.727 66.518 143.727 68.142C143.727 69.766 143.438 71.0167 142.859 71.894C142.29 72.7713 141.497 73.21 140.479 73.21C139.462 73.21 138.664 72.7713 138.085 71.894C137.516 71.0167 137.231 69.766 137.231 68.142ZM142.355 68.142C142.355 67.61 142.323 67.106 142.257 66.63C142.201 66.154 142.099 65.7387 141.949 65.384C141.809 65.0293 141.618 64.7493 141.375 64.544C141.133 64.3293 140.834 64.222 140.479 64.222C140.125 64.222 139.826 64.3293 139.583 64.544C139.341 64.7493 139.145 65.0293 138.995 65.384C138.855 65.7387 138.753 66.154 138.687 66.63C138.631 67.106 138.603 67.61 138.603 68.142C138.603 68.674 138.631 69.178 138.687 69.654C138.753 70.13 138.855 70.5453 138.995 70.9C139.145 71.2547 139.341 71.5393 139.583 71.754C139.826 71.9593 140.125 72.062 140.479 72.062C140.834 72.062 141.133 71.9593 141.375 71.754C141.618 71.5393 141.809 71.2547 141.949 70.9C142.099 70.5453 142.201 70.13 142.257 69.654C142.323 69.178 142.355 68.674 142.355 68.142ZM150.972 65.776C150.972 66.112 150.902 66.4387 150.762 66.756C150.631 67.064 150.454 67.372 150.23 67.68C150.006 67.9787 149.754 68.2773 149.474 68.576C149.194 68.8653 148.914 69.15 148.634 69.43C148.475 69.5887 148.288 69.7753 148.074 69.99C147.868 70.2047 147.672 70.4287 147.486 70.662C147.299 70.8953 147.14 71.1193 147.01 71.334C146.888 71.5487 146.828 71.7353 146.828 71.894H151.294V73H145.414C145.404 72.944 145.4 72.888 145.4 72.832C145.4 72.776 145.4 72.7247 145.4 72.678C145.4 72.2393 145.47 71.8333 145.61 71.46C145.759 71.0773 145.95 70.718 146.184 70.382C146.417 70.046 146.678 69.7287 146.968 69.43C147.257 69.1313 147.542 68.842 147.822 68.562C148.055 68.338 148.274 68.1187 148.48 67.904C148.694 67.68 148.881 67.4607 149.04 67.246C149.208 67.022 149.338 66.7933 149.432 66.56C149.534 66.3267 149.586 66.0793 149.586 65.818C149.586 65.538 149.539 65.3 149.446 65.104C149.362 64.908 149.245 64.7447 149.096 64.614C148.946 64.4833 148.769 64.39 148.564 64.334C148.368 64.2687 148.158 64.236 147.934 64.236C147.663 64.236 147.416 64.2733 147.192 64.348C146.968 64.4227 146.767 64.5113 146.59 64.614C146.412 64.7073 146.263 64.81 146.142 64.922C146.02 65.0247 145.927 65.104 145.862 65.16L145.218 64.236C145.302 64.1427 145.428 64.0307 145.596 63.9C145.764 63.76 145.964 63.6293 146.198 63.508C146.431 63.3867 146.692 63.284 146.982 63.2C147.271 63.116 147.584 63.074 147.92 63.074C148.937 63.074 149.698 63.312 150.202 63.788C150.715 64.2547 150.972 64.9173 150.972 65.776ZM153.638 65.3C154.17 65.0947 154.688 64.8333 155.192 64.516C155.696 64.1893 156.158 63.7833 156.578 63.298H157.502V73H156.2V65.104C156.088 65.2067 155.948 65.314 155.78 65.426C155.621 65.538 155.444 65.6453 155.248 65.748C155.061 65.8507 154.861 65.9487 154.646 66.042C154.441 66.1353 154.24 66.2147 154.044 66.28L153.638 65.3Z" fill="#ABADAD"/>
</svg>
