<svg width="384" height="247" viewBox="0 0 384 247" fill="none" xmlns="http://www.w3.org/2000/svg">
<g filter="url(#filter0_d_1_216)">
<rect x="44" y="30" width="276" height="139" rx="10" fill="white"/>
</g>
<rect x="68" y="56" width="40" height="40" rx="10" fill="#FFE1D8"/>
<path d="M84.7421 72.6819C83.669 73.5937 83.2758 75.2567 84.2024 76.5908C85.0695 77.8392 86.1618 78.9313 87.4099 79.798C88.7441 80.7244 90.407 80.3311 91.3187 79.2579L91.3289 79.2626C92.4934 79.8021 93.7304 80.1718 95 80.3603V83L94.9989 83L94.9961 83C87.0215 83.0113 80.9915 76.9111 81 69.0036V69H83.6394L83.6395 69.0012C83.828 70.2706 84.1976 71.5065 84.7371 72.6711L84.7421 72.6819ZM94.9989 85H96C96.5523 85 97 84.5523 97 84V79.4977C97 79.0021 96.637 78.5813 96.1468 78.5086L95.2926 78.3818C94.2123 78.2215 93.1605 77.9069 92.1695 77.4478L91.4166 77.0991C90.9804 76.897 90.462 77.034 90.1826 77.4253L89.8418 77.9024C89.5431 78.3206 88.9728 78.4484 88.5506 78.1552C87.4984 77.4245 86.5761 76.5024 85.845 75.4499C85.5518 75.0277 85.6796 74.4574 86.0978 74.1587L86.5748 73.8181C86.9661 73.5386 87.1031 73.0202 86.901 72.5839L86.5518 71.8303C86.0927 70.8394 85.7782 69.7877 85.6179 68.7075L85.491 67.8532C85.4183 67.363 84.9974 67 84.5019 67H80C79.4477 67 79 67.4477 79 68V69.0014C78.9903 78.0079 85.9102 85.0129 94.9989 85Z" fill="#F75532"/>
<path d="M130.256 69.24C129.424 69.24 128.677 69.112 128.016 68.856C127.355 68.6 126.795 68.2267 126.336 67.736C125.877 67.2347 125.525 66.6267 125.28 65.912C125.035 65.1973 124.912 64.376 124.912 63.448C124.912 62.52 125.051 61.6987 125.328 60.984C125.616 60.2693 126.005 59.6667 126.496 59.176C126.987 58.6747 127.563 58.296 128.224 58.04C128.885 57.784 129.595 57.656 130.352 57.656C130.811 57.656 131.227 57.6933 131.6 57.768C131.973 57.832 132.299 57.9067 132.576 57.992C132.853 58.0773 133.083 58.168 133.264 58.264C133.445 58.36 133.573 58.4293 133.648 58.472L133.056 60.12C132.8 59.96 132.432 59.8107 131.952 59.672C131.483 59.5227 130.971 59.448 130.416 59.448C129.936 59.448 129.488 59.5333 129.072 59.704C128.656 59.864 128.293 60.1093 127.984 60.44C127.685 60.7707 127.451 61.1867 127.28 61.688C127.109 62.1893 127.024 62.7707 127.024 63.432C127.024 64.0187 127.088 64.5573 127.216 65.048C127.355 65.5387 127.563 65.9653 127.84 66.328C128.117 66.68 128.469 66.9573 128.896 67.16C129.323 67.352 129.835 67.448 130.432 67.448C131.147 67.448 131.728 67.3787 132.176 67.24C132.624 67.0907 132.971 66.952 133.216 66.824L133.76 68.472C133.632 68.5573 133.456 68.6427 133.232 68.728C133.019 68.8133 132.763 68.8987 132.464 68.984C132.165 69.0587 131.829 69.1173 131.456 69.16C131.083 69.2133 130.683 69.24 130.256 69.24ZM138.379 67.64C138.976 67.64 139.43 67.608 139.739 67.544V65.4C139.632 65.368 139.478 65.336 139.275 65.304C139.072 65.272 138.848 65.256 138.603 65.256C138.39 65.256 138.171 65.272 137.947 65.304C137.734 65.336 137.536 65.3947 137.355 65.48C137.184 65.5653 137.046 65.688 136.939 65.848C136.832 65.9973 136.779 66.1893 136.779 66.424C136.779 66.8827 136.923 67.2027 137.211 67.384C137.499 67.5547 137.888 67.64 138.379 67.64ZM138.219 60.424C138.859 60.424 139.398 60.504 139.835 60.664C140.272 60.824 140.619 61.048 140.875 61.336C141.142 61.624 141.328 61.976 141.435 62.392C141.552 62.7973 141.611 63.2453 141.611 63.736V68.808C141.312 68.872 140.859 68.9467 140.251 69.032C139.654 69.128 138.976 69.176 138.219 69.176C137.718 69.176 137.259 69.128 136.843 69.032C136.427 68.936 136.07 68.7813 135.771 68.568C135.483 68.3547 135.254 68.0773 135.083 67.736C134.923 67.3947 134.843 66.9733 134.843 66.472C134.843 65.992 134.934 65.5867 135.115 65.256C135.307 64.9253 135.563 64.6587 135.883 64.456C136.203 64.2427 136.571 64.0933 136.987 64.008C137.414 63.912 137.856 63.864 138.315 63.864C138.528 63.864 138.752 63.88 138.987 63.912C139.222 63.9333 139.472 63.976 139.739 64.04V63.72C139.739 63.496 139.712 63.2827 139.659 63.08C139.606 62.8773 139.51 62.7013 139.371 62.552C139.243 62.392 139.067 62.2693 138.843 62.184C138.63 62.0987 138.358 62.056 138.027 62.056C137.579 62.056 137.168 62.088 136.795 62.152C136.422 62.216 136.118 62.2907 135.883 62.376L135.643 60.808C135.888 60.7227 136.246 60.6373 136.715 60.552C137.184 60.4667 137.686 60.424 138.219 60.424ZM146.894 69.16C146.318 69.1493 145.838 69.0853 145.454 68.968C145.081 68.8507 144.782 68.6853 144.558 68.472C144.334 68.248 144.174 67.976 144.078 67.656C143.993 67.3253 143.95 66.952 143.95 66.536V56.904L145.886 56.584V66.168C145.886 66.4027 145.902 66.6 145.934 66.76C145.977 66.92 146.046 67.0587 146.142 67.176C146.238 67.2827 146.366 67.368 146.526 67.432C146.697 67.4853 146.91 67.528 147.166 67.56L146.894 69.16ZM151.644 69.16C151.068 69.1493 150.588 69.0853 150.204 68.968C149.831 68.8507 149.532 68.6853 149.308 68.472C149.084 68.248 148.924 67.976 148.828 67.656C148.743 67.3253 148.7 66.952 148.7 66.536V56.904L150.636 56.584V66.168C150.636 66.4027 150.652 66.6 150.684 66.76C150.727 66.92 150.796 67.0587 150.892 67.176C150.988 67.2827 151.116 67.368 151.276 67.432C151.447 67.4853 151.66 67.528 151.916 67.56L151.644 69.16Z" fill="#001F29"/>
<path d="M124.8 89.448C124.8 87.592 125.125 86.1627 125.776 85.16C126.437 84.1573 127.349 83.656 128.512 83.656C129.675 83.656 130.581 84.1573 131.232 85.16C131.893 86.1627 132.224 87.592 132.224 89.448C132.224 91.304 131.893 92.7333 131.232 93.736C130.581 94.7387 129.675 95.24 128.512 95.24C127.349 95.24 126.437 94.7387 125.776 93.736C125.125 92.7333 124.8 91.304 124.8 89.448ZM130.656 89.448C130.656 88.84 130.619 88.264 130.544 87.72C130.48 87.176 130.363 86.7013 130.192 86.296C130.032 85.8907 129.813 85.5707 129.536 85.336C129.259 85.0907 128.917 84.968 128.512 84.968C128.107 84.968 127.765 85.0907 127.488 85.336C127.211 85.5707 126.987 85.8907 126.816 86.296C126.656 86.7013 126.539 87.176 126.464 87.72C126.4 88.264 126.368 88.84 126.368 89.448C126.368 90.056 126.4 90.632 126.464 91.176C126.539 91.72 126.656 92.1947 126.816 92.6C126.987 93.0053 127.211 93.3307 127.488 93.576C127.765 93.8107 128.107 93.928 128.512 93.928C128.917 93.928 129.259 93.8107 129.536 93.576C129.813 93.3307 130.032 93.0053 130.192 92.6C130.363 92.1947 130.48 91.72 130.544 91.176C130.619 90.632 130.656 90.056 130.656 89.448ZM141.175 92.12C141.175 92.568 141.095 92.984 140.935 93.368C140.786 93.7413 140.557 94.072 140.247 94.36C139.949 94.6373 139.57 94.8507 139.111 95C138.653 95.16 138.125 95.24 137.527 95.24C136.834 95.24 136.253 95.144 135.783 94.952C135.325 94.7493 134.957 94.4987 134.679 94.2C134.402 93.9013 134.205 93.576 134.087 93.224C133.97 92.8613 133.911 92.52 133.911 92.2C133.911 91.8907 133.959 91.5973 134.055 91.32C134.162 91.032 134.295 90.7653 134.455 90.52C134.626 90.2747 134.818 90.056 135.031 89.864C135.255 89.6613 135.49 89.4853 135.735 89.336C134.69 88.7387 134.167 87.8587 134.167 86.696C134.167 86.2907 134.247 85.9067 134.407 85.544C134.567 85.1707 134.791 84.8453 135.079 84.568C135.378 84.2907 135.735 84.072 136.151 83.912C136.567 83.7413 137.031 83.656 137.543 83.656C138.141 83.656 138.653 83.7467 139.079 83.928C139.506 84.1093 139.853 84.344 140.119 84.632C140.397 84.9093 140.594 85.2187 140.711 85.56C140.839 85.9013 140.903 86.232 140.903 86.552C140.903 86.8613 140.855 87.1547 140.759 87.432C140.674 87.6987 140.551 87.9493 140.391 88.184C140.242 88.4187 140.066 88.6267 139.863 88.808C139.671 88.9893 139.469 89.1493 139.255 89.288C140.514 89.8853 141.154 90.8293 141.175 92.12ZM135.415 92.216C135.415 92.408 135.447 92.6107 135.511 92.824C135.586 93.0267 135.709 93.2187 135.879 93.4C136.05 93.5707 136.269 93.7147 136.535 93.832C136.802 93.9493 137.138 94.008 137.543 94.008C137.906 94.008 138.221 93.9547 138.487 93.848C138.765 93.7413 138.989 93.608 139.159 93.448C139.33 93.2773 139.458 93.0853 139.543 92.872C139.629 92.6587 139.671 92.44 139.671 92.216C139.671 91.8747 139.607 91.576 139.479 91.32C139.351 91.064 139.165 90.84 138.919 90.648C138.685 90.456 138.397 90.296 138.055 90.168C137.725 90.0293 137.346 89.912 136.919 89.816C136.439 90.0827 136.066 90.4133 135.799 90.808C135.543 91.2027 135.415 91.672 135.415 92.216ZM139.415 86.536C139.415 86.376 139.378 86.2 139.303 86.008C139.239 85.816 139.133 85.64 138.983 85.48C138.834 85.3093 138.642 85.1707 138.407 85.064C138.173 84.9467 137.885 84.888 137.543 84.888C137.202 84.888 136.909 84.9413 136.663 85.048C136.429 85.1547 136.237 85.2933 136.087 85.464C135.938 85.624 135.826 85.8053 135.751 86.008C135.687 86.2 135.655 86.392 135.655 86.584C135.655 86.8187 135.698 87.0533 135.783 87.288C135.869 87.5227 136.002 87.7413 136.183 87.944C136.365 88.1467 136.599 88.328 136.887 88.488C137.186 88.648 137.538 88.776 137.943 88.872C138.391 88.6053 138.749 88.296 139.015 87.944C139.282 87.5813 139.415 87.112 139.415 86.536ZM149.535 86.744C149.535 87.128 149.455 87.5013 149.295 87.864C149.145 88.216 148.943 88.568 148.687 88.92C148.431 89.2613 148.143 89.6027 147.823 89.944C147.503 90.2747 147.183 90.6 146.863 90.92C146.681 91.1013 146.468 91.3147 146.223 91.56C145.988 91.8053 145.764 92.0613 145.551 92.328C145.337 92.5947 145.156 92.8507 145.007 93.096C144.868 93.3413 144.799 93.5547 144.799 93.736H149.903V95H143.183C143.172 94.936 143.167 94.872 143.167 94.808C143.167 94.744 143.167 94.6853 143.167 94.632C143.167 94.1307 143.247 93.6667 143.407 93.24C143.577 92.8027 143.796 92.392 144.062 92.008C144.329 91.624 144.628 91.2613 144.959 90.92C145.289 90.5787 145.615 90.248 145.935 89.928C146.201 89.672 146.452 89.4213 146.687 89.176C146.932 88.92 147.145 88.6693 147.327 88.424C147.519 88.168 147.668 87.9067 147.775 87.64C147.892 87.3733 147.951 87.0907 147.951 86.792C147.951 86.472 147.897 86.2 147.791 85.976C147.695 85.752 147.561 85.5653 147.391 85.416C147.22 85.2667 147.017 85.16 146.783 85.096C146.559 85.0213 146.319 84.984 146.062 84.984C145.753 84.984 145.471 85.0267 145.215 85.112C144.959 85.1973 144.729 85.2987 144.527 85.416C144.324 85.5227 144.153 85.64 144.015 85.768C143.876 85.8853 143.769 85.976 143.695 86.04L142.959 84.984C143.055 84.8773 143.199 84.7493 143.391 84.6C143.583 84.44 143.812 84.2907 144.079 84.152C144.345 84.0133 144.644 83.896 144.975 83.8C145.305 83.704 145.663 83.656 146.047 83.656C147.209 83.656 148.079 83.928 148.655 84.472C149.241 85.0053 149.535 85.7627 149.535 86.744ZM158.566 86.744C158.566 87.128 158.486 87.5013 158.326 87.864C158.176 88.216 157.974 88.568 157.718 88.92C157.462 89.2613 157.174 89.6027 156.854 89.944C156.534 90.2747 156.214 90.6 155.894 90.92C155.712 91.1013 155.499 91.3147 155.254 91.56C155.019 91.8053 154.795 92.0613 154.582 92.328C154.368 92.5947 154.187 92.8507 154.038 93.096C153.899 93.3413 153.83 93.5547 153.83 93.736H158.934V95H152.214C152.203 94.936 152.198 94.872 152.198 94.808C152.198 94.744 152.198 94.6853 152.198 94.632C152.198 94.1307 152.278 93.6667 152.438 93.24C152.608 92.8027 152.827 92.392 153.094 92.008C153.36 91.624 153.659 91.2613 153.99 90.92C154.32 90.5787 154.646 90.248 154.966 89.928C155.232 89.672 155.483 89.4213 155.718 89.176C155.963 88.92 156.176 88.6693 156.358 88.424C156.55 88.168 156.699 87.9067 156.806 87.64C156.923 87.3733 156.982 87.0907 156.982 86.792C156.982 86.472 156.928 86.2 156.822 85.976C156.726 85.752 156.592 85.5653 156.422 85.416C156.251 85.2667 156.048 85.16 155.814 85.096C155.59 85.0213 155.35 84.984 155.094 84.984C154.784 84.984 154.502 85.0267 154.246 85.112C153.99 85.1973 153.76 85.2987 153.558 85.416C153.355 85.5227 153.184 85.64 153.046 85.768C152.907 85.8853 152.8 85.976 152.726 86.04L151.99 84.984C152.086 84.8773 152.23 84.7493 152.422 84.6C152.614 84.44 152.843 84.2907 153.11 84.152C153.376 84.0133 153.675 83.896 154.006 83.8C154.336 83.704 154.694 83.656 155.078 83.656C156.24 83.656 157.11 83.928 157.686 84.472C158.272 85.0053 158.566 85.7627 158.566 86.744ZM164.244 89.512H168.196V90.904H164.244V89.512ZM178.569 95C178.451 94.7653 178.307 94.504 178.137 94.216C177.966 93.928 177.779 93.6347 177.577 93.336C177.374 93.0267 177.166 92.7227 176.953 92.424C176.739 92.1253 176.531 91.8427 176.329 91.576C176.126 91.8427 175.918 92.1307 175.705 92.44C175.491 92.7387 175.283 93.0427 175.081 93.352C174.889 93.6507 174.707 93.944 174.537 94.232C174.366 94.52 174.222 94.776 174.105 95H172.569C172.942 94.2747 173.385 93.5387 173.897 92.792C174.419 92.0347 174.937 91.3147 175.449 90.632L172.697 86.68H174.377L176.361 89.592L178.361 86.68H179.945L177.257 90.536C177.769 91.2293 178.291 91.9653 178.825 92.744C179.369 93.512 179.827 94.264 180.201 95H178.569ZM187.006 95C186.889 94.7653 186.745 94.504 186.574 94.216C186.403 93.928 186.217 93.6347 186.014 93.336C185.811 93.0267 185.603 92.7227 185.39 92.424C185.177 92.1253 184.969 91.8427 184.766 91.576C184.563 91.8427 184.355 92.1307 184.142 92.44C183.929 92.7387 183.721 93.0427 183.518 93.352C183.326 93.6507 183.145 93.944 182.974 94.232C182.803 94.52 182.659 94.776 182.542 95H181.006C181.379 94.2747 181.822 93.5387 182.334 92.792C182.857 92.0347 183.374 91.3147 183.886 90.632L181.134 86.68H182.814L184.798 89.592L186.798 86.68H188.382L185.694 90.536C186.206 91.2293 186.729 91.9653 187.262 92.744C187.806 93.512 188.265 94.264 188.638 95H187.006ZM195.444 95C195.326 94.7653 195.182 94.504 195.012 94.216C194.841 93.928 194.654 93.6347 194.452 93.336C194.249 93.0267 194.041 92.7227 193.828 92.424C193.614 92.1253 193.406 91.8427 193.204 91.576C193.001 91.8427 192.793 92.1307 192.58 92.44C192.366 92.7387 192.158 93.0427 191.956 93.352C191.764 93.6507 191.582 93.944 191.412 94.232C191.241 94.52 191.097 94.776 190.98 95H189.444C189.817 94.2747 190.26 93.5387 190.772 92.792C191.294 92.0347 191.812 91.3147 192.324 90.632L189.572 86.68H191.252L193.236 89.592L195.236 86.68H196.82L194.132 90.536C194.644 91.2293 195.166 91.9653 195.7 92.744C196.244 93.512 196.702 94.264 197.076 95H195.444ZM201.479 89.512H205.431V90.904H201.479V89.512ZM215.803 95C215.686 94.7653 215.542 94.504 215.371 94.216C215.2 93.928 215.014 93.6347 214.811 93.336C214.608 93.0267 214.4 92.7227 214.187 92.424C213.974 92.1253 213.766 91.8427 213.563 91.576C213.36 91.8427 213.152 92.1307 212.939 92.44C212.726 92.7387 212.518 93.0427 212.315 93.352C212.123 93.6507 211.942 93.944 211.771 94.232C211.6 94.52 211.456 94.776 211.339 95H209.803C210.176 94.2747 210.619 93.5387 211.131 92.792C211.654 92.0347 212.171 91.3147 212.683 90.632L209.931 86.68H211.611L213.595 89.592L215.595 86.68H217.179L214.491 90.536C215.003 91.2293 215.526 91.9653 216.059 92.744C216.603 93.512 217.062 94.264 217.435 95H215.803ZM224.24 95C224.123 94.7653 223.979 94.504 223.808 94.216C223.638 93.928 223.451 93.6347 223.248 93.336C223.046 93.0267 222.838 92.7227 222.624 92.424C222.411 92.1253 222.203 91.8427 222 91.576C221.798 91.8427 221.59 92.1307 221.376 92.44C221.163 92.7387 220.955 93.0427 220.752 93.352C220.56 93.6507 220.379 93.944 220.208 94.232C220.038 94.52 219.894 94.776 219.776 95H218.24C218.614 94.2747 219.056 93.5387 219.568 92.792C220.091 92.0347 220.608 91.3147 221.12 90.632L218.368 86.68H220.048L222.032 89.592L224.032 86.68H225.616L222.928 90.536C223.44 91.2293 223.963 91.9653 224.496 92.744C225.04 93.512 225.499 94.264 225.872 95H224.24ZM232.678 95C232.561 94.7653 232.417 94.504 232.246 94.216C232.075 93.928 231.889 93.6347 231.686 93.336C231.483 93.0267 231.275 92.7227 231.062 92.424C230.849 92.1253 230.641 91.8427 230.438 91.576C230.235 91.8427 230.027 92.1307 229.814 92.44C229.601 92.7387 229.393 93.0427 229.19 93.352C228.998 93.6507 228.817 93.944 228.646 94.232C228.475 94.52 228.331 94.776 228.214 95H226.678C227.051 94.2747 227.494 93.5387 228.006 92.792C228.529 92.0347 229.046 91.3147 229.558 90.632L226.806 86.68H228.486L230.47 89.592L232.47 86.68H234.054L231.366 90.536C231.878 91.2293 232.401 91.9653 232.934 92.744C233.478 93.512 233.937 94.264 234.31 95H232.678Z" fill="#B9C0C1"/>
<rect x="124" y="111" width="164" height="41" rx="10" fill="#F75532"/>
<path d="M180.144 138.24C179.365 138.24 178.656 138.112 178.016 137.856C177.376 137.6 176.827 137.227 176.368 136.736C175.909 136.245 175.552 135.643 175.296 134.928C175.051 134.203 174.928 133.376 174.928 132.448C174.928 131.52 175.067 130.699 175.344 129.984C175.632 129.259 176.016 128.651 176.496 128.16C176.976 127.669 177.536 127.296 178.176 127.04C178.816 126.784 179.499 126.656 180.224 126.656C180.683 126.656 181.093 126.688 181.456 126.752C181.829 126.816 182.149 126.891 182.416 126.976C182.693 127.061 182.917 127.147 183.088 127.232C183.259 127.317 183.376 127.381 183.44 127.424L182.992 128.704C182.896 128.64 182.757 128.571 182.576 128.496C182.395 128.421 182.187 128.347 181.952 128.272C181.728 128.197 181.477 128.139 181.2 128.096C180.933 128.043 180.661 128.016 180.384 128.016C179.797 128.016 179.269 128.117 178.8 128.32C178.331 128.523 177.931 128.816 177.6 129.2C177.269 129.584 177.013 130.053 176.832 130.608C176.661 131.152 176.576 131.765 176.576 132.448C176.576 133.109 176.651 133.712 176.8 134.256C176.96 134.8 177.195 135.269 177.504 135.664C177.813 136.048 178.197 136.347 178.656 136.56C179.125 136.773 179.669 136.88 180.288 136.88C181.003 136.88 181.595 136.805 182.064 136.656C182.533 136.507 182.885 136.373 183.12 136.256L183.52 137.536C183.445 137.589 183.312 137.659 183.12 137.744C182.928 137.819 182.688 137.893 182.4 137.968C182.112 138.043 181.776 138.107 181.392 138.16C181.008 138.213 180.592 138.24 180.144 138.24ZM188.018 136.928C188.37 136.928 188.679 136.923 188.946 136.912C189.223 136.891 189.453 136.859 189.634 136.816V134.336C189.527 134.283 189.351 134.24 189.106 134.208C188.871 134.165 188.583 134.144 188.242 134.144C188.018 134.144 187.778 134.16 187.522 134.192C187.277 134.224 187.047 134.293 186.834 134.4C186.631 134.496 186.461 134.635 186.322 134.816C186.183 134.987 186.114 135.216 186.114 135.504C186.114 136.037 186.285 136.411 186.626 136.624C186.967 136.827 187.431 136.928 188.018 136.928ZM187.89 129.472C188.487 129.472 188.989 129.552 189.394 129.712C189.81 129.861 190.141 130.08 190.386 130.368C190.642 130.645 190.823 130.981 190.93 131.376C191.037 131.76 191.09 132.187 191.09 132.656V137.856C190.962 137.877 190.781 137.909 190.546 137.952C190.322 137.984 190.066 138.016 189.778 138.048C189.49 138.08 189.175 138.107 188.834 138.128C188.503 138.16 188.173 138.176 187.842 138.176C187.373 138.176 186.941 138.128 186.546 138.032C186.151 137.936 185.81 137.787 185.522 137.584C185.234 137.371 185.01 137.093 184.85 136.752C184.69 136.411 184.61 136 184.61 135.52C184.61 135.061 184.701 134.667 184.882 134.336C185.074 134.005 185.33 133.739 185.65 133.536C185.97 133.333 186.343 133.184 186.77 133.088C187.197 132.992 187.645 132.944 188.114 132.944C188.263 132.944 188.418 132.955 188.578 132.976C188.738 132.987 188.887 133.008 189.026 133.04C189.175 133.061 189.303 133.083 189.41 133.104C189.517 133.125 189.591 133.141 189.634 133.152V132.736C189.634 132.491 189.607 132.251 189.554 132.016C189.501 131.771 189.405 131.557 189.266 131.376C189.127 131.184 188.935 131.035 188.69 130.928C188.455 130.811 188.146 130.752 187.762 130.752C187.271 130.752 186.839 130.789 186.466 130.864C186.103 130.928 185.831 130.997 185.65 131.072L185.474 129.84C185.666 129.755 185.986 129.675 186.434 129.6C186.882 129.515 187.367 129.472 187.89 129.472ZM196.057 138.16C195.14 138.139 194.489 137.941 194.105 137.568C193.721 137.195 193.529 136.613 193.529 135.824V125.84L195.017 125.584V135.584C195.017 135.829 195.039 136.032 195.081 136.192C195.124 136.352 195.193 136.48 195.289 136.576C195.385 136.672 195.513 136.747 195.673 136.8C195.833 136.843 196.031 136.88 196.265 136.912L196.057 138.16ZM200.432 138.16C199.515 138.139 198.864 137.941 198.48 137.568C198.096 137.195 197.904 136.613 197.904 135.824V125.84L199.392 125.584V135.584C199.392 135.829 199.414 136.032 199.456 136.192C199.499 136.352 199.568 136.48 199.664 136.576C199.76 136.672 199.888 136.747 200.048 136.8C200.208 136.843 200.406 136.88 200.64 136.912L200.432 138.16ZM213.71 138C213.476 137.605 213.204 137.163 212.894 136.672C212.596 136.181 212.27 135.675 211.918 135.152C211.566 134.619 211.198 134.08 210.814 133.536C210.441 132.992 210.068 132.469 209.694 131.968C209.321 131.456 208.958 130.976 208.606 130.528C208.254 130.08 207.929 129.685 207.63 129.344V138H206.11V126.912H207.342C207.844 127.445 208.377 128.069 208.942 128.784C209.518 129.488 210.084 130.219 210.638 130.976C211.204 131.723 211.732 132.459 212.222 133.184C212.724 133.909 213.145 134.555 213.486 135.12V126.912H215.006V138H213.71ZM224.999 133.84C224.999 134.501 224.903 135.099 224.711 135.632C224.519 136.165 224.247 136.624 223.895 137.008C223.554 137.392 223.143 137.691 222.663 137.904C222.183 138.107 221.66 138.208 221.095 138.208C220.53 138.208 220.007 138.107 219.527 137.904C219.047 137.691 218.631 137.392 218.279 137.008C217.938 136.624 217.671 136.165 217.479 135.632C217.287 135.099 217.191 134.501 217.191 133.84C217.191 133.189 217.287 132.597 217.479 132.064C217.671 131.52 217.938 131.056 218.279 130.672C218.631 130.288 219.047 129.995 219.527 129.792C220.007 129.579 220.53 129.472 221.095 129.472C221.66 129.472 222.183 129.579 222.663 129.792C223.143 129.995 223.554 130.288 223.895 130.672C224.247 131.056 224.519 131.52 224.711 132.064C224.903 132.597 224.999 133.189 224.999 133.84ZM223.447 133.84C223.447 132.901 223.234 132.16 222.807 131.616C222.391 131.061 221.82 130.784 221.095 130.784C220.37 130.784 219.794 131.061 219.367 131.616C218.951 132.16 218.743 132.901 218.743 133.84C218.743 134.779 218.951 135.525 219.367 136.08C219.794 136.624 220.37 136.896 221.095 136.896C221.82 136.896 222.391 136.624 222.807 136.08C223.234 135.525 223.447 134.779 223.447 133.84ZM233.689 138C233.391 137.232 233.071 136.357 232.729 135.376C232.399 134.384 232.095 133.355 231.817 132.288C231.54 133.355 231.236 134.384 230.905 135.376C230.575 136.357 230.26 137.232 229.961 138H228.665C228.175 136.901 227.695 135.648 227.225 134.24C226.756 132.832 226.313 131.312 225.897 129.68H227.497C227.604 130.181 227.732 130.725 227.881 131.312C228.031 131.899 228.185 132.485 228.345 133.072C228.516 133.659 228.692 134.224 228.873 134.768C229.055 135.312 229.225 135.787 229.385 136.192C229.567 135.691 229.743 135.163 229.913 134.608C230.095 134.043 230.265 133.477 230.425 132.912C230.585 132.336 230.735 131.776 230.873 131.232C231.023 130.677 231.151 130.16 231.257 129.68H232.489C232.585 130.16 232.703 130.677 232.841 131.232C232.98 131.776 233.129 132.336 233.289 132.912C233.449 133.477 233.615 134.043 233.785 134.608C233.967 135.163 234.148 135.691 234.329 136.192C234.489 135.787 234.655 135.312 234.825 134.768C235.007 134.224 235.183 133.659 235.353 133.072C235.524 132.485 235.684 131.899 235.833 131.312C235.983 130.725 236.111 130.181 236.217 129.68H237.753C237.337 131.312 236.895 132.832 236.425 134.24C235.956 135.648 235.476 136.901 234.985 138H233.689Z" fill="white"/>
<defs>
<filter id="filter0_d_1_216" x="0" y="0" width="384" height="247" filterUnits="userSpaceOnUse" color-interpolation-filters="sRGB">
<feFlood flood-opacity="0" result="BackgroundImageFix"/>
<feColorMatrix in="SourceAlpha" type="matrix" values="0 0 0 0 0 0 0 0 0 0 0 0 0 0 0 0 0 0 127 0" result="hardAlpha"/>
<feOffset dx="10" dy="24"/>
<feGaussianBlur stdDeviation="27"/>
<feComposite in2="hardAlpha" operator="out"/>
<feColorMatrix type="matrix" values="0 0 0 0 0 0 0 0 0 0 0 0 0 0 0 0 0 0 0.06 0"/>
<feBlend mode="normal" in2="BackgroundImageFix" result="effect1_dropShadow_1_216"/>
<feBlend mode="normal" in="SourceGraphic" in2="effect1_dropShadow_1_216" result="shape"/>
</filter>
</defs>
</svg>
