<svg width="384" height="247" viewBox="0 0 384 247" fill="none" xmlns="http://www.w3.org/2000/svg">
<g filter="url(#filter0_d_1_236)">
<rect x="44" y="30" width="276" height="139" rx="10" fill="white"/>
</g>
<rect x="68" y="56" width="40" height="40" rx="10" fill="#FFE1D8"/>
<path d="M84.0514 81.8285L84.7049 82.1778C85.7176 82.7193 86.8486 83.0017 87.997 83L88 83C91.8661 83 95 79.8661 95 76C95 72.1339 91.8661 69 88 69C84.1339 69 81 72.1339 81 76V76.003C80.9983 77.1514 81.2807 78.2824 81.8222 79.2951L82.1715 79.9486L81.6343 82.3657L84.0514 81.8285ZM79 85L80.0584 80.2381C79.3614 78.9343 78.9978 77.4784 79 76C79 71.0293 83.0293 67 88 67C92.9707 67 97 71.0293 97 76C97 80.9707 92.9707 85 88 85C86.5216 85.0022 85.0657 84.6386 83.7619 83.9416L79 85Z" fill="#F75532"/>
<path d="M130.256 69.24C129.424 69.24 128.677 69.112 128.016 68.856C127.355 68.6 126.795 68.2267 126.336 67.736C125.877 67.2347 125.525 66.6267 125.28 65.912C125.035 65.1973 124.912 64.376 124.912 63.448C124.912 62.52 125.051 61.6987 125.328 60.984C125.616 60.2693 126.005 59.6667 126.496 59.176C126.987 58.6747 127.563 58.296 128.224 58.04C128.885 57.784 129.595 57.656 130.352 57.656C130.811 57.656 131.227 57.6933 131.6 57.768C131.973 57.832 132.299 57.9067 132.576 57.992C132.853 58.0773 133.083 58.168 133.264 58.264C133.445 58.36 133.573 58.4293 133.648 58.472L133.056 60.12C132.8 59.96 132.432 59.8107 131.952 59.672C131.483 59.5227 130.971 59.448 130.416 59.448C129.936 59.448 129.488 59.5333 129.072 59.704C128.656 59.864 128.293 60.1093 127.984 60.44C127.685 60.7707 127.451 61.1867 127.28 61.688C127.109 62.1893 127.024 62.7707 127.024 63.432C127.024 64.0187 127.088 64.5573 127.216 65.048C127.355 65.5387 127.563 65.9653 127.84 66.328C128.117 66.68 128.469 66.9573 128.896 67.16C129.323 67.352 129.835 67.448 130.432 67.448C131.147 67.448 131.728 67.3787 132.176 67.24C132.624 67.0907 132.971 66.952 133.216 66.824L133.76 68.472C133.632 68.5573 133.456 68.6427 133.232 68.728C133.019 68.8133 132.763 68.8987 132.464 68.984C132.165 69.0587 131.829 69.1173 131.456 69.16C131.083 69.2133 130.683 69.24 130.256 69.24ZM135.435 69V56.904L137.371 56.584V60.728C137.584 60.6533 137.83 60.5893 138.107 60.536C138.395 60.4827 138.678 60.456 138.955 60.456C139.627 60.456 140.182 60.552 140.619 60.744C141.067 60.9253 141.424 61.1867 141.691 61.528C141.958 61.8587 142.144 62.2587 142.251 62.728C142.368 63.1973 142.427 63.72 142.427 64.296V69H140.491V64.6C140.491 64.152 140.459 63.7733 140.395 63.464C140.342 63.144 140.246 62.888 140.107 62.696C139.979 62.4933 139.803 62.3493 139.579 62.264C139.355 62.168 139.078 62.12 138.747 62.12C138.491 62.12 138.23 62.1467 137.963 62.2C137.696 62.2533 137.499 62.3013 137.371 62.344V69H135.435ZM147.692 67.64C148.289 67.64 148.742 67.608 149.052 67.544V65.4C148.945 65.368 148.79 65.336 148.588 65.304C148.385 65.272 148.161 65.256 147.916 65.256C147.702 65.256 147.484 65.272 147.26 65.304C147.046 65.336 146.849 65.3947 146.668 65.48C146.497 65.5653 146.358 65.688 146.252 65.848C146.145 65.9973 146.092 66.1893 146.092 66.424C146.092 66.8827 146.236 67.2027 146.524 67.384C146.812 67.5547 147.201 67.64 147.692 67.64ZM147.532 60.424C148.172 60.424 148.71 60.504 149.148 60.664C149.585 60.824 149.932 61.048 150.188 61.336C150.454 61.624 150.641 61.976 150.748 62.392C150.865 62.7973 150.924 63.2453 150.924 63.736V68.808C150.625 68.872 150.172 68.9467 149.564 69.032C148.966 69.128 148.289 69.176 147.532 69.176C147.03 69.176 146.572 69.128 146.156 69.032C145.74 68.936 145.382 68.7813 145.084 68.568C144.796 68.3547 144.566 68.0773 144.396 67.736C144.236 67.3947 144.156 66.9733 144.156 66.472C144.156 65.992 144.246 65.5867 144.428 65.256C144.62 64.9253 144.876 64.6587 145.196 64.456C145.516 64.2427 145.884 64.0933 146.3 64.008C146.726 63.912 147.169 63.864 147.628 63.864C147.841 63.864 148.065 63.88 148.3 63.912C148.534 63.9333 148.785 63.976 149.052 64.04V63.72C149.052 63.496 149.025 63.2827 148.972 63.08C148.918 62.8773 148.822 62.7013 148.684 62.552C148.556 62.392 148.38 62.2693 148.156 62.184C147.942 62.0987 147.67 62.056 147.34 62.056C146.892 62.056 146.481 62.088 146.108 62.152C145.734 62.216 145.43 62.2907 145.196 62.376L144.956 60.808C145.201 60.7227 145.558 60.6373 146.028 60.552C146.497 60.4667 146.998 60.424 147.532 60.424ZM153.199 58.424L155.135 58.104V60.632H158.111V62.248H155.135V65.656C155.135 66.328 155.241 66.808 155.455 67.096C155.668 67.384 156.031 67.528 156.543 67.528C156.895 67.528 157.204 67.4907 157.471 67.416C157.748 67.3413 157.967 67.272 158.127 67.208L158.447 68.744C158.223 68.84 157.929 68.936 157.567 69.032C157.204 69.1387 156.777 69.192 156.286 69.192C155.689 69.192 155.188 69.112 154.783 68.952C154.388 68.792 154.073 68.5627 153.839 68.264C153.604 67.9547 153.439 67.5867 153.343 67.16C153.247 66.7227 153.199 66.2267 153.199 65.672V58.424Z" fill="#001F29"/>
<path d="M132.784 83.912V85.256H129.296V95H127.744V85.256H124.256V83.912H132.784ZM132.992 96.552C133.109 96.6053 133.258 96.6533 133.44 96.696C133.632 96.7493 133.818 96.776 134 96.776C134.586 96.776 135.045 96.6427 135.376 96.376C135.706 96.12 136.005 95.6987 136.272 95.112C135.6 93.832 134.97 92.4773 134.384 91.048C133.808 89.608 133.328 88.152 132.944 86.68H134.544C134.661 87.16 134.8 87.6773 134.96 88.232C135.13 88.7867 135.317 89.3573 135.52 89.944C135.722 90.5307 135.941 91.1173 136.176 91.704C136.41 92.2907 136.656 92.856 136.911 93.4C137.317 92.28 137.669 91.1707 137.968 90.072C138.266 88.9733 138.549 87.8427 138.816 86.68H140.352C139.968 88.248 139.541 89.7573 139.072 91.208C138.602 92.648 138.096 93.9973 137.552 95.256C137.338 95.736 137.114 96.1467 136.88 96.488C136.656 96.84 136.405 97.128 136.128 97.352C135.85 97.576 135.536 97.7413 135.184 97.848C134.842 97.9547 134.453 98.008 134.016 98.008C133.898 98.008 133.776 97.9973 133.648 97.976C133.52 97.9653 133.392 97.944 133.264 97.912C133.146 97.8907 133.034 97.864 132.928 97.832C132.832 97.8 132.762 97.7733 132.72 97.752L132.992 96.552ZM147.697 90.856C147.697 89.8853 147.457 89.1387 146.977 88.616C146.497 88.0933 145.857 87.832 145.057 87.832C144.609 87.832 144.257 87.848 144.001 87.88C143.755 87.912 143.558 87.9493 143.409 87.992V93.24C143.59 93.3893 143.851 93.5333 144.193 93.672C144.534 93.8107 144.907 93.88 145.313 93.88C145.739 93.88 146.102 93.8053 146.401 93.656C146.71 93.496 146.961 93.2827 147.153 93.016C147.345 92.7387 147.483 92.4187 147.569 92.056C147.654 91.6827 147.697 91.2827 147.697 90.856ZM149.249 90.856C149.249 91.4853 149.163 92.0667 148.993 92.6C148.833 93.1333 148.593 93.592 148.273 93.976C147.953 94.36 147.558 94.6587 147.089 94.872C146.63 95.0853 146.102 95.192 145.505 95.192C145.025 95.192 144.598 95.128 144.225 95C143.862 94.872 143.59 94.7493 143.409 94.632V97.96H141.921V86.936C142.273 86.8507 142.71 86.76 143.233 86.664C143.766 86.5573 144.379 86.504 145.073 86.504C145.713 86.504 146.289 86.6053 146.801 86.808C147.313 87.0107 147.75 87.2987 148.113 87.672C148.475 88.0453 148.753 88.504 148.945 89.048C149.147 89.5813 149.249 90.184 149.249 90.856ZM150.879 90.856C150.879 90.12 150.985 89.48 151.199 88.936C151.412 88.3813 151.695 87.9227 152.047 87.56C152.399 87.1973 152.804 86.9253 153.263 86.744C153.721 86.5627 154.191 86.472 154.671 86.472C155.791 86.472 156.649 86.824 157.247 87.528C157.844 88.2213 158.142 89.2827 158.142 90.712C158.142 90.776 158.142 90.8613 158.142 90.968C158.142 91.064 158.137 91.1547 158.127 91.24H152.431C152.495 92.104 152.745 92.76 153.183 93.208C153.62 93.656 154.303 93.88 155.231 93.88C155.753 93.88 156.191 93.8373 156.543 93.752C156.905 93.656 157.177 93.5653 157.359 93.48L157.567 94.728C157.385 94.824 157.065 94.9253 156.607 95.032C156.159 95.1387 155.647 95.192 155.071 95.192C154.345 95.192 153.716 95.0853 153.183 94.872C152.66 94.648 152.228 94.344 151.887 93.96C151.545 93.576 151.289 93.1227 151.118 92.6C150.959 92.0667 150.879 91.4853 150.879 90.856ZM156.591 90.04C156.601 89.368 156.431 88.8187 156.079 88.392C155.737 87.9547 155.263 87.736 154.655 87.736C154.313 87.736 154.009 87.8053 153.743 87.944C153.487 88.072 153.268 88.2427 153.087 88.456C152.905 88.6693 152.761 88.9147 152.655 89.192C152.559 89.4693 152.495 89.752 152.463 90.04H156.591ZM167.231 82.584C167.668 82.584 168.042 82.616 168.351 82.68C168.671 82.744 168.895 82.8027 169.023 82.856L168.751 84.136C168.623 84.072 168.442 84.0133 168.207 83.96C167.972 83.896 167.684 83.864 167.343 83.864C166.65 83.864 166.164 84.056 165.887 84.44C165.61 84.8133 165.471 85.32 165.471 85.96V86.68H168.671V87.928H165.471V95H163.983V85.928C163.983 84.8613 164.244 84.04 164.767 83.464C165.29 82.8773 166.111 82.584 167.231 82.584ZM172.971 93.928C173.323 93.928 173.632 93.9227 173.899 93.912C174.176 93.8907 174.406 93.8587 174.587 93.816V91.336C174.48 91.2827 174.304 91.24 174.059 91.208C173.824 91.1653 173.536 91.144 173.195 91.144C172.971 91.144 172.731 91.16 172.475 91.192C172.23 91.224 172 91.2933 171.787 91.4C171.584 91.496 171.414 91.6347 171.275 91.816C171.136 91.9867 171.067 92.216 171.067 92.504C171.067 93.0373 171.238 93.4107 171.579 93.624C171.92 93.8267 172.384 93.928 172.971 93.928ZM172.843 86.472C173.44 86.472 173.942 86.552 174.347 86.712C174.763 86.8613 175.094 87.08 175.339 87.368C175.595 87.6453 175.776 87.9813 175.883 88.376C175.99 88.76 176.043 89.1867 176.043 89.656V94.856C175.915 94.8773 175.734 94.9093 175.499 94.952C175.275 94.984 175.019 95.016 174.731 95.048C174.443 95.08 174.128 95.1067 173.787 95.128C173.456 95.16 173.126 95.176 172.795 95.176C172.326 95.176 171.894 95.128 171.499 95.032C171.104 94.936 170.763 94.7867 170.475 94.584C170.187 94.3707 169.963 94.0933 169.803 93.752C169.643 93.4107 169.563 93 169.563 92.52C169.563 92.0613 169.654 91.6667 169.835 91.336C170.027 91.0053 170.283 90.7387 170.603 90.536C170.923 90.3333 171.296 90.184 171.723 90.088C172.15 89.992 172.598 89.944 173.067 89.944C173.216 89.944 173.371 89.9547 173.531 89.976C173.691 89.9867 173.84 90.008 173.979 90.04C174.128 90.0613 174.256 90.0827 174.363 90.104C174.47 90.1253 174.544 90.1413 174.587 90.152V89.736C174.587 89.4907 174.56 89.2507 174.507 89.016C174.454 88.7707 174.358 88.5573 174.219 88.376C174.08 88.184 173.888 88.0347 173.643 87.928C173.408 87.8107 173.099 87.752 172.715 87.752C172.224 87.752 171.792 87.7893 171.419 87.864C171.056 87.928 170.784 87.9973 170.603 88.072L170.427 86.84C170.619 86.7547 170.939 86.6747 171.387 86.6C171.835 86.5147 172.32 86.472 172.843 86.472ZM180.45 93.928C181.058 93.928 181.506 93.848 181.794 93.688C182.093 93.528 182.242 93.272 182.242 92.92C182.242 92.5573 182.098 92.2693 181.81 92.056C181.522 91.8427 181.048 91.6027 180.386 91.336C180.066 91.208 179.757 91.08 179.458 90.952C179.17 90.8133 178.92 90.6533 178.706 90.472C178.493 90.2907 178.322 90.072 178.194 89.816C178.066 89.56 178.002 89.2453 178.002 88.872C178.002 88.136 178.274 87.5547 178.818 87.128C179.362 86.6907 180.104 86.472 181.042 86.472C181.277 86.472 181.512 86.488 181.746 86.52C181.981 86.5413 182.2 86.5733 182.402 86.616C182.605 86.648 182.781 86.6853 182.93 86.728C183.09 86.7707 183.213 86.808 183.298 86.84L183.026 88.12C182.866 88.0347 182.616 87.9493 182.274 87.864C181.933 87.768 181.522 87.72 181.042 87.72C180.626 87.72 180.264 87.8053 179.954 87.976C179.645 88.136 179.49 88.392 179.49 88.744C179.49 88.9253 179.522 89.0853 179.586 89.224C179.661 89.3627 179.768 89.4907 179.906 89.608C180.056 89.7147 180.237 89.816 180.45 89.912C180.664 90.008 180.92 90.1093 181.218 90.216C181.613 90.3653 181.965 90.5147 182.274 90.664C182.584 90.8027 182.845 90.968 183.058 91.16C183.282 91.352 183.453 91.5867 183.57 91.864C183.688 92.1307 183.746 92.4613 183.746 92.856C183.746 93.624 183.458 94.2053 182.882 94.6C182.317 94.9947 181.506 95.192 180.45 95.192C179.714 95.192 179.138 95.128 178.722 95C178.306 94.8827 178.024 94.792 177.874 94.728L178.146 93.448C178.317 93.512 178.589 93.608 178.962 93.736C179.336 93.864 179.832 93.928 180.45 93.928ZM187.047 86.68H190.199V87.928H187.047V91.768C187.047 92.184 187.079 92.5307 187.143 92.808C187.207 93.0747 187.303 93.288 187.431 93.448C187.559 93.5973 187.719 93.704 187.911 93.768C188.103 93.832 188.327 93.864 188.583 93.864C189.031 93.864 189.388 93.816 189.655 93.72C189.932 93.6133 190.124 93.5387 190.231 93.496L190.519 94.728C190.37 94.8027 190.108 94.8933 189.735 95C189.362 95.1173 188.935 95.176 188.455 95.176C187.89 95.176 187.42 95.1067 187.047 94.968C186.684 94.8187 186.391 94.6 186.167 94.312C185.943 94.024 185.783 93.672 185.687 93.256C185.602 92.8293 185.559 92.3387 185.559 91.784V84.36L187.047 84.104V86.68ZM199.412 95.192C198.74 95.192 198.148 95.0853 197.636 94.872C197.134 94.6587 196.708 94.36 196.356 93.976C196.014 93.592 195.758 93.1387 195.588 92.616C195.417 92.0827 195.332 91.496 195.332 90.856C195.332 90.216 195.422 89.6293 195.604 89.096C195.796 88.5627 196.062 88.104 196.404 87.72C196.745 87.3253 197.161 87.0213 197.652 86.808C198.153 86.584 198.708 86.472 199.316 86.472C199.689 86.472 200.062 86.504 200.436 86.568C200.809 86.632 201.166 86.7333 201.508 86.872L201.172 88.136C200.948 88.0293 200.686 87.944 200.388 87.88C200.1 87.816 199.79 87.784 199.46 87.784C198.628 87.784 197.988 88.0453 197.54 88.568C197.102 89.0907 196.884 89.8533 196.884 90.856C196.884 91.304 196.932 91.7147 197.028 92.088C197.134 92.4613 197.294 92.7813 197.508 93.048C197.732 93.3147 198.014 93.5227 198.356 93.672C198.697 93.8107 199.113 93.88 199.604 93.88C199.998 93.88 200.356 93.8427 200.676 93.768C200.996 93.6933 201.246 93.6133 201.428 93.528L201.636 94.776C201.55 94.8293 201.428 94.8827 201.268 94.936C201.108 94.9787 200.926 95.016 200.724 95.048C200.521 95.0907 200.302 95.1227 200.068 95.144C199.844 95.176 199.625 95.192 199.412 95.192ZM203.233 95V82.84L204.721 82.584V86.84C204.998 86.7333 205.292 86.6533 205.601 86.6C205.921 86.536 206.236 86.504 206.545 86.504C207.206 86.504 207.756 86.6 208.193 86.792C208.63 86.9733 208.977 87.2347 209.233 87.576C209.5 87.9067 209.686 88.3067 209.793 88.776C209.9 89.2453 209.953 89.7627 209.953 90.328V95H208.465V90.648C208.465 90.136 208.428 89.6987 208.353 89.336C208.289 88.9733 208.177 88.68 208.017 88.456C207.857 88.232 207.644 88.072 207.377 87.976C207.11 87.8693 206.78 87.816 206.385 87.816C206.225 87.816 206.06 87.8267 205.889 87.848C205.718 87.8693 205.553 87.896 205.393 87.928C205.244 87.9493 205.105 87.976 204.977 88.008C204.86 88.04 204.774 88.0667 204.721 88.088V95H203.233ZM215.19 93.928C215.542 93.928 215.851 93.9227 216.118 93.912C216.395 93.8907 216.624 93.8587 216.806 93.816V91.336C216.699 91.2827 216.523 91.24 216.278 91.208C216.043 91.1653 215.755 91.144 215.414 91.144C215.19 91.144 214.95 91.16 214.694 91.192C214.448 91.224 214.219 91.2933 214.006 91.4C213.803 91.496 213.632 91.6347 213.494 91.816C213.355 91.9867 213.286 92.216 213.286 92.504C213.286 93.0373 213.456 93.4107 213.798 93.624C214.139 93.8267 214.603 93.928 215.19 93.928ZM215.062 86.472C215.659 86.472 216.16 86.552 216.566 86.712C216.982 86.8613 217.312 87.08 217.558 87.368C217.814 87.6453 217.995 87.9813 218.102 88.376C218.208 88.76 218.262 89.1867 218.262 89.656V94.856C218.134 94.8773 217.952 94.9093 217.718 94.952C217.494 94.984 217.238 95.016 216.95 95.048C216.662 95.08 216.347 95.1067 216.006 95.128C215.675 95.16 215.344 95.176 215.014 95.176C214.544 95.176 214.112 95.128 213.718 95.032C213.323 94.936 212.982 94.7867 212.694 94.584C212.406 94.3707 212.182 94.0933 212.022 93.752C211.862 93.4107 211.782 93 211.782 92.52C211.782 92.0613 211.872 91.6667 212.054 91.336C212.246 91.0053 212.502 90.7387 212.822 90.536C213.142 90.3333 213.515 90.184 213.942 90.088C214.368 89.992 214.816 89.944 215.286 89.944C215.435 89.944 215.59 89.9547 215.75 89.976C215.91 89.9867 216.059 90.008 216.198 90.04C216.347 90.0613 216.475 90.0827 216.582 90.104C216.688 90.1253 216.763 90.1413 216.806 90.152V89.736C216.806 89.4907 216.779 89.2507 216.726 89.016C216.672 88.7707 216.576 88.5573 216.438 88.376C216.299 88.184 216.107 88.0347 215.862 87.928C215.627 87.8107 215.318 87.752 214.934 87.752C214.443 87.752 214.011 87.7893 213.638 87.864C213.275 87.928 213.003 87.9973 212.822 88.072L212.646 86.84C212.838 86.7547 213.158 86.6747 213.606 86.6C214.054 86.5147 214.539 86.472 215.062 86.472ZM222.125 86.68H225.277V87.928H222.125V91.768C222.125 92.184 222.157 92.5307 222.221 92.808C222.285 93.0747 222.381 93.288 222.509 93.448C222.637 93.5973 222.797 93.704 222.989 93.768C223.181 93.832 223.405 93.864 223.661 93.864C224.109 93.864 224.466 93.816 224.733 93.72C225.01 93.6133 225.202 93.5387 225.309 93.496L225.597 94.728C225.448 94.8027 225.186 94.8933 224.813 95C224.44 95.1173 224.013 95.176 223.533 95.176C222.968 95.176 222.498 95.1067 222.125 94.968C221.762 94.8187 221.469 94.6 221.245 94.312C221.021 94.024 220.861 93.672 220.765 93.256C220.68 92.8293 220.637 92.3387 220.637 91.784V84.36L222.125 84.104V86.68Z" fill="#B9C0C1"/>
<rect x="124" y="111" width="164" height="41" rx="10" fill="#F75532"/>
<path d="M195.144 138.24C194.365 138.24 193.656 138.112 193.016 137.856C192.376 137.6 191.827 137.227 191.368 136.736C190.909 136.245 190.552 135.643 190.296 134.928C190.051 134.203 189.928 133.376 189.928 132.448C189.928 131.52 190.067 130.699 190.344 129.984C190.632 129.259 191.016 128.651 191.496 128.16C191.976 127.669 192.536 127.296 193.176 127.04C193.816 126.784 194.499 126.656 195.224 126.656C195.683 126.656 196.093 126.688 196.456 126.752C196.829 126.816 197.149 126.891 197.416 126.976C197.693 127.061 197.917 127.147 198.088 127.232C198.259 127.317 198.376 127.381 198.44 127.424L197.992 128.704C197.896 128.64 197.757 128.571 197.576 128.496C197.395 128.421 197.187 128.347 196.952 128.272C196.728 128.197 196.477 128.139 196.2 128.096C195.933 128.043 195.661 128.016 195.384 128.016C194.797 128.016 194.269 128.117 193.8 128.32C193.331 128.523 192.931 128.816 192.6 129.2C192.269 129.584 192.013 130.053 191.832 130.608C191.661 131.152 191.576 131.765 191.576 132.448C191.576 133.109 191.651 133.712 191.8 134.256C191.96 134.8 192.195 135.269 192.504 135.664C192.813 136.048 193.197 136.347 193.656 136.56C194.125 136.773 194.669 136.88 195.288 136.88C196.003 136.88 196.595 136.805 197.064 136.656C197.533 136.507 197.885 136.373 198.12 136.256L198.52 137.536C198.445 137.589 198.312 137.659 198.12 137.744C197.928 137.819 197.688 137.893 197.4 137.968C197.112 138.043 196.776 138.107 196.392 138.16C196.008 138.213 195.592 138.24 195.144 138.24ZM200.202 138V125.84L201.69 125.584V129.84C201.967 129.733 202.261 129.653 202.57 129.6C202.89 129.536 203.205 129.504 203.514 129.504C204.175 129.504 204.725 129.6 205.162 129.792C205.599 129.973 205.946 130.235 206.202 130.576C206.469 130.907 206.655 131.307 206.762 131.776C206.869 132.245 206.922 132.763 206.922 133.328V138H205.434V133.648C205.434 133.136 205.397 132.699 205.322 132.336C205.258 131.973 205.146 131.68 204.986 131.456C204.826 131.232 204.613 131.072 204.346 130.976C204.079 130.869 203.749 130.816 203.354 130.816C203.194 130.816 203.029 130.827 202.858 130.848C202.687 130.869 202.522 130.896 202.362 130.928C202.213 130.949 202.074 130.976 201.946 131.008C201.829 131.04 201.743 131.067 201.69 131.088V138H200.202ZM212.159 136.928C212.511 136.928 212.82 136.923 213.087 136.912C213.364 136.891 213.593 136.859 213.775 136.816V134.336C213.668 134.283 213.492 134.24 213.247 134.208C213.012 134.165 212.724 134.144 212.383 134.144C212.159 134.144 211.919 134.16 211.663 134.192C211.417 134.224 211.188 134.293 210.975 134.4C210.772 134.496 210.601 134.635 210.463 134.816C210.324 134.987 210.255 135.216 210.255 135.504C210.255 136.037 210.425 136.411 210.767 136.624C211.108 136.827 211.572 136.928 212.159 136.928ZM212.031 129.472C212.628 129.472 213.129 129.552 213.535 129.712C213.951 129.861 214.281 130.08 214.527 130.368C214.783 130.645 214.964 130.981 215.071 131.376C215.177 131.76 215.231 132.187 215.231 132.656V137.856C215.103 137.877 214.921 137.909 214.687 137.952C214.463 137.984 214.207 138.016 213.919 138.048C213.631 138.08 213.316 138.107 212.975 138.128C212.644 138.16 212.313 138.176 211.983 138.176C211.513 138.176 211.081 138.128 210.687 138.032C210.292 137.936 209.951 137.787 209.663 137.584C209.375 137.371 209.151 137.093 208.991 136.752C208.831 136.411 208.751 136 208.751 135.52C208.751 135.061 208.841 134.667 209.023 134.336C209.215 134.005 209.471 133.739 209.791 133.536C210.111 133.333 210.484 133.184 210.911 133.088C211.337 132.992 211.785 132.944 212.255 132.944C212.404 132.944 212.559 132.955 212.719 132.976C212.879 132.987 213.028 133.008 213.167 133.04C213.316 133.061 213.444 133.083 213.551 133.104C213.657 133.125 213.732 133.141 213.775 133.152V132.736C213.775 132.491 213.748 132.251 213.695 132.016C213.641 131.771 213.545 131.557 213.407 131.376C213.268 131.184 213.076 131.035 212.831 130.928C212.596 130.811 212.287 130.752 211.903 130.752C211.412 130.752 210.98 130.789 210.607 130.864C210.244 130.928 209.972 130.997 209.791 131.072L209.615 129.84C209.807 129.755 210.127 129.675 210.575 129.6C211.023 129.515 211.508 129.472 212.031 129.472ZM219.094 129.68H222.246V130.928H219.094V134.768C219.094 135.184 219.126 135.531 219.19 135.808C219.254 136.075 219.35 136.288 219.478 136.448C219.606 136.597 219.766 136.704 219.958 136.768C220.15 136.832 220.374 136.864 220.63 136.864C221.078 136.864 221.435 136.816 221.702 136.72C221.979 136.613 222.171 136.539 222.278 136.496L222.566 137.728C222.417 137.803 222.155 137.893 221.782 138C221.409 138.117 220.982 138.176 220.502 138.176C219.937 138.176 219.467 138.107 219.094 137.968C218.731 137.819 218.438 137.6 218.214 137.312C217.99 137.024 217.83 136.672 217.734 136.256C217.649 135.829 217.606 135.339 217.606 134.784V127.36L219.094 127.104V129.68Z" fill="white"/>
<defs>
<filter id="filter0_d_1_236" x="0" y="0" width="384" height="247" filterUnits="userSpaceOnUse" color-interpolation-filters="sRGB">
<feFlood flood-opacity="0" result="BackgroundImageFix"/>
<feColorMatrix in="SourceAlpha" type="matrix" values="0 0 0 0 0 0 0 0 0 0 0 0 0 0 0 0 0 0 127 0" result="hardAlpha"/>
<feOffset dx="10" dy="24"/>
<feGaussianBlur stdDeviation="27"/>
<feComposite in2="hardAlpha" operator="out"/>
<feColorMatrix type="matrix" values="0 0 0 0 0 0 0 0 0 0 0 0 0 0 0 0 0 0 0.06 0"/>
<feBlend mode="normal" in2="BackgroundImageFix" result="effect1_dropShadow_1_236"/>
<feBlend mode="normal" in="SourceGraphic" in2="effect1_dropShadow_1_236" result="shape"/>
</filter>
</defs>
</svg>
