<svg width="281" height="92" viewBox="0 0 281 92" fill="none" xmlns="http://www.w3.org/2000/svg">
<rect width="40" height="40" rx="10" fill="#FFE1D8"/>
<path d="M26.6667 26.6667H21.3334V21.3333H26.6667V26.6667ZM18.6667 26.6667H13.3334V21.3333H18.6667V26.6667ZM26.6667 18.6667H21.3334V13.3333H26.6667V18.6667ZM18.6667 18.6667H13.3334V13.3333H18.6667V18.6667Z" fill="#F75532"/>
<path d="M66.336 12.912C65.9307 14.0853 65.5413 15.1733 65.168 16.176C64.8053 17.168 64.448 18.112 64.096 19.008C63.744 19.904 63.392 20.7627 63.04 21.584C62.6987 22.3947 62.3467 23.2 61.984 24H60.528C60.1653 23.2 59.808 22.3947 59.456 21.584C59.1147 20.7627 58.7627 19.904 58.4 19.008C58.048 18.112 57.6853 17.168 57.312 16.176C56.9387 15.1733 56.5547 14.0853 56.16 12.912H57.872C58.448 14.5973 59.0133 16.2187 59.568 17.776C60.1227 19.3333 60.6933 20.7947 61.28 22.16C61.8667 20.8053 62.4373 19.3493 62.992 17.792C63.5467 16.224 64.1067 14.5973 64.672 12.912H66.336ZM70.1898 22.928C70.5418 22.928 70.8511 22.9227 71.1178 22.912C71.3951 22.8907 71.6244 22.8587 71.8058 22.816V20.336C71.6991 20.2827 71.5231 20.24 71.2778 20.208C71.0431 20.1653 70.7551 20.144 70.4138 20.144C70.1898 20.144 69.9498 20.16 69.6938 20.192C69.4484 20.224 69.2191 20.2933 69.0058 20.4C68.8031 20.496 68.6324 20.6347 68.4938 20.816C68.3551 20.9867 68.2858 21.216 68.2858 21.504C68.2858 22.0373 68.4564 22.4107 68.7978 22.624C69.1391 22.8267 69.6031 22.928 70.1898 22.928ZM70.0618 15.472C70.6591 15.472 71.1604 15.552 71.5658 15.712C71.9818 15.8613 72.3124 16.08 72.5578 16.368C72.8138 16.6453 72.9951 16.9813 73.1018 17.376C73.2084 17.76 73.2618 18.1867 73.2618 18.656V23.856C73.1338 23.8773 72.9524 23.9093 72.7178 23.952C72.4938 23.984 72.2378 24.016 71.9498 24.048C71.6618 24.08 71.3471 24.1067 71.0058 24.128C70.6751 24.16 70.3444 24.176 70.0138 24.176C69.5444 24.176 69.1124 24.128 68.7178 24.032C68.3231 23.936 67.9818 23.7867 67.6938 23.584C67.4058 23.3707 67.1818 23.0933 67.0218 22.752C66.8618 22.4107 66.7818 22 66.7818 21.52C66.7818 21.0613 66.8724 20.6667 67.0538 20.336C67.2458 20.0053 67.5018 19.7387 67.8218 19.536C68.1418 19.3333 68.5151 19.184 68.9418 19.088C69.3684 18.992 69.8164 18.944 70.2858 18.944C70.4351 18.944 70.5898 18.9547 70.7498 18.976C70.9098 18.9867 71.0591 19.008 71.1978 19.04C71.3471 19.0613 71.4751 19.0827 71.5818 19.104C71.6884 19.1253 71.7631 19.1413 71.8058 19.152V18.736C71.8058 18.4907 71.7791 18.2507 71.7258 18.016C71.6724 17.7707 71.5764 17.5573 71.4378 17.376C71.2991 17.184 71.1071 17.0347 70.8618 16.928C70.6271 16.8107 70.3178 16.752 69.9338 16.752C69.4431 16.752 69.0111 16.7893 68.6378 16.864C68.2751 16.928 68.0031 16.9973 67.8218 17.072L67.6458 15.84C67.8378 15.7547 68.1578 15.6747 68.6058 15.6C69.0538 15.5147 69.5391 15.472 70.0618 15.472ZM79.3491 24.192C78.6771 24.192 78.0851 24.0853 77.5731 23.872C77.0718 23.6587 76.6451 23.36 76.2931 22.976C75.9518 22.592 75.6958 22.1387 75.5251 21.616C75.3545 21.0827 75.2691 20.496 75.2691 19.856C75.2691 19.216 75.3598 18.6293 75.5411 18.096C75.7331 17.5627 75.9998 17.104 76.3411 16.72C76.6825 16.3253 77.0985 16.0213 77.5891 15.808C78.0905 15.584 78.6451 15.472 79.2531 15.472C79.6265 15.472 79.9998 15.504 80.3731 15.568C80.7465 15.632 81.1038 15.7333 81.4451 15.872L81.1091 17.136C80.8851 17.0293 80.6238 16.944 80.3251 16.88C80.0371 16.816 79.7278 16.784 79.3971 16.784C78.5651 16.784 77.9251 17.0453 77.4771 17.568C77.0398 18.0907 76.8211 18.8533 76.8211 19.856C76.8211 20.304 76.8691 20.7147 76.9651 21.088C77.0718 21.4613 77.2318 21.7813 77.4451 22.048C77.6691 22.3147 77.9518 22.5227 78.2931 22.672C78.6345 22.8107 79.0505 22.88 79.5411 22.88C79.9358 22.88 80.2931 22.8427 80.6131 22.768C80.9331 22.6933 81.1838 22.6133 81.3651 22.528L81.5731 23.776C81.4878 23.8293 81.3651 23.8827 81.2051 23.936C81.0451 23.9787 80.8638 24.016 80.6611 24.048C80.4585 24.0907 80.2398 24.1227 80.0051 24.144C79.7811 24.176 79.5625 24.192 79.3491 24.192ZM86.7866 24.192C86.1146 24.192 85.5226 24.0853 85.0106 23.872C84.5093 23.6587 84.0826 23.36 83.7306 22.976C83.3893 22.592 83.1333 22.1387 82.9626 21.616C82.792 21.0827 82.7066 20.496 82.7066 19.856C82.7066 19.216 82.7973 18.6293 82.9786 18.096C83.1706 17.5627 83.4373 17.104 83.7786 16.72C84.12 16.3253 84.536 16.0213 85.0266 15.808C85.528 15.584 86.0826 15.472 86.6906 15.472C87.064 15.472 87.4373 15.504 87.8106 15.568C88.184 15.632 88.5413 15.7333 88.8826 15.872L88.5466 17.136C88.3226 17.0293 88.0613 16.944 87.7626 16.88C87.4746 16.816 87.1653 16.784 86.8346 16.784C86.0026 16.784 85.3626 17.0453 84.9146 17.568C84.4773 18.0907 84.2586 18.8533 84.2586 19.856C84.2586 20.304 84.3066 20.7147 84.4026 21.088C84.5093 21.4613 84.6693 21.7813 84.8826 22.048C85.1066 22.3147 85.3893 22.5227 85.7306 22.672C86.072 22.8107 86.488 22.88 86.9786 22.88C87.3733 22.88 87.7306 22.8427 88.0506 22.768C88.3706 22.6933 88.6213 22.6133 88.8026 22.528L89.0106 23.776C88.9253 23.8293 88.8026 23.8827 88.6426 23.936C88.4826 23.9787 88.3013 24.016 88.0986 24.048C87.896 24.0907 87.6773 24.1227 87.4426 24.144C87.2186 24.176 87 24.192 86.7866 24.192ZM92.0961 24H90.6081V15.68H92.0961V24ZM91.3441 14.176C91.0775 14.176 90.8481 14.0907 90.6561 13.92C90.4748 13.7387 90.3841 13.4987 90.3841 13.2C90.3841 12.9013 90.4748 12.6667 90.6561 12.496C90.8481 12.3147 91.0775 12.224 91.3441 12.224C91.6108 12.224 91.8348 12.3147 92.0161 12.496C92.2081 12.6667 92.3041 12.9013 92.3041 13.2C92.3041 13.4987 92.2081 13.7387 92.0161 13.92C91.8348 14.0907 91.6108 14.176 91.3441 14.176ZM94.655 15.92C94.9963 15.8347 95.4497 15.744 96.015 15.648C96.5803 15.552 97.231 15.504 97.967 15.504C98.6283 15.504 99.1777 15.6 99.615 15.792C100.052 15.9733 100.399 16.2347 100.655 16.576C100.922 16.9067 101.108 17.3067 101.215 17.776C101.322 18.2453 101.375 18.7627 101.375 19.328V24H99.887V19.648C99.887 19.136 99.8497 18.6987 99.775 18.336C99.711 17.9733 99.599 17.68 99.439 17.456C99.279 17.232 99.0657 17.072 98.799 16.976C98.5323 16.8693 98.2017 16.816 97.807 16.816C97.647 16.816 97.4817 16.8213 97.311 16.832C97.1403 16.8427 96.975 16.8587 96.815 16.88C96.6657 16.8907 96.527 16.9067 96.399 16.928C96.2817 16.9493 96.1963 16.9653 96.143 16.976V24H94.655V15.92ZM103.379 19.856C103.379 19.12 103.485 18.48 103.699 17.936C103.912 17.3813 104.195 16.9227 104.547 16.56C104.899 16.1973 105.304 15.9253 105.763 15.744C106.221 15.5627 106.691 15.472 107.171 15.472C108.291 15.472 109.149 15.824 109.747 16.528C110.344 17.2213 110.642 18.2827 110.642 19.712C110.642 19.776 110.642 19.8613 110.642 19.968C110.642 20.064 110.637 20.1547 110.627 20.24H104.931C104.995 21.104 105.245 21.76 105.683 22.208C106.12 22.656 106.803 22.88 107.731 22.88C108.253 22.88 108.691 22.8373 109.043 22.752C109.405 22.656 109.677 22.5653 109.859 22.48L110.067 23.728C109.885 23.824 109.565 23.9253 109.107 24.032C108.659 24.1387 108.147 24.192 107.571 24.192C106.845 24.192 106.216 24.0853 105.683 23.872C105.16 23.648 104.728 23.344 104.387 22.96C104.045 22.576 103.789 22.1227 103.618 21.6C103.459 21.0667 103.379 20.4853 103.379 19.856ZM109.091 19.04C109.101 18.368 108.931 17.8187 108.579 17.392C108.237 16.9547 107.763 16.736 107.155 16.736C106.813 16.736 106.509 16.8053 106.243 16.944C105.987 17.072 105.768 17.2427 105.587 17.456C105.405 17.6693 105.261 17.9147 105.155 18.192C105.059 18.4693 104.995 18.752 104.963 19.04H109.091ZM123.987 12.912V14.256H120.499V24H118.947V14.256H115.459V12.912H123.987ZM124.195 25.552C124.312 25.6053 124.461 25.6533 124.643 25.696C124.835 25.7493 125.021 25.776 125.203 25.776C125.789 25.776 126.248 25.6427 126.579 25.376C126.909 25.12 127.208 24.6987 127.475 24.112C126.803 22.832 126.173 21.4773 125.587 20.048C125.011 18.608 124.531 17.152 124.147 15.68H125.747C125.864 16.16 126.003 16.6773 126.163 17.232C126.333 17.7867 126.52 18.3573 126.723 18.944C126.925 19.5307 127.144 20.1173 127.379 20.704C127.613 21.2907 127.859 21.856 128.115 22.4C128.52 21.28 128.872 20.1707 129.171 19.072C129.469 17.9733 129.752 16.8427 130.019 15.68H131.555C131.171 17.248 130.744 18.7573 130.275 20.208C129.805 21.648 129.299 22.9973 128.755 24.256C128.541 24.736 128.317 25.1467 128.083 25.488C127.859 25.84 127.608 26.128 127.331 26.352C127.053 26.576 126.739 26.7413 126.387 26.848C126.045 26.9547 125.656 27.008 125.219 27.008C125.101 27.008 124.979 26.9973 124.851 26.976C124.723 26.9653 124.595 26.944 124.467 26.912C124.349 26.8907 124.237 26.864 124.131 26.832C124.035 26.8 123.965 26.7733 123.923 26.752L124.195 25.552ZM138.9 19.856C138.9 18.8853 138.66 18.1387 138.18 17.616C137.7 17.0933 137.06 16.832 136.26 16.832C135.812 16.832 135.46 16.848 135.204 16.88C134.958 16.912 134.761 16.9493 134.612 16.992V22.24C134.793 22.3893 135.054 22.5333 135.396 22.672C135.737 22.8107 136.11 22.88 136.516 22.88C136.942 22.88 137.305 22.8053 137.604 22.656C137.913 22.496 138.164 22.2827 138.356 22.016C138.548 21.7387 138.686 21.4187 138.772 21.056C138.857 20.6827 138.9 20.2827 138.9 19.856ZM140.452 19.856C140.452 20.4853 140.366 21.0667 140.196 21.6C140.036 22.1333 139.796 22.592 139.476 22.976C139.156 23.36 138.761 23.6587 138.292 23.872C137.833 24.0853 137.305 24.192 136.708 24.192C136.228 24.192 135.801 24.128 135.428 24C135.065 23.872 134.793 23.7493 134.612 23.632V26.96H133.124V15.936C133.476 15.8507 133.913 15.76 134.436 15.664C134.969 15.5573 135.582 15.504 136.276 15.504C136.916 15.504 137.492 15.6053 138.004 15.808C138.516 16.0107 138.953 16.2987 139.316 16.672C139.678 17.0453 139.956 17.504 140.148 18.048C140.35 18.5813 140.452 19.184 140.452 19.856ZM142.082 19.856C142.082 19.12 142.188 18.48 142.402 17.936C142.615 17.3813 142.898 16.9227 143.25 16.56C143.602 16.1973 144.007 15.9253 144.466 15.744C144.924 15.5627 145.394 15.472 145.874 15.472C146.994 15.472 147.852 15.824 148.45 16.528C149.047 17.2213 149.346 18.2827 149.346 19.712C149.346 19.776 149.346 19.8613 149.346 19.968C149.346 20.064 149.34 20.1547 149.33 20.24H143.634C143.698 21.104 143.948 21.76 144.386 22.208C144.823 22.656 145.506 22.88 146.434 22.88C146.956 22.88 147.394 22.8373 147.746 22.752C148.108 22.656 148.38 22.5653 148.562 22.48L148.77 23.728C148.588 23.824 148.268 23.9253 147.81 24.032C147.362 24.1387 146.85 24.192 146.274 24.192C145.548 24.192 144.919 24.0853 144.386 23.872C143.863 23.648 143.431 23.344 143.09 22.96C142.748 22.576 142.492 22.1227 142.322 21.6C142.162 21.0667 142.082 20.4853 142.082 19.856ZM147.794 19.04C147.804 18.368 147.634 17.8187 147.282 17.392C146.94 16.9547 146.466 16.736 145.858 16.736C145.516 16.736 145.212 16.8053 144.946 16.944C144.69 17.072 144.471 17.2427 144.29 17.456C144.108 17.6693 143.964 17.9147 143.858 18.192C143.762 18.4693 143.698 18.752 143.666 19.04H147.794Z" fill="#001F29"/>
<rect x="56" y="44" width="225" height="48" rx="10" fill="#FAFAFA"/>
<path d="M77.376 73.21C76.6947 73.21 76.074 73.098 75.514 72.874C74.954 72.65 74.4733 72.3233 74.072 71.894C73.6707 71.4647 73.358 70.9373 73.134 70.312C72.9193 69.6773 72.812 68.954 72.812 68.142C72.812 67.33 72.9333 66.6113 73.176 65.986C73.428 65.3513 73.764 64.8193 74.184 64.39C74.604 63.9607 75.094 63.634 75.654 63.41C76.214 63.186 76.8113 63.074 77.446 63.074C77.8473 63.074 78.2067 63.102 78.524 63.158C78.8507 63.214 79.1307 63.2793 79.364 63.354C79.6067 63.4287 79.8027 63.5033 79.952 63.578C80.1013 63.6527 80.204 63.7087 80.26 63.746L79.868 64.866C79.784 64.81 79.6627 64.7493 79.504 64.684C79.3453 64.6187 79.1633 64.5533 78.958 64.488C78.762 64.4227 78.5427 64.3713 78.3 64.334C78.0667 64.2873 77.8287 64.264 77.586 64.264C77.0727 64.264 76.6107 64.3527 76.2 64.53C75.7893 64.7073 75.4393 64.964 75.15 65.3C74.8607 65.636 74.6367 66.0467 74.478 66.532C74.3287 67.008 74.254 67.5447 74.254 68.142C74.254 68.7207 74.3193 69.248 74.45 69.724C74.59 70.2 74.7953 70.6107 75.066 70.956C75.3367 71.292 75.6727 71.5533 76.074 71.74C76.4847 71.9267 76.9607 72.02 77.502 72.02C78.1273 72.02 78.6453 71.9547 79.056 71.824C79.4667 71.6933 79.7747 71.5767 79.98 71.474L80.33 72.594C80.2647 72.6407 80.148 72.7013 79.98 72.776C79.812 72.8413 79.602 72.9067 79.35 72.972C79.098 73.0373 78.804 73.0933 78.468 73.14C78.132 73.1867 77.768 73.21 77.376 73.21ZM83.1036 73H81.8016V65.72H83.1036V73ZM82.4456 64.404C82.2123 64.404 82.0116 64.3293 81.8436 64.18C81.685 64.0213 81.6056 63.8113 81.6056 63.55C81.6056 63.2887 81.685 63.0833 81.8436 62.934C82.0116 62.7753 82.2123 62.696 82.4456 62.696C82.679 62.696 82.875 62.7753 83.0336 62.934C83.2016 63.0833 83.2856 63.2887 83.2856 63.55C83.2856 63.8113 83.2016 64.0213 83.0336 64.18C82.875 64.3293 82.679 64.404 82.4456 64.404ZM85.3427 65.93C85.6413 65.8553 86.038 65.776 86.5327 65.692C87.0273 65.608 87.5967 65.566 88.2407 65.566C88.8193 65.566 89.3 65.65 89.6827 65.818C90.0653 65.9767 90.3687 66.2053 90.5927 66.504C90.826 66.7933 90.9893 67.1433 91.0827 67.554C91.176 67.9647 91.2227 68.4173 91.2227 68.912V73H89.9207V69.192C89.9207 68.744 89.888 68.3613 89.8227 68.044C89.7667 67.7267 89.6687 67.47 89.5287 67.274C89.3887 67.078 89.202 66.938 88.9687 66.854C88.7353 66.7607 88.446 66.714 88.1007 66.714C87.9607 66.714 87.816 66.7187 87.6667 66.728C87.5173 66.7373 87.3727 66.7513 87.2327 66.77C87.102 66.7793 86.9807 66.7933 86.8687 66.812C86.766 66.8307 86.6913 66.8447 86.6447 66.854V73H85.3427V65.93ZM99.8077 69.36C99.8077 69.9387 99.7237 70.4613 99.5557 70.928C99.3877 71.3947 99.1497 71.796 98.8417 72.132C98.5431 72.468 98.1837 72.7293 97.7637 72.916C97.3437 73.0933 96.8864 73.182 96.3917 73.182C95.8971 73.182 95.4397 73.0933 95.0197 72.916C94.5997 72.7293 94.2357 72.468 93.9277 72.132C93.6291 71.796 93.3957 71.3947 93.2277 70.928C93.0597 70.4613 92.9757 69.9387 92.9757 69.36C92.9757 68.7907 93.0597 68.2727 93.2277 67.806C93.3957 67.33 93.6291 66.924 93.9277 66.588C94.2357 66.252 94.5997 65.9953 95.0197 65.818C95.4397 65.6313 95.8971 65.538 96.3917 65.538C96.8864 65.538 97.3437 65.6313 97.7637 65.818C98.1837 65.9953 98.5431 66.252 98.8417 66.588C99.1497 66.924 99.3877 67.33 99.5557 67.806C99.7237 68.2727 99.8077 68.7907 99.8077 69.36ZM98.4497 69.36C98.4497 68.5387 98.2631 67.89 97.8897 67.414C97.5257 66.9287 97.0264 66.686 96.3917 66.686C95.7571 66.686 95.2531 66.9287 94.8797 67.414C94.5157 67.89 94.3337 68.5387 94.3337 69.36C94.3337 70.1813 94.5157 70.8347 94.8797 71.32C95.2531 71.796 95.7571 72.034 96.3917 72.034C97.0264 72.034 97.5257 71.796 97.8897 71.32C98.2631 70.8347 98.4497 70.1813 98.4497 69.36ZM107.132 65.72C106.768 67.0827 106.339 68.3893 105.844 69.64C105.359 70.8907 104.887 72.0107 104.43 73H103.254C102.797 72.0107 102.321 70.8907 101.826 69.64C101.341 68.3893 100.916 67.0827 100.552 65.72H101.952C102.064 66.1773 102.195 66.6673 102.344 67.19C102.503 67.7033 102.666 68.2167 102.834 68.73C103.011 69.234 103.189 69.724 103.366 70.2C103.543 70.676 103.711 71.1007 103.87 71.474C104.029 71.1007 104.197 70.676 104.374 70.2C104.551 69.724 104.724 69.234 104.892 68.73C105.069 68.2167 105.233 67.7033 105.382 67.19C105.541 66.6673 105.676 66.1773 105.788 65.72H107.132ZM110.939 72.062C111.247 72.062 111.518 72.0573 111.751 72.048C111.994 72.0293 112.195 72.0013 112.353 71.964V69.794C112.26 69.7473 112.106 69.71 111.891 69.682C111.686 69.6447 111.434 69.626 111.135 69.626C110.939 69.626 110.729 69.64 110.505 69.668C110.291 69.696 110.09 69.7567 109.903 69.85C109.726 69.934 109.577 70.0553 109.455 70.214C109.334 70.3633 109.273 70.564 109.273 70.816C109.273 71.2827 109.423 71.6093 109.721 71.796C110.02 71.9733 110.426 72.062 110.939 72.062ZM110.827 65.538C111.35 65.538 111.789 65.608 112.143 65.748C112.507 65.8787 112.797 66.07 113.011 66.322C113.235 66.5647 113.394 66.8587 113.487 67.204C113.581 67.54 113.627 67.9133 113.627 68.324V72.874C113.515 72.8927 113.357 72.9207 113.151 72.958C112.955 72.986 112.731 73.014 112.479 73.042C112.227 73.07 111.952 73.0933 111.653 73.112C111.364 73.14 111.075 73.154 110.785 73.154C110.375 73.154 109.997 73.112 109.651 73.028C109.306 72.944 109.007 72.8133 108.755 72.636C108.503 72.4493 108.307 72.2067 108.167 71.908C108.027 71.6093 107.957 71.25 107.957 70.83C107.957 70.4287 108.037 70.0833 108.195 69.794C108.363 69.5047 108.587 69.2713 108.867 69.094C109.147 68.9167 109.474 68.786 109.847 68.702C110.221 68.618 110.613 68.576 111.023 68.576C111.154 68.576 111.289 68.5853 111.429 68.604C111.569 68.6133 111.7 68.632 111.821 68.66C111.952 68.6787 112.064 68.6973 112.157 68.716C112.251 68.7347 112.316 68.7487 112.353 68.758V68.394C112.353 68.1793 112.33 67.9693 112.283 67.764C112.237 67.5493 112.153 67.3627 112.031 67.204C111.91 67.036 111.742 66.9053 111.527 66.812C111.322 66.7093 111.051 66.658 110.715 66.658C110.286 66.658 109.908 66.6907 109.581 66.756C109.264 66.812 109.026 66.8727 108.867 66.938L108.713 65.86C108.881 65.7853 109.161 65.7153 109.553 65.65C109.945 65.5753 110.37 65.538 110.827 65.538ZM118.954 73.168C118.366 73.168 117.848 73.0747 117.4 72.888C116.961 72.7013 116.588 72.44 116.28 72.104C115.981 71.768 115.757 71.3713 115.608 70.914C115.459 70.4473 115.384 69.934 115.384 69.374C115.384 68.814 115.463 68.3007 115.622 67.834C115.79 67.3673 116.023 66.966 116.322 66.63C116.621 66.2847 116.985 66.0187 117.414 65.832C117.853 65.636 118.338 65.538 118.87 65.538C119.197 65.538 119.523 65.566 119.85 65.622C120.177 65.678 120.489 65.7667 120.788 65.888L120.494 66.994C120.298 66.9007 120.069 66.826 119.808 66.77C119.556 66.714 119.285 66.686 118.996 66.686C118.268 66.686 117.708 66.9147 117.316 67.372C116.933 67.8293 116.742 68.4967 116.742 69.374C116.742 69.766 116.784 70.1253 116.868 70.452C116.961 70.7787 117.101 71.0587 117.288 71.292C117.484 71.5253 117.731 71.7073 118.03 71.838C118.329 71.9593 118.693 72.02 119.122 72.02C119.467 72.02 119.78 71.9873 120.06 71.922C120.34 71.8567 120.559 71.7867 120.718 71.712L120.9 72.804C120.825 72.8507 120.718 72.8973 120.578 72.944C120.438 72.9813 120.279 73.014 120.102 73.042C119.925 73.0793 119.733 73.1073 119.528 73.126C119.332 73.154 119.141 73.168 118.954 73.168Z" fill="#ABADAD"/>
</svg>
