<svg width="281" height="92" viewBox="0 0 281 92" fill="none" xmlns="http://www.w3.org/2000/svg">
<rect width="40" height="40" rx="10" fill="#FFE1D8"/>
<path d="M20 29.0037C18.7369 27.9263 17.5662 26.7452 16.5 25.4727C14.9 23.5617 13 20.7157 13 18.0037C12.9986 15.1713 14.7042 12.6171 17.3211 11.5331C19.9379 10.4491 22.9501 11.049 24.952 13.0527C26.2685 14.3633 27.0059 16.1461 27 18.0037C27 20.7157 25.1 23.5617 23.5 25.4727C22.4338 26.7452 21.2631 27.9263 20 29.0037ZM20 13.0037C17.2399 13.007 15.0033 15.2437 15 18.0037C15 19.1697 15.527 21.1887 18.035 24.1897C18.6531 24.9278 19.309 25.6334 20 26.3037C20.691 25.6342 21.3472 24.9296 21.966 24.1927C24.473 21.1877 25 19.1687 25 18.0037C24.9967 15.2437 22.7601 13.007 20 13.0037ZM20 21.0037C18.3431 21.0037 17 19.6606 17 18.0037C17 16.3469 18.3431 15.0037 20 15.0037C21.6569 15.0037 23 16.3469 23 18.0037C23 18.7994 22.6839 19.5624 22.1213 20.125C21.5587 20.6876 20.7957 21.0037 20 21.0037Z" fill="#F75532"/>
<path d="M65.054 24.488V26H57.548V13.526H59.294V24.488H65.054ZM74.825 21.32C74.825 22.064 74.717 22.736 74.501 23.336C74.285 23.936 73.979 24.452 73.583 24.884C73.199 25.316 72.737 25.652 72.197 25.892C71.657 26.12 71.069 26.234 70.433 26.234C69.797 26.234 69.209 26.12 68.669 25.892C68.129 25.652 67.661 25.316 67.265 24.884C66.881 24.452 66.581 23.936 66.365 23.336C66.149 22.736 66.041 22.064 66.041 21.32C66.041 20.588 66.149 19.922 66.365 19.322C66.581 18.71 66.881 18.188 67.265 17.756C67.661 17.324 68.129 16.994 68.669 16.766C69.209 16.526 69.797 16.406 70.433 16.406C71.069 16.406 71.657 16.526 72.197 16.766C72.737 16.994 73.199 17.324 73.583 17.756C73.979 18.188 74.285 18.71 74.501 19.322C74.717 19.922 74.825 20.588 74.825 21.32ZM73.079 21.32C73.079 20.264 72.839 19.43 72.359 18.818C71.891 18.194 71.249 17.882 70.433 17.882C69.617 17.882 68.969 18.194 68.489 18.818C68.021 19.43 67.787 20.264 67.787 21.32C67.787 22.376 68.021 23.216 68.489 23.84C68.969 24.452 69.617 24.758 70.433 24.758C71.249 24.758 71.891 24.452 72.359 23.84C72.839 23.216 73.079 22.376 73.079 21.32ZM81.2482 26.216C80.4922 26.216 79.8262 26.096 79.2502 25.856C78.6862 25.616 78.2062 25.28 77.8102 24.848C77.4262 24.416 77.1382 23.906 76.9462 23.318C76.7542 22.718 76.6582 22.058 76.6582 21.338C76.6582 20.618 76.7602 19.958 76.9642 19.358C77.1802 18.758 77.4802 18.242 77.8642 17.81C78.2482 17.366 78.7162 17.024 79.2682 16.784C79.8322 16.532 80.4562 16.406 81.1402 16.406C81.5602 16.406 81.9802 16.442 82.4002 16.514C82.8202 16.586 83.2222 16.7 83.6062 16.856L83.2282 18.278C82.9762 18.158 82.6822 18.062 82.3462 17.99C82.0222 17.918 81.6742 17.882 81.3022 17.882C80.3662 17.882 79.6462 18.176 79.1422 18.764C78.6502 19.352 78.4042 20.21 78.4042 21.338C78.4042 21.842 78.4582 22.304 78.5662 22.724C78.6862 23.144 78.8662 23.504 79.1062 23.804C79.3582 24.104 79.6762 24.338 80.0602 24.506C80.4442 24.662 80.9122 24.74 81.4642 24.74C81.9082 24.74 82.3102 24.698 82.6702 24.614C83.0302 24.53 83.3122 24.44 83.5162 24.344L83.7502 25.748C83.6542 25.808 83.5162 25.868 83.3362 25.928C83.1562 25.976 82.9522 26.018 82.7242 26.054C82.4962 26.102 82.2502 26.138 81.9862 26.162C81.7342 26.198 81.4882 26.216 81.2482 26.216ZM88.7154 24.794C89.1114 24.794 89.4594 24.788 89.7594 24.776C90.0714 24.752 90.3294 24.716 90.5334 24.668V21.878C90.4134 21.818 90.2154 21.77 89.9394 21.734C89.6754 21.686 89.3514 21.662 88.9674 21.662C88.7154 21.662 88.4454 21.68 88.1574 21.716C87.8814 21.752 87.6234 21.83 87.3834 21.95C87.1554 22.058 86.9634 22.214 86.8074 22.418C86.6514 22.61 86.5734 22.868 86.5734 23.192C86.5734 23.792 86.7654 24.212 87.1494 24.452C87.5334 24.68 88.0554 24.794 88.7154 24.794ZM88.5714 16.406C89.2434 16.406 89.8074 16.496 90.2634 16.676C90.7314 16.844 91.1034 17.09 91.3794 17.414C91.6674 17.726 91.8714 18.104 91.9914 18.548C92.1114 18.98 92.1714 19.46 92.1714 19.988V25.838C92.0274 25.862 91.8234 25.898 91.5594 25.946C91.3074 25.982 91.0194 26.018 90.6954 26.054C90.3714 26.09 90.0174 26.12 89.6334 26.144C89.2614 26.18 88.8894 26.198 88.5174 26.198C87.9894 26.198 87.5034 26.144 87.0594 26.036C86.6154 25.928 86.2314 25.76 85.9074 25.532C85.5834 25.292 85.3314 24.98 85.1514 24.596C84.9714 24.212 84.8814 23.75 84.8814 23.21C84.8814 22.694 84.9834 22.25 85.1874 21.878C85.4034 21.506 85.6914 21.206 86.0514 20.978C86.4114 20.75 86.8314 20.582 87.3114 20.474C87.7914 20.366 88.2954 20.312 88.8234 20.312C88.9914 20.312 89.1654 20.324 89.3454 20.348C89.5254 20.36 89.6934 20.384 89.8494 20.42C90.0174 20.444 90.1614 20.468 90.2814 20.492C90.4014 20.516 90.4854 20.534 90.5334 20.546V20.078C90.5334 19.802 90.5034 19.532 90.4434 19.268C90.3834 18.992 90.2754 18.752 90.1194 18.548C89.9634 18.332 89.7474 18.164 89.4714 18.044C89.2074 17.912 88.8594 17.846 88.4274 17.846C87.8754 17.846 87.3894 17.888 86.9694 17.972C86.5614 18.044 86.2554 18.122 86.0514 18.206L85.8534 16.82C86.0694 16.724 86.4294 16.634 86.9334 16.55C87.4374 16.454 87.9834 16.406 88.5714 16.406ZM96.5177 16.64H100.064V18.044H96.5177V22.364C96.5177 22.832 96.5537 23.222 96.6257 23.534C96.6977 23.834 96.8057 24.074 96.9497 24.254C97.0937 24.422 97.2737 24.542 97.4897 24.614C97.7057 24.686 97.9577 24.722 98.2457 24.722C98.7497 24.722 99.1517 24.668 99.4517 24.56C99.7637 24.44 99.9797 24.356 100.1 24.308L100.424 25.694C100.256 25.778 99.9617 25.88 99.5417 26C99.1217 26.132 98.6417 26.198 98.1017 26.198C97.4657 26.198 96.9377 26.12 96.5177 25.964C96.1097 25.796 95.7797 25.55 95.5277 25.226C95.2757 24.902 95.0957 24.506 94.9877 24.038C94.8917 23.558 94.8437 23.006 94.8437 22.382V14.03L96.5177 13.742V16.64ZM103.868 26H102.194V16.64H103.868V26ZM103.022 14.948C102.722 14.948 102.464 14.852 102.248 14.66C102.044 14.456 101.942 14.186 101.942 13.85C101.942 13.514 102.044 13.25 102.248 13.058C102.464 12.854 102.722 12.752 103.022 12.752C103.322 12.752 103.574 12.854 103.778 13.058C103.994 13.25 104.102 13.514 104.102 13.85C104.102 14.186 103.994 14.456 103.778 14.66C103.574 14.852 103.322 14.948 103.022 14.948ZM115.009 21.32C115.009 22.064 114.901 22.736 114.685 23.336C114.469 23.936 114.163 24.452 113.767 24.884C113.383 25.316 112.921 25.652 112.381 25.892C111.841 26.12 111.253 26.234 110.617 26.234C109.981 26.234 109.393 26.12 108.853 25.892C108.313 25.652 107.845 25.316 107.449 24.884C107.065 24.452 106.765 23.936 106.549 23.336C106.333 22.736 106.225 22.064 106.225 21.32C106.225 20.588 106.333 19.922 106.549 19.322C106.765 18.71 107.065 18.188 107.449 17.756C107.845 17.324 108.313 16.994 108.853 16.766C109.393 16.526 109.981 16.406 110.617 16.406C111.253 16.406 111.841 16.526 112.381 16.766C112.921 16.994 113.383 17.324 113.767 17.756C114.163 18.188 114.469 18.71 114.685 19.322C114.901 19.922 115.009 20.588 115.009 21.32ZM113.263 21.32C113.263 20.264 113.023 19.43 112.543 18.818C112.075 18.194 111.433 17.882 110.617 17.882C109.801 17.882 109.153 18.194 108.673 18.818C108.205 19.43 107.971 20.264 107.971 21.32C107.971 22.376 108.205 23.216 108.673 23.84C109.153 24.452 109.801 24.758 110.617 24.758C111.433 24.758 112.075 24.452 112.543 23.84C113.023 23.216 113.263 22.376 113.263 21.32ZM117.364 16.91C117.748 16.814 118.258 16.712 118.894 16.604C119.53 16.496 120.262 16.442 121.09 16.442C121.834 16.442 122.452 16.55 122.944 16.766C123.436 16.97 123.826 17.264 124.114 17.648C124.414 18.02 124.624 18.47 124.744 18.998C124.864 19.526 124.924 20.108 124.924 20.744V26H123.25V21.104C123.25 20.528 123.208 20.036 123.124 19.628C123.052 19.22 122.926 18.89 122.746 18.638C122.566 18.386 122.326 18.206 122.026 18.098C121.726 17.978 121.354 17.918 120.91 17.918C120.73 17.918 120.544 17.924 120.352 17.936C120.16 17.948 119.974 17.966 119.794 17.99C119.626 18.002 119.47 18.02 119.326 18.044C119.194 18.068 119.098 18.086 119.038 18.098V26H117.364V16.91Z" fill="#001F29"/>
<rect x="56" y="44" width="225" height="48" rx="10" fill="#FAFAFA"/>
<path d="M77.866 69.878C77.866 70.3447 77.8147 70.7787 77.712 71.18C77.6187 71.5813 77.446 71.936 77.194 72.244C76.9513 72.5427 76.62 72.7807 76.2 72.958C75.7893 73.126 75.2713 73.21 74.646 73.21C74.3287 73.21 74.0347 73.182 73.764 73.126C73.5027 73.0793 73.2647 73.0187 73.05 72.944C72.8353 72.86 72.6487 72.776 72.49 72.692C72.3313 72.5987 72.2053 72.51 72.112 72.426L72.644 71.348C72.84 71.488 73.092 71.6373 73.4 71.796C73.7173 71.9453 74.1093 72.02 74.576 72.02C75.248 72.02 75.738 71.852 76.046 71.516C76.354 71.1707 76.508 70.5827 76.508 69.752V63.298H77.866V69.878ZM82.584 72.062C82.892 72.062 83.1627 72.0573 83.396 72.048C83.6387 72.0293 83.8393 72.0013 83.998 71.964V69.794C83.9047 69.7473 83.7507 69.71 83.536 69.682C83.3307 69.6447 83.0787 69.626 82.78 69.626C82.584 69.626 82.374 69.64 82.15 69.668C81.9353 69.696 81.7347 69.7567 81.548 69.85C81.3707 69.934 81.2213 70.0553 81.1 70.214C80.9787 70.3633 80.918 70.564 80.918 70.816C80.918 71.2827 81.0673 71.6093 81.366 71.796C81.6647 71.9733 82.0707 72.062 82.584 72.062ZM82.472 65.538C82.9947 65.538 83.4333 65.608 83.788 65.748C84.152 65.8787 84.4413 66.07 84.656 66.322C84.88 66.5647 85.0387 66.8587 85.132 67.204C85.2253 67.54 85.272 67.9133 85.272 68.324V72.874C85.16 72.8927 85.0013 72.9207 84.796 72.958C84.6 72.986 84.376 73.014 84.124 73.042C83.872 73.07 83.5967 73.0933 83.298 73.112C83.0087 73.14 82.7193 73.154 82.43 73.154C82.0193 73.154 81.6413 73.112 81.296 73.028C80.9507 72.944 80.652 72.8133 80.4 72.636C80.148 72.4493 79.952 72.2067 79.812 71.908C79.672 71.6093 79.602 71.25 79.602 70.83C79.602 70.4287 79.6813 70.0833 79.84 69.794C80.008 69.5047 80.232 69.2713 80.512 69.094C80.792 68.9167 81.1187 68.786 81.492 68.702C81.8653 68.618 82.2573 68.576 82.668 68.576C82.7987 68.576 82.934 68.5853 83.074 68.604C83.214 68.6133 83.3447 68.632 83.466 68.66C83.5967 68.6787 83.7087 68.6973 83.802 68.716C83.8953 68.7347 83.9607 68.7487 83.998 68.758V68.394C83.998 68.1793 83.9747 67.9693 83.928 67.764C83.8813 67.5493 83.7973 67.3627 83.676 67.204C83.5547 67.036 83.3867 66.9053 83.172 66.812C82.9667 66.7093 82.696 66.658 82.36 66.658C81.9307 66.658 81.5527 66.6907 81.226 66.756C80.9087 66.812 80.6707 66.8727 80.512 66.938L80.358 65.86C80.526 65.7853 80.806 65.7153 81.198 65.65C81.59 65.5753 82.0147 65.538 82.472 65.538ZM90.0665 68.996C90.3465 69.2107 90.6405 69.4767 90.9485 69.794C91.2658 70.1113 91.5738 70.4567 91.8725 70.83C92.1805 71.194 92.4698 71.5673 92.7405 71.95C93.0111 72.3233 93.2398 72.6733 93.4265 73H91.9005C91.7045 72.6733 91.4758 72.342 91.2145 72.006C90.9625 71.6607 90.6965 71.334 90.4165 71.026C90.1365 70.7087 89.8518 70.4193 89.5625 70.158C89.2731 69.8967 88.9978 69.6773 88.7365 69.5V73H87.4345V62.36L88.7365 62.136V68.772C88.9605 68.548 89.2078 68.3007 89.4785 68.03C89.7491 67.7593 90.0151 67.484 90.2765 67.204C90.5378 66.924 90.7851 66.658 91.0185 66.406C91.2518 66.1447 91.4525 65.916 91.6205 65.72H93.1465C92.9318 65.9533 92.6985 66.21 92.4465 66.49C92.1945 66.77 91.9331 67.0547 91.6625 67.344C91.3918 67.624 91.1165 67.9087 90.8365 68.198C90.5658 68.478 90.3091 68.744 90.0665 68.996ZM97.2129 72.062C97.5209 72.062 97.7916 72.0573 98.0249 72.048C98.2676 72.0293 98.4682 72.0013 98.6269 71.964V69.794C98.5336 69.7473 98.3796 69.71 98.1649 69.682C97.9596 69.6447 97.7076 69.626 97.4089 69.626C97.2129 69.626 97.0029 69.64 96.7789 69.668C96.5642 69.696 96.3636 69.7567 96.1769 69.85C95.9996 69.934 95.8502 70.0553 95.7289 70.214C95.6076 70.3633 95.5469 70.564 95.5469 70.816C95.5469 71.2827 95.6962 71.6093 95.9949 71.796C96.2936 71.9733 96.6996 72.062 97.2129 72.062ZM97.1009 65.538C97.6236 65.538 98.0622 65.608 98.4169 65.748C98.7809 65.8787 99.0702 66.07 99.2849 66.322C99.5089 66.5647 99.6676 66.8587 99.7609 67.204C99.8542 67.54 99.9009 67.9133 99.9009 68.324V72.874C99.7889 72.8927 99.6302 72.9207 99.4249 72.958C99.2289 72.986 99.0049 73.014 98.7529 73.042C98.5009 73.07 98.2256 73.0933 97.9269 73.112C97.6376 73.14 97.3482 73.154 97.0589 73.154C96.6482 73.154 96.2702 73.112 95.9249 73.028C95.5796 72.944 95.2809 72.8133 95.0289 72.636C94.7769 72.4493 94.5809 72.2067 94.4409 71.908C94.3009 71.6093 94.2309 71.25 94.2309 70.83C94.2309 70.4287 94.3102 70.0833 94.4689 69.794C94.6369 69.5047 94.8609 69.2713 95.1409 69.094C95.4209 68.9167 95.7476 68.786 96.1209 68.702C96.4942 68.618 96.8862 68.576 97.2969 68.576C97.4276 68.576 97.5629 68.5853 97.7029 68.604C97.8429 68.6133 97.9736 68.632 98.0949 68.66C98.2256 68.6787 98.3376 68.6973 98.4309 68.716C98.5242 68.7347 98.5896 68.7487 98.6269 68.758V68.394C98.6269 68.1793 98.6036 67.9693 98.5569 67.764C98.5102 67.5493 98.4262 67.3627 98.3049 67.204C98.1836 67.036 98.0156 66.9053 97.8009 66.812C97.5956 66.7093 97.3249 66.658 96.9889 66.658C96.5596 66.658 96.1816 66.6907 95.8549 66.756C95.5376 66.812 95.2996 66.8727 95.1409 66.938L94.9869 65.86C95.1549 65.7853 95.4349 65.7153 95.8269 65.65C96.2189 65.5753 96.6436 65.538 97.1009 65.538ZM104.751 65.566C104.863 65.566 104.989 65.5753 105.129 65.594C105.279 65.6033 105.423 65.622 105.563 65.65C105.703 65.6687 105.829 65.692 105.941 65.72C106.063 65.7387 106.151 65.7573 106.207 65.776L105.983 66.91C105.881 66.8727 105.708 66.8307 105.465 66.784C105.232 66.728 104.929 66.7 104.555 66.7C104.313 66.7 104.07 66.728 103.827 66.784C103.594 66.8307 103.44 66.8633 103.365 66.882V73H102.063V66.028C102.371 65.916 102.754 65.8133 103.211 65.72C103.669 65.6173 104.182 65.566 104.751 65.566ZM108.682 65.72H111.44V66.812H108.682V70.172C108.682 70.536 108.71 70.8393 108.766 71.082C108.822 71.3153 108.906 71.502 109.018 71.642C109.13 71.7727 109.27 71.866 109.438 71.922C109.606 71.978 109.802 72.006 110.026 72.006C110.418 72.006 110.73 71.964 110.964 71.88C111.206 71.7867 111.374 71.7213 111.468 71.684L111.72 72.762C111.589 72.8273 111.36 72.9067 111.034 73C110.707 73.1027 110.334 73.154 109.914 73.154C109.419 73.154 109.008 73.0933 108.682 72.972C108.364 72.8413 108.108 72.65 107.912 72.398C107.716 72.146 107.576 71.838 107.492 71.474C107.417 71.1007 107.38 70.6713 107.38 70.186V63.69L108.682 63.466V65.72ZM115.561 72.062C115.869 72.062 116.139 72.0573 116.373 72.048C116.615 72.0293 116.816 72.0013 116.975 71.964V69.794C116.881 69.7473 116.727 69.71 116.513 69.682C116.307 69.6447 116.055 69.626 115.757 69.626C115.561 69.626 115.351 69.64 115.127 69.668C114.912 69.696 114.711 69.7567 114.525 69.85C114.347 69.934 114.198 70.0553 114.077 70.214C113.955 70.3633 113.895 70.564 113.895 70.816C113.895 71.2827 114.044 71.6093 114.343 71.796C114.641 71.9733 115.047 72.062 115.561 72.062ZM115.449 65.538C115.971 65.538 116.41 65.608 116.765 65.748C117.129 65.8787 117.418 66.07 117.633 66.322C117.857 66.5647 118.015 66.8587 118.109 67.204C118.202 67.54 118.249 67.9133 118.249 68.324V72.874C118.137 72.8927 117.978 72.9207 117.773 72.958C117.577 72.986 117.353 73.014 117.101 73.042C116.849 73.07 116.573 73.0933 116.275 73.112C115.985 73.14 115.696 73.154 115.407 73.154C114.996 73.154 114.618 73.112 114.273 73.028C113.927 72.944 113.629 72.8133 113.377 72.636C113.125 72.4493 112.929 72.2067 112.789 71.908C112.649 71.6093 112.579 71.25 112.579 70.83C112.579 70.4287 112.658 70.0833 112.817 69.794C112.985 69.5047 113.209 69.2713 113.489 69.094C113.769 68.9167 114.095 68.786 114.469 68.702C114.842 68.618 115.234 68.576 115.645 68.576C115.775 68.576 115.911 68.5853 116.051 68.604C116.191 68.6133 116.321 68.632 116.443 68.66C116.573 68.6787 116.685 68.6973 116.779 68.716C116.872 68.7347 116.937 68.7487 116.975 68.758V68.394C116.975 68.1793 116.951 67.9693 116.905 67.764C116.858 67.5493 116.774 67.3627 116.653 67.204C116.531 67.036 116.363 66.9053 116.149 66.812C115.943 66.7093 115.673 66.658 115.337 66.658C114.907 66.658 114.529 66.6907 114.203 66.756C113.885 66.812 113.647 66.8727 113.489 66.938L113.335 65.86C113.503 65.7853 113.783 65.7153 114.175 65.65C114.567 65.5753 114.991 65.538 115.449 65.538ZM121.783 71.404C121.792 71.4787 121.797 71.5533 121.797 71.628C121.797 71.6933 121.797 71.7633 121.797 71.838C121.797 72.426 121.708 73.0047 121.531 73.574C121.363 74.1527 121.13 74.7033 120.831 75.226L119.823 74.904C120.056 74.428 120.21 73.9427 120.285 73.448C120.36 72.9627 120.397 72.5053 120.397 72.076C120.397 71.9547 120.392 71.838 120.383 71.726C120.383 71.614 120.378 71.5067 120.369 71.404H121.783ZM127.181 63.298H128.539V73H127.181V63.298ZM130.856 65.93C131.155 65.8553 131.552 65.776 132.046 65.692C132.541 65.608 133.11 65.566 133.754 65.566C134.333 65.566 134.814 65.65 135.196 65.818C135.579 65.9767 135.882 66.2053 136.106 66.504C136.34 66.7933 136.503 67.1433 136.596 67.554C136.69 67.9647 136.736 68.4173 136.736 68.912V73H135.434V69.192C135.434 68.744 135.402 68.3613 135.336 68.044C135.28 67.7267 135.182 67.47 135.042 67.274C134.902 67.078 134.716 66.938 134.482 66.854C134.249 66.7607 133.96 66.714 133.614 66.714C133.474 66.714 133.33 66.7187 133.18 66.728C133.031 66.7373 132.886 66.7513 132.746 66.77C132.616 66.7793 132.494 66.7933 132.382 66.812C132.28 66.8307 132.205 66.8447 132.158 66.854V73H130.856V65.93ZM143.599 67.26C143.441 67.1293 143.212 67.0033 142.913 66.882C142.615 66.7607 142.288 66.7 141.933 66.7C141.56 66.7 141.238 66.77 140.967 66.91C140.706 67.0407 140.491 67.2273 140.323 67.47C140.155 67.7033 140.034 67.9833 139.959 68.31C139.885 68.6367 139.847 68.9867 139.847 69.36C139.847 70.2093 140.057 70.8673 140.477 71.334C140.897 71.7913 141.457 72.02 142.157 72.02C142.512 72.02 142.806 72.006 143.039 71.978C143.282 71.9407 143.469 71.9033 143.599 71.866V67.26ZM143.599 62.36L144.901 62.136V72.79C144.603 72.874 144.22 72.958 143.753 73.042C143.287 73.126 142.75 73.168 142.143 73.168C141.583 73.168 141.079 73.0793 140.631 72.902C140.183 72.7247 139.801 72.4727 139.483 72.146C139.166 71.8193 138.919 71.4227 138.741 70.956C138.573 70.48 138.489 69.948 138.489 69.36C138.489 68.8 138.559 68.2867 138.699 67.82C138.849 67.3533 139.063 66.952 139.343 66.616C139.623 66.28 139.964 66.0187 140.365 65.832C140.776 65.6453 141.243 65.552 141.765 65.552C142.185 65.552 142.554 65.608 142.871 65.72C143.198 65.832 143.441 65.9393 143.599 66.042V62.36ZM153.566 69.36C153.566 69.9387 153.482 70.4613 153.314 70.928C153.146 71.3947 152.908 71.796 152.6 72.132C152.301 72.468 151.942 72.7293 151.522 72.916C151.102 73.0933 150.644 73.182 150.15 73.182C149.655 73.182 149.198 73.0933 148.778 72.916C148.358 72.7293 147.994 72.468 147.686 72.132C147.387 71.796 147.154 71.3947 146.986 70.928C146.818 70.4613 146.734 69.9387 146.734 69.36C146.734 68.7907 146.818 68.2727 146.986 67.806C147.154 67.33 147.387 66.924 147.686 66.588C147.994 66.252 148.358 65.9953 148.778 65.818C149.198 65.6313 149.655 65.538 150.15 65.538C150.644 65.538 151.102 65.6313 151.522 65.818C151.942 65.9953 152.301 66.252 152.6 66.588C152.908 66.924 153.146 67.33 153.314 67.806C153.482 68.2727 153.566 68.7907 153.566 69.36ZM152.208 69.36C152.208 68.5387 152.021 67.89 151.648 67.414C151.284 66.9287 150.784 66.686 150.15 66.686C149.515 66.686 149.011 66.9287 148.638 67.414C148.274 67.89 148.092 68.5387 148.092 69.36C148.092 70.1813 148.274 70.8347 148.638 71.32C149.011 71.796 149.515 72.034 150.15 72.034C150.784 72.034 151.284 71.796 151.648 71.32C152.021 70.8347 152.208 70.1813 152.208 69.36ZM155.397 65.93C155.696 65.8553 156.093 65.776 156.587 65.692C157.082 65.608 157.651 65.566 158.295 65.566C158.874 65.566 159.355 65.65 159.737 65.818C160.12 65.9767 160.423 66.2053 160.647 66.504C160.881 66.7933 161.044 67.1433 161.137 67.554C161.231 67.9647 161.277 68.4173 161.277 68.912V73H159.975V69.192C159.975 68.744 159.943 68.3613 159.877 68.044C159.821 67.7267 159.723 67.47 159.583 67.274C159.443 67.078 159.257 66.938 159.023 66.854C158.79 66.7607 158.501 66.714 158.155 66.714C158.015 66.714 157.871 66.7187 157.721 66.728C157.572 66.7373 157.427 66.7513 157.287 66.77C157.157 66.7793 157.035 66.7933 156.923 66.812C156.821 66.8307 156.746 66.8447 156.699 66.854V73H155.397V65.93ZM163.03 69.374C163.03 68.73 163.124 68.17 163.31 67.694C163.497 67.2087 163.744 66.8073 164.052 66.49C164.36 66.1727 164.715 65.9347 165.116 65.776C165.518 65.6173 165.928 65.538 166.348 65.538C167.328 65.538 168.08 65.846 168.602 66.462C169.125 67.0687 169.386 67.9973 169.386 69.248C169.386 69.304 169.386 69.3787 169.386 69.472C169.386 69.556 169.382 69.6353 169.372 69.71H164.388C164.444 70.466 164.664 71.04 165.046 71.432C165.429 71.824 166.026 72.02 166.838 72.02C167.296 72.02 167.678 71.9827 167.986 71.908C168.304 71.824 168.542 71.7447 168.7 71.67L168.882 72.762C168.724 72.846 168.444 72.9347 168.042 73.028C167.65 73.1213 167.202 73.168 166.698 73.168C166.064 73.168 165.513 73.0747 165.046 72.888C164.589 72.692 164.211 72.426 163.912 72.09C163.614 71.754 163.39 71.3573 163.24 70.9C163.1 70.4333 163.03 69.9247 163.03 69.374ZM168.028 68.66C168.038 68.072 167.888 67.5913 167.58 67.218C167.282 66.8353 166.866 66.644 166.334 66.644C166.036 66.644 165.77 66.7047 165.536 66.826C165.312 66.938 165.121 67.0873 164.962 67.274C164.804 67.4607 164.678 67.6753 164.584 67.918C164.5 68.1607 164.444 68.408 164.416 68.66H168.028ZM172.951 72.062C173.483 72.062 173.875 71.992 174.127 71.852C174.388 71.712 174.519 71.488 174.519 71.18C174.519 70.8627 174.393 70.6107 174.141 70.424C173.889 70.2373 173.473 70.0273 172.895 69.794C172.615 69.682 172.344 69.57 172.083 69.458C171.831 69.3367 171.611 69.1967 171.425 69.038C171.238 68.8793 171.089 68.688 170.977 68.464C170.865 68.24 170.809 67.9647 170.809 67.638C170.809 66.994 171.047 66.4853 171.523 66.112C171.999 65.7293 172.647 65.538 173.469 65.538C173.674 65.538 173.879 65.552 174.085 65.58C174.29 65.5987 174.481 65.6267 174.659 65.664C174.836 65.692 174.99 65.7247 175.121 65.762C175.261 65.7993 175.368 65.832 175.443 65.86L175.205 66.98C175.065 66.9053 174.845 66.8307 174.547 66.756C174.248 66.672 173.889 66.63 173.469 66.63C173.105 66.63 172.787 66.7047 172.517 66.854C172.246 66.994 172.111 67.218 172.111 67.526C172.111 67.6847 172.139 67.8247 172.195 67.946C172.26 68.0673 172.353 68.1793 172.475 68.282C172.605 68.3753 172.764 68.464 172.951 68.548C173.137 68.632 173.361 68.7207 173.623 68.814C173.968 68.9447 174.276 69.0753 174.547 69.206C174.817 69.3273 175.046 69.472 175.233 69.64C175.429 69.808 175.578 70.0133 175.681 70.256C175.783 70.4893 175.835 70.7787 175.835 71.124C175.835 71.796 175.583 72.3047 175.079 72.65C174.584 72.9953 173.875 73.168 172.951 73.168C172.307 73.168 171.803 73.112 171.439 73C171.075 72.8973 170.827 72.818 170.697 72.762L170.935 71.642C171.084 71.698 171.322 71.782 171.649 71.894C171.975 72.006 172.409 72.062 172.951 72.062ZM178.807 73H177.505V65.72H178.807V73ZM178.149 64.404C177.915 64.404 177.715 64.3293 177.547 64.18C177.388 64.0213 177.309 63.8113 177.309 63.55C177.309 63.2887 177.388 63.0833 177.547 62.934C177.715 62.7753 177.915 62.696 178.149 62.696C178.382 62.696 178.578 62.7753 178.737 62.934C178.905 63.0833 178.989 63.2887 178.989 63.55C178.989 63.8113 178.905 64.0213 178.737 64.18C178.578 64.3293 178.382 64.404 178.149 64.404ZM183.51 72.062C183.818 72.062 184.088 72.0573 184.322 72.048C184.564 72.0293 184.765 72.0013 184.924 71.964V69.794C184.83 69.7473 184.676 69.71 184.462 69.682C184.256 69.6447 184.004 69.626 183.706 69.626C183.51 69.626 183.3 69.64 183.076 69.668C182.861 69.696 182.66 69.7567 182.474 69.85C182.296 69.934 182.147 70.0553 182.026 70.214C181.904 70.3633 181.844 70.564 181.844 70.816C181.844 71.2827 181.993 71.6093 182.292 71.796C182.59 71.9733 182.996 72.062 183.51 72.062ZM183.398 65.538C183.92 65.538 184.359 65.608 184.714 65.748C185.078 65.8787 185.367 66.07 185.582 66.322C185.806 66.5647 185.964 66.8587 186.058 67.204C186.151 67.54 186.198 67.9133 186.198 68.324V72.874C186.086 72.8927 185.927 72.9207 185.722 72.958C185.526 72.986 185.302 73.014 185.05 73.042C184.798 73.07 184.522 73.0933 184.224 73.112C183.934 73.14 183.645 73.154 183.356 73.154C182.945 73.154 182.567 73.112 182.222 73.028C181.876 72.944 181.578 72.8133 181.326 72.636C181.074 72.4493 180.878 72.2067 180.738 71.908C180.598 71.6093 180.528 71.25 180.528 70.83C180.528 70.4287 180.607 70.0833 180.766 69.794C180.934 69.5047 181.158 69.2713 181.438 69.094C181.718 68.9167 182.044 68.786 182.418 68.702C182.791 68.618 183.183 68.576 183.594 68.576C183.724 68.576 183.86 68.5853 184 68.604C184.14 68.6133 184.27 68.632 184.392 68.66C184.522 68.6787 184.634 68.6973 184.728 68.716C184.821 68.7347 184.886 68.7487 184.924 68.758V68.394C184.924 68.1793 184.9 67.9693 184.854 67.764C184.807 67.5493 184.723 67.3627 184.602 67.204C184.48 67.036 184.312 66.9053 184.098 66.812C183.892 66.7093 183.622 66.658 183.286 66.658C182.856 66.658 182.478 66.6907 182.152 66.756C181.834 66.812 181.596 66.8727 181.438 66.938L181.284 65.86C181.452 65.7853 181.732 65.7153 182.124 65.65C182.516 65.5753 182.94 65.538 183.398 65.538Z" fill="#ABADAD"/>
</svg>
